<svg width="24" height="24" viewBox="0 0 24 24" fill="none" xmlns="http://www.w3.org/2000/svg">
<g clip-path="url(#clip0_403_796)">
<path d="M22.9421 6.83656L20.7601 4.65356L21.7071 3.70656C21.8026 3.61431 21.8788 3.50397 21.9312 3.38197C21.9836 3.25996 22.0112 3.12874 22.0124 2.99596C22.0135 2.86318 21.9882 2.7315 21.9379 2.60861C21.8876 2.48571 21.8134 2.37406 21.7195 2.28017C21.6256 2.18627 21.514 2.11202 21.3911 2.06174C21.2682 2.01146 21.1365 1.98616 21.0037 1.98731C20.8709 1.98846 20.7397 2.01605 20.6177 2.06846C20.4957 2.12087 20.3853 2.19705 20.2931 2.29256L19.3461 3.23956L17.1631 1.05756C16.475 0.401884 15.561 0.0361328 14.6106 0.0361328C13.6602 0.0361328 12.7462 0.401884 12.0581 1.05756C11.7227 1.39273 11.4566 1.79071 11.275 2.22877C11.0934 2.66683 11 3.13637 11 3.61056C11 4.08475 11.0934 4.5543 11.275 4.99235C11.4566 5.43041 11.7227 5.8284 12.0581 6.16356L14.2401 8.34556L8.3461 14.2396L6.1631 12.0576C5.47504 11.4019 4.56105 11.0361 3.6106 11.0361C2.66016 11.0361 1.74617 11.4019 1.0581 12.0576C0.722662 12.3927 0.456559 12.7907 0.275003 13.2288C0.0934482 13.6668 0 14.1364 0 14.6106C0 15.0848 0.0934482 15.5543 0.275003 15.9924C0.456559 16.4304 0.722662 16.8284 1.0581 17.1636L3.2401 19.3456L2.2931 20.2926C2.19759 20.3848 2.12141 20.4952 2.069 20.6172C2.01659 20.7392 1.98901 20.8704 1.98785 21.0032C1.9867 21.1359 2.012 21.2676 2.06228 21.3905C2.11256 21.5134 2.18682 21.6251 2.28071 21.719C2.3746 21.8128 2.48625 21.8871 2.60915 21.9374C2.73205 21.9877 2.86373 22.013 2.99651 22.0118C3.12928 22.0107 3.2605 21.9831 3.38251 21.9307C3.50451 21.8783 3.61486 21.8021 3.7071 21.7066L4.6541 20.7596L6.8371 22.9416C7.17225 23.2769 7.57017 23.5428 8.00814 23.7243C8.4461 23.9058 8.91553 23.9992 9.3896 23.9992C9.86368 23.9992 10.3331 23.9058 10.7711 23.7243C11.209 23.5428 11.607 23.2769 11.9421 22.9416C12.2775 22.6065 12.5436 22.2086 12.7251 21.7706C12.9067 21.3326 13.0001 20.8632 13.0001 20.3891C13.0001 19.915 12.9067 19.4455 12.7251 19.0075C12.5436 18.5695 12.2775 18.1716 11.9421 17.8366L9.7601 15.6546L15.6601 9.75956L17.8421 11.9416C18.1772 12.2769 18.5752 12.5428 19.0131 12.7243C19.4511 12.9058 19.9205 12.9992 20.3946 12.9992C20.8687 12.9992 21.3381 12.9058 21.7761 12.7243C22.214 12.5428 22.612 12.2769 22.9471 11.9416C23.2825 11.6065 23.5486 11.2086 23.7301 10.7706C23.9117 10.3326 24.0051 9.86317 24.0051 9.38906C24.0051 8.91495 23.9117 8.44549 23.7301 8.00752C23.5486 7.56954 23.2825 7.17164 22.9471 6.83656H22.9421ZM11.0001 20.3896C11.0005 20.601 10.959 20.8105 10.878 21.0058C10.797 21.2011 10.6781 21.3785 10.5281 21.5276C10.2216 21.8208 9.81378 21.9844 9.3896 21.9844C8.96543 21.9844 8.55761 21.8208 8.2511 21.5276L2.4721 15.7486C2.17015 15.4466 2.00052 15.0371 2.00052 14.6101C2.00052 14.183 2.17015 13.7735 2.4721 13.4716C2.77405 13.1696 3.18358 13 3.6106 13C4.03762 13 4.44715 13.1696 4.7491 13.4716L10.5281 19.2506C10.6782 19.3998 10.7972 19.5773 10.8782 19.7728C10.9592 19.9683 11.0007 20.1779 11.0001 20.3896ZM21.5281 10.5276C21.2216 10.8208 20.8138 10.9844 20.3896 10.9844C19.9654 10.9844 19.5576 10.8208 19.2511 10.5276L13.4721 4.74856C13.3226 4.59905 13.204 4.42156 13.1231 4.22621C13.0422 4.03087 13.0005 3.8215 13.0005 3.61006C13.0005 3.18304 13.1702 2.77351 13.4721 2.47156C13.7741 2.16961 14.1836 1.99998 14.6106 1.99998C15.0376 1.99998 15.4472 2.16961 15.7491 2.47156L21.5281 8.25056C21.6777 8.4 21.7965 8.57747 21.8774 8.77282C21.9584 8.96818 22.0001 9.17758 22.0001 9.38906C22.0001 9.60054 21.9584 9.80995 21.8774 10.0053C21.7965 10.2007 21.6777 10.3781 21.5281 10.5276Z" fill="#008755"/>
</g>
<defs>
<clipPath id="clip0_403_796">
<rect width="24" height="24" fill="white"/>
</clipPath>
</defs>
</svg>
