<svg width="24" height="24" viewBox="0 0 24 24" fill="none" xmlns="http://www.w3.org/2000/svg">
<g clip-path="url(#clip0_403_798)">
<path d="M21.5 15H11.5C10.122 15 9 16.121 9 17.5V19.5C9 20.879 10.122 22 11.5 22H21.5C22.879 22 24 20.879 24 19.5V17.5C24 16.121 22.879 15 21.5 15ZM14 21H11.5C10.673 21 10 20.327 10 19.5V17.5C10 16.673 10.673 16 11.5 16H14V21ZM23 19.5C23 20.327 22.327 21 21.5 21H15V16H21.5C22.327 16 23 16.673 23 17.5V19.5ZM21.5 2H11.5C10.122 2 9 3.121 9 4.5V6.5C9 7.879 10.122 9 11.5 9H21.5C22.879 9 24 7.879 24 6.5V4.5C24 3.121 22.879 2 21.5 2ZM18 8H11.5C10.673 8 10 7.327 10 6.5V4.5C10 3.673 10.673 3 11.5 3H18V8ZM23 6.5C23 7.327 22.327 8 21.5 8H19V3H21.5C22.327 3 23 3.673 23 4.5V6.5ZM4 6C5.654 6 7 4.654 7 3C7 1.346 5.654 0 4 0C2.346 0 1 1.346 1 3C1 4.654 2.346 6 4 6ZM4 1C5.103 1 6 1.897 6 3C6 4.103 5.103 5 4 5C2.897 5 2 4.103 2 3C2 1.897 2.897 1 4 1ZM8 9.5V11H7V9.5C7 8.673 6.327 8 5.5 8H2.5C1.673 8 1 8.673 1 9.5V11H0V9.5C0 8.121 1.122 7 2.5 7H5.5C6.878 7 8 8.121 8 9.5ZM7 16C7 14.346 5.654 13 4 13C2.346 13 1 14.346 1 16C1 17.654 2.346 19 4 19C5.654 19 7 17.654 7 16ZM2 16C2 14.897 2.897 14 4 14C5.103 14 6 14.897 6 16C6 17.103 5.103 18 4 18C2.897 18 2 17.103 2 16ZM8 22.5V24H7V22.5C7 21.673 6.327 21 5.5 21H2.5C1.673 21 1 21.673 1 22.5V24H0V22.5C0 21.121 1.122 20 2.5 20H5.5C6.878 20 8 21.121 8 22.5Z" fill="#008755" stroke="#008755" stroke-width="0.3"/>
</g>
<defs>
<clipPath id="clip0_403_798">
<rect width="24" height="24" fill="white"/>
</clipPath>
</defs>
</svg>
