<svg width="16" height="16" viewBox="0 0 16 16" fill="none" xmlns="http://www.w3.org/2000/svg">
<g clip-path="url(#clip0_156_16064)">
<path d="M6.33351 4.66667H13.6668C14.9535 4.66667 16.0002 3.62 16.0002 2.33333C16.0002 1.04667 14.9535 0 13.6668 0H6.33351C5.04684 0 4.00018 1.04667 4.00018 2.33333C4.00018 3.62 5.04684 4.66667 6.33351 4.66667ZM14.6668 2.33333C14.6668 2.88467 14.2182 3.33333 13.6668 3.33333H9.33351V1.33333H13.6668C14.2182 1.33333 14.6668 1.782 14.6668 2.33333ZM6.33351 1.33333H8.00018V3.33333H6.33351C5.78218 3.33333 5.33351 2.88467 5.33351 2.33333C5.33351 1.782 5.78218 1.33333 6.33351 1.33333ZM8.66684 8.66667H8.51285C8.51551 8.65933 8.51951 8.65133 8.52218 8.64333C8.74418 8.016 8.65485 7.326 8.28151 6.79733C7.92351 6.29067 7.35884 6 6.73218 6H2.60084C1.97484 6 1.40951 6.29067 1.05151 6.79733C0.678178 7.326 0.588178 8.016 0.810845 8.64333C0.813512 8.65067 0.817512 8.65867 0.820178 8.66667H0.666178C0.298178 8.66667 -0.000488281 8.96533 -0.000488281 9.33333C-0.000488281 9.70133 0.298178 10 0.666178 10H1.46084C2.09484 11.058 2.99751 12.0187 3.99951 12.4627V13.8167C3.99951 14.7053 3.18484 14.6667 3.18484 14.6667H2.66618C2.29818 14.6667 1.99951 14.9653 1.99951 15.3333C1.99951 15.7013 2.29818 16 2.66618 16H6.66618C7.03418 16 7.33284 15.7013 7.33284 15.3333C7.33284 14.9653 7.03418 14.6667 6.66618 14.6667H6.12951C6.04018 14.6673 5.33284 14.65 5.33284 13.8167V12.4627C6.33551 12.0187 7.23751 11.0587 7.87151 10H8.66618C9.03484 10 9.33284 9.70133 9.33284 9.33333C9.33284 8.96533 9.03484 8.66667 8.66618 8.66667H8.66684ZM4.66684 11.304C3.69284 10.9547 2.57818 9.63467 2.06751 8.198C1.98951 7.978 2.01684 7.74267 2.14084 7.56733C2.21618 7.46067 2.35684 7.33333 2.60084 7.33333H6.73284C6.97684 7.33333 7.11751 7.46 7.19284 7.56733C7.31684 7.74267 7.34418 7.978 7.26618 8.198C6.75551 9.63467 5.64084 10.9547 4.66684 11.304ZM13.6668 6H10.6668C10.2982 6 10.0002 6.29867 10.0002 6.66667C10.0002 7.03467 10.2982 7.33333 10.6668 7.33333H11.3335V9.33333C10.9648 9.33333 10.6668 9.632 10.6668 10C10.6668 10.368 10.9648 10.6667 11.3335 10.6667H13.6668C14.9535 10.6667 16.0002 9.62 16.0002 8.33333C16.0002 7.04667 14.9535 6 13.6668 6ZM13.6668 9.33333H12.6668V7.33333H13.6668C14.2182 7.33333 14.6668 7.782 14.6668 8.33333C14.6668 8.88467 14.2182 9.33333 13.6668 9.33333Z" fill="#26D07C"/>
</g>
<defs>
<clipPath id="clip0_156_16064">
<rect width="16" height="16" fill="white"/>
</clipPath>
</defs>
</svg>
