<svg width="34" height="34" viewBox="0 0 34 34" fill="none" xmlns="http://www.w3.org/2000/svg">
<path d="M17 29.75H3.1875C2.60047 29.75 2.125 29.2745 2.125 28.6875V26.5625C2.125 25.9755 2.60047 25.5 3.1875 25.5H17V29.75Z" fill="#C80A50"/>
<path d="M6.97363 25.5C9.31007 28.1068 12.701 29.75 16.4687 29.75V25.5H6.97363Z" fill="#A00028"/>
<path d="M8.5 17H4.25C4.25 9.96944 9.96997 4.25 17 4.25V8.5C12.3133 8.5 8.5 12.3133 8.5 17Z" fill="#FAB400"/>
<path d="M17 29.75C9.96997 29.75 4.25 24.0306 4.25 17H8.5C8.5 21.6867 12.3133 25.5 17 25.5V29.75Z" fill="#00A0C8"/>
<path d="M17 25.5H26.5625V29.75H17V25.5Z" fill="#00A0C8"/>
<path d="M12.5299 5.62381C12.115 6.03872 12.115 6.71128 12.5299 7.12619L14.3325 8.92872C15.1718 8.65087 16.0686 8.5 16.9999 8.5V4.25C15.7429 4.25 14.5285 4.43275 13.3805 4.77328L12.5299 5.62381Z" fill="#DC9600"/>
<path d="M5.62381 21.4699C6.03872 21.8848 6.71128 21.8848 7.12619 21.4699L8.92872 19.6674C8.65087 18.828 8.5 17.9313 8.5 17H4.25C4.25 18.2569 4.43275 19.4714 4.77328 20.6194L5.62381 21.4699Z" fill="#0082AA"/>
<path d="M28.3762 12.5299C27.9613 12.115 27.2887 12.115 26.8738 12.5299L25.0713 14.3325C25.3491 15.1718 25.5 16.0686 25.5 16.9999H29.75C29.75 15.7429 29.5673 14.5285 29.2267 13.3805L28.3762 12.5299Z" fill="#0082AA"/>
<path d="M18.0624 4.29416V3.18757C18.0624 2.75778 17.8036 2.3705 17.4068 2.20582C17.0089 2.0406 16.5531 2.13197 16.2487 2.43638L13.0612 5.62388C12.6463 6.03878 12.6463 6.71135 13.0612 7.12625L16.2487 10.3138C16.4521 10.5172 16.7231 10.6251 16.9999 10.6251C17.1369 10.6251 17.2751 10.5985 17.4068 10.5443C17.8036 10.3796 18.0624 9.99235 18.0624 9.56257V8.56647C22.2497 9.09082 25.4999 12.673 25.4999 17.0001H29.7499C29.7499 10.3276 24.5973 4.83603 18.0624 4.29416Z" fill="#00A0C8"/>
<path d="M10.5446 16.5937C10.3799 16.1963 9.9926 15.9376 9.56282 15.9376H3.18782C2.75804 15.9376 2.37076 16.1963 2.20607 16.5937C2.04138 16.9905 2.13222 17.4474 2.43663 17.7512L5.62413 20.9387C5.83185 21.1465 6.10332 21.2501 6.37532 21.2501C6.64732 21.2501 6.91879 21.1465 7.12651 20.9387L10.314 17.7512C10.6179 17.4474 10.7087 16.9905 10.5446 16.5937Z" fill="#FAB400"/>
<path d="M29.7059 18.0624H30.8125C31.2423 18.0624 31.6296 17.8036 31.7942 17.4063C31.9589 17.0094 31.8681 16.5526 31.5637 16.2487L28.3762 13.0612C27.9613 12.6463 27.2887 12.6463 26.8738 13.0612L23.6863 16.2487C23.3824 16.5526 23.2916 17.0094 23.4558 17.4063C23.6204 17.8036 24.0077 18.0624 24.4375 18.0624H25.4336C24.9093 22.2497 21.327 25.4999 17 25.4999H26.495C28.296 23.4901 29.47 20.9072 29.7059 18.0624Z" fill="#C80A50"/>
<path d="M21.7812 15.9375H21.5082C21.275 15.9375 21.08 15.7824 21.0008 15.563C20.9546 15.4349 20.9031 15.3101 20.8452 15.1884C20.7453 14.9775 20.774 14.7289 20.9387 14.5642L21.1321 14.3708C21.3398 14.1631 21.3398 13.8268 21.1321 13.6197L20.3809 12.8685C20.1732 12.6607 19.8369 12.6607 19.6297 12.8685L19.4363 13.0618C19.2711 13.2271 19.023 13.2552 18.8121 13.1553C18.6904 13.098 18.5651 13.0459 18.4376 12.9997C18.2176 12.9205 18.0625 12.725 18.0625 12.4918V12.2188C18.0625 11.9255 17.8245 11.6875 17.5312 11.6875H16.4688C16.1755 11.6875 15.9375 11.9255 15.9375 12.2188V12.4918C15.9375 12.725 15.7824 12.92 15.563 12.9992C15.4349 13.0454 15.3101 13.0969 15.1884 13.1548C14.9775 13.2547 14.7289 13.226 14.5642 13.0613L14.3708 12.8679C14.1631 12.6602 13.8268 12.6602 13.6197 12.8679L12.8685 13.6191C12.6607 13.8268 12.6607 14.1631 12.8685 14.3703L13.0618 14.5637C13.2271 14.7289 13.2552 14.977 13.1553 15.1879C13.098 15.3096 13.0459 15.4349 12.9997 15.5624C12.9205 15.7824 12.725 15.9375 12.4918 15.9375H12.2188C11.9255 15.9375 11.6875 16.1755 11.6875 16.4688V17.5312C11.6875 17.8245 11.9255 18.0625 12.2188 18.0625H12.4918C12.725 18.0625 12.92 18.2176 12.9992 18.437C13.0454 18.5651 13.0969 18.6899 13.1548 18.8116C13.2547 19.0225 13.226 19.2711 13.0613 19.4358L12.8679 19.6292C12.6602 19.8369 12.6602 20.1732 12.8679 20.3803L13.6191 21.1315C13.8268 21.3393 14.1631 21.3393 14.3703 21.1315L14.5637 20.9382C14.7289 20.7729 14.977 20.7448 15.1879 20.8447C15.3096 20.902 15.4349 20.9541 15.5624 21.0003C15.7824 21.0795 15.9375 21.275 15.9375 21.5082V21.7812C15.9375 22.0745 16.1755 22.3125 16.4688 22.3125H17.5312C17.8245 22.3125 18.0625 22.0745 18.0625 21.7812V21.5082C18.0625 21.275 18.2176 21.08 18.437 21.0008C18.5651 20.9546 18.6899 20.9031 18.8116 20.8452C19.0225 20.7453 19.2711 20.774 19.4358 20.9387L19.6292 21.1321C19.8369 21.3398 20.1732 21.3398 20.3803 21.1321L21.1315 20.3809C21.3393 20.1732 21.3393 19.8369 21.1315 19.6297L20.9382 19.4363C20.7729 19.2711 20.7448 19.023 20.8447 18.8121C20.902 18.6904 20.9541 18.5651 21.0003 18.4376C21.0795 18.2176 21.275 18.0625 21.5082 18.0625H21.7812C22.0745 18.0625 22.3125 17.8245 22.3125 17.5312V16.4688C22.3125 16.1755 22.0745 15.9375 21.7812 15.9375ZM17 19.125C15.8265 19.125 14.875 18.1735 14.875 17C14.875 15.8265 15.8265 14.875 17 14.875C18.1735 14.875 19.125 15.8265 19.125 17C19.125 18.1735 18.1735 19.125 17 19.125Z" fill="#C80A50"/>
<path d="M31.5637 26.8739L28.3762 23.6864C28.0718 23.382 27.616 23.2917 27.2181 23.4558C26.8212 23.6205 26.5625 24.0078 26.5625 24.4376V25.5001H17V29.7501H26.5625V30.8126C26.5625 31.2424 26.8212 31.6296 27.2181 31.7943C27.3498 31.8485 27.4879 31.8751 27.625 31.8751C27.9018 31.8751 28.1727 31.7672 28.3762 31.5638L31.5637 28.3763C31.9786 27.9614 31.9786 27.2888 31.5637 26.8739Z" fill="#00A0C8"/>
</svg>
