<svg width="13" height="9" viewBox="0 0 13 9" fill="none" xmlns="http://www.w3.org/2000/svg">
<path d="M12.8997 1.44095C12.9038 1.25753 12.849 1.0774 12.7427 0.925624C12.6364 0.773844 12.4839 0.657947 12.3065 0.594048C12.1291 0.530149 11.9356 0.521422 11.7529 0.56908C11.5702 0.616738 11.4074 0.718413 11.287 0.85997L6.51462 6.26116L1.74391 0.85997C1.66969 0.762048 1.57545 0.680041 1.46702 0.619084C1.35858 0.558127 1.23831 0.519534 1.11378 0.505721C0.989249 0.491908 0.863148 0.503173 0.743319 0.53881C0.623488 0.574447 0.512504 0.633688 0.417382 0.712825C0.32226 0.791962 0.2451 0.889288 0.190571 0.99871C0.136041 1.10813 0.105413 1.22729 0.100581 1.34873C0.0957479 1.47016 0.116757 1.59125 0.162429 1.70442C0.208101 1.81759 0.277379 1.9204 0.36593 2.00641L5.82295 8.19028C5.90843 8.28739 6.01452 8.36537 6.13408 8.41884C6.25365 8.47231 6.38379 8.5 6.51546 8.5C6.64713 8.5 6.77728 8.47231 6.89684 8.41884C7.01641 8.36537 7.1226 8.28739 7.20808 8.19028L12.6704 2.00641C12.8135 1.85019 12.8946 1.64983 12.8997 1.44095Z" fill="white"/>
</svg>
