<svg width="44" height="45" viewBox="0 0 44 45" fill="none" xmlns="http://www.w3.org/2000/svg">
<rect y="0.453125" width="44" height="44" rx="6" fill="#009B73"/>
<g clip-path="url(#clip0_503_41706)">
<path d="M28.0128 23.5081L26.3487 23.0909L25.2326 22.3471C25.135 22.2819 25.0111 22.2698 24.8983 22.3045C24.8787 22.3108 24.8643 22.3264 24.8459 22.3354L24.5592 21.1885C25.3221 20.4416 25.9291 19.4565 26.119 18.3299C26.7932 18.1432 27.2131 17.4318 27.3346 16.7306C27.3643 16.5381 27.3725 16.3408 27.3311 16.1189C27.2795 15.84 27.1655 15.6837 26.9846 15.549C27.0311 14.5255 27.0334 10.8884 24.8756 9.09067C24.7002 8.94457 24.4307 8.97817 24.3006 9.17388C23.635 10.1715 22.1756 10.1715 20.3283 10.1715C17.5575 10.1715 16.0313 11.6977 16.0313 14.4685V15.5388C15.8376 15.6763 15.7212 15.838 15.6696 16.1193C15.6282 16.3412 15.6364 16.5381 15.6657 16.7302C15.7868 17.4326 16.2055 18.1408 16.8786 18.3287C17.0669 19.4877 17.6837 20.4576 18.4419 21.1854L18.1556 22.3303C18.1399 22.3225 18.1282 22.3085 18.111 22.3026C17.9962 22.2631 17.8688 22.2792 17.7677 22.3471L16.6516 23.0909L14.9876 23.5081C13.0719 23.9878 11.7344 25.7015 11.7344 27.6765V33.6094C11.7344 33.8254 11.909 34 12.125 34C12.341 34 12.5156 33.8254 12.5156 33.6094V31.6563H15.6407V33.6094C15.6407 33.8254 15.8153 34 16.0313 34C16.2473 34 16.4219 33.8254 16.4219 33.6094V29.3125C16.4219 29.0965 16.2473 28.9218 16.0313 28.9218C15.8153 28.9218 15.6407 29.0965 15.6407 29.3125V30.875H14.0782V27.6765C14.0782 26.7788 14.6868 25.9995 15.5575 25.7812L17.9271 25.187C18.7388 25.8581 19.8931 26.5788 21.4056 26.9566C21.4365 26.9648 21.4685 26.9683 21.5002 26.9683C21.5318 26.9683 21.5638 26.9644 21.5947 26.9566C23.1072 26.5784 24.2611 25.8581 25.0733 25.187L27.4432 25.7812C28.3139 25.9995 28.9221 26.7788 28.9221 27.6765V30.875H27.3596V29.3125C27.3596 29.0965 27.185 28.9218 26.969 28.9218C26.753 28.9218 26.5784 29.0965 26.5784 29.3125V33.6094C26.5784 33.8254 26.753 34 26.969 34C27.185 34 27.3596 33.8254 27.3596 33.6094V31.6563H30.4847V33.6094C30.4847 33.8254 30.6593 34 30.8753 34C31.0913 34 31.2659 33.8254 31.2659 33.6094V27.6765C31.2659 25.7015 29.928 23.9878 28.0128 23.5081ZM24.1322 22.7018C24.16 22.8143 24.2072 22.9202 24.2662 23.0186C23.8623 23.412 23.0588 23.9975 21.5002 24.5979C19.9396 23.9968 19.1364 23.4104 18.7333 23.0198C18.7927 22.921 18.8396 22.8147 18.8677 22.7026L19.1083 21.7393C19.9439 22.3405 20.8435 22.6721 21.5002 22.6721C22.2232 22.6721 23.0978 22.3346 23.8951 21.7522L24.1322 22.7018ZM26.535 16.1814C26.5881 16.3091 26.585 16.4736 26.5623 16.6091C26.5151 16.8908 26.3916 17.1896 26.1873 17.397V16.2556C26.2623 16.2181 26.4725 16.1259 26.535 16.1814ZM16.8126 17.3982C16.6075 17.1908 16.4848 16.8927 16.4376 16.6099C16.4145 16.4732 16.4118 16.3103 16.4649 16.181C16.5259 16.1275 16.7294 16.2138 16.8126 16.2552V17.3982ZM16.8126 15.4259V14.4685C16.8126 12.1356 17.9954 10.9528 20.3283 10.9528C22.133 10.9528 23.715 10.9528 24.6658 9.96217C26.1869 11.5513 26.2354 14.4517 26.2053 15.4212C26.042 15.4607 26.1061 15.4486 26.0123 15.4849C25.8506 15.0755 25.583 14.4833 25.292 14.1923C24.7994 13.6997 23.6252 13.5904 21.7502 13.4685C20.497 13.3872 19.0771 13.295 18.5919 12.9716C18.3286 12.7966 17.9845 12.9892 17.9845 13.2966C17.9845 14.3083 17.4181 15.1552 17.1141 15.5373C16.9118 15.4427 16.8821 15.4435 16.8126 15.4259ZM17.5938 16.1818C17.8614 15.8783 18.5353 15.0212 18.7193 13.8732C19.4622 14.1032 20.5564 14.1743 21.699 14.2486C22.847 14.3232 24.4193 14.4251 24.7393 14.7451C24.9658 14.9716 25.2588 15.6705 25.4061 16.0978V17.5939C25.4061 19.9721 23.0006 21.8909 21.4998 21.8909C20.1626 21.8909 17.5935 20.0764 17.5935 17.5939L17.5938 16.1818ZM15.3672 25.0237C14.1481 25.3288 13.2969 26.4198 13.2969 27.6765V30.875H12.5156V27.6765C12.5156 26.0609 13.6102 24.6581 15.1774 24.2659L16.6536 23.8956C16.7778 24.0554 16.9692 24.285 17.2349 24.5558L15.3672 25.0237ZM21.5002 26.1749C19.2892 25.5925 17.904 24.1753 17.3774 23.546L17.8638 23.2221C18.6173 24.203 20.199 24.9452 21.3627 25.3815C21.4513 25.4144 21.549 25.4144 21.6373 25.3815C22.801 24.9452 24.3826 24.2026 25.1361 23.2221L25.6233 23.5468C25.0998 24.1753 23.7201 25.5901 21.5002 26.1749ZM29.7034 30.875V27.6765C29.7034 26.4198 28.8518 25.3288 27.6331 25.0237L25.7651 24.5558C26.0307 24.285 26.2221 24.0554 26.3463 23.8956L27.8225 24.2659C29.3901 24.6581 30.4847 26.0609 30.4847 27.6765V30.875H29.7034Z" fill="#F1EB9C" stroke="#F1EB9C" stroke-width="0.3"/>
<path d="M24.625 28.9219C23.9789 28.9219 23.4531 29.4477 23.4531 30.0938C23.4531 30.7399 23.9789 31.2657 24.625 31.2657C25.2711 31.2657 25.7969 30.7399 25.7969 30.0938C25.7969 29.4477 25.2711 28.9219 24.625 28.9219ZM24.625 30.4844C24.4094 30.4844 24.2344 30.3094 24.2344 30.0938C24.2344 29.8781 24.4094 29.7031 24.625 29.7031C24.8406 29.7031 25.0156 29.8781 25.0156 30.0938C25.0156 30.3094 24.8403 30.4844 24.625 30.4844Z" fill="#F1EB9C"/>
<path d="M22.2813 12.5154C24.0344 12.5154 24.5329 11.6201 24.584 11.5181C24.6786 11.329 24.6028 11.1036 24.4161 11.004C24.2301 10.904 23.995 10.9763 23.8899 11.1595C23.8762 11.1833 23.5465 11.7341 22.2813 11.7341C22.0656 11.7341 21.8906 11.9091 21.8906 12.1248C21.8906 12.3404 22.0652 12.5154 22.2813 12.5154Z" fill="#F1EB9C"/>
</g>
<defs>
<clipPath id="clip0_503_41706">
<rect width="25" height="25" fill="white" transform="translate(9 9)"/>
</clipPath>
</defs>
</svg>
