<svg width="16" height="16" viewBox="0 0 16 16" fill="none" xmlns="http://www.w3.org/2000/svg">
<path d="M10.1465 8.0459L7.31323 10.8792L5.85352 9.41943C5.6582 9.22412 5.3418 9.22412 5.14648 9.41943C4.95117 9.61475 4.95117 9.93115 5.14648 10.1265L6.95972 11.9397C7.05737 12.0374 7.1853 12.0862 7.31323 12.0862C7.44116 12.0862 7.56909 12.0374 7.66675 11.9397L10.8535 8.75293C11.0488 8.55762 11.0488 8.24121 10.8535 8.0459C10.6582 7.85059 10.3418 7.85059 10.1465 8.0459Z" fill="#26D07C"/>
<path d="M12.5 1.97998H11.75V1.5C11.75 1.22388 11.5261 1 11.25 1C10.9739 1 10.75 1.22388 10.75 1.5V1.97998H5.25V1.5C5.25 1.22388 5.02612 1 4.75 1C4.47388 1 4.25 1.22388 4.25 1.5V1.97998H3.5C2.12158 1.97998 1 3.10156 1 4.47998V12.5C1 13.8784 2.12158 15 3.5 15H12.5C13.8784 15 15 13.8784 15 12.5V4.47998C15 3.10156 13.8784 1.97998 12.5 1.97998ZM2 4.47998C2 3.65283 2.67285 2.97998 3.5 2.97998H4.25V3.45972C4.25 3.73584 4.47388 3.95972 4.75 3.95972C5.02612 3.95972 5.25 3.73584 5.25 3.45972V2.97998H10.75V3.45972C10.75 3.73584 10.9739 3.95972 11.25 3.95972C11.5261 3.95972 11.75 3.73584 11.75 3.45972V2.97998H12.5C13.3271 2.97998 14 3.65283 14 4.47998V4.98486H2V4.47998ZM12.5 14H3.5C2.67285 14 2 13.3271 2 12.5V5.98486H14V12.5C14 13.3271 13.3271 14 12.5 14Z" fill="#26D07C"/>
</svg>
