<svg width="16" height="16" viewBox="0 0 16 16" fill="none" xmlns="http://www.w3.org/2000/svg">
<path d="M11.899 6.65853L8.01471 0.554688L4.13041 6.65857C3.41006 7.79051 3.0293 9.0981 3.0293 10.4399C3.0293 13.1888 5.26575 15.4253 8.01471 15.4253C10.7637 15.4253 13.0001 13.1888 13.0001 10.4399C13.0001 9.0981 12.6194 7.79051 11.899 6.65853ZM8.01471 14.1789C5.95299 14.1789 4.27565 12.5016 4.27565 10.4399C4.27565 9.33557 4.58902 8.25939 5.18191 7.32766L8.01471 2.87614L10.8475 7.32762C11.4404 8.25939 11.7538 9.33557 11.7538 10.4399C11.7538 12.5016 10.0764 14.1789 8.01471 14.1789Z" fill="#26D07C"/>
<path d="M8.63724 8.3623H7.39088V9.60866H6.14453V10.855H7.39088V12.1014H8.63724V10.855H9.88359V9.60866H8.63724V8.3623Z" fill="#26D07C"/>
</svg>
