<svg width="18" height="18" viewBox="0 0 18 18" fill="none" xmlns="http://www.w3.org/2000/svg">
<g clip-path="url(#clip0_156_16028)">
<path d="M17.1509 9.59262C16.9271 9.59262 16.7125 9.68151 16.5542 9.83975C16.396 9.99798 16.3071 10.2126 16.3071 10.4364V13.8328C16.3064 14.4888 16.0454 15.1177 15.5816 15.5816C15.1177 16.0454 14.4888 16.3064 13.8328 16.3071H4.16766C3.51166 16.3064 2.88275 16.0454 2.41889 15.5816C1.95503 15.1177 1.6941 14.4888 1.69336 13.8328V4.16766C1.6941 3.51166 1.95503 2.88275 2.41889 2.41889C2.88275 1.95503 3.51166 1.6941 4.16766 1.69336H7.5641C7.78788 1.69336 8.00249 1.60446 8.16072 1.44623C8.31896 1.288 8.40785 1.07339 8.40785 0.849609C8.40785 0.625833 8.31896 0.411222 8.16072 0.252988C8.00249 0.0947542 7.78788 0.00585938 7.5641 0.00585938H4.16766C3.06428 0.00716196 2.00647 0.446054 1.22626 1.22626C0.446054 2.00647 0.00716196 3.06428 0.00585938 4.16766V13.8328C0.00716196 14.9362 0.446054 15.994 1.22626 16.7742C2.00647 17.5544 3.06428 17.9933 4.16766 17.9946H13.8328C14.9362 17.9933 15.994 17.5544 16.7742 16.7742C17.5544 15.994 17.9933 14.9362 17.9946 13.8328V10.4364C17.9946 10.2126 17.9057 9.99798 17.7475 9.83975C17.5892 9.68151 17.3746 9.59262 17.1509 9.59262Z" fill="#26D07C"/>
<path d="M17.1328 7.12885e-08H11.8875C11.6665 -4.22992e-05 11.4544 0.0865808 11.2966 0.241258C11.1388 0.395936 11.048 0.606326 11.0437 0.827227C11.0349 1.30078 11.4332 1.6875 11.9064 1.6875H15.1173L8.3975 8.40938C8.23928 8.56761 8.15039 8.78221 8.15039 9.00598C8.15039 9.22974 8.23928 9.44435 8.3975 9.60258C8.55573 9.7608 8.77033 9.84969 8.9941 9.84969C9.21787 9.84969 9.43247 9.7608 9.5907 9.60258L16.3126 2.88281V6.10523C16.3126 6.32901 16.4015 6.54362 16.5597 6.70186C16.7179 6.86009 16.9326 6.94898 17.1563 6.94898C17.3801 6.94898 17.5947 6.86009 17.7529 6.70186C17.9112 6.54362 18.0001 6.32901 18.0001 6.10523V0.866953C18.0001 0.753074 17.9776 0.64031 17.9341 0.535103C17.8905 0.429897 17.8266 0.334309 17.746 0.2538C17.6655 0.173292 17.5699 0.10944 17.4646 0.065892C17.3594 0.0223442 17.2467 -4.61086e-05 17.1328 7.12885e-08Z" fill="#26D07C"/>
</g>
<defs>
<clipPath id="clip0_156_16028">
<rect width="18" height="18" fill="white"/>
</clipPath>
</defs>
</svg>
