<svg width="26" height="26" viewBox="0 0 26 26" fill="none" xmlns="http://www.w3.org/2000/svg">
<path fill-rule="evenodd" clip-rule="evenodd" d="M24.3688 9.75696V21.9307C24.3688 23.2732 23.2739 24.3681 21.9314 24.3681H4.06926C2.72681 24.368 1.63196 23.2732 1.63196 21.9307V9.76185H7.59827H11.2137H14.4846H17.3497H24.2361C24.281 9.76185 24.3252 9.76012 24.3688 9.75696ZM7.36354 13.3688H8.82605C9.09427 13.3688 9.31355 13.5881 9.31355 13.8563V15.3188C9.31355 15.587 9.09427 15.8063 8.82605 15.8063H7.36354C7.09532 15.8063 6.87605 15.587 6.87605 15.3188V13.8563C6.87605 13.5881 7.09532 13.3688 7.36354 13.3688ZM12.2691 13.3688H13.7316C13.9998 13.3688 14.2191 13.5881 14.2191 13.8563V15.3188C14.2191 15.587 13.9998 15.8063 13.7316 15.8063H12.2691C12.0008 15.8063 11.7816 15.587 11.7816 15.3188V13.8563C11.7816 13.5881 12.0008 13.3688 12.2691 13.3688ZM17.1746 13.3688H18.6371C18.9053 13.3688 19.1246 13.5881 19.1246 13.8563V15.3188C19.1246 15.587 18.9053 15.8063 18.6371 15.8063H17.1746C16.9064 15.8063 16.6871 15.587 16.6871 15.3188V13.8563C16.6871 13.5881 16.9064 13.3688 17.1746 13.3688ZM7.36354 18.3188H8.82605C9.09427 18.3188 9.31355 18.5381 9.31355 18.8063V20.2688C9.31355 20.5371 9.09427 20.7563 8.82605 20.7563H7.36354C7.09532 20.7563 6.87605 20.5371 6.87605 20.2688V18.8063C6.87605 18.5381 7.09532 18.3188 7.36354 18.3188ZM12.2691 18.3188H13.7316C13.9998 18.3188 14.2191 18.5381 14.2191 18.8063V20.2688C14.2191 20.5371 13.9998 20.7563 13.7316 20.7563H12.2691C12.0008 20.7563 11.7816 20.5371 11.7816 20.2688V18.8063C11.7816 18.5381 12.0008 18.3188 12.2691 18.3188ZM17.1746 18.3188H18.6371C18.9053 18.3188 19.1246 18.5381 19.1246 18.8063V20.2688C19.1246 20.5371 18.9053 20.7563 18.6371 20.7563H17.1746C16.9064 20.7563 16.6871 20.5371 16.6871 20.2688V18.8063C16.6871 18.5381 16.9064 18.3188 17.1746 18.3188Z" fill="#E4002B"/>
<path fill-rule="evenodd" clip-rule="evenodd" d="M4.0693 4.85297H21.9313C23.2738 4.85297 24.3687 5.94792 24.3687 7.29037V8.14186C24.3251 8.13869 24.2808 8.13697 24.2359 8.13697H17.3496H14.4845H11.2136H7.59815H1.63184V7.29037C1.63184 5.94792 2.72685 4.85297 4.0693 4.85297Z" fill="#E4002B"/>
<path fill-rule="evenodd" clip-rule="evenodd" d="M6.17261 8.0558V2.85586C6.17261 2.18468 6.72009 1.63721 7.39126 1.63721C8.06244 1.63721 8.60991 2.18564 8.60991 2.85586V8.0558H7.59816H6.17261Z" fill="#E4002B"/>
<path fill-rule="evenodd" clip-rule="evenodd" d="M17.3907 8.0558V2.85586C17.3907 2.18468 17.9382 1.63721 18.6094 1.63721C19.2806 1.63721 19.8281 2.18564 19.8281 2.85586V8.0558H17.3907Z" fill="#E4002B"/>
</svg>
