<svg width="24" height="24" viewBox="0 0 24 24" fill="none" xmlns="http://www.w3.org/2000/svg">
<path d="M18.4167 2.83333H17.5V1.91667C17.5 1.41067 17.0903 1 16.5833 1C16.0764 1 15.6667 1.41067 15.6667 1.91667V2.83333H8.33333V1.91667C8.33333 1.41067 7.92358 1 7.41667 1C6.90975 1 6.5 1.41067 6.5 1.91667V2.83333H5.58333C3.05608 2.83333 1 4.88942 1 7.41667V18.4167C1 20.9439 3.05608 23 5.58333 23H18.4167C20.9439 23 23 20.9439 23 18.4167V7.41667C23 4.88942 20.9439 2.83333 18.4167 2.83333ZM5.58333 4.66667H18.4167C19.9328 4.66667 21.1667 5.9005 21.1667 7.41667V8.33333H2.83333V7.41667C2.83333 5.9005 4.06717 4.66667 5.58333 4.66667ZM18.4167 21.1667H5.58333C4.06717 21.1667 2.83333 19.9328 2.83333 18.4167V10.1667H21.1667V18.4167C21.1667 19.9328 19.9328 21.1667 18.4167 21.1667ZM18.4167 13.8333C18.4167 14.3393 18.0069 14.75 17.5 14.75H6.5C5.99308 14.75 5.58333 14.3393 5.58333 13.8333C5.58333 13.3273 5.99308 12.9167 6.5 12.9167H17.5C18.0069 12.9167 18.4167 13.3273 18.4167 13.8333ZM12 17.5C12 18.006 11.5903 18.4167 11.0833 18.4167H6.5C5.99308 18.4167 5.58333 18.006 5.58333 17.5C5.58333 16.994 5.99308 16.5833 6.5 16.5833H11.0833C11.5903 16.5833 12 16.994 12 17.5Z" fill="#008755" stroke="#EFFAF9" stroke-width="0.4"/>
</svg>
