<svg width="24" height="24" viewBox="0 0 24 24" fill="none" xmlns="http://www.w3.org/2000/svg">
<path d="M2 5.45304V20.9999C2 21.6249 2.21701 22.1544 2.65104 22.5885C3.08507 23.0225 3.6059 23.2395 4.21354 23.2395H19.7865C20.3941 23.2395 20.9149 23.0225 21.349 22.5885C21.783 22.1544 22 21.6249 22 20.9999V5.45304C22 4.8454 21.783 4.32457 21.349 3.89054C20.9149 3.45651 20.3941 3.2395 19.7865 3.2395H17.5469V0.999918H15.3333V3.2395H8.66667V0.999918H6.45312V3.2395H4.21354C3.6059 3.2395 3.08507 3.45651 2.65104 3.89054C2.21701 4.32457 2 4.8454 2 5.45304ZM19.7865 20.9999H4.21354V7.66658H19.7865V20.9999Z" fill="#697A8D"/>
</svg>
