<svg width="18" height="16" viewBox="0 0 18 16" fill="none" xmlns="http://www.w3.org/2000/svg">
<path d="M12.106 8.91217C12.1058 8.34288 11.9369 7.78641 11.6207 7.31312C11.3044 6.83983 10.8549 6.47097 10.3291 6.25318C9.8033 6.03538 9.22473 5.97843 8.66655 6.08953C8.10837 6.20062 7.59566 6.47477 7.19323 6.87732C6.79081 7.27987 6.51673 7.79274 6.40567 8.35108C6.29461 8.90942 6.35154 9.48817 6.56927 10.0141C6.787 10.5401 7.15575 10.9897 7.6289 11.3061C8.10205 11.6224 8.65835 11.7914 9.22747 11.7915C9.99089 11.7915 10.723 11.4882 11.2629 10.9482C11.8027 10.4082 12.106 9.67582 12.106 8.91217Z" stroke="white" stroke-width="1.63" stroke-linecap="round" stroke-linejoin="round"/>
<path d="M9.21251 14.9168C16.1786 14.9168 17.0078 12.9348 17.0078 8.641C17.0078 5.63102 16.5886 4.02057 13.9482 3.32863C13.669 3.24574 13.4176 3.09441 13.2191 2.88979C12.867 2.52375 12.6106 1.39977 11.7607 1.05958C10.0797 0.728186 8.34531 0.728186 6.66432 1.05958C5.82944 1.38412 5.55948 2.52375 5.20596 2.88979C5.00761 3.09458 4.7561 3.24595 4.47678 3.32863C1.83646 4.02125 1.41724 5.6317 1.41724 8.64168C1.41724 12.9355 2.2464 14.9168 9.21251 14.9168Z" stroke="white" stroke-width="1.63" stroke-linecap="round" stroke-linejoin="round"/>
<path d="M12.7837 5.1748H12.7947" stroke="white" stroke-width="2.625" stroke-linecap="round" stroke-linejoin="round"/>
</svg>
