<svg width="16" height="16" viewBox="0 0 16 16" fill="none" xmlns="http://www.w3.org/2000/svg">
<g clip-path="url(#clip0_156_16052)">
<path d="M6.80982 3.23164L5.33516 2.41098V2.00098H7.26782L7.79049 0.000976562H8.22249L8.74516 2.00098H10.6672V2.40831L9.20249 3.25698L9.79182 5.04764L9.45582 5.28031L8.00715 4.16031L6.55182 5.28498L6.23182 5.04364L6.81115 3.23231L6.80982 3.23164ZM4.45716 7.04698L3.86782 5.25631L5.33249 4.40764V4.00031H3.41049L2.88782 2.00031H2.45582L1.93316 4.00031H0.000488281V4.41031L1.47516 5.23098L0.895822 7.04231L1.21582 7.28364L2.67115 6.15898L4.11982 7.27898L4.45582 7.04631L4.45716 7.04698ZM15.9992 4.00031H14.0772L13.5545 2.00031H13.1225L12.5998 4.00031H10.6672V4.41031L12.1418 5.23098L11.5625 7.04231L11.8825 7.28364L13.3378 6.15898L14.7865 7.27898L15.1225 7.04631L14.5332 5.25564L15.9978 4.40698V3.99964L15.9992 4.00031ZM9.99982 12.0003H5.99982C4.89715 12.0003 3.99982 12.8976 3.99982 14.0003V16.0003H5.33316V14.0003C5.33316 13.6323 5.63249 13.3336 5.99982 13.3336H9.99982C10.3672 13.3336 10.6665 13.6323 10.6665 14.0003V16.0003H11.9998V14.0003C11.9998 12.8976 11.1025 12.0003 9.99982 12.0003ZM5.33316 8.66698C5.33316 7.19631 6.52915 6.00031 7.99982 6.00031C9.47049 6.00031 10.6665 7.19631 10.6665 8.66698C10.6665 10.1376 9.47049 11.3336 7.99982 11.3336C6.52915 11.3336 5.33316 10.1376 5.33316 8.66698ZM6.66649 8.66698C6.66649 9.40231 7.26449 10.0003 7.99982 10.0003C8.73516 10.0003 9.33315 9.40231 9.33315 8.66698C9.33315 7.93164 8.73516 7.33364 7.99982 7.33364C7.26449 7.33364 6.66649 7.93164 6.66649 8.66698Z" fill="#26D07C"/>
</g>
<defs>
<clipPath id="clip0_156_16052">
<rect width="16" height="16" fill="white"/>
</clipPath>
</defs>
</svg>
