<svg width="25" height="24" viewBox="0 0 25 24" fill="none" xmlns="http://www.w3.org/2000/svg">
<g clip-path="url(#clip0_1926_30490)">
<path d="M17.9099 3.92878C17.8173 3.64458 17.5715 3.4373 17.2761 3.39441L14.4643 2.98575L13.2064 0.437531C13.0746 0.169687 12.8016 0 12.5026 0C12.2036 0 11.9307 0.169687 11.7988 0.437531L10.5409 2.9858L7.7287 3.39445C7.43324 3.43739 7.18738 3.64462 7.0949 3.92883C7.00242 4.21303 7.07957 4.52508 7.29374 4.73362L9.3291 6.71709L8.84817 9.51759C8.79754 9.81225 8.91871 10.11 9.16049 10.2856C9.40279 10.4619 9.72327 10.4836 9.98751 10.3454L12.5028 9.02311L15.0176 10.3454C15.2879 10.4872 15.6072 10.458 15.8446 10.2856C16.0864 10.11 16.2075 9.8123 16.157 9.51787L15.6765 6.71709L17.7113 4.73362C17.9252 4.52508 18.0019 4.21298 17.9099 3.92878Z" fill="white"/>
<path d="M15.6404 11.9609H9.35957C8.92598 11.9609 8.57446 12.3125 8.57446 12.746V23.9991H16.4255V12.746C16.4255 12.3125 16.0739 11.9609 15.6404 11.9609Z" fill="white"/>
<path d="M1.5085 15.1016C1.0749 15.1016 0.723389 15.4531 0.723389 15.8867V23.3787C0.723389 23.7215 1.00131 23.9994 1.34411 23.9994H7.00422V15.1016H1.5085Z" fill="white"/>
<path d="M23.4913 18.2422H17.9956V23.9996H23.6557C23.9986 23.9996 24.2764 23.7217 24.2764 23.3789V19.0273C24.2764 18.5937 23.9249 18.2422 23.4913 18.2422Z" fill="white"/>
</g>
<defs>
<clipPath id="clip0_1926_30490">
<rect width="24" height="24" fill="white" transform="translate(0.5)"/>
</clipPath>
</defs>
</svg>
