<svg width="22" height="22" viewBox="0 0 22 22" fill="none" xmlns="http://www.w3.org/2000/svg" color="">
<g clip-path="url(#clip0_1_1987)">
<path d="M21.9084 10.4838C21.5482 7.71131 20.1459 5.17996 17.9863 3.40429C15.8268 1.62862 13.0721 0.741892 10.2822 0.924343C7.49235 1.10679 4.87663 2.34473 2.96673 4.38653C1.05683 6.42833 -0.00392355 9.12077 6.78828e-05 11.9166C-0.00521615 13.4131 0.298038 14.8946 0.890898 16.2686C1.48376 17.6426 2.3535 18.8797 3.44582 19.9026C4.28121 20.676 5.38196 21.0987 6.52032 21.0833H15.4734C16.676 21.0861 17.8315 20.6155 18.69 19.7733C19.9135 18.583 20.8417 17.1231 21.4005 15.5101C21.9593 13.8972 22.1332 12.176 21.9084 10.4838ZM17.4085 18.4588C16.8927 18.967 16.1974 19.2513 15.4734 19.2499H6.52032C5.85049 19.2637 5.20077 19.0207 4.7044 18.5707C3.7944 17.7183 3.06982 16.6875 2.57586 15.5427C2.0819 14.3978 1.82916 13.1635 1.8334 11.9166C1.8343 10.6262 2.10728 9.3504 2.63451 8.17257C3.16175 6.99474 3.93139 5.94131 4.89323 5.08102C6.56445 3.57393 8.73685 2.74294 10.9872 2.74993C11.3468 2.75008 11.7061 2.77028 12.0634 2.81043C13.7827 3.01012 15.4103 3.69278 16.7576 4.77936C18.1049 5.86594 19.1168 7.31198 19.6762 8.94998C20.2355 10.588 20.3194 12.3509 19.918 14.0346C19.5167 15.7183 18.6466 17.2539 17.4085 18.4634V18.4588ZM7.15648 15.8445C7.33031 16.0147 7.42942 16.247 7.43199 16.4902C7.43457 16.7335 7.34042 16.9678 7.17023 17.1416C7.00005 17.3154 6.76779 17.4145 6.52454 17.4171C6.28129 17.4197 6.04698 17.3255 5.87315 17.1553C4.8327 16.1362 4.11929 14.8303 3.82386 13.4041C3.52843 11.9779 3.66437 10.4961 4.21434 9.14746C4.76431 7.79883 5.7034 6.64452 6.91191 5.83166C8.12043 5.01879 9.54362 4.5842 11.0001 4.58327C11.3506 4.58316 11.7008 4.60798 12.0478 4.65752C12.167 4.6747 12.2816 4.7152 12.3852 4.7767C12.4887 4.8382 12.5791 4.9195 12.6512 5.01594C12.7233 5.11239 12.7757 5.2221 12.8054 5.33881C12.8351 5.45551 12.8415 5.57692 12.8242 5.6961C12.8084 5.81593 12.7689 5.9314 12.7078 6.03571C12.6467 6.14002 12.5654 6.23107 12.4686 6.30349C12.3719 6.37592 12.2616 6.42826 12.1443 6.45745C12.027 6.48663 11.9051 6.49207 11.7857 6.47343C10.6384 6.30957 9.46876 6.51226 8.44357 7.05259C7.41838 7.59291 6.59005 8.44325 6.0768 9.48226C5.56354 10.5213 5.39159 11.6958 5.58548 12.8384C5.77937 13.9809 6.32919 15.033 7.15648 15.8445ZM18.2592 10.8688C18.3087 11.2159 18.3335 11.566 18.3334 11.9166C18.3364 12.8935 18.1424 13.8609 17.7632 14.7612C17.3839 15.6614 16.8271 16.476 16.1261 17.1563C15.952 17.3264 15.7175 17.4205 15.474 17.4178C15.2306 17.415 14.9983 17.3157 14.8281 17.1416C14.6579 16.9675 14.5638 16.733 14.5666 16.4896C14.5693 16.2461 14.6687 16.0138 14.8427 15.8436C15.4621 15.2399 15.9298 14.4982 16.2077 13.6792C16.4855 12.8601 16.5656 11.9869 16.4414 11.131C16.4066 10.8902 16.469 10.6455 16.6146 10.4506C16.7603 10.2557 16.9775 10.1267 17.2183 10.092C17.4591 10.0572 17.7038 10.1195 17.8987 10.2652C18.0936 10.4109 18.2226 10.628 18.2573 10.8688H18.2592ZM12.7656 11.4473C12.8759 11.844 12.8517 12.266 12.6968 12.6475C12.542 13.029 12.2651 13.3485 11.9095 13.5561C11.5539 13.7636 11.1396 13.8475 10.7312 13.7948C10.3229 13.742 9.94351 13.5555 9.65236 13.2643C9.36122 12.9732 9.17469 12.5938 9.12191 12.1854C9.06913 11.7771 9.15307 11.3628 9.36062 11.0072C9.56817 10.6516 9.88764 10.3747 10.2691 10.2198C10.6507 10.065 11.0727 10.0408 11.4694 10.1511L14.9353 6.68518C15.0199 6.59763 15.121 6.5278 15.2329 6.47976C15.3447 6.43172 15.465 6.40643 15.5867 6.40537C15.7084 6.40431 15.8291 6.42751 15.9418 6.4736C16.0544 6.51969 16.1568 6.58775 16.2428 6.67382C16.3289 6.75989 16.397 6.86224 16.4431 6.97489C16.4892 7.08755 16.5124 7.20825 16.5113 7.32997C16.5102 7.45168 16.485 7.57197 16.4369 7.6838C16.3889 7.79564 16.319 7.89679 16.2315 7.98135L12.7656 11.4473Z" fill="#008755"/>
</g>
<defs>
<clipPath id="clip0_1_1987">
<rect width="22" height="22" fill="white"/>
</clipPath>
</defs>
</svg>
