<svg width="16" height="16" viewBox="0 0 16 16" fill="none" xmlns="http://www.w3.org/2000/svg">
<g clip-path="url(#clip0_43_16414)">
<path d="M15 11.3337H14V8.66699C14 7.93166 13.402 7.33366 12.6667 7.33366H8.33333V4.66699H9.33333C9.88467 4.66699 10.3333 4.21833 10.3333 3.66699V1.66699C10.3333 1.11566 9.88467 0.666992 9.33333 0.666992H6.66667C6.11533 0.666992 5.66667 1.11566 5.66667 1.66699V3.66699C5.66667 4.21833 6.11533 4.66699 6.66667 4.66699H7.66667V7.33366H3.33333C2.598 7.33366 2 7.93166 2 8.66699V11.3337H1C0.448667 11.3337 0 11.7823 0 12.3337V14.3337C0 14.885 0.448667 15.3337 1 15.3337H3.66667C4.218 15.3337 4.66667 14.885 4.66667 14.3337V12.3337C4.66667 11.7823 4.218 11.3337 3.66667 11.3337H2.66667V8.66699C2.66667 8.29899 2.966 8.00033 3.33333 8.00033H7.66667V11.3337H6.66667C6.11533 11.3337 5.66667 11.7823 5.66667 12.3337V14.3337C5.66667 14.885 6.11533 15.3337 6.66667 15.3337H9.33333C9.88467 15.3337 10.3333 14.885 10.3333 14.3337V12.3337C10.3333 11.7823 9.88467 11.3337 9.33333 11.3337H8.33333V8.00033H12.6667C13.0347 8.00033 13.3333 8.29899 13.3333 8.66699V11.3337H12.3333C11.782 11.3337 11.3333 11.7823 11.3333 12.3337V14.3337C11.3333 14.885 11.782 15.3337 12.3333 15.3337H15C15.5513 15.3337 16 14.885 16 14.3337V12.3337C16 11.7823 15.5513 11.3337 15 11.3337ZM6.33333 3.66699V1.66699C6.33333 1.48366 6.48267 1.33366 6.66667 1.33366H9.33333C9.51667 1.33366 9.66667 1.48366 9.66667 1.66699V3.66699C9.66667 3.85033 9.51667 4.00033 9.33333 4.00033H6.66667C6.48267 4.00033 6.33333 3.85033 6.33333 3.66699ZM4 12.3337V14.3337C4 14.517 3.85067 14.667 3.66667 14.667H1C0.816 14.667 0.666667 14.517 0.666667 14.3337V12.3337C0.666667 12.1503 0.816 12.0003 1 12.0003H3.66667C3.85067 12.0003 4 12.1503 4 12.3337ZM9.66667 12.3337V14.3337C9.66667 14.517 9.51667 14.667 9.33333 14.667H6.66667C6.48267 14.667 6.33333 14.517 6.33333 14.3337V12.3337C6.33333 12.1503 6.48267 12.0003 6.66667 12.0003H9.33333C9.51667 12.0003 9.66667 12.1503 9.66667 12.3337ZM15.3333 14.3337C15.3333 14.517 15.1833 14.667 15 14.667H12.3333C12.15 14.667 12 14.517 12 14.3337V12.3337C12 12.1503 12.15 12.0003 12.3333 12.0003H15C15.1833 12.0003 15.3333 12.1503 15.3333 12.3337V14.3337Z" fill="#26D07C"/>
</g>
<defs>
<clipPath id="clip0_43_16414">
<rect width="16" height="16" fill="white"/>
</clipPath>
</defs>
</svg>
