<svg width="32" height="32" viewBox="0 0 32 32" fill="none" xmlns="http://www.w3.org/2000/svg">
<path d="M8.19603 0H18.903L27.9663 9.45593V27.8372C27.9663 30.1365 26.1028 32 23.8035 32H8.19603C5.89675 32 4.0332 30.1364 4.0332 27.8372V4.16283C4.0332 1.86359 5.89675 0 8.19603 0Z" fill="#0263D1"/>
<path opacity="0.302" fill-rule="evenodd" clip-rule="evenodd" d="M18.8906 0V9.37826H27.9669L18.8906 0Z" fill="white"/>
<path d="M7.89838 22.8324V17.535H9.7749C10.1502 17.535 10.4996 17.5911 10.8232 17.6946C11.1467 17.8025 11.44 17.9578 11.7032 18.1649C11.9664 18.3719 12.1734 18.648 12.3244 18.9931C12.4754 19.3382 12.5531 19.7351 12.5531 20.1837C12.5531 20.6323 12.4754 21.0292 12.3244 21.3743C12.1734 21.7194 11.9664 21.9955 11.7032 22.2026C11.4401 22.4096 11.1467 22.5649 10.8232 22.6728C10.4996 22.7763 10.1502 22.8324 9.7749 22.8324H7.89838ZM9.22272 21.6806H9.61528C9.82666 21.6806 10.0251 21.6547 10.2019 21.6073C10.3831 21.5555 10.547 21.4736 10.7023 21.3657C10.8576 21.2578 10.9784 21.1026 11.0647 20.8998C11.1553 20.7014 11.1984 20.4598 11.1984 20.1837C11.1984 19.9076 11.1552 19.6661 11.0647 19.4633C10.9784 19.2649 10.8576 19.1096 10.7023 19.0017C10.547 18.8896 10.3831 18.8119 10.2019 18.7601C10.0251 18.7127 9.82666 18.6868 9.61528 18.6868H9.22272V21.6806ZM15.7668 22.8928C14.9688 22.8928 14.3088 22.634 13.7868 22.1206C13.2648 21.6073 13.006 20.9602 13.006 20.1837C13.006 19.4073 13.2648 18.7602 13.7868 18.2469C14.3088 17.7335 14.9688 17.4747 15.7668 17.4747C16.5519 17.4747 17.2033 17.7335 17.7253 18.2469C18.243 18.7602 18.5018 19.4073 18.5018 20.1837C18.5018 20.9602 18.243 21.6073 17.7253 22.1206C17.2033 22.634 16.5519 22.8928 15.7668 22.8928ZM14.7488 21.301C15.0119 21.5943 15.3484 21.741 15.7582 21.741C16.168 21.741 16.5001 21.5943 16.7633 21.301C17.0264 21.0033 17.1559 20.6323 17.1559 20.1837C17.1559 19.7351 17.0264 19.3641 16.7633 19.0664C16.5002 18.7731 16.168 18.6264 15.7582 18.6264C15.3484 18.6264 15.0119 18.7731 14.7488 19.0664C14.4856 19.3641 14.3519 19.7351 14.3519 20.1837C14.3519 20.6323 14.4856 21.0033 14.7488 21.301ZM21.6509 22.8928C20.8787 22.8928 20.2359 22.6512 19.7269 22.1767C19.2136 21.6979 18.9591 21.0335 18.9591 20.1837C18.9591 19.3382 19.2179 18.6739 19.7356 18.195C20.2576 17.7162 20.8917 17.4746 21.6509 17.4746C22.3368 17.4746 22.8976 17.6428 23.3419 17.9836C23.782 18.3201 24.0365 18.7688 24.1012 19.3295L22.7639 19.6013C22.7078 19.308 22.5741 19.0707 22.367 18.8938C22.16 18.717 21.9184 18.6264 21.6423 18.6264C21.2627 18.6264 20.9477 18.7601 20.6932 19.0319C20.4387 19.308 20.3093 19.6876 20.3093 20.1837C20.3093 20.6798 20.4387 21.0594 20.6889 21.3312C20.9434 21.6072 21.2583 21.741 21.6422 21.741C21.9183 21.741 22.1556 21.6634 22.3497 21.5081C22.5438 21.3528 22.6646 21.1457 22.7164 20.8869L24.0839 21.1975C23.9588 21.7324 23.6827 22.1465 23.2513 22.4441C22.8243 22.7418 22.2893 22.8928 21.6509 22.8928Z" fill="white"/>
</svg>
