<svg width="16" height="16" viewBox="0 0 16 16" fill="none" xmlns="http://www.w3.org/2000/svg">
<path d="M2.47719 6.86056C2.47069 6.84676 2.48448 6.83956 2.49159 6.83281C2.48413 6.82004 2.49882 6.79896 2.48506 6.78795C2.49328 6.75044 2.53082 6.74536 2.55331 6.71828C2.62615 6.64411 2.72451 6.60164 2.82397 6.60788C2.96935 6.57672 3.12583 6.59176 3.26967 6.56446C3.56384 6.54744 4.06688 6.41364 4.15056 6.81156C4.14499 6.81467 4.14301 6.83438 4.13549 6.84036C4.13235 6.84075 4.12963 6.8434 4.12717 6.85326C4.12451 6.86385 4.12099 6.8666 4.11731 6.86776C4.10496 6.8674 4.09504 6.89432 4.08391 6.9059C4.04333 6.90596 4.01037 6.93275 3.96877 6.93332C3.96167 6.93476 3.956 6.95 3.94874 6.94792C3.94288 6.94689 3.93821 6.949 3.93306 6.95537C3.92298 6.95108 3.91351 6.96494 3.90384 6.97275C3.88467 6.97604 3.8664 6.97819 3.84791 6.98638C3.69296 6.99598 3.53405 6.9988 3.37824 6.99947C3.24173 7.01531 3.10439 6.99665 2.96755 6.9739C2.88272 6.97384 2.79629 6.95912 2.71235 6.95732C2.70647 6.96014 2.70077 6.95979 2.69546 6.94619C2.67741 6.93051 2.64771 6.93816 2.62522 6.92648C2.60195 6.91761 2.58 6.90235 2.55488 6.91915C2.54976 6.92424 2.54691 6.89976 2.54237 6.90139C2.52893 6.89291 2.51575 6.90292 2.50221 6.89665C2.49155 6.89265 2.48368 6.87147 2.47719 6.86056ZM2.8193 7.99134C2.82365 8.00833 2.83306 8.04817 2.85559 8.03518C2.85984 8.03419 2.86474 8.03889 2.86909 8.04004C2.87251 8.03828 2.87418 8.06289 2.87831 8.05787C2.90826 8.03448 2.93251 8.0786 2.96458 8.07499C2.96963 8.0795 2.97472 8.07931 2.97981 8.08078C2.98621 8.08763 2.98778 8.10443 2.99552 8.09691C3.08419 8.10574 3.17757 8.11144 3.26554 8.13099C3.3417 8.15275 3.41706 8.14939 3.49194 8.14264C3.60778 8.14286 3.72765 8.14091 3.8424 8.13214C3.85603 8.12411 3.86963 8.12203 3.88423 8.11883C3.89184 8.10852 3.89943 8.0995 3.90727 8.10059C3.91463 8.08696 3.92119 8.10142 3.92743 8.08529C3.93511 8.07537 3.94947 8.07659 3.96077 8.07422C3.97991 8.06996 3.99661 8.04932 4.01904 8.05297C4.02618 8.04168 4.03607 8.01448 4.04423 8.01499C4.04695 8.01387 4.04963 8.01115 4.05168 8.00056C4.0536 7.9907 4.05562 7.98808 4.05799 7.98769C4.06327 7.98065 4.06551 7.96216 4.06944 7.95899C4.05869 7.93035 4.05824 7.87761 4.04192 7.84516C4.0072 7.79108 3.96803 7.71928 3.90327 7.70264C3.74291 7.65048 3.57648 7.68833 3.41411 7.70712C3.30842 7.73336 3.18819 7.718 3.08131 7.74808C3.00195 7.74068 2.92791 7.79016 2.87863 7.85704C2.86083 7.88414 2.83255 7.89096 2.82717 7.92632C2.83744 7.9378 2.82621 7.95851 2.83171 7.97121C2.82589 7.97966 2.82247 7.97732 2.8193 7.99134ZM2.39024 9.26008C2.8664 9.29931 3.34906 9.31854 3.82247 9.26766C3.85107 9.2428 3.88125 9.24964 3.90887 9.22827C3.96247 9.22788 4.00919 9.20078 4.06199 9.20081C4.0761 9.1892 4.09066 9.16219 4.10643 9.16267C4.1113 9.16155 4.11597 9.1588 4.11952 9.14817C4.12327 9.13172 4.13095 9.13979 4.13629 9.13115C4.13978 9.11614 4.14515 9.113 4.15062 9.10648C4.01789 8.68542 3.31837 8.85595 2.97901 8.85934C2.78359 8.88612 2.57706 8.873 2.38122 8.90267C2.232 8.89182 2.09613 8.96014 1.97466 9.04468C1.9616 9.05342 1.93786 9.06129 1.93546 9.08286C1.95482 9.09473 1.93363 9.11403 1.94413 9.12772C1.93523 9.13547 1.92791 9.13342 1.92224 9.14795C1.94957 9.222 1.9888 9.1722 2.01901 9.205C2.02919 9.22942 2.05962 9.19371 2.07866 9.20702C2.12163 9.2314 2.17431 9.22209 2.2153 9.2411C2.26135 9.2699 2.33344 9.24676 2.39024 9.26008ZM4.13434 9.99876C3.96163 9.94539 3.77552 9.98945 3.6056 10.0228C3.5241 10.0244 3.43731 10.0302 3.36103 10.0501C3.28471 10.0445 3.21875 10.0962 3.17431 10.1606C3.15767 10.1879 3.13111 10.1953 3.1265 10.2303C3.13619 10.2418 3.12583 10.2625 3.13107 10.2751C3.10874 10.2874 3.12807 10.3526 3.15389 10.339C3.16234 10.3411 3.16819 10.3405 3.17047 10.3525C3.17178 10.3617 3.17357 10.3623 3.17536 10.3615C3.20339 10.3378 3.22602 10.3817 3.25639 10.378C3.26115 10.3824 3.26592 10.3822 3.27069 10.3837C3.27677 10.3903 3.27824 10.4073 3.28554 10.3997C3.36858 10.4078 3.45664 10.4129 3.53904 10.4318C3.61075 10.453 3.68125 10.4491 3.75146 10.4418C3.86003 10.4412 3.9728 10.4383 4.08013 10.4287C4.0928 10.4206 4.10554 10.4184 4.11927 10.4151C4.12634 10.4047 4.13341 10.3957 4.14074 10.3967C4.14759 10.383 4.15383 10.3974 4.15952 10.3812C4.16647 10.3714 4.18007 10.3723 4.19072 10.3699C4.20967 10.3655 4.22189 10.3451 4.24525 10.3482C4.25175 10.3369 4.26106 10.3096 4.26864 10.3101C4.2712 10.3089 4.27367 10.3062 4.27552 10.2956C4.27725 10.2857 4.27914 10.2831 4.28135 10.2827C4.28621 10.2753 4.28826 10.2571 4.29187 10.2539C4.27987 10.2147 4.27911 10.1492 4.24944 10.1124C4.21917 10.0704 4.18755 10.0105 4.13434 9.99876ZM4.73203 11.3612C4.54611 10.9786 3.78759 11.1607 3.4353 11.1556C3.08138 11.2096 2.68778 11.1188 2.37837 11.3395C2.36429 11.3484 2.33869 11.3555 2.33568 11.3777C2.35757 11.3909 2.33312 11.408 2.34515 11.4225C2.33565 11.4302 2.32755 11.4281 2.32131 11.4428C2.35155 11.5165 2.39159 11.4669 2.42675 11.4998C2.43258 11.5204 2.45341 11.5003 2.46653 11.5015C2.5065 11.4982 2.54496 11.5247 2.58608 11.5248C2.60301 11.5255 2.62647 11.5262 2.64061 11.5359C2.72304 11.5652 2.83415 11.547 2.92701 11.5602C3.13987 11.5619 3.35143 11.6141 3.56426 11.5906C3.77495 11.592 3.99063 11.5799 4.20275 11.5822C4.30179 11.5842 4.4016 11.564 4.48589 11.5231C4.53203 11.523 4.57485 11.506 4.61863 11.4974C4.63328 11.4966 4.65219 11.5013 4.66211 11.488C4.67795 11.4551 4.70208 11.4688 4.71539 11.443C4.71927 11.4265 4.7281 11.4346 4.73367 11.4259C4.73747 11.4109 4.74333 11.4078 4.74928 11.4013C4.74151 11.3931 4.73818 11.3799 4.73203 11.3612ZM14.0768 2.45233C13.9972 3.0787 13.4362 2.97246 12.9686 2.98504C11.7666 2.99 10.4801 3.01297 9.27728 3.01233C9.29267 3.05899 9.28237 3.11185 9.29568 3.15771C9.29658 3.16398 9.30509 3.17051 9.30451 3.17668C9.2993 3.186 9.31133 3.19595 9.30848 3.20622C9.30973 3.25544 9.33395 3.30145 9.3376 3.35163C9.76739 3.29739 10.0991 3.83342 9.8608 4.19525C9.80282 4.29857 9.69319 4.37563 9.61159 4.45115C9.5377 4.51182 9.31949 4.69915 9.24685 4.75547C9.27725 4.89979 9.28355 5.04856 9.29568 5.19803C9.3169 5.36913 9.36304 5.55384 9.32707 5.7283C9.58045 5.5603 9.89645 5.62987 10.0357 5.90574C10.3087 6.38728 9.46855 6.85348 9.16887 7.14878C9.33603 7.47352 9.24931 7.86404 9.30352 8.21524C9.30515 8.64712 9.42915 9.12836 9.2385 9.53265C9.58215 9.71172 9.77699 10.122 9.68477 10.5018C9.55456 10.9493 9.12903 11.2276 8.82634 11.5582C9.51728 12.1812 10.0886 12.9586 10.6874 13.6783C11.1247 14.2136 10.3774 14.9991 9.83021 14.5561C9.32563 14.1085 8.82038 13.6499 8.32038 13.1971C8.16019 13.0384 8.00922 12.8677 7.83978 12.7152C7.81274 12.6878 7.76205 12.6756 7.75117 12.637C7.74224 12.6087 7.69898 12.5758 7.67725 12.5567C7.31405 12.8421 6.8385 13.2984 6.41952 12.8293C6.03399 12.3837 6.39757 12.0553 6.67987 11.7005C6.66128 11.6809 6.63754 11.6718 6.61488 11.6631C6.59712 11.6487 6.57658 11.6377 6.5505 11.6324C6.36931 11.4986 6.2328 11.3094 6.08346 11.1396C5.91914 10.9344 5.78157 10.7106 5.71283 10.4527C5.64298 10.2561 5.60192 10.0449 5.66999 9.84811C5.05821 9.43013 5.09056 8.73025 5.14928 8.07384C5.20701 7.46612 5.17549 6.83492 5.31683 6.2404C4.58016 6.07227 4.21837 5.21828 4.60365 4.57032C4.71607 4.38897 4.88109 4.21297 5.09485 4.16148C5.27261 4.10523 5.49469 4.07662 5.62218 4.23406C5.60842 4.24132 5.59495 4.24513 5.58698 4.26056C5.57552 4.26993 5.55648 4.26222 5.5473 4.2796C5.50704 4.30651 5.45802 4.3162 5.42403 4.35422C5.30979 4.38587 5.20183 4.46225 5.12189 4.54728C4.86208 4.86676 4.80589 5.40628 5.17271 5.67662C5.31907 5.79144 5.50896 5.86145 5.69555 5.82801C6.35853 5.72875 6.55661 5.04564 6.13834 4.55739C6.06896 4.49864 6.00074 4.42209 5.91408 4.39038C5.8896 4.37873 5.85165 4.38776 5.83703 4.36283C5.83469 4.35451 5.82906 4.35243 5.82323 4.35028C5.75658 4.32238 5.67424 4.33636 5.62218 4.2755C5.63776 4.26062 5.65747 4.26443 5.67616 4.25809C5.65712 4.25 5.67619 4.23998 5.68032 4.22718C5.67536 4.21576 5.6633 4.22049 5.65642 4.21217C6.12915 4.05099 6.63901 4.46084 6.70909 4.93665C7.03264 4.65137 7.38973 4.39444 7.77277 4.19697C8.13959 3.97371 8.54026 3.74881 8.91837 3.54043C8.85251 3.49278 8.89075 3.3915 8.87059 3.31665C8.8649 3.27384 8.87917 3.23406 8.8632 3.1947C8.85635 3.13176 8.89517 3.07454 8.89715 3.01259C7.88701 3.00616 6.84608 3.00113 5.83795 2.98478C5.33523 2.92587 4.1913 3.16292 4.19991 2.41668C4.24515 2.07694 4.16413 1.44843 4.69085 1.5523C4.54589 1.57675 4.45987 1.6891 4.43645 1.82536C4.43123 1.9322 4.46301 2.03275 4.46695 2.13803C4.46813 2.32014 4.42368 2.62244 4.68992 2.61509C5.16128 2.61208 5.63815 2.59873 6.10682 2.56843C8.55418 2.52926 11.0686 2.5514 13.5156 2.53956C13.6628 2.53275 13.635 2.34561 13.6353 2.24478L13.6352 1.9451C13.656 1.73038 13.5224 1.73921 13.3552 1.74296C13.069 1.73902 12.4851 1.73144 12.2041 1.73009C9.70167 1.67864 7.18154 1.75668 4.69088 1.59368C4.75559 1.57732 4.82915 1.58078 4.89712 1.57345C4.82423 1.56299 4.87911 1.56353 4.90541 1.54238C4.88467 1.53121 4.8416 1.53656 4.8153 1.52862C6.77978 1.3226 8.80224 1.35457 10.7848 1.33045C11.4448 1.32174 12.4532 1.32459 13.1195 1.32187C13.5163 1.28868 14.0145 1.31992 14.0691 1.81665C14.0814 2.03236 14.0749 2.23419 14.0768 2.45233ZM6.53856 5.8643C6.52794 5.85588 6.5096 5.85016 6.4905 5.84452C6.48032 5.8571 6.46989 5.86948 6.45914 5.88161C6.47997 5.88516 6.50058 5.88865 6.52179 5.89227C6.51603 5.8899 6.5113 5.88753 6.50563 5.88561C6.44883 5.86667 6.51927 5.87432 6.53856 5.8643ZM6.90541 11.4176C7.03248 11.2573 7.31088 10.9155 7.43946 10.7565C6.95501 10.5111 6.4512 10.256 5.96573 10.0155C6.07882 10.5936 6.59043 10.9501 6.90541 11.4176ZM8.68339 11.6929C8.39968 11.9579 8.10797 12.2143 7.80487 12.4567C8.1593 12.6406 8.49056 12.8743 8.78768 13.1411C9.05984 13.3708 9.35456 13.603 9.62813 13.8354C9.73655 13.9245 9.97776 14.1293 10.0879 14.2105C10.2101 14.3046 10.3952 14.1717 10.369 14.0277C10.357 13.9724 10.2972 13.9279 10.2641 13.8845C10.187 13.7947 10.0032 13.5746 9.93155 13.4856C9.48509 12.9148 8.97415 12.3629 8.68339 11.6929ZM8.92906 7.33931C8.92941 7.33662 8.92967 7.33393 8.92992 7.33124C8.17322 7.87025 8.17651 7.95 7.31901 7.52449C7.33383 7.70084 7.28563 8.24888 7.34858 8.40708C7.38979 8.48116 7.42144 8.50123 7.50823 8.55041C7.95139 8.80702 8.47987 9.10916 8.92243 9.35812C8.84147 9.11131 8.89251 8.83028 8.86931 8.56824C8.86247 8.30174 8.86634 8.0363 8.89648 7.76948C8.91063 7.62945 8.88797 7.46616 8.92906 7.33931ZM9.34835 6.08248C8.98659 6.2443 8.63146 6.4332 8.27024 6.59774C8.04615 6.63057 7.84899 6.42024 7.63197 6.36798C7.23683 6.19857 6.83911 6.04206 6.42826 5.91508C6.16471 6.19028 5.77194 6.3307 5.39488 6.25908C5.48506 7.06081 5.47136 7.86523 5.48746 8.67185C5.49373 8.81275 5.51146 8.94648 5.56176 9.07675C5.70157 9.45246 6.09546 9.6018 6.43299 9.75489C6.92736 9.98917 7.41795 10.2323 7.90691 10.4775C8.18381 10.6285 7.92733 10.8921 7.79664 11.0491C7.79667 11.0491 6.83191 12.2523 6.83191 12.2523C6.75962 12.3405 6.64685 12.4413 6.78378 12.5413C6.83072 12.5889 6.89875 12.5736 6.94295 12.5316C7.69949 11.9821 8.42496 11.3783 9.06083 10.6929C9.39754 10.3994 9.29811 10.0209 8.90506 9.85051C8.80864 9.79867 8.21034 9.44219 8.10205 9.37924C8.10202 9.37924 7.43584 8.98347 7.43584 8.98347C7.13981 8.84376 6.88531 8.5931 6.9153 8.24126C6.9168 7.92321 6.92541 7.60052 6.92531 7.28305C6.91027 7.15428 6.99981 7.02952 7.13549 7.03204C7.40032 7.1027 7.65603 7.27128 7.91392 7.37182C8.008 7.41732 8.07546 7.45035 8.16448 7.39822C8.50093 7.19198 8.82563 6.96456 9.13133 6.7148C9.33789 6.54289 9.54643 6.36734 9.72906 6.1706C9.75933 6.12305 9.73815 6.06648 9.70429 6.02616C9.60717 5.89355 9.46477 6.0675 9.34835 6.08248ZM8.86167 5.20705C8.86992 5.1538 8.87811 5.10072 8.88736 5.04772C8.46128 5.34558 7.77904 6.00225 7.26458 6.02004C7.57946 6.11739 7.88778 6.23716 8.19843 6.34808C8.45219 6.20497 8.70599 6.06148 8.96218 5.92235C8.94006 5.89889 8.94666 5.86843 8.93146 5.84491C8.91568 5.83774 8.92899 5.82868 8.91498 5.82059C8.92032 5.80737 8.88874 5.79774 8.89543 5.78062C8.85485 5.59649 8.88467 5.39524 8.86167 5.20705ZM9.34608 3.79342C8.76237 4.07681 8.17888 4.38577 7.60343 4.68996C7.38221 4.80321 7.13603 4.87636 6.92554 5.01496C6.90967 5.03044 6.88775 5.01358 6.87066 5.02478C6.82384 5.04136 6.77498 5.07777 6.72992 5.09729C6.74627 5.35796 6.66829 5.62363 6.50378 5.82779C6.74647 5.86123 6.99293 5.9364 7.22864 6.00888C7.32775 5.79102 7.53523 5.63659 7.71312 5.47316C8.0552 5.09985 8.49229 4.77326 8.88855 4.45124C9.06669 4.31032 9.28042 4.12526 9.45863 3.98539C9.55443 3.91352 9.45162 3.75851 9.34608 3.79342Z" fill="#26D07C"/>
</svg>
