<svg width="18" height="18" viewBox="0 0 18 18" fill="none" xmlns="http://www.w3.org/2000/svg">
<path d="M12.2317 4.08892C12.3986 3.93394 12.5968 3.81101 12.8148 3.72714C13.0329 3.64327 13.2666 3.6001 13.5026 3.6001C13.7387 3.6001 13.9724 3.64327 14.1904 3.72714C14.4085 3.81101 14.6066 3.93394 14.7735 4.08892C14.9404 4.2439 15.0728 4.42788 15.1631 4.63037C15.2535 4.83285 15.3 5.04988 15.3 5.26904C15.3 5.48821 15.2535 5.70524 15.1631 5.90772C15.0728 6.11021 14.9404 6.29419 14.7735 6.44917L6.19493 14.415L2.69995 15.3001L3.65313 12.0548L12.2317 4.08892Z" stroke="#008755" stroke-width="1.8" stroke-linecap="round" stroke-linejoin="round"/>
</svg>
