<svg width="18" height="18" viewBox="0 0 18 18" fill="none" xmlns="http://www.w3.org/2000/svg">
<path d="M6.75 9C9.23175 9 11.25 6.98175 11.25 4.5C11.25 2.01825 9.23175 0 6.75 0C4.26825 0 2.25 2.01825 2.25 4.5C2.25 6.98175 4.26825 9 6.75 9ZM6.75 1.5C8.4045 1.5 9.75 2.8455 9.75 4.5C9.75 6.1545 8.4045 7.5 6.75 7.5C5.0955 7.5 3.75 6.1545 3.75 4.5C3.75 2.8455 5.0955 1.5 6.75 1.5ZM17.3415 8.90925C16.491 8.05875 15.009 8.05875 14.1593 8.90925L8.25 14.8177V18H11.4323L17.3407 12.0915C17.766 11.6663 18 11.1015 18 10.5C18 9.8985 17.766 9.33375 17.3415 8.90925ZM16.2803 11.0302L10.8112 16.5H9.75V15.4387L15.2197 9.96975C15.5025 9.68625 15.9968 9.68625 16.2803 9.96975C16.422 10.1108 16.5 10.299 16.5 10.5C16.5 10.701 16.422 10.8885 16.2803 11.0302ZM8.94675 12H3.75C2.5095 12 1.5 13.0095 1.5 14.25V18H0V14.25C0 12.1823 1.68225 10.5 3.75 10.5H9.75C9.96675 10.5 10.176 10.5285 10.383 10.5638L8.94675 12Z" fill="white"/>
</svg>
