<svg width="16" height="16" viewBox="0 0 16 16" fill="none" xmlns="http://www.w3.org/2000/svg">
<g clip-path="url(#clip0_43_9725)">
<path d="M13.7707 9.90436C12.974 9.14236 11.7113 9.14569 10.9167 9.90836L9.94067 10.685C7.80867 9.78036 6.29133 8.26036 5.31933 6.05436L6.09133 5.08369C6.46267 4.69769 6.66667 4.19169 6.66667 3.65369C6.66667 3.11569 6.464 2.61436 6.09533 2.22836C6.09533 2.22836 4.86067 0.624357 4.84067 0.60369C4.45133 0.214357 3.93267 -0.000976562 3.38133 -0.000976562C2.83 -0.000976562 2.312 0.21369 1.956 0.57169L1.18933 1.24302C0.422 2.00836 0 3.04436 0 4.15902C0 9.24969 6.75067 16.0004 11.8413 16.0004C12.9567 16.0004 13.9927 15.5777 14.7887 14.7777L15.396 14.0784C16.2007 13.2737 16.2007 11.9644 15.396 11.1597C15.3753 11.139 13.7707 9.90436 13.7707 9.90436ZM14.4213 13.169L13.814 13.869C13.3007 14.383 12.6 14.6664 11.8413 14.6664C7.84867 14.6664 1.33333 8.79569 1.33333 4.15836C1.33333 3.39969 1.61667 2.69969 2.098 2.21636L2.86467 1.54636C3.00267 1.40836 3.186 1.33236 3.38067 1.33236C3.56333 1.33236 3.736 1.39902 3.87 1.52102C3.87 1.52102 5.098 3.11702 5.11867 3.13702C5.25667 3.27502 5.33267 3.45836 5.33267 3.65302C5.33267 3.84769 5.25667 4.03102 5.11867 4.16902C5.10067 4.18702 4.02867 5.53236 4.02867 5.53236C3.87933 5.71969 3.84267 5.97369 3.932 6.19569C5.074 9.04036 7.05333 11.017 9.81333 12.0704C10.0333 12.153 10.2813 12.1157 10.466 11.969C10.466 11.969 11.8113 10.8977 11.8287 10.879C12.1127 10.595 12.576 10.5937 12.8613 10.879C12.8813 10.899 14.4767 12.127 14.4767 12.127C14.736 12.4137 14.7267 12.8584 14.42 13.1677L14.4213 13.169ZM10 4.00036C10 3.63236 10.2987 3.33369 10.6667 3.33369H11.3333V2.66702C11.3333 2.29902 11.632 2.00036 12 2.00036C12.368 2.00036 12.6667 2.29902 12.6667 2.66702V3.33369H13.3333C13.7013 3.33369 14 3.63236 14 4.00036C14 4.36836 13.7013 4.66702 13.3333 4.66702H12.6667V5.33369C12.6667 5.70169 12.368 6.00036 12 6.00036C11.632 6.00036 11.3333 5.70169 11.3333 5.33369V4.66702H10.6667C10.2987 4.66702 10 4.36836 10 4.00036ZM10 8.00036H12C14.206 8.00036 16 6.20636 16 4.00036C16 1.79436 14.206 0.000356771 12 0.000356771C9.794 0.000356771 8 1.79436 8 4.00036V6.00036C8 6.80436 8.53267 8.00036 10 8.00036ZM9.33333 4.00036C9.33333 2.52969 10.5293 1.33369 12 1.33369C13.4707 1.33369 14.6667 2.52969 14.6667 4.00036C14.6667 5.47102 13.4707 6.66702 12 6.66702H10C9.46333 6.66702 9.34133 6.30036 9.33333 6.00036V4.00036Z" fill="#26D07C"/>
</g>
<defs>
<clipPath id="clip0_43_9725">
<rect width="16" height="16" fill="white"/>
</clipPath>
</defs>
</svg>
