<svg width="25" height="24" viewBox="0 0 25 24" fill="none" xmlns="http://www.w3.org/2000/svg">
<g clip-path="url(#clip0_1926_30515)">
<path d="M13.2031 0.703125C13.2031 0.314812 12.8883 0 12.5 0C12.1117 0 11.7969 0.314812 11.7969 0.703125V1.87509H13.2031V0.703125Z" fill="white"/>
<path d="M8.51538 0.703125C8.51538 0.314812 8.20057 0 7.81226 0C7.42394 0 7.10913 0.314812 7.10913 0.703125V1.87509H8.51538V0.703125Z" fill="white"/>
<path d="M17.8906 0.703125C17.8906 0.314812 17.5758 0 17.1875 0C16.7992 0 16.4844 0.314812 16.4844 0.703125V1.87509H17.8906V0.703125Z" fill="white"/>
<path d="M21.6873 1.875H17.8907V3.04663C17.8907 3.43494 17.5759 3.74975 17.1876 3.74975C16.7993 3.74975 16.4845 3.43494 16.4845 3.04663V1.875H13.203V3.04663C13.203 3.43494 12.8882 3.74975 12.4999 3.74975C12.1116 3.74975 11.7968 3.43494 11.7968 3.04663V1.875H8.5153V3.04663C8.5153 3.43494 8.20049 3.74975 7.81218 3.74975C7.42387 3.74975 7.10906 3.43494 7.10906 3.04663V1.875H3.31249C2.14939 1.875 1.20312 2.82126 1.20312 3.98441V6.32833H23.7966V3.98441C23.7966 2.82121 22.8504 1.875 21.6873 1.875Z" fill="white"/>
<path d="M1.20312 20.4839C1.20312 21.6469 2.14939 22.5932 3.31249 22.5932H9.14506L9.45355 21.6679C9.54926 21.3808 9.818 21.1872 10.1206 21.1872H11.7968V19.2243C10.2352 18.9388 8.99488 17.7219 8.67702 16.1718H7.89454C6.73144 16.1718 5.78518 15.2256 5.78518 14.0625V13.3593C5.78518 12.1962 6.73144 11.2499 7.89454 11.2499H8.59766V10.547C8.59766 10.1586 8.91247 9.84383 9.30078 9.84383H15.6989C16.0872 9.84383 16.402 10.1586 16.402 10.547V11.2499H17.1051C18.2682 11.2499 19.2145 12.1962 19.2145 13.3593V14.0625C19.2145 15.2256 18.2682 16.1718 17.1051 16.1718H16.3227C16.0049 17.7219 14.7645 18.9388 13.203 19.2243V21.1872H14.8792C15.1818 21.1872 15.4506 21.3808 15.5462 21.6679L15.8547 22.5932H21.6873C22.8503 22.5932 23.7966 21.6469 23.7966 20.4839V7.73438H1.20312V20.4839Z" fill="white"/>
<path d="M17.8083 14.0625V13.3594C17.8083 12.9717 17.4929 12.6562 17.1052 12.6562H16.4021V14.7657H17.1052C17.4929 14.7657 17.8083 14.4502 17.8083 14.0625Z" fill="white"/>
<path d="M7.19141 13.3594V14.0625C7.19141 14.4502 7.50683 14.7657 7.89453 14.7657H8.59766V12.6562H7.89453C7.50683 12.6562 7.19141 12.9716 7.19141 13.3594Z" fill="white"/>
<path d="M14.9959 15.3868V11.25H10.0039V15.3868C10.0039 16.763 11.1236 17.8827 12.4999 17.8827C13.8762 17.8827 14.9959 16.763 14.9959 15.3868ZM12.4999 14.5318C12.1116 14.5318 11.7968 14.217 11.7968 13.8286C11.7968 13.4403 12.1116 13.1255 12.4999 13.1255C12.8882 13.1255 13.203 13.4403 13.203 13.8286C13.203 14.217 12.8882 14.5318 12.4999 14.5318Z" fill="white"/>
<path d="M12.4999 14.5318C12.1116 14.5318 11.7968 14.217 11.7968 13.8286C11.7968 13.4403 12.1116 13.1255 12.4999 13.1255C12.8882 13.1255 13.203 13.4403 13.203 13.8286C13.203 14.217 12.8882 14.5318 12.4999 14.5318Z" fill="white"/>
<path d="M14.3724 22.5938H10.6273L10.3808 23.333C10.2586 23.6998 10.4749 24 10.8616 24H14.138C14.5247 24 14.7411 23.6998 14.6188 23.333L14.3724 22.5938Z" fill="white"/>
</g>
<defs>
<clipPath id="clip0_1926_30515">
<rect width="24" height="24" fill="white" transform="translate(0.5)"/>
</clipPath>
</defs>
</svg>
