<svg width="39" height="39" viewBox="0 0 39 39" fill="none" xmlns="http://www.w3.org/2000/svg">
<g clip-path="url(#clip0_1367_9731)">
<path d="M19.5948 6.34085L20.3855 4.485C20.9679 3.11863 22.5474 2.48252 23.9143 3.06416C25.2807 3.6465 25.9168 5.226 25.3352 6.59298L24.5444 8.44883C23.9621 9.8152 22.3826 10.4513 21.0156 9.86966C19.6486 9.28672 19.0131 7.70722 19.5948 6.34085Z" fill="#F2BB80"/>
<path d="M10.7578 36.3104L14.1804 36.3507L16.2514 28.9138H12.3178L10.7578 36.3104Z" fill="#F2BB80"/>
<path d="M8.73999 38.1259C8.73999 38.6086 9.13136 39 9.61414 39H13.4469L14.1865 36.3507L10.7572 36.3103L9.12992 37.3929C8.88586 37.557 8.73931 37.832 8.73999 38.1259Z" fill="#3699FF"/>
<path d="M24.2056 36.3104H20.7695L21.5159 39H25.3487C25.8315 39 26.2228 38.6086 26.2228 38.1259C26.2235 37.832 26.0769 37.557 25.8328 37.3929L24.2056 36.3104Z" fill="#3699FF"/>
<path d="M22.5648 28.9136H18.7119L20.7695 36.3102H24.2055L22.5648 28.9136Z" fill="#F2BB80"/>
<path d="M13.6221 5.62141C13.6221 5.62141 19.0004 2.5 19.499 2.34678C19.9977 2.19356 18.8753 0 18.1878 0C17.5004 0 11.9882 3.36207 11.9882 3.36207C11.2048 3.78506 10.6346 4.51661 10.4147 5.37933C10.2069 6.22926 10.3529 7.12695 10.8182 7.86726L12.4723 10.9873L15.3704 8.79519L13.6221 5.62141Z" fill="#F2BB80"/>
<path d="M21.516 24.2069L13.447 23.5345L12.3174 28.9138H16.251L16.8091 26.8965H18.1539L18.712 28.9138H22.5649L21.516 24.2069Z" fill="#666666"/>
<path d="M16.8088 11.431L15.3698 8.80859L12.4717 11.0007L14.1191 14.1207V18.8276L13.4467 23.5345L21.5156 24.2069L23.5329 12.7759L16.8088 11.431Z" fill="#1BC5BC"/>
<path d="M15.3432 23.6891C14.5498 24.7321 13.6918 25.7245 12.7746 26.6612L12.3174 28.9138H16.251L16.8091 26.8965H18.1539L18.712 28.9138H22.5649L21.516 24.2069L15.3432 23.6891Z" fill="#595959"/>
<path d="M21.5155 24.207L23.5328 12.7759L21.6634 12.3994C20.0389 16.4131 17.9154 20.2061 15.3428 23.6892L21.5155 24.207Z" fill="#139992"/>
<path d="M23.5328 12.7759L22.968 15.9766L24.9381 17.4021L26.7268 15.0151L23.5328 12.7759Z" fill="#139992"/>
<path d="M29.0668 16.6491L26.7268 15.0151L24.9382 17.4022L26.8949 18.8277L22.0871 20.966L21.5156 24.207L28.4751 21.5174C29.9101 20.9654 30.6256 19.3543 30.0728 17.9193C29.8731 17.4009 29.5227 16.9538 29.0668 16.6357V16.6491H29.0668Z" fill="#F2BB80"/>
</g>
<defs>
<clipPath id="clip0_1367_9731">
<rect width="39" height="39" fill="white"/>
</clipPath>
</defs>
</svg>
