<svg width="16" height="16" viewBox="0 0 16 16" fill="none" xmlns="http://www.w3.org/2000/svg">
<path d="M15.5294 8.53333H11.9843V7.46666H12.7686C13.2133 7.46666 13.4099 6.90283 13.0602 6.62672L9.13355 3.52671C10.3329 2.47896 9.58651 0.501953 8 0.501953C6.41362 0.501953 5.66701 2.47889 6.86645 3.52671L2.93976 6.62672C2.59081 6.90224 2.78566 7.46666 3.23137 7.46666H4.01569V8.53333H0.470588C0.210698 8.53333 0 8.74402 0 9.00391V15.0274C0 15.2873 0.210698 15.498 0.470588 15.498H15.5294C15.7893 15.498 16 15.2873 16 15.0274V9.00391C16 8.74402 15.7893 8.53333 15.5294 8.53333ZM8 1.44313C8.43247 1.44313 8.78431 1.79497 8.78431 2.22744C8.78431 2.65991 8.43247 3.01176 8 3.01176C7.56753 3.01176 7.21569 2.65991 7.21569 2.22744C7.21569 1.79497 7.56753 1.44313 8 1.44313ZM7.85384 3.94631C7.95853 3.95513 8.04151 3.95513 8.14616 3.94631L11.4131 6.52548H4.58689L7.85384 3.94631ZM0.941177 9.4745H4.01569V14.5569H2.94902V12.2667C2.94902 12.0068 2.73832 11.7961 2.47843 11.7961C2.21854 11.7961 2.00784 12.0068 2.00784 12.2667V14.5569H0.941177V9.4745ZM4.95686 7.46666H11.0431V14.5569H9.97647V12.0157C9.97647 11.7558 9.76577 11.5451 9.50588 11.5451H6.49412C6.23423 11.5451 6.02353 11.7558 6.02353 12.0157V14.5569H4.95686C4.95686 14.3503 4.95686 7.64614 4.95686 7.46666ZM6.96471 14.5569V12.4863H9.03529V14.5569H6.96471ZM15.0588 14.5569H13.9922V12.2667C13.9922 12.0068 13.7815 11.7961 13.5216 11.7961C13.2617 11.7961 13.051 12.0068 13.051 12.2667V14.5569H11.9843V9.4745H15.0588V14.5569Z" fill="#26D07C"/>
<path d="M6.49403 9.47438H9.50579C9.76568 9.47438 9.97638 9.26368 9.97638 9.00379C9.97638 8.7439 9.76568 8.5332 9.50579 8.5332H6.49403C6.23414 8.5332 6.02344 8.7439 6.02344 9.00379C6.02344 9.26368 6.23414 9.47438 6.49403 9.47438Z" fill="#26D07C"/>
</svg>
