<svg width="45" height="45" viewBox="0 0 45 45" fill="none" xmlns="http://www.w3.org/2000/svg">
<rect x="0.59375" y="0.453247" width="44" height="44" rx="6" fill="#009B73"/>
<g clip-path="url(#clip0_503_41698)">
<path d="M28.109 20.3006C27.4879 16.6405 24.8669 15.5233 23.3278 15.1834C23.8473 14.9256 24.2223 14.8319 24.2692 14.8202C24.4801 14.7694 24.609 14.5623 24.5622 14.3514C24.5153 14.1405 24.3004 14.0116 24.0934 14.0584C24.0739 14.0623 23.1364 14.2928 22.0504 15.0584C21.9879 15.0819 21.9333 15.1209 21.8942 15.1717C20.6833 16.0741 19.3356 17.6444 18.8825 20.2967C18.8786 20.3241 18.8747 20.3475 18.8786 20.3748C18.8786 20.4295 19.0895 25.8123 23.4762 26.0623H23.4997C23.4997 26.0623 23.5153 26.0623 23.5231 26.0623C27.9098 25.8123 28.1169 20.4295 28.1208 20.3748C28.1208 20.3475 28.1208 20.3241 28.1169 20.2967L28.109 20.3006ZM23.4958 25.285C19.9762 25.0663 19.6794 20.867 19.6598 20.3905C20.0739 18.0155 21.2458 16.6209 22.3044 15.8202C22.9919 15.8514 26.6012 16.2069 27.3356 20.3905C27.3122 20.867 27.0153 25.0663 23.4997 25.285H23.4958Z" fill="#F1EB9C" stroke="#F1EB9C" stroke-width="0.3"/>
<path d="M34.6055 32.1678C34.3984 28.66 31.7109 25.7968 28.293 25.3436C29.0469 23.9178 29.8906 21.6522 29.9922 19.66C30.2148 15.3124 28.3477 13.0038 26.7422 11.8358C24.8047 10.4257 22.207 10.4257 20.2695 11.8358C18.6641 13.0038 16.7969 15.3124 17.0195 19.66C17.1094 21.4296 17.457 22.7928 17.957 23.871C17.5625 24.2772 16.8789 25.246 17.1445 26.8632C13.8867 27.6522 12.3633 29.871 12.3633 33.8241C12.3633 34.0389 12.5391 34.2147 12.7539 34.2147H34.2422C34.4531 34.2147 34.625 34.0468 34.6328 33.8397C34.6523 33.3163 34.6445 32.7538 34.6094 32.1678H34.6055ZM13.1484 33.4374C13.2383 30.0663 14.5078 28.3046 17.3242 27.6249C17.375 27.785 17.4297 27.9452 17.4961 28.1132C17.9531 29.2421 19.3711 31.2733 23.7695 32.1991C25.6133 32.5858 26.4258 33.0936 26.7812 33.4374H13.1484ZM27.7461 33.4374C27.5078 32.91 26.6875 32.0116 23.9297 31.4335C19.8867 30.5858 18.6172 28.8046 18.2227 27.8202C17.5352 26.1171 17.9883 25.0936 18.3516 24.6132C19.5625 26.6053 21.3633 27.4139 22.8281 28.0702C23.6406 28.4335 24.3398 28.7499 24.7383 29.1835C24.8164 29.2655 24.9219 29.3085 25.0273 29.3085C25.1211 29.3085 25.2148 29.2733 25.293 29.2069C25.4531 29.0624 25.4609 28.8124 25.3164 28.6561C24.8086 28.1014 24.0391 27.7577 23.1484 27.3593C20.8906 26.3475 18.0781 25.0858 17.8008 19.6249C17.5977 15.6249 19.2812 13.5272 20.7305 12.4725C22.3906 11.2616 24.6211 11.2616 26.2812 12.4725C27.7305 13.5272 29.4141 15.6249 29.2109 19.6249C29.0977 21.8475 27.9297 24.6249 27.1328 25.7772C27.0078 25.953 27.0547 26.1991 27.2305 26.3202C27.4062 26.4452 27.6523 26.3983 27.7734 26.2225C27.8047 26.1796 27.8359 26.1288 27.8672 26.0819C31.0703 26.3358 33.6328 28.9725 33.8242 32.2186C33.8477 32.6405 33.8594 33.0507 33.8555 33.4413H27.7422L27.7461 33.4374Z" fill="#F1EB9C" stroke="#F1EB9C" stroke-width="0.3"/>
</g>
<defs>
<clipPath id="clip0_503_41698">
<rect width="25" height="25" fill="white" transform="translate(11 9.99988)"/>
</clipPath>
</defs>
</svg>
