<svg width="12" height="16" viewBox="0 0 12 16" fill="none" xmlns="http://www.w3.org/2000/svg">
<path d="M11 13.166H3.33398C3.05798 13.166 2.83398 12.942 2.83398 12.666C2.83398 12.39 3.05798 12.166 3.33398 12.166H11C11.276 12.166 11.5 12.39 11.5 12.666C11.5 12.942 11.276 13.166 11 13.166Z" fill="#26D07C"/>
<path d="M7.33402 15.166H4.66602C3.68802 15.166 2.98202 15.166 2.40402 15.088C1.72402 14.996 1.25802 14.794 0.898015 14.434C0.536015 14.072 0.334016 13.608 0.244015 12.928C0.166016 12.35 0.166016 11.644 0.166016 10.666V5.33398C0.166016 4.35598 0.166016 3.64998 0.244015 3.07198C0.336015 2.39198 0.538015 1.92598 0.898015 1.56598C1.26002 1.20398 1.72402 1.00198 2.40402 0.911984C2.98202 0.833984 3.68802 0.833984 4.66602 0.833984H7.33202C8.31002 0.833984 9.01602 0.833984 9.59402 0.911984C10.274 1.00398 10.74 1.20598 11.1 1.56598C11.462 1.92798 11.664 2.39198 11.754 3.07198C11.832 3.64998 11.832 4.35598 11.832 5.33398V10.668C11.832 11.646 11.832 12.352 11.754 12.93C11.662 13.61 11.46 14.076 11.1 14.436C10.74 14.796 10.274 15 9.59402 15.09C9.01602 15.166 8.31002 15.166 7.33402 15.166ZM4.66602 1.83398C2.92002 1.83398 2.04402 1.83398 1.60602 2.27398C1.16602 2.71398 1.16602 3.58998 1.16602 5.33398V10.668C1.16602 12.414 1.16602 13.29 1.60602 13.728C2.04602 14.168 2.92202 14.168 4.66602 14.168H7.33202C9.07802 14.168 9.95401 14.168 10.392 13.728C10.83 13.288 10.832 12.412 10.832 10.668V5.33398C10.832 3.58798 10.832 2.71198 10.392 2.27398C9.95201 1.83398 9.07602 1.83398 7.33202 1.83398H4.66602Z" fill="#26D07C"/>
<path d="M1.15008 12.278L0.184082 12.02C0.414082 11.16 1.09208 10.482 1.95208 10.252C2.27008 10.166 2.60208 10.166 3.26608 10.166H11.2661V11.166H3.26608C2.70808 11.166 2.40208 11.166 2.21208 11.218C1.69408 11.356 1.28808 11.762 1.15008 12.278Z" fill="#26D07C"/>
<path d="M8.66598 5.16602H3.33398C3.05798 5.16602 2.83398 4.94202 2.83398 4.66602C2.83398 4.39002 3.05798 4.16602 3.33398 4.16602H8.66798C8.94398 4.16602 9.16798 4.39002 9.16798 4.66602C9.16798 4.94202 8.94198 5.16602 8.66598 5.16602Z" fill="#26D07C"/>
<path d="M6.66598 7.5H3.33398C3.05798 7.5 2.83398 7.276 2.83398 7C2.83398 6.724 3.05798 6.5 3.33398 6.5H6.66798C6.94398 6.5 7.16798 6.724 7.16798 7C7.16798 7.276 6.94198 7.5 6.66598 7.5Z" fill="#26D07C"/>
</svg>
