<svg width="35" height="35" viewBox="0 0 35 35" fill="none" xmlns="http://www.w3.org/2000/svg">
<g clip-path="url(#clip0_180_4826)">
<path fill-rule="evenodd" clip-rule="evenodd" d="M24.1717 23.2402C21.0217 23.1662 17.8499 24.2042 14.6653 25.881C11.3639 23.2184 5.59493 22.6134 3.36108 23.9592L8.88644 16.6845C9.61672 15.7219 10.3787 13.8254 10.4372 12.1381C10.44 12.0719 10.4414 12.0064 10.4414 11.9416L10.4435 11.0817L10.4478 9.32186L10.4499 8.2655L10.4541 6.5049L10.4569 5.44854L10.464 2.45557H17.6161L17.6379 11.9415C17.6421 13.6759 18.4343 15.6844 19.1949 16.6844L24.1717 23.2402Z" fill="#F9F7F8"/>
<path fill-rule="evenodd" clip-rule="evenodd" d="M1.05566 28.1469C8.33375 29.145 12.0107 26.4301 14.6656 23.885C11.3639 21.222 5.59493 22.6134 3.36122 23.9588L2.46298 25.1406C1.83817 25.965 1.3451 27.0271 1.05566 28.1469Z" fill="#A1D4FF"/>
<path fill-rule="evenodd" clip-rule="evenodd" d="M4.98215 35H14.0408H23.0975C24.6305 35 25.6885 34.449 26.3632 33.5906C27.9022 31.1512 26.8143 26.8553 25.6785 25.2244L24.1714 23.2401C20.5004 21.1301 17.8495 22.2081 14.6655 23.8849C11.32 25.6475 7.38546 28.071 1.05559 28.1468C0.225224 31.3369 1.02373 35 4.98215 35Z" fill="#22A6FE"/>
<path fill-rule="evenodd" clip-rule="evenodd" d="M32.6294 5.00635V18.2599C31.6688 18.9007 30.1117 18.9007 29.154 18.2599C28.1934 17.619 26.6385 17.619 25.6787 18.2599V5.00635H32.6294Z" fill="#F9F7F8"/>
<path fill-rule="evenodd" clip-rule="evenodd" d="M25.6786 5.7112H32.6293H32.7731C33.5795 5.7112 34.2403 5.00053 34.2403 4.13216C34.2403 3.26181 33.5795 2.55115 32.7731 2.55115H25.5348C24.7263 2.55115 24.0676 3.26181 24.0676 4.13216C24.0676 5.00053 24.7263 5.7112 25.5348 5.7112H25.6786Z" fill="#A1D4FF"/>
<path fill-rule="evenodd" clip-rule="evenodd" d="M10.4637 3.16005H17.616H17.9373C18.8077 3.16005 19.5183 2.44938 19.5183 1.57903C19.5183 0.710664 18.8057 0 17.9373 0H10.1422C9.27386 0 8.56128 0.710664 8.56128 1.57903C8.56128 2.44938 9.27194 3.16005 10.1422 3.16005H10.4637Z" fill="#A1D4FF"/>
<path fill-rule="evenodd" clip-rule="evenodd" d="M12.6455 17.6966C12.6455 18.4671 13.2703 19.0919 14.0389 19.0919C14.8094 19.0919 15.4342 18.4671 15.4342 17.6966C15.4342 16.926 14.8094 16.3032 14.0389 16.3032C13.2703 16.3032 12.6455 16.926 12.6455 17.6966Z" fill="#A1D4FF"/>
<path fill-rule="evenodd" clip-rule="evenodd" d="M17.3804 29.8298C17.3804 31.0116 18.3386 31.9698 19.5183 31.9698C20.7 31.9698 21.6582 31.0116 21.6582 29.8298C21.6582 28.648 20.7 27.6918 19.5183 27.6918C18.3386 27.6918 17.3804 28.648 17.3804 29.8298Z" fill="#A1D4FF"/>
<path fill-rule="evenodd" clip-rule="evenodd" d="M7.46336 32.329C8.18195 32.329 8.76485 31.7461 8.76485 31.0275C8.76485 30.3108 8.18195 29.7279 7.46336 29.7279C6.74477 29.7279 6.16187 30.3108 6.16187 31.0275C6.16187 31.7461 6.74477 32.329 7.46336 32.329Z" fill="#A1D4FF"/>
<path fill-rule="evenodd" clip-rule="evenodd" d="M17.6379 11.9415L17.616 3.16003H15.4082L15.4301 11.9415C15.4341 13.6762 16.2266 15.6844 16.9872 16.6845L21.1252 22.1363C22.0774 22.268 23.0795 22.6133 24.1714 23.2402L19.1949 16.6845C18.4344 15.6844 17.6419 13.6762 17.6379 11.9415Z" fill="#DDDAEC"/>
<path fill-rule="evenodd" clip-rule="evenodd" d="M25.6167 25.1406L24.1715 23.2402C23.0796 22.6134 22.0775 22.2681 21.1253 22.1363L21.9657 23.2402C24.1216 26.0828 24.6546 35 19.8857 35H23.0976C24.6307 35 25.6886 34.449 26.3633 33.5907C25.9342 33.0117 25.6787 32.2971 25.6787 31.5246V25.2244L25.6167 25.1406Z" fill="#0593FC"/>
<path fill-rule="evenodd" clip-rule="evenodd" d="M19.5182 1.57903C19.5182 0.710664 18.8056 0 17.9372 0H15.7354C16.6018 0.00198242 17.3104 0.712647 17.3104 1.57903C17.3104 2.44938 16.5998 3.16005 15.7295 3.16005H17.6159H17.9372C18.8076 3.16005 19.5182 2.44938 19.5182 1.57903Z" fill="#80B4FB"/>
<path fill-rule="evenodd" clip-rule="evenodd" d="M32.6293 17.5549V5.71124H30.8447V17.5549V18.034C31.4874 18.042 32.1362 17.8823 32.6293 17.5549Z" fill="#DDDAEC"/>
<path fill-rule="evenodd" clip-rule="evenodd" d="M34.2401 4.13216C34.2401 3.26181 33.5793 2.55115 32.7729 2.55115H30.9922C31.7967 2.55313 32.4555 3.26379 32.4555 4.13216C32.4555 5.00053 31.7947 5.7112 30.9883 5.7112H32.6291H32.7729C33.5793 5.7112 34.2401 5.00053 34.2401 4.13216Z" fill="#80B4FB"/>
<path fill-rule="evenodd" clip-rule="evenodd" d="M25.6785 25.2244V31.5245C25.6785 32.2971 25.934 33.0118 26.3632 33.5906C26.9839 34.4251 27.9701 34.9761 29.08 35H29.2277C31.1041 34.9601 32.6292 33.411 32.6292 31.5245V17.5549C31.669 18.1957 30.112 18.1957 29.1539 17.5549C28.1937 16.9141 26.6386 16.9141 25.6785 17.5549V25.2244H25.6785Z" fill="#EB5468"/>
<path fill-rule="evenodd" clip-rule="evenodd" d="M29.1538 23.871C29.8405 23.871 30.3974 23.314 30.3974 22.6273C30.3974 21.9386 29.8405 21.3817 29.1538 21.3817C28.4652 21.3817 27.9082 21.9386 27.9082 22.6273C27.9083 23.314 28.4652 23.871 29.1538 23.871Z" fill="#A1D4FF"/>
<path fill-rule="evenodd" clip-rule="evenodd" d="M32.6293 31.5245V17.5549C32.1363 17.8822 31.4875 18.0419 30.8447 18.034V31.5246C30.8447 33.1275 29.7429 34.487 28.2617 34.8842C28.5232 34.9541 28.7967 34.994 29.0802 35H29.2279C31.1042 34.9601 32.6293 33.411 32.6293 31.5245Z" fill="#E5384F"/>
<path d="M11.3619 29.0524C11.2262 29.0524 11.0906 29.0004 10.9874 28.8966C10.7817 28.6897 10.7827 28.3553 10.9895 28.1496L10.9955 28.1436C11.2024 27.9379 11.5369 27.9389 11.7425 28.1457C11.9482 28.3526 11.9472 28.687 11.7404 28.8927L11.7344 28.8987C11.6313 29.0012 11.4966 29.0524 11.3619 29.0524Z" fill="#A1D4FF"/>
<path d="M15.6737 27.3616C15.5385 27.3616 15.4033 27.31 15.3002 27.2069C15.0939 27.0007 15.0939 26.6663 15.3002 26.46L15.3063 26.4539C15.5125 26.2477 15.8469 26.2477 16.0532 26.4539C16.2595 26.6602 16.2595 26.9946 16.0532 27.2009L16.0472 27.2069C15.944 27.31 15.8088 27.3616 15.6737 27.3616Z" fill="#A1D4FF"/>
<path d="M28.3375 27.6471C28.2024 27.6471 28.0671 27.5955 27.9641 27.4924C27.7577 27.2861 27.7577 26.9517 27.9641 26.7454L27.9701 26.7394C28.1763 26.5332 28.5107 26.5332 28.717 26.7394C28.9233 26.9456 28.9233 27.2801 28.717 27.4864L28.711 27.4924C28.6079 27.5955 28.4727 27.6471 28.3375 27.6471Z" fill="#A1D4FF"/>
<path d="M29.4632 31.6814C29.3276 31.6814 29.1919 31.6295 29.0887 31.5256C28.883 31.3188 28.884 30.9843 29.0908 30.7787L29.0968 30.7726C29.3037 30.5669 29.6381 30.568 29.8438 30.7748C30.0495 30.9816 30.0485 31.316 29.8417 31.5217L29.8357 31.5277C29.7327 31.6302 29.5979 31.6814 29.4632 31.6814Z" fill="#A1D4FF"/>
<path d="M13.2872 5.9767C13.2872 6.26825 13.0513 6.50484 12.759 6.50484H10.4541L10.4569 5.44849H12.759C13.0513 5.44855 13.2872 5.68515 13.2872 5.9767Z" fill="#2B4D66"/>
<path d="M13.2872 8.79366C13.2872 9.08521 13.0513 9.3218 12.7591 9.3218H10.4478L10.4499 8.26544H12.7591C13.0513 8.26544 13.2872 8.50135 13.2872 8.79366Z" fill="#2B4D66"/>
<path d="M13.2871 11.6099C13.2871 11.9021 13.0511 12.138 12.7589 12.138H10.437C10.4398 12.0719 10.4413 12.0064 10.4413 11.9416L10.4434 11.0817H12.7588C13.0511 11.0817 13.2871 11.3183 13.2871 11.6099Z" fill="#2B4D66"/>
<path d="M28.5026 8.52815C28.5026 8.8197 28.266 9.0563 27.9745 9.0563H25.6787V7.99994H27.9745C28.266 8.00001 28.5026 8.23592 28.5026 8.52815Z" fill="#2B4D66"/>
<path d="M28.5026 11.3444C28.5026 11.6366 28.266 11.8725 27.9745 11.8725H25.6787V10.8162H27.9745C28.266 10.8162 28.5026 11.0528 28.5026 11.3444Z" fill="#2B4D66"/>
<path d="M28.5026 14.1634C28.5026 14.455 28.266 14.6916 27.9745 14.6916H25.6787V13.6352H27.9745C28.266 13.6353 28.5026 13.8719 28.5026 14.1634Z" fill="#2B4D66"/>
</g>
<defs>
<clipPath id="clip0_180_4826">
<rect width="35" height="35" fill="white"/>
</clipPath>
</defs>
</svg>
