<svg width="16" height="16" viewBox="0 0 16 16" fill="none" xmlns="http://www.w3.org/2000/svg">
<path d="M13.3337 4.75067V4.66667C13.3323 3.42942 12.8401 2.24326 11.9653 1.36839C11.0904 0.49353 9.90424 0.00141157 8.667 0L5.33367 0C4.09642 0.00141157 2.91026 0.49353 2.03539 1.36839C1.16053 2.24326 0.668411 3.42942 0.666999 4.66667V9.24533C0.6652 10.3413 1.00289 11.411 1.63367 12.3073L2.00033 12.8307V13.3333C2.00033 14.0406 2.28128 14.7189 2.78138 15.219C3.28148 15.719 3.95976 16 4.667 16H10.667C11.3742 16 12.0525 15.719 12.5526 15.219C13.0527 14.7189 13.3337 14.0406 13.3337 13.3333V12.906L13.6757 12.5813C14.1985 12.0824 14.6149 11.4827 14.8999 10.8186C15.1848 10.1544 15.3324 9.43939 15.3337 8.71667V7.33333C15.3329 6.74226 15.1362 6.16812 14.7743 5.70079C14.4124 5.23346 13.9057 4.89932 13.3337 4.75067ZM10.667 14.6667H4.667C4.31338 14.6667 3.97424 14.5262 3.72419 14.2761C3.47414 14.0261 3.33367 13.687 3.33367 13.3333H12.0003C12.0003 13.687 11.8599 14.0261 11.6098 14.2761C11.3598 14.5262 11.0206 14.6667 10.667 14.6667ZM14.0003 8.71667C13.9992 9.25876 13.8885 9.79502 13.6747 10.2932C13.4609 10.7913 13.1485 11.2411 12.7563 11.6153L12.3517 12H3.04633L2.725 11.542C2.25226 10.8696 1.99914 10.0673 2.00033 9.24533V6.97533C2.4054 7.21023 2.86542 7.33374 3.33367 7.33333H8.00033C8.17714 7.33333 8.34671 7.2631 8.47174 7.13807C8.59676 7.01305 8.667 6.84348 8.667 6.66667C8.667 6.48986 8.59676 6.32029 8.47174 6.19526C8.34671 6.07024 8.17714 6 8.00033 6H3.33367C2.98004 6 2.64091 5.85952 2.39086 5.60948C2.14081 5.35943 2.00033 5.02029 2.00033 4.66667C2.00139 3.78294 2.35292 2.93571 2.97781 2.31081C3.6027 1.68592 4.44994 1.33439 5.33367 1.33333H8.667C9.55073 1.33439 10.398 1.68592 11.0229 2.31081C11.6477 2.93571 11.9993 3.78294 12.0003 4.66667V4.75067C11.4283 4.89932 10.9216 5.23346 10.5597 5.70079C10.1978 6.16812 10.0011 6.74226 10.0003 7.33333V9.33333C10.0003 9.51014 10.0706 9.67971 10.1956 9.80474C10.3206 9.92976 10.4902 10 10.667 10C10.8438 10 11.0134 9.92976 11.1384 9.80474C11.2634 9.67971 11.3337 9.51014 11.3337 9.33333V7.33333C11.3337 6.97971 11.4741 6.64057 11.7242 6.39052C11.9742 6.14048 12.3134 6 12.667 6C13.0206 6 13.3598 6.14048 13.6098 6.39052C13.8599 6.64057 14.0003 6.97971 14.0003 7.33333V8.71667Z" fill="#26D07C"/>
</svg>
