<svg width="16" height="16" viewBox="0 0 16 16" fill="none" xmlns="http://www.w3.org/2000/svg">
<path d="M15.6994 5.54147L8.19883 2.29123C8.07198 2.23626 7.92803 2.23626 7.80118 2.29123L0.30062 5.54147C-0.10016 5.71514 -0.100254 6.2854 0.30062 6.45907L2.99963 7.62863V10.7506C2.99963 12.433 5.19605 13.7508 8 13.7508C10.804 13.7508 13.0004 12.433 13.0004 10.7506V7.62863L13.5004 7.41195V12.7508C13.5004 13.0269 13.7243 13.2508 14.0004 13.2508C14.2766 13.2508 14.5005 13.0269 14.5005 12.7508V6.97861L15.6994 6.4591C16.1002 6.28543 16.1002 5.71517 15.6994 5.54147ZM8 3.29499L14.2429 6.00029L13.7478 6.21483L8.06201 5.50409C7.78796 5.47006 7.53806 5.66423 7.50381 5.93825C7.46956 6.21227 7.66395 6.4622 7.93797 6.49645L11.9427 6.99705L8 8.70555C4.47296 7.17715 5.22417 7.50268 1.75707 6.00025L8 3.29499ZM12.0003 10.7506C12.0003 11.2218 11.6136 11.7068 10.9394 12.0814C9.3336 12.9735 6.67109 12.9761 5.06063 12.0814C4.38639 11.7068 3.99971 11.2218 3.99971 10.7506V8.06203L7.80118 9.70934C7.92781 9.76422 8.07173 9.76441 8.19883 9.70934L12.0003 8.06203V10.7506Z" fill="#26D07C"/>
</svg>
