<svg width="16" height="16" viewBox="0 0 16 16" fill="none" xmlns="http://www.w3.org/2000/svg">
<g clip-path="url(#clip0_43_9757)">
<path d="M15.3333 4.66677H12.1273L12.6607 0.756769C12.6725 0.670009 12.6671 0.58177 12.6448 0.497092C12.6225 0.412413 12.5838 0.332952 12.5308 0.263246C12.4778 0.193541 12.4116 0.134955 12.336 0.0908338C12.2603 0.0467129 12.1768 0.017921 12.09 0.00610202C12.0032 -0.00571695 11.915 -0.000331543 11.8303 0.0219508C11.7456 0.0442331 11.6662 0.0829759 11.5965 0.135967C11.5268 0.188958 11.4682 0.255161 11.4241 0.330793C11.3799 0.406426 11.3512 0.490009 11.3393 0.576769L10.782 4.66677H6.12733L6.66067 0.756769C6.67249 0.670009 6.6671 0.58177 6.64482 0.497092C6.62254 0.412413 6.58379 0.332952 6.5308 0.263246C6.47781 0.193541 6.41161 0.134955 6.33598 0.0908338C6.26034 0.0467129 6.17676 0.017921 6.09 0.00610203C6.00324 -0.00571694 5.915 -0.000331526 5.83032 0.0219508C5.74564 0.0442331 5.66618 0.0829759 5.59648 0.135967C5.52677 0.188959 5.46819 0.255161 5.42407 0.330793C5.37994 0.406426 5.35115 0.490009 5.33933 0.576769L4.782 4.66677H1.33333C1.15652 4.66677 0.986953 4.73701 0.861929 4.86203C0.736905 4.98706 0.666667 5.15662 0.666667 5.33344C0.666667 5.51025 0.736905 5.67982 0.861929 5.80484C0.986953 5.92986 1.15652 6.0001 1.33333 6.0001H4.6L4.05467 10.0001H0.666667C0.489856 10.0001 0.320286 10.0703 0.195262 10.1954C0.0702379 10.3204 0 10.49 0 10.6668C0 10.8436 0.0702379 11.0131 0.195262 11.1382C0.320286 11.2632 0.489856 11.3334 0.666667 11.3334H3.87267L3.33933 15.2434C3.31546 15.4187 3.36218 15.5962 3.4692 15.737C3.57622 15.8777 3.73478 15.9702 3.91 15.9941C4.08522 16.018 4.26274 15.9713 4.40352 15.8642C4.5443 15.7572 4.6368 15.5987 4.66067 15.4234L5.218 11.3334H9.87267L9.33933 15.2434C9.31546 15.4187 9.36218 15.5962 9.4692 15.737C9.57622 15.8777 9.73478 15.9702 9.91 15.9941C10.0852 16.018 10.2627 15.9713 10.4035 15.8642C10.5443 15.7572 10.6368 15.5987 10.6607 15.4234L11.218 11.3334H14.6667C14.8435 11.3334 15.013 11.2632 15.1381 11.1382C15.2631 11.0131 15.3333 10.8436 15.3333 10.6668C15.3333 10.49 15.2631 10.3204 15.1381 10.1954C15.013 10.0703 14.8435 10.0001 14.6667 10.0001H11.4L11.9453 6.0001H15.3333C15.5101 6.0001 15.6797 5.92986 15.8047 5.80484C15.9298 5.67982 16 5.51025 16 5.33344C16 5.15662 15.9298 4.98706 15.8047 4.86203C15.6797 4.73701 15.5101 4.66677 15.3333 4.66677ZM10.0547 10.0001H5.4L5.94533 6.0001H10.6L10.0547 10.0001Z" fill="#26D07C"/>
</g>
<defs>
<clipPath id="clip0_43_9757">
<rect width="16" height="16" fill="white"/>
</clipPath>
</defs>
</svg>
