<svg width="16" height="16" viewBox="0 0 16 16" fill="none" xmlns="http://www.w3.org/2000/svg">
<g clip-path="url(#clip0_198_37332)">
<mask id="mask0_198_37332" style="mask-type:luminance" maskUnits="userSpaceOnUse" x="0" y="0" width="16" height="16">
<path d="M0 0H16V16H0V0Z" fill="white"/>
</mask>
<g mask="url(#mask0_198_37332)">
<path fill-rule="evenodd" clip-rule="evenodd" d="M1.3335 2C1.3335 0.89848 2.23198 0 3.3335 0H6.00016C7.1017 0 8.00016 0.89848 8.00016 2V14C8.00016 15.1015 7.1017 16 6.00016 16H3.3335C2.23198 16 1.3335 15.1015 1.3335 14V2ZM3.3335 1.33333C2.96835 1.33333 2.66683 1.63485 2.66683 2V14C2.66683 14.3651 2.96835 14.6667 3.3335 14.6667H6.00016C6.36531 14.6667 6.66683 14.3651 6.66683 14V2C6.66683 1.63485 6.36531 1.33333 6.00016 1.33333H3.3335Z" fill="#26D07C"/>
<path fill-rule="evenodd" clip-rule="evenodd" d="M1.3335 6.66667C1.3335 6.29848 1.63198 6 2.00016 6H4.66683C5.03502 6 5.3335 6.29848 5.3335 6.66667C5.3335 7.03487 5.03502 7.33333 4.66683 7.33333H2.00016C1.63198 7.33333 1.3335 7.03487 1.3335 6.66667Z" fill="#26D07C"/>
<path fill-rule="evenodd" clip-rule="evenodd" d="M1.3335 11.9997C1.3335 11.6315 1.63198 11.333 2.00016 11.333H4.66683C5.03502 11.333 5.3335 11.6315 5.3335 11.9997C5.3335 12.3679 5.03502 12.6663 4.66683 12.6663H2.00016C1.63198 12.6663 1.3335 12.3679 1.3335 11.9997Z" fill="#26D07C"/>
<path fill-rule="evenodd" clip-rule="evenodd" d="M1.3335 3.99967C1.3335 3.63149 1.63198 3.33301 2.00016 3.33301H4.00016C4.36835 3.33301 4.66683 3.63149 4.66683 3.99967C4.66683 4.36786 4.36835 4.66634 4.00016 4.66634H2.00016C1.63198 4.66634 1.3335 4.36786 1.3335 3.99967Z" fill="#26D07C"/>
<path fill-rule="evenodd" clip-rule="evenodd" d="M1.3335 9.33366C1.3335 8.96546 1.63198 8.66699 2.00016 8.66699H4.00016C4.36835 8.66699 4.66683 8.96546 4.66683 9.33366C4.66683 9.70186 4.36835 10.0003 4.00016 10.0003H2.00016C1.63198 10.0003 1.3335 9.70186 1.3335 9.33366Z" fill="#26D07C"/>
<path fill-rule="evenodd" clip-rule="evenodd" d="M11.5287 0.195262C11.7891 -0.0650874 12.2112 -0.0650874 12.4715 0.195262L14.4715 2.19526C14.7319 2.45561 14.7319 2.87772 14.4715 3.13807C14.2112 3.39842 13.7891 3.39842 13.5287 3.13807L12.0001 1.60947L10.4715 3.13807C10.2112 3.39842 9.78908 3.39842 9.52875 3.13807C9.26841 2.87772 9.26841 2.45561 9.52875 2.19526L11.5287 0.195262Z" fill="#26D07C"/>
<path fill-rule="evenodd" clip-rule="evenodd" d="M9.52875 12.8622C9.78908 12.6019 10.2112 12.6019 10.4715 12.8622L12.0001 14.3908L13.5287 12.8622C13.7891 12.6019 14.2112 12.6019 14.4715 12.8622C14.7319 13.1226 14.7319 13.5447 14.4715 13.805L12.4715 15.805C12.2112 16.0654 11.7891 16.0654 11.5287 15.805L9.52875 13.805C9.26841 13.5447 9.26841 13.1226 9.52875 12.8622Z" fill="#26D07C"/>
<path fill-rule="evenodd" clip-rule="evenodd" d="M12.0002 0C12.3684 0 12.6668 0.298477 12.6668 0.666667V15.3333C12.6668 15.7015 12.3684 16 12.0002 16C11.632 16 11.3335 15.7015 11.3335 15.3333V0.666667C11.3335 0.298477 11.632 0 12.0002 0Z" fill="#26D07C"/>
</g>
</g>
<defs>
<clipPath id="clip0_198_37332">
<rect width="16" height="16" fill="white"/>
</clipPath>
</defs>
</svg>
