<svg width="16" height="16" viewBox="0 0 16 16" fill="none" xmlns="http://www.w3.org/2000/svg">
<g clip-path="url(#clip0_1353_116705)">
<path d="M6.51042 10.9993C6.87861 10.9993 7.17708 10.7009 7.17708 10.3327C7.17708 9.96449 6.87861 9.66602 6.51042 9.66602C6.14223 9.66602 5.84375 9.96449 5.84375 10.3327C5.84375 10.7009 6.14223 10.9993 6.51042 10.9993Z" fill="#26D07C"/>
<path d="M14.501 9.72298C14.425 9.54631 14.2763 9.41165 14.0943 9.35231C13.959 9.30831 13.0097 9.00498 12.221 8.85631V6.26831C12.6383 5.99565 12.9677 5.59165 13.1597 5.09498C13.485 4.25031 13.345 3.33365 12.785 2.64365C11.713 1.32298 9.98633 0.675647 7.50633 0.666314C5.22367 0.651647 3.621 1.17765 2.54233 2.25631C1.45633 3.34231 0.954334 4.95298 0.963001 7.32565C0.973668 10.2756 1.35433 13.4236 5.763 13.4236C7.455 13.4236 9.38233 12.803 9.869 12.6363H10.8883V14.055C10.8883 14.3583 11.093 14.6236 11.3863 14.7003L13.7203 15.3116C13.7763 15.3256 13.833 15.333 13.889 15.333C14.1503 15.333 14.3943 15.1796 14.501 14.9303C15.2137 13.2763 15.2137 11.3783 14.501 9.72298ZM13.6017 11.3036H12.221V10.217C12.5977 10.301 13.0323 10.4216 13.3863 10.5283C13.4783 10.7816 13.5503 11.041 13.6017 11.3036ZM9.467 8.95498C9.301 8.39898 9.40433 7.81365 9.74967 7.34965C10.0317 6.97165 10.4363 6.72831 10.8877 6.65765V8.85698C10.431 8.94298 9.91967 9.08098 9.54433 9.19031L9.467 8.95431V8.95498ZM5.76233 12.091C3.08633 12.091 2.309 11.0216 2.29567 7.32165C2.28833 5.32765 2.66633 4.01831 3.48433 3.19965C4.29167 2.39298 5.589 2.00031 7.45033 2.00031H7.501C9.55567 2.00831 10.945 2.49365 11.7497 3.48431C12.005 3.79898 12.067 4.22231 11.915 4.61565C11.7743 4.97965 11.4777 5.23365 11.1063 5.30298C10.143 5.31965 9.26033 5.77365 8.67967 6.55298C8.08033 7.35831 7.901 8.37231 8.19367 9.35365L8.911 11.5416C8.169 11.7636 6.88033 12.091 5.761 12.091H5.76233ZM10.2377 11.3036L9.96033 10.4576C10.2603 10.371 10.5917 10.283 10.8877 10.217V11.3036H10.2377ZM12.221 13.541V12.637H13.693C13.6683 13.0536 13.595 13.467 13.4723 13.869L12.221 13.541Z" fill="#26D07C"/>
</g>
<defs>
<clipPath id="clip0_1353_116705">
<rect width="16" height="16" fill="white"/>
</clipPath>
</defs>
</svg>
