<svg width="16" height="16" viewBox="0 0 16 16" fill="none" xmlns="http://www.w3.org/2000/svg">
<g clip-path="url(#clip0_1353_116694)">
<path d="M2.39961 16H13.5996C13.8118 16 14.0153 15.9157 14.1653 15.7657C14.3153 15.6157 14.3996 15.4122 14.3996 15.2V5.79683C14.3987 5.68424 14.3624 5.57477 14.296 5.48387C14.2295 5.39297 14.1362 5.32522 14.0292 5.29017C12.042 4.61977 12.4484 2.3323 12.7153 1.3803C12.7525 1.24853 12.7373 1.10752 12.673 0.986653C12.6087 0.865787 12.5003 0.774388 12.3703 0.731501L10.2172 0.013634C10.1709 -0.000949205 10.1215 -0.00295498 10.0741 0.00782201C10.0267 0.018599 9.98308 0.0417716 9.94761 0.0749673C9.94281 0.080034 9.43961 0.533367 7.99961 0.533367C6.55961 0.533367 6.05641 0.080034 6.05481 0.0781673C6.01981 0.0431461 5.97575 0.0185599 5.92757 0.00716216C5.87939 -0.00423556 5.82899 -0.00199463 5.78201 0.013634L3.62921 0.731501C3.49923 0.774278 3.39078 0.865562 3.32644 0.98633C3.26211 1.1071 3.24686 1.24803 3.28388 1.37977C3.55054 2.3323 3.95614 4.61977 1.96948 5.2899C1.86257 5.32513 1.7694 5.39298 1.70305 5.48391C1.63671 5.57484 1.60053 5.68428 1.59961 5.79683V15.2C1.59961 15.4122 1.68389 15.6157 1.83392 15.7657C1.98395 15.9157 2.18744 16 2.39961 16ZM11.6692 1.0587L12.2025 1.23577C11.9625 2.09337 11.3719 4.95577 13.8671 5.79577V6.4731C13.4332 6.33979 13.0309 6.12005 12.6842 5.82711C12.3376 5.53417 12.0538 5.17409 11.85 4.76857C11.4167 3.9443 11.2604 2.30883 11.6692 1.0587ZM7.99961 1.0667C8.63892 1.0901 9.27593 0.977769 9.86868 0.737101C9.84468 1.2059 9.73161 1.9403 9.28628 2.4267C9.12067 2.59846 8.92007 2.7326 8.69807 2.82002C8.47607 2.90744 8.23786 2.9461 7.99961 2.93337C7.76136 2.9461 7.52315 2.90744 7.30115 2.82002C7.07915 2.7326 6.87855 2.59846 6.71294 2.4267C6.26761 1.9403 6.15454 1.20563 6.13054 0.737101C6.72329 0.977769 7.3603 1.0901 7.99961 1.0667ZM2.14014 5.79523C4.62734 4.95603 4.03774 2.09337 3.79774 1.23737L4.33108 1.05977C4.73934 2.3099 4.58281 3.94457 4.15001 4.7707C3.94692 5.17505 3.66418 5.53417 3.3188 5.82649C2.97341 6.11881 2.5725 6.3383 2.14014 6.47177V5.79523ZM2.14014 7.0323C3.85454 6.49283 4.43081 5.38883 4.62334 5.0171C5.10574 4.0963 5.30281 2.3107 4.83668 0.891234L5.59214 0.640034C5.60494 1.17337 5.71828 2.12937 6.31748 2.78563C6.53229 3.01357 6.7938 3.19243 7.08412 3.30997C7.37444 3.42752 7.68672 3.48098 7.99961 3.4667C8.31256 3.48088 8.62487 3.42729 8.9152 3.30961C9.20552 3.19192 9.467 3.01292 9.68174 2.78483C10.2809 2.12857 10.3945 1.17337 10.4071 0.640034L11.1631 0.891501C10.6969 2.31123 10.894 4.0971 11.3764 5.01737C11.57 5.3907 12.1479 6.49657 13.8665 7.0355V15.2C13.8665 15.2708 13.8384 15.3386 13.7884 15.3886C13.7384 15.4386 13.6706 15.4667 13.5999 15.4667H2.39961C2.32889 15.4667 2.26106 15.4386 2.21105 15.3886C2.16104 15.3386 2.13294 15.2708 2.13294 15.2L2.14014 7.0323Z" fill="#26D07C" stroke="#26D07C" stroke-width="0.3"/>
<path d="M6.13288 5.33314H6.66621C6.73694 5.33314 6.80476 5.30504 6.85477 5.25503C6.90478 5.20502 6.93288 5.1372 6.93288 5.06647C6.93288 4.99575 6.90478 4.92792 6.85477 4.87791C6.80476 4.8279 6.73694 4.7998 6.66621 4.7998H6.13288C6.06215 4.7998 5.99433 4.8279 5.94432 4.87791C5.89431 4.92792 5.86621 4.99575 5.86621 5.06647C5.86621 5.1372 5.89431 5.20502 5.94432 5.25503C5.99433 5.30504 6.06215 5.33314 6.13288 5.33314Z" fill="#26D07C" stroke="#26D07C" stroke-width="0.3"/>
<path d="M7.73346 5.33314H8.2668C8.33752 5.33314 8.40535 5.30504 8.45536 5.25503C8.50537 5.20502 8.53346 5.1372 8.53346 5.06647C8.53346 4.99575 8.50537 4.92792 8.45536 4.87791C8.40535 4.8279 8.33752 4.7998 8.2668 4.7998H7.73346C7.66274 4.7998 7.59491 4.8279 7.5449 4.87791C7.49489 4.92792 7.4668 4.99575 7.4668 5.06647C7.4668 5.1372 7.49489 5.20502 7.5449 5.25503C7.59491 5.30504 7.66274 5.33314 7.73346 5.33314Z" fill="#26D07C" stroke="#26D07C" stroke-width="0.3"/>
<path d="M9.33307 5.33314H9.86641C9.93713 5.33314 10.005 5.30504 10.055 5.25503C10.105 5.20502 10.1331 5.1372 10.1331 5.06647C10.1331 4.99575 10.105 4.92792 10.055 4.87791C10.005 4.8279 9.93713 4.7998 9.86641 4.7998H9.33307C9.26235 4.7998 9.19452 4.8279 9.14451 4.87791C9.0945 4.92792 9.06641 4.99575 9.06641 5.06647C9.06641 5.1372 9.0945 5.20502 9.14451 5.25503C9.19452 5.30504 9.26235 5.33314 9.33307 5.33314Z" fill="#26D07C" stroke="#26D07C" stroke-width="0.3"/>
<path d="M6.44708 8.32039C6.04974 8.54866 5.59961 8.80839 5.59961 9.33372C5.59961 9.40445 5.6277 9.47228 5.67771 9.52229C5.72772 9.5723 5.79555 9.60039 5.86628 9.60039H7.46628C7.537 9.60039 7.60483 9.5723 7.65484 9.52229C7.70485 9.47228 7.73294 9.40445 7.73294 9.33372C7.73294 9.263 7.70485 9.19517 7.65484 9.14516C7.60483 9.09515 7.537 9.06706 7.46628 9.06706H6.27774C6.41389 8.95844 6.55985 8.86274 6.71374 8.78119C7.16788 8.51879 7.73294 8.19266 7.73294 7.46706C7.73294 7.18416 7.62056 6.91285 7.42052 6.71281C7.22048 6.51277 6.94917 6.40039 6.66628 6.40039C6.38338 6.40039 6.11207 6.51277 5.91203 6.71281C5.71199 6.91285 5.59961 7.18416 5.59961 7.46706C5.59961 7.53778 5.6277 7.60561 5.67771 7.65562C5.72772 7.70563 5.79555 7.73372 5.86628 7.73372C5.937 7.73372 6.00483 7.70563 6.05484 7.65562C6.10485 7.60561 6.13294 7.53778 6.13294 7.46706C6.13294 7.32561 6.18913 7.18995 6.28915 7.08993C6.38917 6.98991 6.52483 6.93372 6.66628 6.93372C6.80772 6.93372 6.94338 6.98991 7.0434 7.08993C7.14342 7.18995 7.19961 7.32561 7.19961 7.46706C7.19961 7.85666 6.91534 8.04892 6.44708 8.32039Z" fill="#26D07C" stroke="#26D07C" stroke-width="0.3"/>
<path d="M8.53327 7.73372C8.60399 7.73372 8.67182 7.70563 8.72183 7.65562C8.77184 7.60561 8.79993 7.53778 8.79993 7.46706C8.79993 7.32561 8.85612 7.18995 8.95614 7.08993C9.05616 6.98991 9.19182 6.93372 9.33327 6.93372C9.47472 6.93372 9.61037 6.98991 9.71039 7.08993C9.81041 7.18995 9.8666 7.32561 9.8666 7.46706C9.8666 7.85666 9.58234 8.04892 9.11407 8.32039C8.71674 8.54866 8.2666 8.80839 8.2666 9.33372C8.2666 9.40445 8.2947 9.47228 8.34471 9.52229C8.39472 9.5723 8.46254 9.60039 8.53327 9.60039H10.1333C10.204 9.60039 10.2718 9.5723 10.3218 9.52229C10.3718 9.47228 10.3999 9.40445 10.3999 9.33372C10.3999 9.263 10.3718 9.19517 10.3218 9.14516C10.2718 9.09515 10.204 9.06706 10.1333 9.06706H8.94473C9.08088 8.95844 9.22684 8.86274 9.38074 8.78119C9.83487 8.51879 10.3999 8.19266 10.3999 7.46706C10.3999 7.18416 10.2876 6.91285 10.0875 6.71281C9.88748 6.51277 9.61617 6.40039 9.33327 6.40039C9.05037 6.40039 8.77906 6.51277 8.57902 6.71281C8.37898 6.91285 8.2666 7.18416 8.2666 7.46706C8.2666 7.53778 8.2947 7.60561 8.34471 7.65562C8.39472 7.70563 8.46254 7.73372 8.53327 7.73372Z" fill="#26D07C" stroke="#26D07C" stroke-width="0.3"/>
</g>
<defs>
<clipPath id="clip0_1353_116694">
<rect width="16" height="16" fill="white"/>
</clipPath>
</defs>
</svg>
