<svg width="281" height="102" viewBox="0 0 281 102" fill="none" xmlns="http://www.w3.org/2000/svg">
<path d="M11.0887 60.0852H0V102H281V0C274.352 0 268.101 3.16893 264.172 8.5319L254.695 21.4664C250.926 26.612 244.929 29.6525 238.55 29.6525C232.171 29.6525 226.174 32.6929 222.404 37.8385L216.442 45.9758C212.46 51.4112 206.125 54.623 199.387 54.623C192.649 54.623 186.314 51.4112 182.332 45.9758L167.379 25.5663C162.971 19.5511 155.961 15.9967 148.504 15.9967C141.047 15.9967 134.037 19.5511 129.63 25.5663L120.972 37.3829C116.087 44.0504 108.316 47.9902 100.051 47.9902H98.2677C91.123 47.9902 84.4062 44.5847 80.1836 38.8213C75.961 33.058 69.2442 29.6525 62.0995 29.6525H61.031C53.2147 29.6525 45.8665 33.3781 41.2469 39.6832L35.2886 47.8156C29.638 55.528 20.6496 60.0852 11.0887 60.0852Z" fill="url(#paint0_linear_1360_10489)"/>
<defs>
<linearGradient id="paint0_linear_1360_10489" x1="140.5" y1="0" x2="140.5" y2="102" gradientUnits="userSpaceOnUse">
<stop stop-color="#26D07C"/>
<stop offset="1" stop-color="white" stop-opacity="0"/>
</linearGradient>
</defs>
</svg>
