<svg width="16" height="16" viewBox="0 0 16 16" fill="none" xmlns="http://www.w3.org/2000/svg">
<g clip-path="url(#clip0_1349_98419)">
<path d="M13.3007 3.69333L10.9807 1.36667C10.1007 0.486667 8.92732 0 7.68065 0H4.66732C2.82732 0 1.33398 1.49333 1.33398 3.33333V12.6667C1.33398 14.5067 2.82732 16 4.66732 16H6.00065C6.36732 16 6.66732 15.7 6.66732 15.3333C6.66732 14.9667 6.36732 14.6667 6.00065 14.6667H4.66732C3.56732 14.6667 2.66732 13.7667 2.66732 12.6667V3.33333C2.66732 2.23333 3.56732 1.33333 4.66732 1.33333H7.67398C7.78065 1.33333 7.89398 1.33333 8.00065 1.34667V4.66667C8.00065 5.76667 8.90065 6.66667 10.0007 6.66667H13.3207C13.334 6.77333 13.334 6.88 13.334 6.99333V12.6667C13.334 13.38 12.9473 14.04 12.334 14.4C12.014 14.5867 11.9073 14.9933 12.094 15.3133C12.274 15.6333 12.6807 15.74 13.0073 15.56C14.034 14.9667 14.674 13.86 14.674 12.6733V6.99333C14.674 5.74667 14.1873 4.57333 13.3073 3.69333H13.3007ZM10.0007 5.33333C9.63398 5.33333 9.33398 5.03333 9.33398 4.66667V1.77333C9.58732 1.92 9.82065 2.1 10.034 2.31333L12.354 4.64C12.5673 4.85333 12.7473 5.08667 12.894 5.34H10.0007V5.33333ZM9.33398 8C7.86065 8 6.66732 9.19333 6.66732 10.6667C6.66732 11.6533 7.20732 12.5133 8.00065 12.9733V15.5133C8.00065 15.94 8.52065 16.1533 8.82065 15.8533L9.33398 15.34L9.84732 15.8533C10.1473 16.1533 10.6673 15.94 10.6673 15.5133V12.9733C11.4607 12.5133 12.0007 11.6467 12.0007 10.6667C12.0007 9.19333 10.8073 8 9.33398 8ZM9.33398 12C8.60065 12 8.00065 11.4 8.00065 10.6667C8.00065 9.93333 8.60065 9.33333 9.33398 9.33333C10.0673 9.33333 10.6673 9.93333 10.6673 10.6667C10.6673 11.4 10.0673 12 9.33398 12Z" fill="#26D07C"/>
</g>
<defs>
<clipPath id="clip0_1349_98419">
<rect width="16" height="16" fill="white"/>
</clipPath>
</defs>
</svg>
