<svg width="16" height="16" viewBox="0 0 16 16" fill="none" xmlns="http://www.w3.org/2000/svg">
<g clip-path="url(#clip0_43_16245)">
<path d="M13.3 3.69333L10.98 1.36667C10.1 0.486667 8.92671 0 7.68004 0H4.66671C2.82671 0 1.33337 1.49333 1.33337 3.33333V12.6667C1.33337 14.5067 2.82671 16 4.66671 16H6.00004C6.36671 16 6.66671 15.7 6.66671 15.3333C6.66671 14.9667 6.36671 14.6667 6.00004 14.6667H4.66671C3.56671 14.6667 2.66671 13.7667 2.66671 12.6667V3.33333C2.66671 2.23333 3.56671 1.33333 4.66671 1.33333H7.67337C7.78004 1.33333 7.89337 1.33333 8.00004 1.34667V4.66667C8.00004 5.76667 8.90004 6.66667 10 6.66667H13.32C13.3334 6.77333 13.3334 6.88 13.3334 6.99333V12.6667C13.3334 13.38 12.9467 14.04 12.3334 14.4C12.0134 14.5867 11.9067 14.9933 12.0934 15.3133C12.2734 15.6333 12.68 15.74 13.0067 15.56C14.0334 14.9667 14.6734 13.86 14.6734 12.6733V6.99333C14.6734 5.74667 14.1867 4.57333 13.3067 3.69333H13.3ZM10 5.33333C9.63337 5.33333 9.33337 5.03333 9.33337 4.66667V1.77333C9.58671 1.92 9.82004 2.1 10.0334 2.31333L12.3534 4.64C12.5667 4.85333 12.7467 5.08667 12.8934 5.34H10V5.33333ZM9.33337 8C7.86004 8 6.66671 9.19333 6.66671 10.6667C6.66671 11.6533 7.20671 12.5133 8.00004 12.9733V15.5133C8.00004 15.94 8.52004 16.1533 8.82004 15.8533L9.33337 15.34L9.84671 15.8533C10.1467 16.1533 10.6667 15.94 10.6667 15.5133V12.9733C11.46 12.5133 12 11.6467 12 10.6667C12 9.19333 10.8067 8 9.33337 8ZM9.33337 12C8.60004 12 8.00004 11.4 8.00004 10.6667C8.00004 9.93333 8.60004 9.33333 9.33337 9.33333C10.0667 9.33333 10.6667 9.93333 10.6667 10.6667C10.6667 11.4 10.0667 12 9.33337 12Z" fill="#26D07C"/>
</g>
<defs>
<clipPath id="clip0_43_16245">
<rect width="16" height="16" fill="white"/>
</clipPath>
</defs>
</svg>
