<svg width="24" height="24" viewBox="0 0 24 24" fill="none" xmlns="http://www.w3.org/2000/svg">
<path d="M11.9864 13.9906C13.0949 13.9906 14.0395 13.6003 14.8202 12.8197C15.6008 12.039 15.9911 11.1023 15.9911 10.0094C15.9911 8.90086 15.6008 7.95628 14.8202 7.17564C14.0395 6.395 13.0949 6.00468 11.9864 6.00468C10.8779 6.00468 9.93334 6.395 9.1527 7.17564C8.37206 7.95628 7.98174 8.90086 7.98174 10.0094C7.98174 11.1023 8.37206 12.039 9.1527 12.8197C9.93334 13.6003 10.8779 13.9906 11.9864 13.9906ZM11.9864 7.99532C12.5329 7.99532 13.0013 8.19048 13.3916 8.5808C13.7819 8.97112 13.9771 9.44731 13.9771 10.0094C13.9771 10.5558 13.7819 11.0242 13.3916 11.4145C13.0013 11.8048 12.5329 12 11.9864 12C11.44 12 10.9716 11.8048 10.5813 11.4145C10.191 11.0242 9.99579 10.5558 9.99579 10.0094C9.99579 9.44731 10.191 8.97112 10.5813 8.5808C10.9716 8.19048 11.44 7.99532 11.9864 7.99532ZM11.4009 21.8126C11.479 21.8595 11.5688 21.9024 11.6703 21.9415C11.7718 21.9805 11.8771 22 11.9864 22C12.0957 22 12.2011 21.9805 12.3026 21.9415C12.4041 21.9024 12.4938 21.8595 12.5719 21.8126C12.65 21.7502 13.0793 21.4067 13.86 20.7822C14.6406 20.1421 15.4876 19.2912 16.4009 18.2295C17.3143 17.1678 18.1379 15.9344 18.8717 14.5293C19.6211 13.1241 19.988 11.6175 19.9724 10.0094C19.9724 8.90086 19.7616 7.86261 19.3401 6.89461C18.9341 5.92662 18.3682 5.07963 17.6422 4.35363C16.9162 3.62764 16.0692 3.05386 15.1012 2.63232C14.1332 2.21077 13.0949 2 11.9864 2C10.8779 2 9.83967 2.21077 8.87167 2.63232C7.90368 3.05386 7.05668 3.62764 6.33069 4.35363C5.60469 5.07963 5.03873 5.92662 4.6328 6.89461C4.21125 7.86261 4.00048 8.89305 4.00048 9.98595C3.98487 11.6097 4.35177 13.1241 5.10118 14.5293C5.83498 15.9344 6.65856 17.1678 7.57191 18.2295C8.48526 19.2912 9.33225 20.1421 10.1129 20.7822C10.8935 21.4067 11.3229 21.7502 11.4009 21.8126ZM11.9864 4.01405C12.8139 4.01405 13.5945 4.17018 14.3283 4.48244C15.0465 4.79469 15.6789 5.22404 16.2253 5.77049C16.7718 6.31694 17.2011 6.94926 17.5134 7.66745C17.8256 8.40125 17.9817 9.18189 17.9817 10.0094C17.9817 11.1179 17.7476 12.1874 17.2792 13.2178C16.8108 14.2482 16.2487 15.1889 15.593 16.0398C14.9372 16.8907 14.2737 17.6362 13.6024 18.2763C12.931 18.9165 12.3924 19.4005 11.9864 19.7283C11.5805 19.4005 11.0419 18.9165 10.3705 18.2763C9.69915 17.6362 9.03561 16.8907 8.37987 16.0398C7.72413 15.1889 7.16207 14.2482 6.69369 13.2178C6.2253 12.1874 5.99111 11.1179 5.99111 10.0094C5.99111 9.18189 6.14724 8.40125 6.45949 7.66745C6.77175 6.93365 7.2011 6.29742 7.74755 5.75878C8.294 5.22014 8.92632 4.79469 9.64451 4.48244C10.3783 4.17018 11.1589 4.01405 11.9864 4.01405Z" fill="#697A8D"/>
</svg>
