<svg width="16" height="16" viewBox="0 0 16 16" fill="none" xmlns="http://www.w3.org/2000/svg">
<g clip-path="url(#clip0_43_9769)">
<path d="M7.97199 16.005L7.50727 15.6067C6.86661 15.0702 1.27264 10.2391 1.27264 6.7052C1.27264 3.00527 4.27205 0.00585938 7.97199 0.00585938C11.6719 0.00585938 14.6713 3.00527 14.6713 6.7052C14.6713 10.2391 9.07736 15.0703 8.43936 15.6093L7.97199 16.005ZM7.97199 1.45445C5.07346 1.45773 2.72455 3.80664 2.72127 6.70517C2.72127 8.92523 6.16289 12.4717 7.97199 14.095C9.78111 12.4711 13.2227 8.92255 13.2227 6.70517C13.2194 3.80664 10.8706 1.45777 7.97199 1.45445Z" fill="#26D07C"/>
<path d="M7.97197 9.36093C6.50534 9.36093 5.31641 8.17199 5.31641 6.70537C5.31641 5.23874 6.50534 4.0498 7.97197 4.0498C9.43859 4.0498 10.6275 5.23874 10.6275 6.70537C10.6275 8.17199 9.43862 9.36093 7.97197 9.36093ZM7.97197 5.37755C7.23866 5.37755 6.64419 5.97202 6.64419 6.70534C6.64419 7.43865 7.23866 8.03312 7.97197 8.03312C8.70528 8.03312 9.29975 7.43865 9.29975 6.70534C9.29975 5.97202 8.70531 5.37755 7.97197 5.37755Z" fill="#26D07C"/>
</g>
<defs>
<clipPath id="clip0_43_9769">
<rect width="16" height="16" fill="white"/>
</clipPath>
</defs>
</svg>
