<svg width="16" height="16" viewBox="0 0 16 16" fill="none" xmlns="http://www.w3.org/2000/svg">
<g clip-path="url(#clip0_156_16085)">
<path d="M15.0625 0.78125H0.9375C0.420563 0.78125 0 1.20181 0 1.71875V11.0312C0 11.5482 0.420563 11.9688 0.9375 11.9688H5.53125V14.2812H3C2.74113 14.2812 2.53125 14.4911 2.53125 14.75C2.53125 15.0089 2.74113 15.2188 3 15.2188H13C13.2589 15.2188 13.4688 15.0089 13.4688 14.75C13.4688 14.4911 13.2589 14.2812 13 14.2812H10.4688V11.9688H15.0625C15.5794 11.9688 16 11.5482 16 11.0312V1.71875C16 1.20181 15.5794 0.78125 15.0625 0.78125ZM9.53125 14.2812H6.46875V11.9688H9.53125V14.2812ZM15.0625 11.0312C14.6513 11.0312 1.267 11.0312 0.9375 11.0312V1.71875H15.0625C15.0631 11.2335 15.0656 11.0312 15.0625 11.0312Z" fill="#26D07C"/>
</g>
<defs>
<clipPath id="clip0_156_16085">
<rect width="16" height="16" fill="white"/>
</clipPath>
</defs>
</svg>
