<svg width="45" height="45" viewBox="0 0 45 45" fill="none" xmlns="http://www.w3.org/2000/svg">
<rect x="0.59375" y="0.453125" width="44" height="44" rx="6" fill="#009B73"/>
<path fill-rule="evenodd" clip-rule="evenodd" d="M10.1115 21.0884C9.59589 21.0884 9.0151 20.9581 8.40491 20.5871C8.28362 20.5134 8.24478 20.3553 8.31883 20.2341C8.39246 20.1128 8.55031 20.0743 8.67163 20.148C10.2315 21.0963 11.5634 20.186 11.8141 19.9939C11.8195 19.9901 11.8243 19.9865 11.8297 19.983C13.6045 18.8201 15.2906 19.3558 15.9329 19.64C16.0627 19.6974 16.1211 19.8492 16.064 19.9789C16.0065 20.1087 15.8548 20.1673 15.725 20.11C15.1604 19.86 13.6799 19.3897 12.1187 20.4079C11.9078 20.5678 11.141 21.0884 10.1115 21.0884Z" fill="#F1EB9C" stroke="#F1EB9C" stroke-width="0.3"/>
<path fill-rule="evenodd" clip-rule="evenodd" d="M10.1115 22.7561C9.59589 22.7561 9.0151 22.6258 8.40491 22.2548C8.28362 22.181 8.24478 22.023 8.31883 21.9018C8.39246 21.7805 8.55031 21.742 8.67163 21.8157C10.2315 22.764 11.5634 21.8537 11.8141 21.6616C11.8195 21.6577 11.8243 21.6541 11.8297 21.6507C13.6045 20.4878 15.2906 21.0235 15.9329 21.3077C16.0627 21.3651 16.1211 21.5169 16.064 21.6466C16.0065 21.7764 15.8548 21.835 15.725 21.7776C15.1604 21.5278 13.6799 21.0574 12.1187 22.0756C11.9078 22.2355 11.141 22.7561 10.1115 22.7561Z" fill="#F1EB9C" stroke="#F1EB9C" stroke-width="0.3"/>
<path fill-rule="evenodd" clip-rule="evenodd" d="M10.1114 24.4238C9.59579 24.4239 9.015 24.2936 8.40481 23.9226C8.32814 23.876 8.28125 23.7927 8.28125 23.703L8.28126 18.6997C8.28126 18.6069 8.33121 18.5214 8.41239 18.4759C8.49313 18.4304 8.59216 18.4321 8.67154 18.4802C10.2314 19.4286 11.5633 18.5183 11.814 18.3261C11.8194 18.3223 11.8242 18.3187 11.8296 18.3153C13.6044 17.1524 15.2905 17.688 15.9328 17.9723C16.0626 18.0296 16.121 18.1814 16.0639 18.3112C16.0064 18.4409 15.8547 18.4995 15.7249 18.4422C15.1603 18.1923 13.6798 17.722 12.1186 18.7402C11.8247 18.9628 10.454 19.8848 8.7951 19.1269L8.79511 23.5549C10.3014 24.3841 11.5695 23.5164 11.814 23.3293C11.8194 23.3255 11.8242 23.3219 11.8296 23.3185C13.6044 22.1556 15.2905 22.6912 15.9328 22.9755C16.0626 23.0329 16.121 23.1847 16.0639 23.3144C16.0064 23.4441 15.8547 23.5028 15.7249 23.4454C15.1603 23.1955 13.6798 22.7251 12.1186 23.7434C11.9077 23.9033 11.1409 24.4238 10.1114 24.4238Z" fill="#F1EB9C" stroke="#F1EB9C" stroke-width="0.3"/>
<path fill-rule="evenodd" clip-rule="evenodd" d="M14.3702 23.1206C14.2284 23.1206 14.1133 23.0057 14.1133 22.8637V17.8605C14.1133 17.7186 14.2284 17.6036 14.3702 17.6036C14.5121 17.6036 14.6271 17.7186 14.6271 17.8605V22.8637C14.6271 23.0057 14.512 23.1207 14.3702 23.1206Z" fill="#F1EB9C" stroke="#F1EB9C" stroke-width="0.3"/>
<path fill-rule="evenodd" clip-rule="evenodd" d="M12.9132 23.3249C12.7714 23.3249 12.6562 23.2099 12.6562 23.068L12.6563 18.0645C12.6563 17.9225 12.7713 17.8076 12.9132 17.8076C13.055 17.8076 13.1701 17.9226 13.1701 18.0645L13.1701 23.0679C13.1701 23.2099 13.055 23.325 12.9132 23.3249Z" fill="#F1EB9C" stroke="#F1EB9C" stroke-width="0.3"/>
<path fill-rule="evenodd" clip-rule="evenodd" d="M11.4542 24.1049C11.3124 24.1049 11.1973 23.9899 11.1973 23.848L11.1973 18.8447C11.1973 18.7029 11.3124 18.5879 11.4542 18.5879C11.5961 18.5878 11.7111 18.7029 11.7111 18.8448L11.7112 23.8479C11.7112 23.9898 11.596 24.1049 11.4542 24.1049Z" fill="#F1EB9C" stroke="#F1EB9C" stroke-width="0.3"/>
<path fill-rule="evenodd" clip-rule="evenodd" d="M9.99719 24.4223C9.85532 24.4223 9.74023 24.3072 9.74023 24.1653L9.74026 19.1623C9.74026 19.0205 9.85532 18.9055 9.99716 18.9055C10.139 18.9055 10.2541 19.0205 10.2541 19.1624L10.2541 24.1653C10.2541 24.3072 10.139 24.4223 9.99719 24.4223Z" fill="#F1EB9C" stroke="#F1EB9C" stroke-width="0.3"/>
<path fill-rule="evenodd" clip-rule="evenodd" d="M27.8644 31.1C27.7225 31.1 27.6074 30.9849 27.6074 30.8431L27.6074 24.4027C27.6074 24.2608 27.7225 24.1458 27.8643 24.1458C28.0062 24.1458 28.1213 24.2608 28.1213 24.4027L28.1213 30.8431C28.1213 30.9849 28.0062 31.1 27.8644 31.1Z" fill="#F1EB9C" stroke="#F1EB9C" stroke-width="0.3"/>
<path fill-rule="evenodd" clip-rule="evenodd" d="M22.2446 24.9061C21.0894 24.9061 20.0371 24.1849 20.0371 23.3929C20.0372 23.251 20.1522 23.136 20.294 23.136C20.4359 23.136 20.551 23.251 20.551 23.3929C20.551 23.7954 21.2624 24.3923 22.2446 24.3923C23.2429 24.3922 23.965 23.7954 23.965 23.3929C23.965 23.251 24.0801 23.136 24.2219 23.136C24.3638 23.136 24.4789 23.251 24.4789 23.3929C24.4789 24.1849 23.4142 24.9061 22.2446 24.9061Z" fill="#F1EB9C" stroke="#F1EB9C" stroke-width="0.3"/>
<path fill-rule="evenodd" clip-rule="evenodd" d="M22.2452 31.1004C22.1034 31.1004 21.9883 30.9854 21.9883 30.8435L21.9883 24.6486C21.9883 24.5067 22.1034 24.3917 22.2452 24.3917C22.3871 24.3917 22.5021 24.5068 22.5021 24.6486L22.5022 30.8435C22.5022 30.9853 22.3871 31.1004 22.2452 31.1004Z" fill="#F1EB9C" stroke="#F1EB9C" stroke-width="0.3"/>
<path fill-rule="evenodd" clip-rule="evenodd" d="M26.2142 15.2393C26.2155 15.2413 26.2169 15.2431 26.2182 15.2446C26.2169 15.2428 26.2155 15.2411 26.2142 15.2393ZM25.7187 18.9953C25.6602 18.9953 25.6018 18.9756 25.5536 18.9352C25.4448 18.8439 25.4305 18.6819 25.5219 18.5732C27.0113 16.7996 26.2419 15.2907 26.212 15.2365C26.1825 15.1965 26.1656 15.1488 26.1624 15.0992C26.0599 13.3021 24.4621 12.6825 23.1396 12.4791C22.0816 12.3166 21.0132 12.4571 20.0498 12.8855C18.1791 13.7153 17.8762 15.1778 17.9516 16.2585C18.0337 17.4379 18.6059 18.3675 18.816 18.4275C18.9565 18.4457 19.0537 18.5743 19.0355 18.7151C19.0172 18.8557 18.886 18.9544 18.7455 18.9363C18.2277 18.8689 17.6469 17.8217 17.477 16.6494C17.357 15.8226 17.4573 15.0282 17.7664 14.3523C18.1536 13.5063 18.8517 12.8548 19.8415 12.4158C20.8946 11.9474 22.0619 11.7937 23.2176 11.9713C24.1111 12.1087 24.8502 12.3793 25.4144 12.7758C26.1781 13.3122 26.6005 14.0617 26.6714 15.0041C26.9123 15.4396 27.4181 17.1144 25.9153 18.9037C25.8645 18.9641 25.7918 18.9954 25.7187 18.9953Z" fill="#F1EB9C" stroke="#F1EB9C" stroke-width="0.3"/>
<path fill-rule="evenodd" clip-rule="evenodd" d="M19.1098 16.4367C19.0898 16.4367 19.0746 16.445 19.0666 16.4511C19.0545 16.4595 19.0353 16.4788 19.0353 16.5126L19.0354 19.4124C19.0354 21.1842 20.4765 22.6256 22.2487 22.6256C24.0204 22.6255 25.4616 21.1842 25.4616 19.4124L25.4616 16.5125C25.4616 16.4789 25.442 16.4597 25.4304 16.4511C25.4188 16.4426 25.3947 16.43 25.3635 16.44C24.4986 16.7147 23.3629 16.8722 22.2473 16.8722C21.1318 16.8722 19.997 16.7149 19.1335 16.4405C19.125 16.4378 19.117 16.4367 19.1098 16.4367ZM22.2487 23.1394C20.1933 23.1394 18.5215 21.4675 18.5215 19.4124L18.5215 16.5125C18.5215 16.3219 18.6098 16.1484 18.7632 16.0361C18.9167 15.924 19.1085 15.8931 19.2896 15.9509C20.1041 16.2098 21.1826 16.3584 22.2473 16.3584C23.3121 16.3584 24.3915 16.2096 25.2082 15.9503C25.3889 15.8928 25.5807 15.9242 25.7337 16.0364C25.8876 16.1487 25.9754 16.3224 25.9754 16.5126L25.9755 19.4124C25.9755 21.4675 24.3036 23.1394 22.2487 23.1394Z" fill="#F1EB9C" stroke="#F1EB9C" stroke-width="0.3"/>
<path fill-rule="evenodd" clip-rule="evenodd" d="M30.0548 31.1004H14.4341C14.0675 31.1004 13.7695 30.8022 13.7695 30.4358L13.7696 27.4437C13.7696 25.962 14.7669 24.6505 16.1951 24.2544L16.5569 24.1545L20.0107 23.1965V22.265C20.0107 22.1231 20.1257 22.0081 20.2676 22.0081C20.4095 22.0081 20.5245 22.1231 20.5245 22.265L20.5245 23.3918C20.5245 23.5073 20.4473 23.6086 20.3363 23.6395L16.3321 24.7495C15.126 25.0842 14.2834 26.1921 14.2834 27.4438L14.2834 30.4358C14.2834 30.5189 14.3507 30.5866 14.4341 30.5866L30.0548 30.5865C30.1382 30.5865 30.2056 30.5189 30.2056 30.4358L30.2056 27.4437C30.2056 26.1921 29.363 25.0842 28.1564 24.7496L27.7956 24.6497L24.1527 23.6399C24.0416 23.6091 23.9644 23.5079 23.9644 23.3924L23.9644 22.265C23.9644 22.1231 24.0795 22.0081 24.2214 22.0081C24.3632 22.0081 24.4783 22.1231 24.4783 22.265L24.4783 23.197L28.2934 24.2543C29.7221 24.6505 30.7194 25.9621 30.7194 27.4438L30.7194 30.4358C30.7194 30.8022 30.4215 31.1004 30.0548 31.1004Z" fill="#F1EB9C" stroke="#F1EB9C" stroke-width="0.3"/>
<path fill-rule="evenodd" clip-rule="evenodd" d="M16.6261 31.1C16.4843 31.1 16.3691 30.9849 16.3691 30.8431L16.3692 24.4027C16.3692 24.2608 16.4842 24.1458 16.6261 24.1458C16.7679 24.1458 16.883 24.2608 16.883 24.4027L16.883 30.8431C16.883 30.9849 16.7679 31.1 16.6261 31.1Z" fill="#F1EB9C" stroke="#F1EB9C" stroke-width="0.3"/>
<path fill-rule="evenodd" clip-rule="evenodd" d="M22.2452 31.1004C22.1034 31.1004 21.9883 30.9854 21.9883 30.8435L21.9883 24.6486C21.9883 24.5067 22.1034 24.3917 22.2452 24.3917C22.3871 24.3917 22.5021 24.5068 22.5021 24.6486L22.5022 30.8435C22.5022 30.9853 22.3871 31.1004 22.2452 31.1004Z" fill="#F1EB9C" stroke="#F1EB9C" stroke-width="0.3"/>
<path fill-rule="evenodd" clip-rule="evenodd" d="M16.3582 17.2595C16.2851 17.2595 16.2168 17.2878 16.1655 17.3389C16.1142 17.39 16.0861 17.4585 16.0861 17.5315L16.0861 24.287C16.1227 24.2754 16.1593 24.2646 16.1963 24.2544L16.6294 24.1345V17.5315C16.6294 17.3815 16.5076 17.2595 16.3582 17.2595ZM15.8292 24.916C15.7801 24.916 15.7319 24.9022 15.6896 24.8748C15.6164 24.8274 15.5723 24.7463 15.5723 24.6591L15.5723 17.5315C15.5723 17.3212 15.6539 17.1238 15.802 16.9756C15.9505 16.8273 16.1477 16.7457 16.3582 16.7457C16.7909 16.7457 17.1433 17.0982 17.1433 17.5315L17.1433 24.3299C17.1433 24.4453 17.0665 24.5467 16.955 24.5775L16.3333 24.7495C16.1972 24.7873 16.0629 24.8358 15.9345 24.8935C15.9006 24.9086 15.8649 24.9161 15.8292 24.916Z" fill="#F1EB9C"/>
<path d="M16.8863 24.3299H16.8868M16.3582 17.2595C16.2851 17.2595 16.2168 17.2878 16.1655 17.3389C16.1142 17.39 16.0861 17.4585 16.0861 17.5315L16.0861 24.287C16.1227 24.2754 16.1593 24.2646 16.1963 24.2544L16.6294 24.1345V17.5315C16.6294 17.3815 16.5076 17.2595 16.3582 17.2595ZM15.8292 24.916C15.7801 24.916 15.7319 24.9022 15.6896 24.8748C15.6164 24.8274 15.5723 24.7463 15.5723 24.6591L15.5723 17.5315C15.5723 17.3212 15.6539 17.1238 15.802 16.9756C15.9505 16.8273 16.1477 16.7457 16.3582 16.7457C16.7909 16.7457 17.1433 17.0982 17.1433 17.5315L17.1433 24.3299C17.1433 24.4453 17.0665 24.5467 16.955 24.5775L16.3333 24.7495C16.1972 24.7873 16.0629 24.8358 15.9345 24.8935C15.9006 24.9086 15.8649 24.9161 15.8292 24.916Z" stroke="#F1EB9C" stroke-width="0.3"/>
<path fill-rule="evenodd" clip-rule="evenodd" d="M19.6633 31.1004C19.6482 31.1004 19.6325 31.0991 19.6169 31.0963C19.4773 31.0708 19.385 30.9371 19.41 30.7976C19.8899 28.1585 19.6147 26.4546 19.2998 25.4898C18.9613 24.4539 18.5063 24.0292 18.5018 24.025C18.3974 23.9296 18.3894 23.7676 18.484 23.6627C18.5785 23.5578 18.7396 23.5486 18.8448 23.6425C18.9287 23.7173 20.8886 25.536 19.9158 30.8895C19.8931 31.0134 19.7851 31.1005 19.6633 31.1004Z" fill="#F1EB9C" stroke="#F1EB9C" stroke-width="0.3"/>
<path fill-rule="evenodd" clip-rule="evenodd" d="M24.8275 31.1004C24.7057 31.1004 24.5977 31.0135 24.575 30.8894C23.6022 25.5359 25.5616 23.7175 25.6455 23.6428C25.7517 23.5484 25.914 23.5577 26.0086 23.6636C26.1027 23.7691 26.0938 23.9308 25.9885 24.0253C25.98 24.0333 25.5277 24.4588 25.191 25.4899C24.8756 26.4546 24.6008 28.1585 25.0804 30.7975C25.1058 30.937 25.0134 31.0709 24.8738 31.0963C24.8582 31.099 24.8426 31.1005 24.8275 31.1004Z" fill="#F1EB9C" stroke="#F1EB9C" stroke-width="0.3"/>
</svg>
