<svg width="16" height="16" viewBox="0 0 16 16" fill="none" xmlns="http://www.w3.org/2000/svg">
<g clip-path="url(#clip0_156_16058)">
<path d="M7.33333 4H8.66667C9.586 4 10.3333 3.25267 10.3333 2.33333V1.66667C10.3333 0.747333 9.586 0 8.66667 0H7.33333C6.41467 0 5.66667 0.747333 5.66667 1.66667V2.33333C5.66667 3.25267 6.41467 4 7.33333 4ZM7 1.66667C7 1.48333 7.14933 1.33333 7.33333 1.33333H8.66667C8.85 1.33333 9 1.48333 9 1.66667V2.33333C9 2.51667 8.85 2.66667 8.66667 2.66667H7.33333C7.14933 2.66667 7 2.51667 7 2.33333V1.66667ZM8.66667 12H7.33333C6.41467 12 5.66667 12.7473 5.66667 13.6667V14.3333C5.66667 15.2527 6.41467 16 7.33333 16H8.66667C9.586 16 10.3333 15.2527 10.3333 14.3333V13.6667C10.3333 12.7473 9.586 12 8.66667 12ZM9 14.3333C9 14.5167 8.85 14.6667 8.66667 14.6667H7.33333C7.14933 14.6667 7 14.5167 7 14.3333V13.6667C7 13.4833 7.14933 13.3333 7.33333 13.3333H8.66667C8.85 13.3333 9 13.4833 9 13.6667V14.3333ZM14.3333 12H13C12.0807 12 11.3333 12.7473 11.3333 13.6667V14.3333C11.3333 15.2527 12.0807 16 13 16H14.3333C15.2527 16 16 15.2527 16 14.3333V13.6667C16 12.7473 15.2527 12 14.3333 12ZM14.6667 14.3333C14.6667 14.5167 14.5167 14.6667 14.3333 14.6667H13C12.8167 14.6667 12.6667 14.5167 12.6667 14.3333V13.6667C12.6667 13.4833 12.8167 13.3333 13 13.3333H14.3333C14.5167 13.3333 14.6667 13.4833 14.6667 13.6667V14.3333ZM3 12H1.66667C0.748 12 0 12.7473 0 13.6667V14.3333C0 15.2527 0.748 16 1.66667 16H3C3.91867 16 4.66667 15.2527 4.66667 14.3333V13.6667C4.66667 12.7473 3.91867 12 3 12ZM3.33333 14.3333C3.33333 14.5167 3.184 14.6667 3 14.6667H1.66667C1.48267 14.6667 1.33333 14.5167 1.33333 14.3333V13.6667C1.33333 13.4833 1.48267 13.3333 1.66667 13.3333H3C3.184 13.3333 3.33333 13.4833 3.33333 13.6667V14.3333ZM1.66667 10.3333V9.66667C1.66667 8.38 2.71333 7.33333 4 7.33333H7.33333V5.66667C7.33333 5.298 7.632 5 8 5C8.368 5 8.66667 5.298 8.66667 5.66667V7.33333H12C13.2867 7.33333 14.3333 8.38 14.3333 9.66667V10.3333C14.3333 10.702 14.0353 11 13.6667 11C13.298 11 13 10.702 13 10.3333V9.66667C13 9.11533 12.5513 8.66667 12 8.66667H8.66667V10.3333C8.66667 10.702 8.368 11 8 11C7.632 11 7.33333 10.702 7.33333 10.3333V8.66667H4C3.44867 8.66667 3 9.11533 3 9.66667V10.3333C3 10.702 2.70133 11 2.33333 11C1.96533 11 1.66667 10.702 1.66667 10.3333Z" fill="#26D07C"/>
</g>
<defs>
<clipPath id="clip0_156_16058">
<rect width="16" height="16" fill="white"/>
</clipPath>
</defs>
</svg>
