<svg width="16" height="16" viewBox="0 0 16 16" fill="none" xmlns="http://www.w3.org/2000/svg">
<g clip-path="url(#clip0_198_37307)">
<path d="M10.6668 13.3333H5.3335C4.96483 13.3333 4.66683 13.0347 4.66683 12.6667C4.66683 12.2987 4.96483 12 5.3335 12H10.6668C11.0355 12 11.3335 12.2987 11.3335 12.6667C11.3335 13.0347 11.0355 13.3333 10.6668 13.3333ZM14.6668 12.6667V3.33333C14.6668 1.49533 13.1715 0 11.3335 0H4.66683C2.82883 0 1.3335 1.49533 1.3335 3.33333V12.6667C1.3335 14.5047 2.82883 16 4.66683 16H11.3335C13.1715 16 14.6668 14.5047 14.6668 12.6667ZM11.3335 1.33333C12.4362 1.33333 13.3335 2.23067 13.3335 3.33333V12.6667C13.3335 13.7693 12.4362 14.6667 11.3335 14.6667H4.66683C3.56416 14.6667 2.66683 13.7693 2.66683 12.6667V3.33333C2.66683 2.23067 3.56416 1.33333 4.66683 1.33333H11.3335ZM7.36416 7.33333C7.4355 9.04267 7.65416 10.5527 8.0155 10.5527C8.37683 10.5527 8.5955 9.04267 8.66683 7.33333H7.36416ZM9.73883 3.77733C9.67083 3.44867 10.0495 3.218 10.3235 3.412C11.1708 4.01333 11.7755 4.93333 11.9555 6H9.99883C9.97283 5.426 9.9055 4.58733 9.73883 3.77733ZM8.0155 2.78067C8.3895 2.78067 8.5955 4.29067 8.66683 6H7.36416C7.4355 4.29067 7.6415 2.78067 8.0155 2.78067ZM6.29216 3.77733C6.12483 4.58733 6.05816 5.426 6.03216 6H4.0755C4.2555 4.93333 4.86016 4.01333 5.7075 3.412C5.98083 3.218 6.3595 3.44867 6.29216 3.77733ZM9.73816 9.556C9.9055 8.746 9.97216 7.90733 9.99816 7.33333H11.9548C11.7748 8.4 11.1702 9.32 10.3228 9.92133C10.0495 10.1153 9.67083 9.88467 9.73816 9.556ZM6.29216 9.556C6.36016 9.88467 5.9815 10.1153 5.7075 9.92133C4.86016 9.32 4.2555 8.4 4.0755 7.33333H6.03216C6.05816 7.90733 6.1255 8.746 6.29216 9.556Z" fill="#26D07C"/>
</g>
<defs>
<clipPath id="clip0_198_37307">
<rect width="16" height="16" fill="white"/>
</clipPath>
</defs>
</svg>
