<svg width="32" height="32" viewBox="0 0 32 32" fill="none" xmlns="http://www.w3.org/2000/svg">
<path d="M8 0C6.9 0 6 0.9 6 2V30C6 31.1 6.9 32 8 32H28C29.1 32 30 31.1 30 30V8L22 0H8Z" fill="#E2E5E7"/>
<path d="M24 8H30L22 0V6C22 7.1 22.9 8 24 8Z" fill="#B0B7BD"/>
<path d="M30 14L24 8H30V14Z" fill="#CAD1D8"/>
<path d="M26 26C26 26.55 25.55 27 25 27H3C2.45 27 2 26.55 2 26V16C2 15.45 2.45 15 3 15H25C25.55 15 26 15.45 26 16V26Z" fill="#F15642"/>
<path d="M6.35938 18.9465C6.35938 18.6825 6.56737 18.3945 6.90237 18.3945H8.74937C9.78937 18.3945 10.7254 19.0905 10.7254 20.4245C10.7254 21.6885 9.78937 22.3925 8.74937 22.3925H7.41437V23.4485C7.41437 23.8005 7.19037 23.9995 6.90237 23.9995C6.63837 23.9995 6.35938 23.8005 6.35938 23.4485V18.9465ZM7.41437 19.4015V21.3935H8.74937C9.28537 21.3935 9.70937 20.9205 9.70937 20.4245C9.70937 19.8655 9.28537 19.4015 8.74937 19.4015H7.41437Z" fill="white"/>
<path d="M12.2922 23.9998C12.0282 23.9998 11.7402 23.8558 11.7402 23.5048V18.9628C11.7402 18.6758 12.0282 18.4668 12.2922 18.4668H14.1232C17.7772 18.4668 17.6972 23.9998 14.1952 23.9998H12.2922ZM12.7962 19.4428V23.0248H14.1232C16.2822 23.0248 16.3782 19.4428 14.1232 19.4428H12.7962Z" fill="white"/>
<path d="M18.9933 19.5058V20.7768H21.0323C21.3203 20.7768 21.6083 21.0648 21.6083 21.3438C21.6083 21.6078 21.3203 21.8238 21.0323 21.8238H18.9933V23.5028C18.9933 23.7828 18.7943 23.9978 18.5143 23.9978C18.1623 23.9978 17.9473 23.7828 17.9473 23.5028V18.9608C17.9473 18.6738 18.1633 18.4648 18.5143 18.4648H21.3213C21.6733 18.4648 21.8813 18.6738 21.8813 18.9608C21.8813 19.2168 21.6733 19.5048 21.3213 19.5048H18.9933V19.5058Z" fill="white"/>
<path d="M25 27H6V28H25C25.55 28 26 27.55 26 27V26C26 26.55 25.55 27 25 27Z" fill="#CAD1D8"/>
</svg>
