<svg width="16" height="16" viewBox="0 0 16 16" fill="none" xmlns="http://www.w3.org/2000/svg">
<g clip-path="url(#clip0_1353_116006)">
<path fill-rule="evenodd" clip-rule="evenodd" d="M11.3545 5.97945C11.5498 6.17471 11.5498 6.4913 11.3545 6.68654L8.55451 9.48654C8.44858 9.59247 8.30078 9.64534 8.15171 9.63054C8.00264 9.61581 7.86804 9.53501 7.78497 9.41034L7.05657 8.31781L5.35453 10.0199C5.15927 10.2151 4.84268 10.2151 4.64742 10.0199C4.45216 9.82461 4.45216 9.50807 4.64742 9.31281L6.78077 7.17947C6.88671 7.07354 7.03451 7.02067 7.18358 7.03547C7.33264 7.05021 7.46724 7.13101 7.55031 7.25567L8.27871 8.34821L10.6474 5.97945C10.8427 5.78419 11.1592 5.78419 11.3545 5.97945Z" fill="#26D07C"/>
<path fill-rule="evenodd" clip-rule="evenodd" d="M9.16699 6.33301C9.16699 6.05687 9.39086 5.83301 9.66699 5.83301H11.0003C11.2765 5.83301 11.5003 6.05687 11.5003 6.33301V7.66634C11.5003 7.94247 11.2765 8.16634 11.0003 8.16634C10.7242 8.16634 10.5003 7.94247 10.5003 7.66634V6.83301H9.66699C9.39086 6.83301 9.16699 6.60915 9.16699 6.33301Z" fill="#26D07C"/>
<path fill-rule="evenodd" clip-rule="evenodd" d="M2.06376 2.06279C2.95341 1.17314 4.28467 0.833008 6.00065 0.833008H10.0007C11.7167 0.833008 13.0479 1.17314 13.9375 2.06279C14.8272 2.95243 15.1673 4.28369 15.1673 5.99967V9.99967C15.1673 11.7157 14.8272 13.0469 13.9375 13.9365C13.0479 14.8262 11.7167 15.1663 10.0007 15.1663H6.00065C4.28467 15.1663 2.95341 14.8262 2.06376 13.9365C1.17412 13.0469 0.833984 11.7157 0.833984 9.99967V5.99967C0.833984 4.28369 1.17412 2.95243 2.06376 2.06279ZM2.77087 2.76989C2.16052 3.38025 1.83398 4.38232 1.83398 5.99967V9.99967C1.83398 11.617 2.16052 12.6191 2.77087 13.2295C3.38122 13.8398 4.3833 14.1663 6.00065 14.1663H10.0007C11.618 14.1663 12.6201 13.8398 13.2305 13.2295C13.8408 12.6191 14.1673 11.617 14.1673 9.99967V5.99967C14.1673 4.38232 13.8408 3.38025 13.2305 2.76989C12.6201 2.15954 11.618 1.83301 10.0007 1.83301H6.00065C4.3833 1.83301 3.38122 2.15954 2.77087 2.76989Z" fill="#26D07C"/>
</g>
<defs>
<clipPath id="clip0_1353_116006">
<rect width="16" height="16" fill="white"/>
</clipPath>
</defs>
</svg>
