<svg width="16" height="16" viewBox="0 0 16 16" fill="none" xmlns="http://www.w3.org/2000/svg">
<g clip-path="url(#clip0_43_9713)">
<path d="M8.66668 0.666755C8.66668 0.489944 8.73692 0.320374 8.86194 0.19535C8.98696 0.070326 9.15653 8.80826e-05 9.33334 8.80826e-05C11.1009 0.00202915 12.7954 0.705031 14.0452 1.95485C15.2951 3.20468 15.9981 4.89924 16 6.66676C16 6.84357 15.9298 7.01314 15.8047 7.13816C15.6797 7.26318 15.5102 7.33342 15.3333 7.33342C15.1565 7.33342 14.987 7.26318 14.8619 7.13816C14.7369 7.01314 14.6667 6.84357 14.6667 6.66676C14.6651 5.25275 14.1027 3.89712 13.1028 2.89727C12.103 1.89742 10.7473 1.33501 9.33334 1.33342C9.15653 1.33342 8.98696 1.26318 8.86194 1.13816C8.73692 1.01314 8.66668 0.843566 8.66668 0.666755ZM9.33334 4.00009C10.0406 4.00009 10.7189 4.28104 11.219 4.78114C11.7191 5.28123 12 5.95951 12 6.66676C12 6.84357 12.0702 7.01314 12.1953 7.13816C12.3203 7.26318 12.4899 7.33342 12.6667 7.33342C12.8435 7.33342 13.0131 7.26318 13.1381 7.13816C13.2631 7.01314 13.3333 6.84357 13.3333 6.66676C13.3323 5.60621 12.9105 4.58941 12.1606 3.8395C11.4107 3.08958 10.3939 2.66781 9.33334 2.66675C9.15653 2.66675 8.98696 2.73699 8.86194 2.86202C8.73692 2.98704 8.66668 3.15661 8.66668 3.33342C8.66668 3.51023 8.73692 3.6798 8.86194 3.80483C8.98696 3.92985 9.15653 4.00009 9.33334 4.00009ZM15.3953 11.1594C15.7817 11.5468 15.9986 12.0716 15.9986 12.6188C15.9986 13.1659 15.7817 13.6907 15.3953 14.0781L14.7887 14.7774C9.32868 20.0048 -3.95799 6.72142 1.18868 1.24409L1.95534 0.577421C2.34319 0.201873 2.8633 -0.0058792 3.40315 -0.000888689C3.943 0.00410182 4.45917 0.221434 4.84001 0.604088C4.86068 0.624755 6.09601 2.22942 6.09601 2.22942C6.46256 2.61451 6.66661 3.12604 6.66574 3.65769C6.66488 4.18934 6.45915 4.7002 6.09134 5.08409L5.31934 6.05476C5.74658 7.09283 6.37472 8.03625 7.16768 8.83082C7.96065 9.62538 8.9028 10.2554 9.94001 10.6848L10.9167 9.90809C11.3006 9.54056 11.8114 9.33508 12.3429 9.33434C12.8744 9.3336 13.3857 9.53764 13.7707 9.90409C13.7707 9.90409 15.3747 11.1388 15.3953 11.1594ZM14.478 12.1288C14.478 12.1288 12.8827 10.9014 12.862 10.8808C12.7247 10.7446 12.5391 10.6682 12.3457 10.6682C12.1523 10.6682 11.9667 10.7446 11.8293 10.8808C11.8113 10.8994 10.4667 11.9708 10.4667 11.9708C10.3761 12.0429 10.2682 12.0902 10.1538 12.1079C10.0393 12.1257 9.92223 12.1133 9.81401 12.0721C8.47032 11.5718 7.24984 10.7886 6.23523 9.77547C5.22063 8.76237 4.43561 7.54304 3.93334 6.20009C3.88881 6.09039 3.87429 5.97081 3.89128 5.85365C3.90827 5.73648 3.95615 5.62595 4.03001 5.53342C4.03001 5.53342 5.10134 4.18809 5.11934 4.17075C5.25552 4.03341 5.33193 3.84783 5.33193 3.65442C5.33193 3.46101 5.25552 3.27543 5.11934 3.13809C5.09868 3.11809 3.87134 1.52142 3.87134 1.52142C3.73194 1.39643 3.55001 1.32949 3.36284 1.33432C3.17567 1.33915 2.99744 1.4154 2.86468 1.54742L2.09801 2.21409C-1.66332 6.73675 9.85068 17.6121 13.814 13.8668L14.4213 13.1668C14.5637 13.0349 14.6491 12.8529 14.6597 12.6592C14.6703 12.4655 14.6051 12.2753 14.478 12.1288Z" fill="#26D07C"/>
</g>
<defs>
<clipPath id="clip0_43_9713">
<rect width="16" height="16" fill="white"/>
</clipPath>
</defs>
</svg>
