<svg width="13" height="13" viewBox="0 0 13 13" fill="none" xmlns="http://www.w3.org/2000/svg">
<g clip-path="url(#clip0_1365_5263)">
<path d="M12.35 5.85H7.15004V0.64996C7.15004 0.291238 6.8588 0 6.49996 0C6.14124 0 5.85 0.291238 5.85 0.64996V5.85H0.64996C0.291238 5.85 0 6.14124 0 6.49996C0 6.8588 0.291238 7.15004 0.64996 7.15004H5.85V12.35C5.85 12.7088 6.14124 13 6.49996 13C6.8588 13 7.15004 12.7088 7.15004 12.35V7.15004H12.35C12.7088 7.15004 13 6.8588 13 6.49996C13 6.14124 12.7088 5.85 12.35 5.85Z" fill="white"/>
</g>
<defs>
<clipPath id="clip0_1365_5263">
<rect width="13" height="13" fill="white"/>
</clipPath>
</defs>
</svg>
