<svg width="249" height="234" viewBox="0 0 249 234" fill="none" xmlns="http://www.w3.org/2000/svg">
<mask id="mask0_60_733" style="mask-type:luminance" maskUnits="userSpaceOnUse" x="0" y="0" width="249" height="234">
<path d="M248.182 0H0V234H248.182V0Z" fill="white"/>
</mask>
<g mask="url(#mask0_60_733)">
<path fill-rule="evenodd" clip-rule="evenodd" d="M219.877 153.47C219.887 149.523 221.752 145.482 225.817 141.265C229.209 137.747 233.451 135.617 237.765 134.921C237.207 139.273 235.225 143.6 231.829 147.118C227.764 151.332 223.805 153.335 219.877 153.47ZM230.638 158.426C229.178 162.564 226.335 166.371 222.274 169.093C217.418 172.353 213.125 173.473 209.257 172.774C210.094 168.916 212.765 165.361 217.626 162.101C221.681 159.379 226.274 158.195 230.638 158.426ZM208.325 188.554C202.896 190.714 198.466 190.899 194.831 189.398C196.453 185.804 199.814 182.892 205.248 180.734C209.785 178.933 214.519 178.745 218.736 179.895C216.44 183.632 212.861 186.752 208.325 188.554ZM190.609 204.625C184.846 205.588 180.481 204.833 177.237 202.594C179.579 199.426 183.477 197.291 189.235 196.328C194.051 195.529 198.719 196.348 202.597 198.363C199.576 201.53 195.419 203.823 190.609 204.625ZM169.923 216.592C164.083 216.312 159.973 214.648 157.276 211.774C160.231 209.174 164.484 207.911 170.323 208.189C175.189 208.422 179.584 210.214 182.955 213.006C179.336 215.461 174.789 216.825 169.923 216.592ZM147.189 223.906C141.542 222.4 137.872 219.903 135.835 216.525C139.271 214.605 143.696 214.272 149.338 215.781C154.057 217.038 157.97 219.718 160.682 223.16C156.627 224.796 151.898 225.166 147.189 223.906ZM140.579 199.351C144.016 195.88 148.284 193.806 152.607 193.166C151.994 197.513 149.951 201.811 146.51 205.282C142.394 209.443 138.404 211.395 134.476 211.474C134.537 207.529 136.463 203.511 140.579 199.351ZM158.31 193.983C160.946 189.861 164.687 186.932 168.772 185.391C169.081 189.771 167.997 194.404 165.356 198.525C162.203 203.464 158.716 206.216 154.889 207.125C154.118 203.253 155.157 198.921 158.31 193.983ZM174.525 184.982C176.234 180.398 179.275 176.742 182.945 174.373C184.171 178.585 184.075 183.346 182.362 187.933C180.314 193.43 177.475 196.856 173.932 198.557C172.366 194.934 172.467 190.478 174.525 184.982ZM188.48 172.754C189.195 167.909 191.4 163.695 194.492 160.6C196.57 164.461 197.472 169.135 196.768 173.98C195.911 179.786 193.863 183.736 190.746 186.146C188.46 182.936 187.628 178.562 188.48 172.754ZM202.891 144.694C205.735 148.027 207.595 152.407 207.919 157.295C208.299 163.15 207.123 167.446 204.584 170.462C201.674 167.808 199.946 163.706 199.566 157.85C199.236 152.96 200.509 148.372 202.891 144.694ZM199.9 74.7517C204.26 74.8132 208.766 76.3032 212.628 79.2913C217.256 82.8684 219.694 86.5977 220.272 90.5004C216.364 90.9409 212.157 89.5354 207.524 85.9552C203.656 82.9697 201.076 78.9769 199.9 74.7517ZM190.168 59.6287C194.451 58.7644 199.165 59.2665 203.57 61.371C208.852 63.8905 212.01 67.019 213.389 70.7142C209.663 71.9712 205.258 71.4859 199.976 68.9663C195.571 66.8644 192.206 63.509 190.168 59.6287ZM177.491 46.9042C181.495 45.1506 186.209 44.6456 190.954 45.7679C196.646 47.1147 200.382 49.5052 202.511 52.8244C199.135 54.8419 194.725 55.3017 189.038 53.9552C184.288 52.833 180.294 50.2655 177.491 46.9042ZM175.194 41.5957C170.318 41.5031 165.873 39.8393 162.431 37.1457C165.974 34.5841 170.475 33.0942 175.357 33.1868C181.196 33.299 185.358 34.845 188.13 37.6395C185.251 40.3247 181.039 41.7079 175.194 41.5957ZM164.783 25.3419C160.611 22.8111 157.595 19.1383 155.953 15.0727C160.297 14.6406 164.94 15.6114 169.117 18.1423C174.115 21.1753 176.953 24.6039 177.962 28.4198C174.13 29.298 169.786 28.3777 164.783 25.3419ZM178.408 10.547C182.387 12.3567 185.925 15.5273 188.277 19.8173C191.101 24.9575 191.846 29.3513 190.827 33.1615C187.066 31.9971 183.766 29.0202 180.943 23.8772C178.596 19.59 177.81 14.8904 178.408 10.547ZM198.694 24.2841C202.202 26.8934 204.994 30.743 206.393 35.4342C208.076 41.057 207.884 45.507 206.084 49.017C202.658 47.0838 200.057 43.4728 198.375 37.8528C196.976 33.1615 197.193 28.4029 198.694 24.2841ZM215.639 42.0025C218.528 45.2965 220.444 49.6511 220.83 54.5331C221.296 60.3861 220.171 64.6958 217.677 67.7454C214.732 65.1307 212.953 61.0535 212.486 55.201C212.101 50.3189 213.307 45.7146 215.639 42.0025ZM211.341 104.159C208.188 100.421 206.495 95.9745 206.231 91.5946C210.489 92.5764 214.58 94.9866 217.728 98.724C221.504 103.202 223.101 107.36 222.842 111.299C218.934 110.904 215.117 108.639 211.341 104.159ZM214.823 152.199C211.427 150.218 208.877 146.574 207.265 140.931C205.927 136.223 206.211 131.468 207.762 127.366C211.239 130.026 213.982 133.911 215.315 138.622C216.922 144.264 216.673 148.715 214.823 152.199ZM211.255 122.764C208.958 118.443 208.234 113.735 208.892 109.397C212.846 111.26 216.339 114.481 218.64 118.802C221.392 123.979 222.077 128.381 221.002 132.18C217.266 130.963 214.007 127.94 211.255 122.764ZM222.639 75.1444C223.288 70.2904 225.432 66.0454 228.489 62.9113C230.623 66.7413 231.581 71.4045 230.937 76.2584C230.167 82.0774 228.164 86.0534 225.083 88.5083C222.751 85.3265 221.864 80.9634 222.639 75.1444ZM236.67 86.0671C237.947 90.2649 237.912 95.0263 236.259 99.6361C234.283 105.158 231.495 108.623 227.972 110.371C226.36 106.768 226.406 102.315 228.382 96.7909C230.035 92.1811 233.025 88.486 236.67 86.0671ZM239.803 110.435C240.178 114.809 239.139 119.456 236.569 123.614C233.472 128.595 230.025 131.392 226.213 132.354C225.392 128.493 226.37 124.147 229.462 119.164C232.037 115.009 235.737 112.029 239.803 110.435ZM103.821 205.282C100.386 201.811 98.3387 197.513 97.7294 193.166C102.047 193.806 106.318 195.88 109.755 199.351C113.881 203.511 115.797 207.529 115.863 211.474C111.93 211.395 107.946 209.443 103.821 205.282ZM103.147 223.906C98.433 225.166 93.7073 224.796 89.6572 223.16C92.3691 219.718 96.2823 217.038 100.994 215.781C106.643 214.272 111.068 214.605 114.5 216.525C112.467 219.903 108.792 222.4 103.147 223.906ZM80.4141 216.592C75.5429 216.825 70.9987 215.461 67.3784 213.006C70.7498 210.214 75.149 208.422 80.0147 208.189C85.8545 207.911 90.1028 209.174 93.0635 211.774C90.3684 214.648 86.2484 216.312 80.4141 216.592ZM59.7249 204.625C54.912 203.823 50.7591 201.53 47.737 198.363C51.6193 196.348 56.2892 195.529 61.0961 196.328C66.8609 197.291 70.7518 199.426 73.0951 202.594C69.8607 204.833 65.4923 205.588 59.7249 204.625ZM42.0076 188.554C37.4715 186.752 33.8908 183.632 31.6062 179.895C35.8154 178.745 40.5549 178.933 45.088 180.734C50.5208 182.892 53.878 185.804 55.5066 189.398C51.8752 190.899 47.4455 190.714 42.0076 188.554ZM28.0575 169.093C24.0049 166.371 21.1557 162.564 19.7009 158.426C24.0637 158.195 28.6551 159.379 32.7082 162.101C37.5678 165.361 40.2411 168.916 41.076 172.774C37.2104 173.473 32.9145 172.353 28.0575 169.093ZM18.5027 147.118C15.1116 143.6 13.1256 139.273 12.57 134.921C16.8826 135.617 21.1278 137.747 24.5215 141.265C28.5857 145.482 30.4541 149.523 30.4597 153.47C26.5298 153.335 22.5694 151.332 18.5027 147.118ZM10.5339 110.435C14.6032 112.029 18.2984 115.009 20.8764 119.164C23.9659 124.147 24.9462 128.493 24.1276 132.354C20.3177 131.392 16.8603 128.595 13.7708 123.614C11.1928 119.456 10.1598 114.809 10.5339 110.435ZM13.6705 86.0671C17.3099 88.486 20.3042 92.1811 21.9576 96.7909C23.9325 102.315 23.974 106.768 22.3626 110.371C18.8377 108.623 16.0503 105.158 14.0729 99.6361C12.4245 95.0263 12.3941 90.2649 13.6705 86.0671ZM21.8486 62.9113C24.9016 66.0454 27.0524 70.2904 27.6946 75.1444C28.4737 80.9634 27.58 85.3265 25.2504 88.5083C22.1756 86.0534 20.1728 82.0774 19.4019 76.2584C18.751 71.4045 19.7202 66.7413 21.8486 62.9113ZM29.5072 54.5331C29.8899 49.6511 31.8115 45.2965 34.6942 42.0025C37.0259 45.7146 38.2409 50.3189 37.8501 55.201C37.3863 61.0535 35.6015 65.1307 32.6606 67.7454C30.1606 64.6958 29.0434 60.3861 29.5072 54.5331ZM46.7643 61.371C51.1717 59.2665 55.8837 58.7644 60.1654 59.6287C58.1323 63.509 54.7664 66.8644 50.3617 68.9663C45.0829 71.4859 40.6755 71.9712 36.9494 70.7142C38.3291 67.019 41.4881 63.8905 46.7643 61.371ZM43.9434 35.4342C45.3455 30.743 48.1359 26.8934 51.6441 24.2841C53.1465 28.4029 53.3645 33.1615 51.9624 37.8528C50.278 43.4728 47.6837 47.0838 44.2506 49.017C42.4491 45.507 42.2595 41.057 43.9434 35.4342ZM59.3782 45.7679C64.1237 44.6456 68.8413 45.1506 72.8437 46.9042C70.0396 50.2655 66.0484 52.833 61.3029 53.9552C55.6105 55.3017 51.2 54.8419 47.8206 52.8244C49.949 49.5052 53.6914 47.1147 59.3782 45.7679ZM62.0576 19.8173C64.4121 15.5273 67.9451 12.3567 71.9252 10.547C72.5259 14.8904 71.7438 19.59 69.3893 23.8772C66.5654 29.0202 63.2726 31.9971 59.513 33.1615C58.4937 29.3513 59.2337 24.9575 62.0576 19.8173ZM81.2211 18.1423C85.3943 15.6114 90.042 14.6406 94.3825 15.0727C92.7401 19.1383 89.7206 22.8111 85.5479 25.3419C80.5454 28.3777 76.2049 29.298 72.3728 28.4198C73.3896 24.6039 76.2191 21.1753 81.2211 18.1423ZM87.9074 37.1457C84.4636 39.8393 80.0228 41.5031 75.146 41.5957C69.3 41.7079 65.0853 40.3247 62.2082 37.6395C64.9793 34.845 69.1409 33.299 74.9813 33.1868C79.8581 33.0942 84.3577 34.5841 87.9074 37.1457ZM42.808 85.9552C38.1796 89.5354 33.9704 90.9409 30.0658 90.5004C30.6442 86.5977 33.0742 82.8684 37.7021 79.2913C41.5676 76.3032 46.0703 74.8132 50.4387 74.7517C49.2627 78.9769 46.6735 82.9697 42.808 85.9552ZM35.0166 138.622C36.3573 133.911 39.0945 130.026 42.5718 127.366C44.1249 131.468 44.4123 136.223 43.0691 140.931C41.4627 146.574 38.9131 150.218 35.5108 152.199C33.6647 148.715 33.4133 144.264 35.0166 138.622ZM27.4878 111.299C27.2338 107.36 28.8315 103.202 32.6048 98.724C35.7551 94.9866 39.8473 92.5764 44.1011 91.5946C43.841 95.9745 42.146 100.421 38.9926 104.159C35.2219 108.639 31.3979 110.904 27.4878 111.299ZM31.697 118.802C33.9927 114.481 37.4841 111.26 41.4394 109.397C42.0984 113.735 41.3806 118.443 39.0788 122.764C36.3279 127.94 33.0712 130.963 29.3313 132.18C28.2557 128.381 28.9485 123.979 31.697 118.802ZM47.4491 144.694C49.8228 148.372 51.0966 152.96 50.7753 157.85C50.39 163.706 48.658 167.808 45.7479 170.462C43.2145 167.446 42.0359 163.15 42.4213 157.295C42.7426 152.407 44.6054 148.027 47.4491 144.694ZM55.8427 160.6C58.9403 163.695 61.1467 167.909 61.8589 172.754C62.7049 178.562 61.8782 182.936 59.5881 186.146C56.4768 183.736 54.4294 179.786 53.5748 173.98C52.8621 169.135 53.7644 164.461 55.8427 160.6ZM67.387 174.373C71.0681 176.742 74.1044 180.398 75.8136 184.982C77.864 190.478 77.9673 194.934 76.4087 198.557C72.8584 196.856 70.0294 193.43 67.9735 187.933C66.2643 183.346 66.169 178.585 67.387 174.373ZM81.5597 185.391C85.6518 186.932 89.3886 189.861 92.028 193.983C95.1788 198.921 96.2179 203.253 95.4469 207.125C91.623 206.216 88.1345 203.464 84.9786 198.525C82.3443 194.404 81.2495 189.771 81.5597 185.391ZM242.165 130.356C240.335 130.255 238.485 130.379 236.65 130.707C237.887 129.369 239.093 127.795 240.254 125.923C244.349 119.321 245.181 111.653 243.153 105.04C241.349 105.329 239.559 105.842 237.836 106.549C238.758 104.981 239.61 103.188 240.355 101.112C242.976 93.7917 242.17 86.1236 238.809 80.0854C237.101 80.7502 235.464 81.6287 233.923 82.6863C234.501 80.9578 234.952 79.0247 235.246 76.8389C236.275 69.126 233.887 61.8003 229.33 56.6096C227.799 57.6193 226.38 58.826 225.098 60.1867C225.295 58.3712 225.341 56.3847 225.169 54.1882C224.55 46.4357 220.678 39.7747 215.142 35.6643C213.855 36.9774 212.72 38.456 211.751 40.0581C211.569 38.2428 211.194 36.2928 210.56 34.1801C208.33 26.7307 203.154 21.0378 196.879 18.1927C195.896 19.7499 195.095 21.4334 194.482 23.2039C193.924 21.4671 193.148 19.6405 192.089 17.7102C188.348 10.9005 182.093 6.43095 175.357 4.97754C174.079 8.48196 173.613 12.3343 174.044 16.2091C173.218 15.5946 172.331 14.9941 171.362 14.405C164.732 10.3843 157.088 9.66315 150.534 11.7872C151.72 18.6052 155.917 25.0613 162.548 29.082C163.511 29.6684 164.459 30.1762 165.381 30.6251C161.767 32.0505 158.594 34.253 156.1 37.0223C159.8 41.4723 165.224 44.6288 171.433 45.6248C174.13 50.6752 178.722 54.8388 184.516 57.0974C186.098 62.6081 189.702 67.6447 194.897 71.0814C195.288 76.8027 197.761 82.49 202.12 86.9482C201.299 92.6217 202.521 98.7072 205.851 103.985C203.859 109.361 203.778 115.567 205.917 121.431C202.845 126.263 201.467 132.315 202.333 138.501C198.314 142.573 195.698 148.198 195.247 154.427C190.467 157.558 186.731 162.505 184.977 168.495C179.65 170.546 174.956 174.589 171.991 180.078C166.349 180.956 160.92 183.916 156.865 188.655C150.058 188.251 142.906 190.813 137.497 196.269C134 199.802 131.962 203.22 130.948 206.446C129.25 212.209 121.089 212.212 119.386 206.446C118.372 203.222 116.34 199.802 112.842 196.269C107.428 190.813 100.285 188.251 93.4701 188.655C89.42 183.916 83.9897 180.956 78.345 180.078C75.3837 174.589 70.6884 170.546 65.362 168.495C63.6133 162.505 59.8734 157.558 55.094 154.427C54.6418 148.198 52.0217 142.573 48.0077 138.501C48.8679 132.315 47.4911 126.263 44.424 121.431C46.558 115.567 46.4828 109.361 44.4914 103.985C47.812 98.7072 49.0387 92.6217 48.2231 86.9482C52.5748 82.49 55.0468 76.8027 55.4407 71.0814C60.6302 67.6447 64.2418 62.6081 65.8258 57.0974C71.6186 54.8388 76.2024 50.6752 78.9036 45.6248C85.1185 44.6288 90.5342 41.4723 94.241 37.0223C91.7466 34.253 88.5679 32.0505 84.9533 30.6251C85.8778 30.1762 86.8222 29.6684 87.7944 29.082C94.4225 25.0613 98.6206 18.6052 99.8077 11.7872C93.2465 9.66315 85.6072 10.3843 78.9786 14.405C78.0039 14.9941 77.1214 15.5946 76.2972 16.2091C76.7194 12.3343 76.2612 8.48196 74.9818 4.97754C68.2473 6.43095 61.9907 10.9005 58.2534 17.7102C57.189 19.6405 56.4154 21.4671 55.8513 23.2039C55.245 21.4334 54.4406 19.7499 53.4628 18.1927C47.1896 21.0378 42.0025 26.7307 39.7763 34.1801C39.1447 36.2928 38.7681 38.2428 38.5892 40.0581C37.6169 38.456 36.4856 36.9774 35.2036 35.6643C29.6562 39.7747 25.7877 46.4357 25.1708 54.1882C24.9974 56.3847 25.0364 58.3712 25.2377 60.1867C23.9552 58.826 22.5421 57.6193 21.0087 56.6096C16.4528 61.8003 14.0618 69.126 15.0953 76.8389C15.3802 79.0247 15.8354 80.9578 16.4112 82.6863C14.8718 81.6287 13.2381 80.7502 11.5259 80.0854C8.16263 86.1236 7.36371 93.7917 9.98383 101.112C10.727 103.188 11.5816 104.981 12.5031 106.549C10.7827 105.842 8.99237 105.329 7.18481 105.04C5.15979 111.653 5.98956 119.321 10.0873 125.923C11.2491 127.795 12.4504 129.369 13.6902 130.707C11.8497 130.379 9.99802 130.255 8.16815 130.356C7.57611 137.25 9.995 144.571 15.3832 150.157C16.911 151.739 18.422 153.022 19.9082 154.068C18.0449 154.138 16.207 154.41 14.4389 154.893C15.3133 161.758 19.2042 168.403 25.6452 172.723C27.4695 173.95 29.2153 174.884 30.8936 175.591C29.0809 176.051 27.3408 176.708 25.7152 177.555C28.0083 184.082 33.2096 189.752 40.4074 192.614C42.4491 193.427 44.3515 193.969 46.1418 194.308C44.466 195.142 42.9073 196.149 41.4941 197.322C45.1001 203.217 51.3734 207.658 59.0132 208.935C61.1832 209.294 63.1555 209.423 64.9682 209.378C63.5129 210.545 62.1945 211.861 61.0631 213.306C65.8228 218.306 72.8867 221.322 80.624 220.952C82.8193 220.848 84.7718 220.557 86.5399 220.124C85.3557 221.575 84.3476 223.141 83.5376 224.793C89.2411 228.673 96.7856 230.127 104.262 228.129C107.869 227.167 110.733 225.837 112.984 224.271C120.263 219.297 129.904 219.179 137.35 224.271C139.606 225.837 142.465 227.167 146.074 228.129C153.555 230.127 161.093 228.673 166.795 224.793C165.994 223.141 164.986 221.575 163.8 220.124C165.569 220.557 167.525 220.848 169.715 220.952C177.455 221.322 184.521 218.306 189.276 213.306C188.145 211.861 186.828 210.545 185.368 209.378C187.182 209.423 189.154 209.294 191.324 208.935C198.968 207.658 205.238 203.217 208.847 197.322C207.433 196.149 205.866 195.142 204.204 194.308C205.983 193.969 207.884 193.427 209.927 192.614C217.129 189.752 222.33 184.082 224.621 177.555C222.994 176.708 221.256 176.051 219.451 175.591C221.119 174.884 222.867 173.95 224.692 172.723C231.13 168.403 235.033 161.758 235.894 154.893C234.13 154.41 232.29 154.138 230.425 154.068C231.92 153.022 233.431 151.739 234.952 150.157C240.34 144.571 242.758 137.25 242.165 130.356ZM-54.0727 48.9872C-54.0727 51.9753 -56.4916 54.4023 -59.4635 54.4023C-62.4324 54.4023 -64.8538 51.9753 -64.8538 48.9872C-64.8538 46.0019 -62.4324 43.5721 -59.4635 43.5721C-56.4916 43.5721 -54.0727 46.0019 -54.0727 48.9872ZM-201.251 62.5471C-198.286 62.5471 -195.861 60.1175 -195.861 57.132C-195.861 54.147 -198.286 51.72 -201.251 51.72C-204.223 51.72 -206.648 54.147 -206.648 57.132C-206.648 60.1175 -204.223 62.5471 -201.251 62.5471ZM-167.11 180.259C-164.038 180.259 -161.44 179.19 -159.39 177.08C-157.343 174.97 -156.301 172.299 -156.301 169.142C-156.301 166.022 -157.343 163.368 -159.39 161.258C-161.44 159.145 -164.038 158.077 -167.11 158.077C-170.21 158.077 -172.822 159.145 -174.85 161.255C-176.889 163.368 -177.922 166.022 -177.922 169.142C-177.922 172.299 -176.889 174.97 -174.85 177.08C-172.822 179.19 -170.21 180.259 -167.11 180.259ZM-180.614 155.913C-176.936 152.274 -172.364 150.425 -167.009 150.425C-161.655 150.425 -157.119 152.229 -153.527 155.784C-149.938 159.336 -148.123 163.797 -148.123 169.041C-148.123 174.283 -149.986 178.777 -153.656 182.399C-157.334 186.025 -161.907 187.86 -167.261 187.86C-172.612 187.86 -177.148 186.066 -180.743 182.529C-184.332 178.991 -186.148 174.54 -186.148 169.297C-186.148 164.053 -184.285 159.549 -180.614 155.913ZM-241.23 187.344H-249.665V150.942H-241.23V187.344ZM-379.169 177.025C-381.339 179.104 -384.135 180.156 -387.484 180.156H-392.403V158.181H-387.484C-384.135 158.181 -381.339 159.228 -379.169 161.29C-377.007 163.35 -375.904 165.992 -375.904 169.143C-375.904 172.294 -377.007 174.946 -379.169 177.025ZM-387.635 150.942H-400.637V187.344H-387.892C-382.135 187.344 -377.281 185.58 -373.474 182.098C-369.662 178.61 -367.723 174.219 -367.723 169.042C-367.723 163.865 -369.614 159.505 -373.346 156.086C-377.069 152.674 -381.881 150.942 -387.635 150.942ZM-338.809 172.23C-338.809 174.637 -339.488 176.599 -340.834 178.061C-342.167 179.522 -343.957 180.26 -346.136 180.26C-348.323 180.26 -350.119 179.522 -351.471 178.061C-352.834 176.599 -353.521 174.637 -353.521 172.23V150.943H-361.85V172.488C-361.85 177.118 -360.425 180.877 -357.618 183.661C-354.811 186.447 -351.035 187.861 -346.396 187.861C-341.787 187.861 -337.986 186.405 -335.095 183.532C-332.204 180.662 -330.732 176.86 -330.732 172.23V150.943H-338.809V172.23ZM-306.841 171.657H-314.371V180.931H-306.841C-305.193 180.931 -303.867 180.473 -302.905 179.569C-301.945 178.669 -301.453 177.549 -301.453 176.242C-301.453 174.918 -301.931 173.846 -302.903 172.971C-303.861 172.098 -305.187 171.657 -306.841 171.657ZM-308.02 165.603C-306.506 165.603 -305.288 165.204 -304.411 164.418C-303.534 163.639 -303.093 162.665 -303.093 161.531C-303.093 160.364 -303.534 159.374 -304.411 158.594C-305.288 157.808 -306.506 157.41 -308.02 157.41H-314.371V165.603H-308.02ZM-296.197 165.111C-297.009 166.405 -298.138 167.471 -299.543 168.282C-297.666 168.989 -296.158 170.103 -295.054 171.599C-293.873 173.203 -293.275 175.078 -293.275 177.168C-293.275 180.063 -294.426 182.51 -296.702 184.443C-298.959 186.368 -301.889 187.344 -305.402 187.344H-322.6V150.942H-306.324C-302.914 150.942 -300.124 151.823 -298.032 153.56C-295.929 155.305 -294.867 157.589 -294.867 160.35C-294.867 162.093 -295.314 163.695 -296.197 165.111ZM-268.257 173.161H-277.666L-272.941 160.704L-268.257 173.161ZM-268.706 150.943H-276.759L-291.464 187.345H-282.839L-279.968 179.783H-265.905L-263.042 187.345H-254.006L-268.662 151.066L-268.706 150.943ZM-211.486 157.974H-204.775C-202.923 157.974 -201.409 158.501 -200.269 159.542C-199.141 160.58 -198.568 161.924 -198.568 163.537C-198.568 165.151 -199.141 166.495 -200.269 167.53C-201.409 168.568 -202.923 169.098 -204.775 169.098H-211.486V157.974ZM-204.001 150.942H-219.715V187.344H-211.486V175.925H-204.258C-200.2 175.925 -196.839 174.73 -194.273 172.375C-191.694 170.016 -190.387 166.972 -190.387 163.33C-190.387 159.654 -191.65 156.638 -194.141 154.363C-196.63 152.093 -199.943 150.942 -204.001 150.942ZM-68.548 176.292C-70.6764 178.924 -73.5059 180.259 -76.9664 180.259C-83.2285 180.259 -87.7783 175.585 -87.7783 169.143C-87.7783 162.732 -83.2285 158.077 -76.9664 158.077C-73.6371 158.077 -70.8771 159.325 -68.7629 161.789L-68.6291 161.941L-62.6239 156.576L-62.7634 156.424C-66.4393 152.443 -71.1848 150.426 -76.863 150.426C-87.5938 150.426 -96.0036 158.714 -96.0036 169.297C-96.0036 179.878 -87.8898 187.86 -77.1169 187.86C-71.2711 187.86 -66.3774 185.691 -62.5737 181.415L-62.4369 181.261L-68.4192 176.135L-68.548 176.292ZM-141.516 150.943H-133.288V179.951H-115.775V187.345H-141.516V150.943ZM-111.018 187.344H-102.581V150.942H-111.018V187.344ZM-49.1635 172.017V180.157H-30.1202V187.345H-57.3949V150.943H-30.6286V158.182H-49.1635V165.242H-33.1899V172.017H-49.1635ZM-66.9512 66.8873C-63.9819 66.8873 -61.5605 64.4603 -61.5605 61.4722C-61.5605 58.4867 -63.9819 56.0571 -66.9512 56.0571C-69.9231 56.0571 -72.3446 58.4867 -72.3446 61.4722C-72.3446 64.4603 -69.9231 66.8873 -66.9512 66.8873ZM-51.9778 66.8883C-54.9471 66.8883 -57.3655 64.4582 -57.3655 61.4727C-57.3655 58.4877 -54.9471 56.0576 -51.9778 56.0576C-49.0033 56.0576 -46.5845 58.4877 -46.5845 61.4727C-46.5845 64.4582 -49.0033 66.8883 -51.9778 66.8883ZM-37.9045 68.1626L-46.9651 73.6931C-44.8372 77.2168 -38.5497 89.4499 -41.474 106.781H-54.163V73.6987H-64.7711V106.781H-72.818V73.6987H-83.4231V106.781H-98.4195V69.361H-109.028V111.377C-109.028 119.982 -115.994 126.98 -124.557 126.98H-127.258V137.634H-124.557C-112.22 137.634 -101.858 129.001 -99.1286 117.435H-32.9998L-32.0139 113.375C-26.2992 89.9215 -35.0725 72.84 -37.9045 68.1626ZM-272.399 77.6238L-267.637 68.1066C-261.651 71.1313 -242.639 83.3166 -249.197 113.251L-250.116 117.435H-282.477V106.781H-258.847C-257.808 98.2773 -258.624 84.5822 -272.399 77.6238ZM-173.475 100.15L-157.242 86.2385C-153.535 83.0653 -148.639 81.5616 -143.804 82.1115C-138.969 82.6639 -134.537 85.2313 -131.637 89.1595C-128.311 93.6543 -127.274 99.5435 -128.861 104.908L-129.417 106.78H-173.475V100.15ZM-121.499 117.433L-118.694 107.938C-116.161 99.3782 -117.814 89.9815 -123.116 82.8099C-127.761 76.5225 -134.867 72.4091 -142.604 71.525C-150.353 70.647 -158.191 73.0516 -164.12 78.133L-173.475 86.146V57.1315H-184.084V106.78H-195.996V69.3621H-206.957C-221.588 69.3621 -233.478 81.3144 -233.478 96.003V117.433H-222.878V96.003C-222.878 87.1873 -215.739 80.0157 -206.957 80.0157H-206.602V117.433H-121.499ZM-305.387 129.675C-305.387 126.686 -302.962 124.253 -299.985 124.253C-297.013 124.253 -294.589 126.686 -294.589 129.675C-294.589 132.665 -297.013 135.098 -299.985 135.098C-302.962 135.098 -305.387 132.665 -305.387 129.675ZM-356.597 124.253C-359.571 124.253 -361.998 126.686 -361.998 129.675C-361.998 132.665 -359.571 135.098 -356.597 135.098C-353.622 135.098 -351.197 132.665 -351.197 129.675C-351.197 126.686 -353.622 124.253 -356.597 124.253ZM-375.572 129.675C-375.572 126.686 -373.144 124.253 -370.17 124.253C-367.198 124.253 -364.771 126.686 -364.771 129.675C-364.771 132.665 -367.198 135.098 -370.17 135.098C-373.144 135.098 -375.572 132.665 -375.572 129.675ZM-214.476 62.5552C-211.504 62.5552 -209.077 60.1226 -209.077 57.132C-209.077 54.1439 -211.504 51.7113 -214.476 51.7113C-217.451 51.7113 -219.877 54.1439 -219.877 57.132C-219.877 60.1226 -217.451 62.5552 -214.476 62.5552ZM-305.903 106.781C-302.331 106.781 -299.426 103.863 -299.426 100.274V69.3631H-288.819V100.274C-288.819 109.738 -296.482 117.434 -305.903 117.434H-321.38V80.0167H-321.947C-330.475 80.0167 -336.91 86.8882 -336.91 96.0065V117.434H-400.632V105.342C-400.632 92.4548 -397.378 79.2394 -391.47 68.1259L-382.116 73.1452C-387.221 82.7408 -390.031 94.1747 -390.031 105.342V106.781H-347.519V96.0065C-347.519 81.0661 -336.282 69.3631 -321.947 69.3631H-310.774V106.781H-305.903ZM64.0294 119.489C93.0691 103.556 127.364 101.858 157.144 113.55C135.444 89.3162 130.532 55.5011 142.191 27.059C100.981 39.0032 69.3304 75.2451 64.0294 119.489ZM164.144 126.137L166.653 122.742C151.148 114.467 134.329 110.458 117.698 110.343V126.137H164.144ZM110.875 110.514C93.3089 111.524 76.1902 116.875 61.3003 126.137H110.875V110.514ZM59.0715 129.069V126.083C61.8032 74.7207 99.6627 30.6812 150.083 20.5945C132.449 52.2043 138.937 94.4311 169.233 119.141H198.075V127.512H192.763C188.13 136.282 185.271 141.537 179.386 150.331H189.088C189.088 150.331 186.975 154.705 180.441 154.705H69.9007C63.3649 154.705 61.2557 150.331 61.2557 150.331H71.8644C64.4344 139.528 59.9627 130.965 59.0715 129.069ZM120.263 191.533H130.076C136.61 191.533 138.714 187.156 138.714 187.156H111.62C111.62 187.156 113.729 191.533 120.263 191.533ZM91.8972 177.95H158.437C158.437 177.95 156.328 182.327 149.799 182.327H100.538C94.0058 182.327 91.8972 177.95 91.8972 177.95ZM173.466 168.745H76.8664C76.8664 168.745 78.9776 173.122 85.5109 173.122H164.824C171.362 173.122 173.466 168.745 173.466 168.745ZM67.7054 159.537H182.631C182.631 159.537 180.522 163.914 173.988 163.914H76.3479C69.8141 163.914 67.7054 159.537 67.7054 159.537Z" fill="#47C08B"/>
</g>
</svg>
