<svg width="27" height="27" viewBox="0 0 27 27" fill="none" xmlns="http://www.w3.org/2000/svg">
<g clip-path="url(#clip0_1_1572)">
<path d="M21 3H20V2C20 1.448 19.552 1 19 1C18.448 1 18 1.448 18 2V3H10V2C10 1.448 9.552 1 9 1C8.448 1 8 1.448 8 2V3H7C4.243 3 2 5.243 2 8V20C2 22.757 4.243 25 7 25H21C23.757 25 26 22.757 26 20V8C26 5.243 23.757 3 21 3ZM7 5H21C22.654 5 24 6.346 24 8V9H4V8C4 6.346 5.346 5 7 5ZM21 23H7C5.346 23 4 21.654 4 20V11H24V20C24 21.654 22.654 23 21 23ZM18.397 16.352C18.397 16.731 18.133 17.05 17.831 17.218L16.267 18.088L16.961 19.981C17.095 20.348 16.974 20.759 16.662 20.994C16.343 21.234 15.903 21.231 15.587 20.987L14.031 19.784L12.475 20.987C12.159 21.231 11.719 21.234 11.4 20.994C11.088 20.759 10.967 20.348 11.101 19.981L11.795 18.088L10.231 17.218C9.929 17.05 9.665 16.731 9.665 16.352C9.665 16.031 9.944 15.676 10.396 15.676H12.643L13.239 13.393C13.333 13.031 13.658 12.779 14.031 12.772C14.404 12.779 14.729 13.031 14.823 13.393L15.419 15.676H17.666C18.118 15.676 18.397 16.03 18.397 16.352Z" fill="#008755" stroke="#EFFAF9" stroke-width="0.5"/>
</g>
<defs>
<clipPath id="clip0_1_1572">
<rect width="24" height="24" fill="white" transform="translate(2 1)"/>
</clipPath>
</defs>
</svg>
