<svg width="16" height="16" viewBox="0 0 16 16" fill="none" xmlns="http://www.w3.org/2000/svg">
<path d="M8 1C6.61553 1 5.26216 1.41054 4.11101 2.17971C2.95987 2.94888 2.06266 4.04213 1.53285 5.32122C1.00303 6.6003 0.86441 8.00776 1.13451 9.36563C1.4046 10.7235 2.07129 11.9708 3.05026 12.9497C4.02922 13.9287 5.2765 14.5954 6.63437 14.8655C7.99224 15.1356 9.3997 14.997 10.6788 14.4672C11.9579 13.9373 13.0511 13.0401 13.8203 11.889C14.5895 10.7378 15 9.38447 15 8C15 6.14348 14.2625 4.36301 12.9497 3.05025C11.637 1.7375 9.85652 1 8 1ZM12.575 11.87L12.245 11.535C12.1509 11.4408 12.0232 11.388 11.89 11.388C11.7569 11.388 11.6292 11.4408 11.535 11.535C11.4409 11.6292 11.388 11.7568 11.388 11.89C11.388 12.0232 11.4409 12.1508 11.535 12.245L11.87 12.575C10.9242 13.3922 9.74513 13.8908 8.5 14V13.5C8.5 13.3674 8.44733 13.2402 8.35356 13.1464C8.25979 13.0527 8.13261 13 8 13C7.86739 13 7.74022 13.0527 7.64645 13.1464C7.55268 13.2402 7.5 13.3674 7.5 13.5V14C6.25776 13.8978 5.07897 13.4081 4.13 12.6L4.465 12.27C4.51162 12.2234 4.5486 12.168 4.57383 12.1071C4.59906 12.0462 4.61205 11.9809 4.61205 11.915C4.61205 11.8491 4.59906 11.7838 4.57383 11.7229C4.5486 11.662 4.51162 11.6066 4.465 11.56C4.41838 11.5134 4.36304 11.4764 4.30213 11.4512C4.24122 11.4259 4.17593 11.413 4.11 11.413C4.04407 11.413 3.97879 11.4259 3.91788 11.4512C3.85697 11.4764 3.80162 11.5134 3.755 11.56L3.425 11.895C2.61204 10.9393 2.12203 9.75097 2.025 8.5H2.5C2.63261 8.5 2.75979 8.44732 2.85356 8.35355C2.94732 8.25979 3 8.13261 3 8C3 7.86739 2.94732 7.74021 2.85356 7.64645C2.75979 7.55268 2.63261 7.5 2.5 7.5H2C2.10217 6.25776 2.59187 5.07896 3.4 4.13L3.73 4.465C3.77672 4.51134 3.83213 4.548 3.89305 4.57289C3.95397 4.59777 4.0192 4.61038 4.085 4.61C4.15081 4.61038 4.21604 4.59777 4.27696 4.57289C4.33788 4.548 4.39328 4.51134 4.44 4.465C4.48687 4.41852 4.52406 4.36322 4.54945 4.30229C4.57483 4.24136 4.5879 4.17601 4.5879 4.11C4.5879 4.04399 4.57483 3.97864 4.54945 3.91771C4.52406 3.85678 4.48687 3.80148 4.44 3.755L4.105 3.425C5.06075 2.61204 6.24903 2.12203 7.5 2.025V2.5C7.5 2.63261 7.55268 2.75979 7.64645 2.85355C7.74022 2.94732 7.86739 3 8 3C8.13261 3 8.25979 2.94732 8.35356 2.85355C8.44733 2.75979 8.5 2.63261 8.5 2.5V2C9.74225 2.10216 10.921 2.59187 11.87 3.4L11.535 3.73C11.4881 3.77648 11.4509 3.83178 11.4256 3.89271C11.4002 3.95364 11.3871 4.01899 11.3871 4.085C11.3871 4.15101 11.4002 4.21636 11.4256 4.27729C11.4509 4.33822 11.4881 4.39352 11.535 4.44C11.5817 4.48634 11.6371 4.523 11.698 4.54789C11.759 4.57277 11.8242 4.58538 11.89 4.585C11.9558 4.58538 12.021 4.57277 12.082 4.54789C12.1429 4.523 12.1983 4.48634 12.245 4.44L12.575 4.105C13.397 5.05754 13.8959 6.24613 14 7.5H13.5C13.3674 7.5 13.2402 7.55268 13.1464 7.64645C13.0527 7.74021 13 7.86739 13 8C13 8.13261 13.0527 8.25979 13.1464 8.35355C13.2402 8.44732 13.3674 8.5 13.5 8.5H14C13.8908 9.74512 13.3922 10.9242 12.575 11.87Z" fill="#26D07C"/>
<path d="M10.225 8.555L8.5 7.69V5C8.5 4.86739 8.44732 4.74021 8.35355 4.64645C8.25979 4.55268 8.13261 4.5 8 4.5C7.86739 4.5 7.74021 4.55268 7.64645 4.64645C7.55268 4.74021 7.5 4.86739 7.5 5V8C7.50028 8.09233 7.52612 8.18279 7.57466 8.26133C7.6232 8.33988 7.69254 8.40345 7.775 8.445L9.775 9.445C9.84416 9.48202 9.92156 9.50094 10 9.5C10.0923 9.49972 10.1828 9.47388 10.2613 9.42534C10.3399 9.3768 10.4034 9.30746 10.445 9.225C10.5043 9.10692 10.5145 8.97016 10.4732 8.84461C10.432 8.71906 10.3428 8.61494 10.225 8.555Z" fill="#26D07C"/>
</svg>
