<svg width="24" height="24" viewBox="0 0 24 24" fill="none" xmlns="http://www.w3.org/2000/svg">
<g clip-path="url(#clip0_1926_30529)">
<path d="M21.9844 10.8822C21.4324 10.8822 20.9845 10.4343 20.9845 9.88225C20.9845 7.07726 19.8924 4.44127 17.9094 2.45714C17.5185 2.06621 17.5185 1.43431 17.9094 1.0432C18.3003 0.652267 18.9324 0.652267 19.3233 1.0432C21.6845 3.40416 22.9844 6.54332 22.9844 9.88225C22.9844 10.4343 22.5365 10.8822 21.9844 10.8822Z" fill="white"/>
<path d="M1.98431 10.8822C1.43243 10.8822 0.984375 10.4343 0.984375 9.88225C0.984375 6.54332 2.28442 3.40416 4.64539 1.0432C5.03632 0.652267 5.6684 0.652267 6.05933 1.0432C6.45044 1.43431 6.45044 2.06621 6.05933 2.45714C4.07629 4.44017 2.98444 7.07726 2.98444 9.88225C2.98444 10.4343 2.53638 10.8822 1.98431 10.8822Z" fill="white"/>
<path d="M21.3635 16.9131C19.8514 15.635 18.9844 13.767 18.9844 11.788V9C18.9844 5.48108 16.3704 2.56805 12.9844 2.08008V0.999939C12.9844 0.44696 12.5364 0 11.9845 0C11.4324 0 10.9844 0.44696 10.9844 0.999939V2.08008C7.59747 2.56805 4.98438 5.48108 4.98438 9V11.788C4.98438 13.767 4.11737 15.635 2.5965 16.921C2.2074 17.254 1.98438 17.738 1.98438 18.2499C1.98438 19.2151 2.76935 20.0001 3.7345 20.0001H20.2345C21.1995 20.0001 21.9844 19.2151 21.9844 18.2499C21.9844 17.738 21.7614 17.254 21.3635 16.9131Z" fill="white"/>
<path d="M11.9843 24C13.7952 24 15.3102 22.7089 15.6583 21H8.3103C8.6582 22.7089 10.1732 24 11.9843 24Z" fill="white"/>
</g>
<defs>
<clipPath id="clip0_1926_30529">
<rect width="24" height="24" fill="white"/>
</clipPath>
</defs>
</svg>
