<svg width="35" height="35" viewBox="0 0 35 35" fill="none" xmlns="http://www.w3.org/2000/svg">
<path d="M26.0759 5.1723H22.837C22.8409 5.52402 22.8342 6.42071 22.837 6.75345C22.8358 7.34074 22.6019 7.90361 22.1866 8.31888C21.7714 8.73416 21.2085 8.96801 20.6212 8.96927H14.3786C13.7905 8.96916 13.2264 8.73584 12.81 8.32048C12.3936 7.90512 12.1589 7.3416 12.1573 6.75346C12.1532 6.41203 12.1604 5.51993 12.1573 5.17229H8.91844C8.33116 5.17355 7.76828 5.40741 7.35301 5.82268C6.93774 6.23796 6.70389 6.80084 6.70264 7.38812V30.5967C6.70389 31.184 6.93774 31.7468 7.35301 32.1621C7.76828 32.5774 8.33115 32.8112 8.91843 32.8125H26.0759C26.664 32.8124 27.2281 32.5791 27.6445 32.1637C28.0609 31.7484 28.2956 31.1848 28.2972 30.5967V7.38813C28.2956 6.8 28.0609 6.23647 27.6445 5.8211C27.2282 5.40574 26.6641 5.17242 26.0759 5.1723ZM11.1178 27.5493C14.397 27.6033 13.7989 27.0075 13.8534 30.2849C13.853 30.4298 13.7952 30.5687 13.6927 30.6712C13.5902 30.7738 13.4513 30.8315 13.3063 30.832H11.1178C10.9729 30.8315 10.8339 30.7738 10.7314 30.6712C10.6289 30.5687 10.5711 30.4298 10.5707 30.2848V28.0964C10.5705 28.0245 10.5845 27.9532 10.6119 27.8867C10.6393 27.8202 10.6796 27.7598 10.7304 27.709C10.7813 27.6581 10.8417 27.6178 10.9082 27.5904C10.9747 27.563 11.0459 27.549 11.1178 27.5493ZM10.5707 24.2994C10.6259 21.0184 10.0279 21.6198 13.3063 21.5639C13.4513 21.5643 13.5902 21.6221 13.6927 21.7246C13.7952 21.8271 13.853 21.966 13.8534 22.111V24.2994C13.8537 24.3713 13.8397 24.4426 13.8123 24.5091C13.7849 24.5756 13.7446 24.636 13.6937 24.6868C13.6429 24.7377 13.5824 24.778 13.516 24.8054C13.4495 24.8328 13.3782 24.8468 13.3063 24.8465H11.1178C11.0459 24.8468 10.9747 24.8328 10.9082 24.8054C10.8417 24.778 10.7813 24.7377 10.7304 24.6868C10.6795 24.636 10.6393 24.5756 10.6119 24.5091C10.5844 24.4426 10.5705 24.3713 10.5707 24.2994ZM15.5221 29.7377H24.3306C24.4743 29.7398 24.6115 29.7984 24.7124 29.9008C24.8133 30.0031 24.8698 30.1411 24.8698 30.2849C24.8698 30.4286 24.8133 30.5666 24.7124 30.6689C24.6115 30.7713 24.4743 30.8299 24.3306 30.832H15.5221C15.3782 30.8301 15.2409 30.7716 15.1398 30.6692C15.0387 30.5668 14.9821 30.4287 14.9821 30.2848C14.9821 30.1409 15.0387 30.0029 15.1398 29.9005C15.2409 29.7981 15.3782 29.7396 15.5221 29.7377ZM14.975 28.0964C14.9743 28.0243 14.9879 27.9529 15.0152 27.8862C15.0424 27.8195 15.0827 27.7589 15.1336 27.7079C15.1846 27.657 15.2452 27.6167 15.3119 27.5895C15.3786 27.5622 15.4501 27.5486 15.5221 27.5493H20.1343C20.2794 27.5493 20.4185 27.6069 20.5211 27.7095C20.6237 27.8121 20.6814 27.9513 20.6814 28.0964C20.6814 28.2415 20.6237 28.3807 20.5211 28.4833C20.4185 28.5859 20.2794 28.6435 20.1343 28.6435H15.5221C15.4502 28.6437 15.3789 28.6298 15.3124 28.6024C15.2459 28.575 15.1855 28.5347 15.1347 28.4838C15.0838 28.433 15.0435 28.3725 15.0161 28.3061C14.9887 28.2396 14.9747 28.1683 14.975 28.0964ZM24.3306 24.8465H15.5221C15.4501 24.8468 15.3788 24.8328 15.3122 24.8054C15.2456 24.778 15.1851 24.7377 15.1341 24.6869C15.0831 24.6361 15.0427 24.5757 15.0151 24.5092C14.9875 24.4427 14.9733 24.3714 14.9733 24.2994C14.9733 24.2274 14.9875 24.1561 15.0151 24.0896C15.0427 24.0232 15.0831 23.9628 15.1341 23.9119C15.1851 23.8611 15.2456 23.8208 15.3122 23.7935C15.3788 23.7661 15.4501 23.7521 15.5221 23.7523H24.3306C24.4744 23.7544 24.6115 23.8129 24.7124 23.9153C24.8133 24.0177 24.8699 24.1557 24.8699 24.2994C24.8699 24.4432 24.8133 24.5811 24.7124 24.6835C24.6115 24.7859 24.4744 24.8444 24.3306 24.8465ZM19.3792 17.2252C19.3801 17.5263 19.2981 17.8219 19.1422 18.0795C18.9863 18.3371 18.7626 18.5469 18.4955 18.6859C18.2284 18.8249 17.9282 18.8877 17.6278 18.8675C17.3273 18.8473 17.0383 18.7448 16.7922 18.5713C16.5461 18.3978 16.3524 18.16 16.2325 17.8838C16.1125 17.6076 16.0708 17.3038 16.112 17.0055C16.1531 16.7072 16.2755 16.426 16.4658 16.1926C16.6561 15.9593 16.9069 15.7827 17.1908 15.6824V14.5334C17.193 14.3898 17.2516 14.2527 17.3539 14.1519C17.4563 14.0511 17.5942 13.9946 17.7379 13.9946C17.8816 13.9946 18.0195 14.0511 18.1219 14.1519C18.2242 14.2527 18.2828 14.3898 18.285 14.5334V15.6823C18.6043 15.7953 18.8808 16.0041 19.0767 16.2804C19.2726 16.5566 19.3783 16.8866 19.3792 17.2252ZM20.1343 21.5638C20.2781 21.5657 20.4155 21.6242 20.5165 21.7266C20.6176 21.829 20.6743 21.9671 20.6743 22.111C20.6743 22.2548 20.6176 22.3929 20.5165 22.4953C20.4154 22.5977 20.2781 22.6562 20.1342 22.6581H15.5221C15.3782 22.6562 15.2409 22.5977 15.1398 22.4953C15.0387 22.3929 14.9821 22.2548 14.9821 22.1109C14.9821 21.9671 15.0387 21.829 15.1398 21.7266C15.2409 21.6242 15.3782 21.5657 15.5221 21.5638H20.1343ZM17.7379 10.9553C19.348 10.9572 20.8915 11.5977 22.03 12.7362C23.1685 13.8747 23.8089 15.4182 23.8108 17.0283C23.8111 17.1003 23.7971 17.1716 23.7697 17.2382C23.7423 17.3048 23.702 17.3653 23.6512 17.4163C23.6004 17.4673 23.54 17.5077 23.4735 17.5353C23.407 17.5629 23.3357 17.5771 23.2637 17.5771C23.1917 17.5771 23.1205 17.5629 23.054 17.5353C22.9875 17.5077 22.9271 17.4673 22.8763 17.4163C22.8254 17.3653 22.7852 17.3048 22.7578 17.2382C22.7304 17.1716 22.7164 17.1003 22.7166 17.0283C22.7188 16.3731 22.5916 15.7239 22.3424 15.1179C22.0932 14.512 21.7268 13.9612 21.2642 13.4971C20.8017 13.033 20.2521 12.6648 19.647 12.4136C19.0419 12.1624 18.3931 12.033 17.7379 12.033C17.0827 12.033 16.4339 12.1624 15.8288 12.4136C15.2237 12.6648 14.6741 13.033 14.2116 13.4971C13.749 13.9612 13.3826 14.512 13.1334 15.1179C12.8842 15.7239 12.757 16.3731 12.7592 17.0283C12.7592 17.1734 12.7015 17.3125 12.5989 17.4152C12.4963 17.5178 12.3572 17.5754 12.2121 17.5754C12.067 17.5754 11.9278 17.5178 11.8252 17.4152C11.7226 17.3125 11.6649 17.1734 11.6649 17.0283C11.6669 15.4182 12.3073 13.8747 13.4458 12.7362C14.5843 11.5977 16.1278 10.9572 17.7379 10.9553ZM13.2516 6.75346C13.254 6.18877 13.2483 5.2209 13.2516 4.65257C13.2519 4.50492 13.2813 4.35878 13.3382 4.22251C13.395 4.08623 13.4781 3.96249 13.5828 3.85833C13.6874 3.75418 13.8116 3.67167 13.9481 3.61549C14.0847 3.55932 14.231 3.5306 14.3786 3.53096L15.7409 3.53101C15.8455 3.14529 16.0741 2.80472 16.3916 2.5619C16.709 2.31908 17.0975 2.18751 17.4971 2.1875C17.8968 2.18749 18.2853 2.31906 18.6027 2.56187C18.9202 2.80468 19.1488 3.14524 19.2534 3.53096H20.6212C20.9185 3.53137 21.2036 3.64967 21.4138 3.85993C21.6241 4.07018 21.7424 4.35523 21.7428 4.65257C21.7428 4.99004 21.7427 5.91594 21.7428 6.26653V6.75346C21.7424 7.0508 21.6241 7.33585 21.4138 7.5461C21.2036 7.75635 20.9185 7.87464 20.6212 7.87505H14.3786C14.231 7.87541 14.0847 7.84669 13.9481 7.79052C13.8116 7.73435 13.6874 7.65184 13.5828 7.54769C13.4781 7.44354 13.395 7.31979 13.3382 7.18352C13.2813 7.04725 13.2519 6.90111 13.2516 6.75346ZM17.7379 17.7724C17.5942 17.7703 17.457 17.7118 17.356 17.6094C17.2551 17.507 17.1985 17.369 17.1985 17.2252C17.1985 17.0815 17.2551 16.9435 17.356 16.8411C17.457 16.7387 17.5942 16.6802 17.7379 16.6781C17.8817 16.6802 18.0189 16.7387 18.1198 16.8411C18.2208 16.9435 18.2774 17.0815 18.2774 17.2252C18.2774 17.369 18.2208 17.507 18.1198 17.6094C18.0189 17.7118 17.8817 17.7703 17.7379 17.7724ZM12.7592 29.7377H11.6649V28.6435H12.7592L12.7592 29.7377ZM12.7592 23.7523H11.6649V22.6581H12.7592L12.7592 23.7523Z" fill="url(#paint0_linear_180_4773)"/>
<defs>
<linearGradient id="paint0_linear_180_4773" x1="6.70241" y1="17.5" x2="28.2974" y2="17.5" gradientUnits="userSpaceOnUse">
<stop stop-color="#FFA68D"/>
<stop offset="1" stop-color="#FD3A84"/>
</linearGradient>
</defs>
</svg>
