<svg width="24" height="24" viewBox="0 0 24 24" fill="none" xmlns="http://www.w3.org/2000/svg">
<path d="M22.8281 19.7812H21.1406V14.8594C21.1406 14.4243 20.9678 14.007 20.6601 13.6993C20.3524 13.3916 19.9351 13.2188 19.5 13.2188H15.5156V11.5781C15.5156 11.143 15.3428 10.7257 15.0351 10.418C14.7274 10.1104 14.3101 9.9375 13.875 9.9375H10.125C9.68988 9.9375 9.27258 10.1104 8.9649 10.418C8.65723 10.7257 8.48438 11.143 8.48438 11.5781V15.5625H4.5C4.06488 15.5625 3.64758 15.7354 3.3399 16.043C3.03223 16.3507 2.85938 16.768 2.85938 17.2031V19.7812H1.17188C0.861074 19.7812 0.563003 19.9047 0.343234 20.1245C0.123465 20.3443 0 20.6423 0 20.9531L0 22.8281C0 23.1389 0.123465 23.437 0.343234 23.6568C0.563003 23.8765 0.861074 24 1.17188 24H22.8281C23.1389 24 23.437 23.8765 23.6568 23.6568C23.8765 23.437 24 23.1389 24 22.8281V20.9531C24 20.6423 23.8765 20.3443 23.6568 20.1245C23.437 19.9047 23.1389 19.7812 22.8281 19.7812ZM19.5 14.625C19.5622 14.625 19.6218 14.6497 19.6657 14.6936C19.7097 14.7376 19.7344 14.7972 19.7344 14.8594V19.7812H15.5156V14.625H19.5ZM10.125 11.3438H13.875C13.9372 11.3438 13.9968 11.3684 14.0407 11.4124C14.0847 11.4564 14.1094 11.516 14.1094 11.5781V19.7812H9.89062V11.5781C9.89062 11.516 9.91532 11.4564 9.95927 11.4124C10.0032 11.3684 10.0628 11.3438 10.125 11.3438ZM4.26562 17.2031C4.26562 17.141 4.29032 17.0814 4.33427 17.0374C4.37823 16.9934 4.43784 16.9688 4.5 16.9688H8.48438V19.7812H4.26562V17.2031ZM22.5938 22.5938H1.40625V21.1875H22.5938V22.5938Z" fill="#008755"/>
<path d="M9.13514 5.47918L8.85951 7.0823C8.82262 7.29778 8.84674 7.51928 8.92914 7.72177C9.01153 7.92426 9.14893 8.09967 9.3258 8.22816C9.50267 8.35665 9.71195 8.43311 9.92999 8.44889C10.148 8.46467 10.3661 8.41914 10.5597 8.31746L12.0001 7.5609L13.4397 8.31746C13.6332 8.4194 13.8514 8.46514 14.0696 8.44949C14.2878 8.43383 14.4973 8.35742 14.6743 8.22888C14.8513 8.10035 14.9888 7.92484 15.0713 7.7222C15.1537 7.51957 15.1778 7.29791 15.1408 7.0823L14.8661 5.47918L16.0314 4.34433C16.1885 4.19163 16.2997 3.99794 16.3523 3.78524C16.4049 3.57253 16.3968 3.34934 16.329 3.141C16.2611 2.93266 16.1362 2.74751 15.9685 2.60658C15.8007 2.46565 15.5968 2.37458 15.3798 2.34371L13.7706 2.10933L13.0511 0.653395C12.9543 0.457271 12.8046 0.292135 12.6189 0.176665C12.4332 0.0611957 12.2188 0 12.0001 0C11.7814 0 11.5671 0.0611957 11.3814 0.176665C11.1957 0.292135 11.046 0.457271 10.9492 0.653395L10.2297 2.11168L8.61998 2.34605C8.40358 2.37733 8.20023 2.46852 8.03295 2.60933C7.86567 2.75014 7.74111 2.93494 7.67338 3.14283C7.60564 3.35073 7.59741 3.57344 7.64964 3.78576C7.70186 3.99809 7.81245 4.19157 7.96889 4.34433L9.13514 5.47918ZM10.5536 3.48558C10.7419 3.4585 10.9208 3.38597 11.0749 3.27424C11.2289 3.16252 11.3534 3.01496 11.4376 2.84433L12.0001 1.70152L12.5626 2.84433C12.6467 3.01478 12.771 3.16222 12.9248 3.27394C13.0786 3.38565 13.2572 3.45829 13.4453 3.48558L14.7067 3.66886L13.7936 4.55949C13.6576 4.69207 13.5558 4.85572 13.4971 5.03634C13.4384 5.21697 13.4245 5.40916 13.4565 5.59636L13.6722 6.85261L12.5439 6.25964C12.3758 6.17129 12.1887 6.12512 11.9987 6.12512C11.8088 6.12512 11.6217 6.17129 11.4536 6.25964L10.3267 6.85168L10.5423 5.59543C10.5744 5.40822 10.5604 5.21603 10.5017 5.03541C10.443 4.85478 10.3413 4.69113 10.2053 4.55855L9.29217 3.66793L10.5536 3.48558Z" fill="#008755"/>
</svg>
