<svg width="35" height="35" viewBox="0 0 35 35" fill="none" xmlns="http://www.w3.org/2000/svg">
<path fill-rule="evenodd" clip-rule="evenodd" d="M21.6218 7.37207L21.3835 14.2917L20.4223 14.8944L17.7734 11.6196C17.6765 11.4568 16.3957 10.176 17.6979 9.55007L21.6218 7.37207Z" fill="#FFB39D"/>
<path fill-rule="evenodd" clip-rule="evenodd" d="M27.0527 9.94338L26.2757 16.8844H19.4238L20.3055 9.63529C20.8074 5.50016 26.795 6.32177 27.0527 9.94338Z" fill="#FFE177"/>
<path fill-rule="evenodd" clip-rule="evenodd" d="M19.4238 16.8848H26.2757V21.1768L23.371 22.0702H19.4238V16.8848Z" fill="#475066"/>
<path fill-rule="evenodd" clip-rule="evenodd" d="M24.6107 13.1171C25.6842 13.1171 31.3541 13.1152 32.4373 13.1171C34.3149 13.1171 34.3149 10.1582 32.4373 10.1582L24.6204 10.1601C22.7427 10.1601 22.7427 13.1171 24.6107 13.1171Z" fill="#FABEAF"/>
<path fill-rule="evenodd" clip-rule="evenodd" d="M23.3711 22.0704V25.132C23.3711 26.6299 22.2433 27.8545 20.8637 27.8545H13.5273V25.1204H18.2923C18.9124 25.1204 19.4201 24.57 19.4201 23.8957V22.0742L23.3711 22.0704Z" fill="#FABEAF"/>
<path fill-rule="evenodd" clip-rule="evenodd" d="M23.3711 24.7655L26.0297 27.8039C26.4017 28.36 26.3553 28.2631 26.3553 28.9317V31.195H28.8724V26.804C28.8763 26.4378 28.9344 26.1704 28.51 25.5367L26.2758 21.1768L23.3711 22.0701V24.7655Z" fill="#FFB39D"/>
<path fill-rule="evenodd" clip-rule="evenodd" d="M13.5279 25.1201H12.3342C11.6793 25.1201 11.1406 25.7034 11.1406 26.4165V30.3075C12.7877 30.3075 13.5279 29.5091 13.5279 27.8544V25.1202L13.5279 25.1201Z" fill="#475066"/>
<path fill-rule="evenodd" clip-rule="evenodd" d="M26.3555 31.1953V32.4917C26.3555 33.2047 26.8922 33.788 27.5491 33.788H31.13C31.13 31.9976 30.3956 31.1953 28.8726 31.1953H26.3555Z" fill="#475066"/>
<path fill-rule="evenodd" clip-rule="evenodd" d="M24.8243 6.86635C26.4462 6.86635 27.7697 5.54284 27.7697 3.91903C27.7697 2.29522 26.4462 0.973633 24.8243 0.973633C23.2024 0.973633 21.877 2.29714 21.877 3.91903C21.877 5.54093 23.2004 6.86635 24.8243 6.86635Z" fill="#FFDDCF"/>
<path d="M17.3433 33.4972C17.0411 33.4972 16.7969 33.253 16.7969 32.9508C16.7969 32.6485 17.0411 32.4043 17.3433 32.4043H24.1313C24.4336 32.4043 24.6778 32.6485 24.6778 32.9508C24.6778 33.253 24.4336 33.4972 24.1313 33.4972H17.3433Z" fill="#7B849B"/>
<path d="M11.1402 33.4972C10.8398 33.4972 10.5938 33.253 10.5938 32.9508C10.5938 32.6485 10.8398 32.4043 11.1402 32.4043H12.2156C12.5179 32.4043 12.764 32.6485 12.764 32.9508C12.764 33.253 12.5179 33.4972 12.2156 33.4972H11.1402Z" fill="#7B849B"/>
<path d="M14.1773 33.4972C13.875 33.4972 13.6309 33.253 13.6309 32.9508C13.6309 32.6485 13.875 32.4043 14.1773 32.4043H15.2528C15.555 32.4043 15.7992 32.6485 15.7992 32.9508C15.7992 33.253 15.555 33.4972 15.2528 33.4972H14.1773Z" fill="#7B849B"/>
<path fill-rule="evenodd" clip-rule="evenodd" d="M10.4249 10.5565C10.8978 10.6863 11.3454 10.8743 11.762 11.1107L12.9556 10.3589C13.2424 10.1806 13.5854 10.1205 13.8237 10.3589L14.7151 11.2502C14.9554 11.4905 14.8953 11.8335 14.7151 12.1203L13.9652 13.3139C14.2016 13.7305 14.3896 14.1782 14.5194 14.651L15.8933 14.963C16.2227 15.0386 16.5075 15.2401 16.5075 15.5772V16.8387C16.5075 17.1759 16.2227 17.3774 15.8933 17.453L14.5194 17.765C14.3896 18.2379 14.2016 18.6855 13.9633 19.1021L14.7152 20.2957C14.8954 20.5824 14.9554 20.9274 14.7152 21.1658L13.8238 22.0571C13.5855 22.2955 13.2424 22.2373 12.9557 22.0571L11.762 21.3053C11.3455 21.5417 10.8978 21.7297 10.425 21.8595L10.1111 23.2353C10.0375 23.5647 9.83595 23.8496 9.49682 23.8496H8.23729C7.90015 23.8496 7.69862 23.5647 7.62302 23.2353L7.31103 21.8595C6.83818 21.7297 6.39063 21.5417 5.97398 21.3053L4.77838 22.0571C4.49353 22.2373 4.14865 22.2955 3.91028 22.0571L3.01895 21.1658C2.78058 20.9274 2.83875 20.5825 3.01895 20.2957L3.77083 19.1021C3.53246 18.6855 3.34646 18.2378 3.21664 17.765L1.84084 17.453C1.51142 17.3775 1.22656 17.176 1.22656 16.8387V15.5772C1.22656 15.2401 1.51142 15.0386 1.84084 14.963L3.21664 14.651C3.34646 14.1781 3.53444 13.7305 3.77083 13.3139L3.01895 12.1203C2.83875 11.8335 2.78058 11.4905 3.01895 11.2502L3.91028 10.3589C4.14865 10.1205 4.49353 10.1806 4.77838 10.3589L5.97398 11.1107C6.39063 10.8743 6.83825 10.6863 7.31103 10.5565L7.62302 9.18264C7.69855 8.85321 7.90015 8.56836 8.23729 8.56836H9.49682C9.83588 8.56836 10.0375 8.85321 10.1111 9.18264L10.4249 10.5565Z" fill="#3A455F"/>
<path fill-rule="evenodd" clip-rule="evenodd" d="M8.86778 19.8263C10.8617 19.8263 12.4875 18.2006 12.4875 16.2086C12.4875 14.2166 10.8617 12.5889 8.86778 12.5889C6.87388 12.5889 5.25 14.2147 5.25 16.2086C5.25 18.2025 6.87579 19.8263 8.86778 19.8263Z" fill="#DCDEE8"/>
<path d="M8.23131 17.8265C7.98132 17.9932 7.64219 17.9273 7.4756 17.6754C7.30702 17.4254 7.37483 17.0883 7.62482 16.9197L8.32045 16.4527V14.8521C8.32045 14.5498 8.56463 14.3037 8.86691 14.3037C9.1692 14.3037 9.41338 14.5498 9.41338 14.8521V16.7433C9.41146 16.9177 9.32813 17.0902 9.17118 17.1948L8.23131 17.8265Z" fill="#7B849B"/>
</svg>
