<svg width="24" height="24" viewBox="0 0 24 24" fill="none" xmlns="http://www.w3.org/2000/svg">
<g clip-path="url(#clip0_1368_121513)">
<path d="M12 0C5.37281 0 0 5.37281 0 12C0 18.6272 5.37281 24 12 24C18.6272 24 24 18.6272 24 12C24 5.37281 18.6272 0 12 0ZM19.3252 19.3252C18.3642 20.2915 17.2219 21.0587 15.9639 21.5828C14.7059 22.107 13.3569 22.3778 11.9941 22.3796C10.6312 22.3815 9.28143 22.1145 8.02199 21.5938C6.76254 21.0732 5.6182 20.3091 4.65454 19.3455C3.69088 18.3818 2.92683 17.2375 2.40617 15.978C1.88551 14.7186 1.61847 13.3688 1.62036 12.0059C1.62225 10.6431 1.89302 9.29405 2.41716 8.03605C2.9413 6.77805 3.70852 5.63584 4.67484 4.67484C5.63584 3.70852 6.77805 2.9413 8.03605 2.41716C9.29405 1.89302 10.6431 1.62225 12.0059 1.62036C13.3688 1.61847 14.7186 1.88551 15.978 2.40617C17.2375 2.92683 18.3818 3.69088 19.3455 4.65454C20.3091 5.6182 21.0732 6.76254 21.5938 8.02199C22.1145 9.28143 22.3815 10.6312 22.3796 11.9941C22.3778 13.3569 22.107 14.7059 21.5828 15.9639C21.0587 17.2219 20.2915 18.3642 19.3252 19.3252Z" fill="#008755"/>
<path d="M15.2527 15.5596L13.9898 16.8107C13.8556 16.9442 13.674 17.0191 13.4848 17.0191C13.2955 17.0191 13.1139 16.9442 12.9797 16.8107C12.913 16.744 12.8602 16.6648 12.8243 16.5777C12.7883 16.4905 12.7699 16.3971 12.7701 16.3028C12.7703 16.2085 12.7892 16.1152 12.8255 16.0282C12.8619 15.9412 12.9151 15.8623 12.982 15.7959L14.2392 14.55L12.9844 13.3021C12.9174 13.2358 12.8643 13.1569 12.8279 13.0699C12.7915 12.983 12.7727 12.8897 12.7725 12.7954C12.7723 12.7012 12.7907 12.6078 12.8266 12.5207C12.8626 12.4336 12.9154 12.3544 12.982 12.2878C13.1159 12.1539 13.2973 12.0784 13.4866 12.078C13.6759 12.0776 13.8577 12.1521 13.9922 12.2854L15.255 13.5365L16.5 12.2892C16.6342 12.155 16.8162 12.0796 17.006 12.0796C17.1958 12.0796 17.3778 12.155 17.512 12.2892C17.5786 12.3556 17.6314 12.4344 17.6674 12.5213C17.7034 12.6081 17.722 12.7012 17.722 12.7952C17.722 12.8892 17.7034 12.9823 17.6674 13.0691C17.6314 13.1559 17.5786 13.2348 17.512 13.3012L16.2656 14.5481L17.512 15.7973C17.5786 15.8637 17.6314 15.9426 17.6674 16.0294C17.7034 16.1162 17.722 16.2093 17.722 16.3033C17.722 16.3973 17.7034 16.4904 17.6674 16.5772C17.6314 16.6641 17.5786 16.7429 17.512 16.8093C17.4456 16.8759 17.3668 16.9287 17.2799 16.9647C17.1931 17.0007 17.1 17.0192 17.006 17.0192C16.912 17.0192 16.8189 17.0007 16.7321 16.9647C16.6453 16.9287 16.5664 16.8759 16.5 16.8093L15.2527 15.5596ZM5.53125 14.5528V14.5434C5.5315 14.3537 5.60702 14.1719 5.74123 14.0379C5.87544 13.9038 6.05736 13.8285 6.24703 13.8285H10.9941C11.0881 13.8285 11.1811 13.8471 11.268 13.883C11.3548 13.919 11.4337 13.9717 11.5002 14.0382C11.5667 14.1047 11.6194 14.1836 11.6554 14.2704C11.6913 14.3573 11.7098 14.4503 11.7098 14.5443V14.5537C11.7098 14.6477 11.6913 14.7408 11.6554 14.8276C11.6194 14.9145 11.5667 14.9934 11.5002 15.0598C11.4337 15.1263 11.3548 15.179 11.268 15.215C11.1811 15.251 11.0881 15.2695 10.9941 15.2695H6.24703C6.15296 15.2695 6.0598 15.2509 5.9729 15.2149C5.88599 15.1789 5.80704 15.1261 5.74057 15.0595C5.67409 14.9929 5.62138 14.9139 5.58547 14.827C5.54955 14.74 5.53113 14.6468 5.53125 14.5528ZM12.9783 8.5148C13.1126 8.38061 13.2947 8.30523 13.4845 8.30523C13.6744 8.30523 13.8565 8.38061 13.9908 8.5148L14.9531 9.47714L17.2383 7.19199C17.3053 7.12504 17.3848 7.07204 17.4724 7.03607C17.5601 7.0001 17.6539 6.98187 17.7486 6.98243C17.8433 6.983 17.937 7.00235 18.0241 7.03937C18.1113 7.07639 18.1902 7.13033 18.2564 7.19808L18.2648 7.20699C18.3964 7.34147 18.4696 7.52235 18.4687 7.71045C18.4679 7.89855 18.3929 8.07873 18.2602 8.21199L15.2883 11.1975C15.2464 11.2394 15.1966 11.2727 15.1419 11.2955C15.0871 11.3182 15.0284 11.3299 14.9691 11.3299C14.9098 11.3299 14.851 11.3182 14.7963 11.2955C14.7415 11.2727 14.6917 11.2394 14.6498 11.1975L12.9783 9.52589C12.8444 9.39171 12.7692 9.2099 12.7692 9.02035C12.7692 8.8308 12.8444 8.64899 12.9783 8.5148ZM5.53125 9.49964V9.4898C5.53125 9.29996 5.60666 9.1179 5.7409 8.98367C5.87513 8.84943 6.0572 8.77402 6.24703 8.77402H10.9941C11.0881 8.77402 11.1811 8.79253 11.268 8.8285C11.3548 8.86448 11.4337 8.9172 11.5002 8.98367C11.5667 9.05013 11.6194 9.12904 11.6554 9.21588C11.6913 9.30272 11.7098 9.3958 11.7098 9.4898V9.49964C11.7097 9.6894 11.6343 9.87134 11.5 10.0055C11.3658 10.1396 11.1838 10.215 10.9941 10.215H6.24703C6.05728 10.215 5.87529 10.1396 5.74106 10.0055C5.60684 9.87134 5.53137 9.6894 5.53125 9.49964Z" fill="#008755"/>
</g>
<defs>
<clipPath id="clip0_1368_121513">
<rect width="24" height="24" fill="white"/>
</clipPath>
</defs>
</svg>
