<svg width="16" height="16" viewBox="0 0 16 16" fill="none" xmlns="http://www.w3.org/2000/svg">
<g clip-path="url(#clip0_1353_116687)">
<path d="M14.4535 7.73832C14.2741 7.70232 14.0901 7.67112 13.8967 7.63859C12.6434 7.42525 11.0821 7.16285 7.9114 5.12979C7.78538 4.99146 7.6407 4.87138 7.48154 4.77299L6.49327 3.72179C6.40342 3.62636 6.2917 3.55424 6.16774 3.51163C6.04379 3.46903 5.91133 3.45723 5.7818 3.47725C5.65695 3.49498 5.53839 3.54318 5.43659 3.6176C5.33478 3.69201 5.25286 3.79035 5.19807 3.90392C5.05631 4.16345 4.98958 4.45731 5.00536 4.7526C5.02113 5.0479 5.11879 5.33298 5.2874 5.57592C5.12399 5.83238 4.90015 6.04482 4.63551 6.19462C4.37087 6.34442 4.07352 6.427 3.76954 6.43512C3.45637 6.4134 3.15378 6.31285 2.88989 6.14282C2.62601 5.97278 2.4094 5.73879 2.2602 5.46259C1.98927 5.01139 1.69194 4.60925 1.345 4.70312C0.964737 4.80845 0.964737 5.36979 0.964737 5.86659C0.991114 6.55259 0.907661 7.2384 0.717537 7.89805L0.114604 9.10419C0.0194375 9.29318 -0.0171869 9.50626 0.00941519 9.71618C0.0360173 9.9261 0.124637 10.1233 0.263937 10.2826C0.66687 10.7311 1.52847 11.3005 3.36474 11.4663H11.5639C12.1042 11.4675 12.6414 11.3855 13.1567 11.2231C13.9957 10.957 16.0002 10.2146 16.0002 9.33299C16.0002 8.88845 15.6767 7.98312 14.4535 7.73832ZM5.67754 4.13725C5.69488 4.10146 5.72085 4.07053 5.7531 4.04726C5.78536 4.02398 5.8229 4.00909 5.86234 4.00392C5.90641 3.99704 5.9515 4.00097 5.99373 4.01537C6.03595 4.02977 6.07405 4.05421 6.10474 4.08659L6.553 4.56312C6.1912 4.63513 5.86627 4.83214 5.63514 5.11965C5.56397 4.96423 5.53071 4.79413 5.53808 4.62335C5.54545 4.45257 5.59325 4.28597 5.67754 4.13725ZM1.49807 5.86632C1.49536 5.68587 1.50275 5.50541 1.5202 5.32579C1.62516 5.45516 1.71968 5.59266 1.80287 5.73699C1.99811 6.09052 2.27972 6.38883 2.62144 6.60408C2.96315 6.81933 3.35383 6.9445 3.757 6.96792H3.8066C4.58207 6.96792 5.29594 6.53592 5.82207 5.74685C6.10794 5.31805 6.40714 5.09325 6.71194 5.08019C6.98084 5.08688 7.2362 5.19961 7.42234 5.39379L6.98687 5.97299C6.94444 6.02957 6.92622 6.10069 6.93622 6.1707C6.94622 6.24071 6.98362 6.30389 7.0402 6.34632C7.09678 6.38876 7.1679 6.40698 7.23792 6.39697C7.30793 6.38697 7.3711 6.34957 7.41354 6.29299L7.84527 5.71779C8.033 5.83601 8.21558 5.94837 8.393 6.05485L8.05354 6.50632C8.03253 6.53434 8.01724 6.56622 8.00855 6.60014C7.99986 6.63406 7.99793 6.66937 8.00288 6.70403C8.00784 6.7387 8.01957 6.77205 8.03741 6.80219C8.05525 6.83232 8.07886 6.85864 8.10687 6.87965C8.13489 6.90067 8.16677 6.91595 8.20069 6.92464C8.23461 6.93334 8.26992 6.93526 8.30458 6.93031C8.33925 6.92536 8.3726 6.91362 8.40274 6.89578C8.43287 6.87794 8.45919 6.85434 8.4802 6.82632L8.85594 6.32685C9.0506 6.43832 9.23807 6.54205 9.41994 6.63939L9.1202 7.03965C9.09919 7.06767 9.08391 7.09955 9.07521 7.13347C9.06652 7.1674 9.0646 7.2027 9.06955 7.23737C9.0745 7.27203 9.08624 7.30539 9.10408 7.33552C9.12192 7.36565 9.14552 7.39198 9.17354 7.41299C9.20155 7.434 9.23343 7.44929 9.26736 7.45798C9.30128 7.46667 9.33658 7.46859 9.37125 7.46364C9.40592 7.45869 9.43927 7.44696 9.4694 7.42911C9.49954 7.41127 9.52586 7.38767 9.54687 7.35965L9.8994 6.88872C10.1045 6.99165 10.3007 7.08499 10.4893 7.17085L10.1869 7.57299C10.1444 7.62957 10.1262 7.70069 10.1362 7.7707C10.1462 7.84071 10.1836 7.90389 10.2402 7.94632C10.2968 7.98876 10.3679 8.00698 10.4379 7.99697C10.5079 7.98697 10.5711 7.94957 10.6135 7.89299L10.9927 7.38872C11.8955 7.7617 12.8407 8.02215 13.8071 8.16419C13.9938 8.19592 14.1738 8.22606 14.3482 8.26072C14.5437 8.28626 14.7313 8.35363 14.8984 8.45822C15.0655 8.56282 15.2081 8.70219 15.3165 8.86685C14.3354 9.43939 12.7935 9.93059 10.7402 9.34312C7.66127 8.46312 6.68207 8.65672 5.44127 8.90126C5.14927 8.95912 4.8474 9.01859 4.4962 9.06872C3.22367 9.25112 1.7778 8.62045 1.1202 8.28525C1.14234 8.17592 1.49807 7.91192 1.49807 5.86632ZM12.9951 10.7149C12.5321 10.8607 12.0494 10.9342 11.5639 10.933H3.389C1.74927 10.7839 1.0002 10.3026 0.661004 9.92499C0.592656 9.8457 0.549544 9.7478 0.537191 9.64385C0.524839 9.5399 0.543809 9.43462 0.59167 9.34152L0.881537 8.76152C1.65754 9.15885 3.1682 9.79592 4.5714 9.59592C4.93647 9.54259 5.24554 9.48259 5.5442 9.42392C6.76074 9.18392 7.6386 9.01086 10.5935 9.85486C11.2303 10.0416 11.89 10.1381 12.5535 10.1418C13.5481 10.1457 14.5278 9.90005 15.4029 9.42739C15.1439 9.83965 14.2733 10.3093 12.9951 10.7149Z" fill="#26D07C" stroke="#26D07C" stroke-width="0.5"/>
</g>
<defs>
<clipPath id="clip0_1353_116687">
<rect width="16" height="16" fill="white"/>
</clipPath>
</defs>
</svg>
