<svg width="39" height="39" viewBox="0 0 39 39" fill="none" xmlns="http://www.w3.org/2000/svg">
<g clip-path="url(#clip0_262_3695)">
<path d="M19.5 39C30.2696 39 39 30.2696 39 19.5C39 8.73045 30.2696 0 19.5 0C8.73045 0 0 8.73045 0 19.5C0 30.2696 8.73045 39 19.5 39Z" fill="#C6ABFC"/>
<path d="M39 19.5C39 18.3488 38.9002 17.2209 38.7089 16.1246L32.7373 10.153L6.2627 29.5674L15.2253 38.53C16.601 38.8377 18.0316 39 19.5 39C30.2696 39 39 30.2695 39 19.5Z" fill="#8950FC"/>
<path d="M19.1311 12.9557L6.2627 14.3847V29.5674H19.5893L20.0718 19.957L19.5893 13.0039L19.1311 12.9557Z" fill="white"/>
<path d="M32.7373 14.3847L19.5273 12.9974V29.5674H32.7373V14.3847Z" fill="#E9EDF5"/>
<path d="M6.2627 10.153V14.3847H19.5893L20.0718 12.2689L19.5893 10.153H6.2627Z" fill="#636978"/>
<path d="M19.5273 10.153H32.7373V14.3847H19.5273V10.153Z" fill="#414952"/>
<path d="M13.427 26.6018C11.5166 26.6018 9.9624 25.0475 9.9624 23.1372V19.9219C9.9624 18.0115 11.5166 16.4573 13.427 16.4573C15.3374 16.4573 16.8916 18.0115 16.8916 19.9219V23.1372C16.8917 25.0475 15.3375 26.6018 13.427 26.6018ZM13.427 18.7425C12.7766 18.7425 12.2476 19.2716 12.2476 19.9219V23.1372C12.2476 23.7875 12.7766 24.3166 13.427 24.3166C14.0774 24.3166 14.6064 23.7875 14.6064 23.1372V19.9219C14.6065 19.2716 14.0774 18.7425 13.427 18.7425Z" fill="#AFB4C8"/>
<path d="M25.573 26.6018C23.6626 26.6018 22.1084 25.0475 22.1084 23.1372V19.9219C22.1084 18.0115 23.6626 16.4573 25.573 16.4573C27.4834 16.4573 29.0376 18.0115 29.0376 19.9219V23.1372C29.0377 25.0475 27.4835 26.6018 25.573 26.6018ZM25.573 18.7425C24.9226 18.7425 24.3936 19.2716 24.3936 19.9219V23.1372C24.3936 23.7875 24.9226 24.3166 25.573 24.3166C26.2234 24.3166 26.7524 23.7875 26.7524 23.1372V19.9219C26.7525 19.2716 26.2234 18.7425 25.573 18.7425Z" fill="#7E8596"/>
<path d="M19.5002 18.3813C18.8836 18.3813 18.3838 18.8812 18.3838 19.4977C18.3838 20.1143 18.8836 20.6141 19.5002 20.6141C19.5303 20.6141 19.56 20.612 19.5894 20.6096L19.8982 19.5762L19.5894 18.3858C19.56 18.3835 19.5303 18.3813 19.5002 18.3813Z" fill="#636978"/>
<path d="M20.6164 19.4977C20.6164 18.8904 20.1312 18.3973 19.5273 18.3827V20.6127C20.1312 20.5981 20.6164 20.105 20.6164 19.4977Z" fill="#414952"/>
<path d="M19.5002 22.4449C18.8836 22.4449 18.3838 22.9448 18.3838 23.5613C18.3838 24.1779 18.8836 24.6777 19.5002 24.6777C19.5303 24.6777 19.56 24.6756 19.5894 24.6732L19.9572 23.6701L19.5894 22.4494C19.56 22.4471 19.5303 22.4449 19.5002 22.4449Z" fill="#636978"/>
<path d="M20.6164 23.5614C20.6164 22.954 20.1312 22.4611 19.5273 22.4464V24.6764C20.1312 24.6617 20.6164 24.1687 20.6164 23.5614Z" fill="#414952"/>
</g>
<defs>
<clipPath id="clip0_262_3695">
<rect width="39" height="39" fill="white"/>
</clipPath>
</defs>
</svg>
