<svg width="15" height="16" viewBox="0 0 15 16" fill="none" xmlns="http://www.w3.org/2000/svg">
<path d="M7.50025 5.50494C6.97267 5.50494 6.45694 5.65465 6.01828 5.93514C5.57961 6.21562 5.23771 6.61429 5.03582 7.08072C4.83392 7.54715 4.78109 8.0604 4.88402 8.55556C4.98695 9.05072 5.241 9.50555 5.61405 9.86254C5.98711 10.2195 6.46241 10.4626 6.97985 10.5611C7.49729 10.6596 8.03364 10.6091 8.52106 10.4159C9.00848 10.2227 9.42508 9.8955 9.71819 9.47572C10.0113 9.05595 10.1677 8.56242 10.1677 8.05756C10.1677 7.38057 9.8867 6.7313 9.38645 6.25259C8.8862 5.77388 8.20772 5.50494 7.50025 5.50494ZM7.50025 9.33387C7.23646 9.33387 6.9786 9.25902 6.75927 9.11878C6.53993 8.97853 6.36898 8.7792 6.26803 8.54599C6.16709 8.31277 6.14067 8.05615 6.19214 7.80857C6.2436 7.56099 6.37063 7.33357 6.55715 7.15508C6.74368 6.97658 6.98133 6.85502 7.24005 6.80578C7.49877 6.75653 7.76695 6.78181 8.01066 6.87841C8.25436 6.97501 8.46267 7.1386 8.60922 7.34848C8.75577 7.55837 8.834 7.80513 8.834 8.05756C8.834 8.39606 8.69348 8.7207 8.44335 8.96005C8.19323 9.19941 7.85398 9.33387 7.50025 9.33387Z" fill="white"/>
<path d="M13.698 9.27038L13.4019 9.10701C13.5352 8.41298 13.5352 7.70151 13.4019 7.00748L13.698 6.84411C13.9257 6.71841 14.1252 6.55102 14.2853 6.3515C14.4454 6.15198 14.5629 5.92424 14.631 5.68128C14.6991 5.43832 14.7166 5.1849 14.6823 4.93549C14.6481 4.68608 14.5629 4.44557 14.4315 4.22768C14.3002 4.00979 14.1252 3.81879 13.9167 3.66559C13.7082 3.5124 13.4702 3.4 13.2164 3.33481C12.9625 3.26963 12.6976 3.25294 12.437 3.28569C12.1764 3.31844 11.925 3.4 11.6973 3.52571L11.4006 3.68971C10.8401 3.23147 10.196 2.87622 9.50067 2.64186V2.31449C9.50067 1.80674 9.28989 1.31979 8.9147 0.960758C8.53951 0.601726 8.03065 0.400024 7.50005 0.400024C6.96945 0.400024 6.46059 0.601726 6.0854 0.960758C5.71021 1.31979 5.49943 1.80674 5.49943 2.31449V2.64186C4.80414 2.87707 4.16025 3.23318 3.60018 3.69227L3.30209 3.52698C2.84224 3.27311 2.29583 3.20444 1.78308 3.33609C1.27032 3.46773 0.833212 3.78891 0.567914 4.22896C0.302616 4.669 0.230858 5.19188 0.368427 5.68256C0.505996 6.17323 0.841623 6.59152 1.30147 6.84539L1.59756 7.00876C1.46426 7.70279 1.46426 8.41426 1.59756 9.10829L1.30147 9.27166C0.841623 9.52553 0.505996 9.94382 0.368427 10.4345C0.230858 10.9252 0.302616 11.448 0.567914 11.8881C0.833212 12.3281 1.27032 12.6493 1.78308 12.781C2.29583 12.9126 2.84224 12.8439 3.30209 12.5901L3.59885 12.4261C4.15953 12.8844 4.80387 13.2396 5.49943 13.4739V13.8013C5.49943 14.309 5.71021 14.796 6.0854 15.155C6.46059 15.514 6.96945 15.7157 7.50005 15.7157C8.03065 15.7157 8.53951 15.514 8.9147 15.155C9.28989 14.796 9.50067 14.309 9.50067 13.8013V13.4739C10.196 13.2387 10.8398 12.8826 11.3999 12.4235L11.698 12.5882C12.1579 12.842 12.7043 12.9107 13.217 12.779C13.7298 12.6474 14.1669 12.3262 14.4322 11.8862C14.6975 11.4461 14.7692 10.9233 14.6317 10.4326C14.4941 9.9419 14.1585 9.52362 13.6986 9.26974L13.698 9.27038ZM11.9988 6.86071C12.2246 7.64376 12.2246 8.47073 11.9988 9.25379C11.9593 9.39008 11.9683 9.53505 12.0243 9.66592C12.0803 9.79679 12.1802 9.90615 12.3082 9.97682L13.0311 10.3763C13.1843 10.4609 13.2962 10.6003 13.342 10.7639C13.3879 10.9274 13.3639 11.1017 13.2755 11.2483C13.1871 11.395 13.0414 11.502 12.8705 11.5459C12.6996 11.5898 12.5175 11.5669 12.3642 11.4822L11.64 11.0815C11.5119 11.0105 11.3627 10.9823 11.216 11.0013C11.0693 11.0204 10.9334 11.0856 10.8297 11.1868C10.2362 11.7666 9.48838 12.1804 8.66708 12.3833C8.52372 12.4186 8.3967 12.4985 8.30603 12.6104C8.21535 12.7224 8.16618 12.86 8.16625 13.0017V13.8013C8.16625 13.9705 8.09599 14.1328 7.97093 14.2525C7.84587 14.3722 7.67625 14.4394 7.49938 14.4394C7.32252 14.4394 7.15289 14.3722 7.02783 14.2525C6.90277 14.1328 6.83251 13.9705 6.83251 13.8013V13.0023C6.83258 12.8607 6.78341 12.723 6.69274 12.6111C6.60206 12.4991 6.47504 12.4192 6.33169 12.3839C5.51033 12.1802 4.76276 11.7655 4.16969 11.1848C4.06601 11.0837 3.93011 11.0185 3.78341 10.9994C3.63671 10.9804 3.48755 11.0085 3.35944 11.0796L2.63655 11.4797C2.56068 11.5222 2.47676 11.55 2.38963 11.5614C2.30249 11.5728 2.21386 11.5676 2.12883 11.5461C2.0438 11.5246 1.96407 11.4872 1.8942 11.4361C1.82434 11.385 1.76573 11.3211 1.72176 11.2482C1.67779 11.1753 1.64931 11.0949 1.63797 11.0114C1.62664 10.9279 1.63267 10.8432 1.65571 10.7619C1.67875 10.6807 1.71836 10.6047 1.77224 10.5382C1.82612 10.4716 1.89323 10.416 1.96968 10.3744L2.69257 9.9749C2.82057 9.90423 2.92042 9.79487 2.97643 9.664C3.03244 9.53313 3.04143 9.38817 3.002 9.25187C2.77617 8.46882 2.77617 7.64185 3.002 6.85879C3.04072 6.72279 3.0313 6.57835 2.9752 6.44801C2.9191 6.31767 2.81948 6.20877 2.6919 6.13832L1.96901 5.73883C1.81576 5.65421 1.70391 5.51479 1.65808 5.35125C1.61224 5.18771 1.63617 5.01345 1.7246 4.86679C1.81304 4.72014 1.95873 4.61311 2.12963 4.56924C2.30052 4.52538 2.48263 4.54828 2.63588 4.63291L3.36011 5.03367C3.48787 5.10483 3.63671 5.13336 3.78326 5.11476C3.9298 5.09616 4.06573 5.0315 4.16969 4.93093C4.76326 4.35106 5.51105 3.93733 6.33236 3.73439C6.47616 3.69901 6.6035 3.61872 6.69422 3.50625C6.78494 3.39377 6.83384 3.25554 6.83318 3.11346V2.31449C6.83318 2.14524 6.90344 1.98292 7.0285 1.86325C7.15356 1.74357 7.32318 1.67633 7.50005 1.67633C7.67691 1.67633 7.84654 1.74357 7.9716 1.86325C8.09666 1.98292 8.16692 2.14524 8.16692 2.31449V3.11346C8.16685 3.2551 8.21602 3.39275 8.30669 3.5047C8.39737 3.61666 8.52439 3.69656 8.66774 3.73183C9.48934 3.9355 10.2372 4.35013 10.8304 4.93093C10.9341 5.03205 11.07 5.09729 11.2167 5.11635C11.3634 5.13542 11.5125 5.10723 11.6407 5.03622L12.3635 4.6361C12.4394 4.59353 12.5233 4.56575 12.6105 4.55435C12.6976 4.54295 12.7862 4.54816 12.8713 4.56967C12.9563 4.59118 13.036 4.62857 13.1059 4.67969C13.1758 4.73081 13.2344 4.79466 13.2783 4.86754C13.3223 4.94042 13.3508 5.02091 13.3621 5.10437C13.3735 5.18783 13.3674 5.27261 13.3444 5.35383C13.3213 5.43505 13.2817 5.5111 13.2279 5.57762C13.174 5.64413 13.1069 5.69979 13.0304 5.74138L12.3075 6.14087C12.1802 6.21152 12.0809 6.32049 12.025 6.45082C11.9692 6.58114 11.9599 6.72548 11.9988 6.86135V6.86071Z" fill="white"/>
</svg>
