<svg width="16" height="16" viewBox="0 0 16 16" fill="none" xmlns="http://www.w3.org/2000/svg">
<path d="M14.871 12.126L14.4242 8.31058C14.2727 7.01657 13.9527 5.74792 13.4723 4.5369L12.788 2.81131C12.7647 2.75257 12.7201 2.70481 12.6631 2.67763C12.606 2.65045 12.5408 2.64588 12.4806 2.66483C11.0639 3.11018 9.58864 3.34165 8.10362 3.3516C6.55172 3.35981 5.00787 3.12815 3.52672 2.66483C3.49393 2.65456 3.45937 2.65114 3.4252 2.65481C3.39104 2.65847 3.35799 2.66914 3.32812 2.68613C3.29825 2.70313 3.27221 2.72609 3.2516 2.75359C3.231 2.78109 3.21628 2.81254 3.20836 2.84598C3.13146 3.1724 3.0443 3.50077 2.95006 3.82181C2.70128 4.66825 2.52916 5.17972 2.37731 5.63065C2.23302 6.05985 2.10851 6.43021 1.95079 6.98465C1.72114 7.84532 1.53769 8.71766 1.40123 9.59794C1.29601 10.2705 1.24181 10.8662 1.1942 11.3916C1.17223 11.6341 1.15196 11.8562 1.12926 12.0557C1.11458 12.1805 1.1495 12.306 1.22649 12.4053C1.30348 12.5046 1.41639 12.5696 1.54088 12.5864L6.84654 13.3418C6.86952 13.345 6.89268 13.3466 6.91588 13.3467C7.01859 13.3467 7.11862 13.3139 7.2013 13.253C7.28399 13.192 7.34499 13.1062 7.37536 13.0081L8.08361 10.7476L8.75939 12.9507C8.79274 13.059 8.86299 13.1521 8.95792 13.2139C9.05285 13.2757 9.16644 13.3022 9.27892 13.2889L14.4496 12.6614C14.5762 12.6458 14.6916 12.5808 14.7705 12.4805C14.8494 12.3802 14.8855 12.2528 14.871 12.126ZM13.6218 6.66388L13.4093 6.54911C13.3251 6.50374 13.2566 6.43395 13.2128 6.34891L12.2489 4.48664C12.4477 4.43022 12.6455 4.36974 12.8424 4.30518L13.0074 4.72123C13.2578 5.35349 13.4631 6.00266 13.6218 6.66388ZM3.63194 3.21976C5.08426 3.65017 6.59233 3.8631 8.10704 3.8516C9.56383 3.84174 11.0119 3.62565 12.4081 3.20975L12.6578 3.83943C11.1753 4.32349 9.62578 4.57106 8.06626 4.57303H8.05406C6.49459 4.57249 4.94495 4.32612 3.4622 3.84301C3.52147 3.63648 3.57953 3.42861 3.63194 3.21976ZM3.32222 4.32321C3.5401 4.39373 3.75913 4.45924 3.97931 4.51975L3.03234 6.34915C2.98861 6.43411 2.92018 6.50382 2.83605 6.54911L2.55568 6.70055C2.65672 6.36904 2.74912 6.09407 2.85118 5.79032C2.98155 5.40296 3.12723 4.96967 3.32222 4.32321ZM1.62804 12.0938C1.64701 11.9266 1.66434 11.7406 1.68216 11.5439L7.06857 12.3554L6.91711 12.8467L1.62804 12.0938ZM8.08679 9.65336H8.08605C8.03282 9.6534 7.98099 9.67042 7.93809 9.70194C7.89519 9.73347 7.86347 9.77785 7.84753 9.82865L7.21761 11.872L1.72829 11.045C1.76813 10.628 1.81749 10.1717 1.89537 9.67557C2.04782 8.70369 2.24225 7.84882 2.36453 7.3722L3.07384 6.98905C3.24636 6.8961 3.38671 6.75311 3.47643 6.57889L4.47579 4.64807C5.64762 4.92984 6.84858 5.07248 8.05382 5.07303H8.06676C9.30994 5.07188 10.5484 4.91955 11.7548 4.61942L12.7687 6.57865C12.8585 6.75295 12.9989 6.89602 13.1715 6.98905L13.7617 7.3078C13.8296 7.65915 13.886 8.01283 13.9276 8.3687L14.151 10.2764L14.2663 11.1893L8.94646 11.8559L8.32506 9.83011C8.30941 9.77907 8.27784 9.73438 8.23497 9.70257C8.19209 9.67076 8.14017 9.65352 8.08679 9.65336ZM9.23742 12.8045L9.0953 12.3412L14.3289 11.6853L14.3895 12.1648L9.23742 12.8045Z" fill="#26D07C" stroke="#26D07C" stroke-width="0.4"/>
</svg>
