<svg width="16" height="16" viewBox="0 0 16 16" fill="none" xmlns="http://www.w3.org/2000/svg">
<g clip-path="url(#clip0_43_9719)">
<path d="M14 11.9995H13.9793L13.214 6.33551C13.0473 5.00351 11.9093 3.99951 10.568 3.99951H5.43267C4.09067 3.99951 2.95334 5.00351 2.78734 6.32885L2.02134 11.9995H2.00067C0.898005 11.9995 0.000671387 12.8968 0.000671387 13.9995V15.9995H16.0007V13.9995C16.0007 12.8968 15.1027 11.9995 14 11.9995ZM4.10934 6.50085C4.19267 5.83485 4.762 5.33285 5.43267 5.33285H10.568C11.2387 5.33285 11.808 5.83485 11.892 6.50751L12.634 11.9995H3.36667L4.10934 6.50085ZM14.6667 14.6662H1.33334V13.9995C1.33334 13.6322 1.63267 13.3328 2 13.3328H14C14.3673 13.3328 14.6667 13.6322 14.6667 13.9995V14.6662ZM5.432 6.66618H8V7.99951H6.59734L6.41734 9.33285H5.072L5.432 6.66618ZM2.09067 4.21085L0.259338 2.45751L1.182 1.49485L3.01334 3.24885L2.09067 4.21085ZM4.302 2.74951L3.94334 0.221513L5.264 0.0341797L5.62267 2.56218L4.302 2.74951ZM11.6973 2.74951L10.3773 2.56218L10.736 0.0341797L12.056 0.221513L11.6973 2.74951ZM13.9087 4.21085L12.986 3.24818L14.8173 1.49418L15.74 2.45685L13.9087 4.21085Z" fill="#26D07C"/>
</g>
<defs>
<clipPath id="clip0_43_9719">
<rect width="16" height="16" fill="white"/>
</clipPath>
</defs>
</svg>
