<svg width="29" height="29" viewBox="0 0 29 29" fill="none" xmlns="http://www.w3.org/2000/svg">
<path d="M12.2344 13.5938L9.43452 14.2938C7.88437 14.6813 6.79688 16.0742 6.79688 17.6719V20.8438H22.2031V17.6719C22.2031 16.0742 21.1156 14.6813 19.5655 14.2938L16.7656 13.5938H12.2344Z" fill="#E53A48"/>
<path d="M19.5655 14.2938L16.7656 13.5938H13.5938L10.7939 14.2938C9.24375 14.6813 8.15625 16.0742 8.15625 17.6719V20.8438H22.2031V17.6719C22.2031 16.0742 21.1156 14.6813 19.5655 14.2938Z" fill="#FF4F59"/>
<path d="M14.5004 17.6719C16.6015 17.6719 18.3316 16.0828 18.5545 14.041L16.766 13.5938H12.2348L10.4463 14.041C10.6692 16.0828 12.3993 17.6719 14.5004 17.6719Z" fill="#C2D0E8"/>
<path d="M10.502 14.3935C10.8735 16.2627 12.522 17.6719 14.5003 17.6719C16.6015 17.6719 18.3315 16.0828 18.5544 14.041L16.766 13.5938H13.5941L10.7942 14.2938C10.6927 14.3192 10.5989 14.36 10.502 14.3935Z" fill="#EFF2F3"/>
<path d="M16.7656 12.8728V13.5937C16.7656 14.8448 15.7511 15.8593 14.5 15.8593C13.2489 15.8593 12.2344 14.8448 12.2344 13.5937V12.8728H16.7656Z" fill="#D08E7A"/>
<path d="M9.51562 7.82456V4.98438C9.51562 3.98342 10.3272 3.17188 11.3281 3.17188V2.93127C11.3281 2.02909 11.9915 1.26467 12.8842 1.13689L13.693 1.02134C14.2308 0.944766 14.7728 0.90625 15.3156 0.90625C16.2758 0.90625 17.2296 1.06122 18.1404 1.36436C18.9429 1.63216 19.4844 2.38298 19.4844 3.22897V7.82456" fill="#383838"/>
<path d="M18.1405 1.36436C17.2298 1.06122 16.2759 0.90625 15.3158 0.90625C14.7729 0.90625 14.231 0.944766 13.6936 1.02134L12.8848 1.13689C11.9916 1.26467 11.3283 2.02955 11.3283 2.93127V3.17188C11.0881 3.17188 10.8597 3.22081 10.6504 3.306C11.2848 5.32875 13.1738 6.79688 15.4064 6.79688H19.4845V3.22897C19.4845 2.38298 18.943 1.63216 18.1405 1.36436Z" fill="#4C4C4C"/>
<path d="M10.875 7.70312H9.96875C9.46805 7.70312 9.0625 8.10867 9.0625 8.60938V9.51562C9.0625 10.0163 9.46805 10.4219 9.96875 10.4219H11.0304" fill="#D08E7A"/>
<path d="M18.1251 7.70312H19.0314C19.5321 7.70312 19.9376 8.10867 19.9376 8.60938V9.51562C19.9376 10.0163 19.5321 10.4219 19.0314 10.4219H17.9697" fill="#D08E7A"/>
<path d="M6.79688 22.6562H25.8281V24.4688H6.79688V22.6562Z" fill="#72931A"/>
<path d="M6.79688 26.2812H16.7656V28.0938H6.79688V26.2812Z" fill="#F9CB66"/>
<path d="M3.17188 22.6562H4.98438V24.4688H3.17188V22.6562Z" fill="#045CBC"/>
<path d="M3.17188 26.2812H4.98438V28.0938H3.17188V26.2812Z" fill="#045CBC"/>
<path d="M16.0986 4.98438C16.7171 4.98438 17.2188 5.48598 17.2188 6.1045C17.2188 6.52863 17.4585 6.9165 17.8382 7.10636L18.125 7.25V9.0625C18.125 10.4708 17.6311 11.8347 16.7298 12.9168C16.1784 13.5783 15.3614 13.9612 14.5 13.9612C13.6386 13.9612 12.8216 13.5788 12.2702 12.9168C11.3689 11.8347 10.875 10.4708 10.875 9.0625V7.25L11.1618 7.10636C11.5415 6.91695 11.7812 6.52908 11.7812 6.1045C11.7812 5.48598 12.2829 4.98438 12.9014 4.98438H16.0986Z" fill="#D08E7A"/>
<path d="M12.6875 6.12127C12.6938 6.5395 12.4424 6.91922 12.0681 7.10636C11.8923 7.19427 11.7812 7.37416 11.7812 7.57081V9.0625C11.7812 10.4708 12.2752 11.8347 13.1764 12.9168C13.6295 13.461 14.2635 13.8122 14.9531 13.9214C15.6423 13.8122 16.2763 13.461 16.7298 12.9168C17.6311 11.8347 18.125 10.4708 18.125 9.0625V7.25L17.8382 7.10636C17.4639 6.91922 17.2129 6.5395 17.2188 6.12127C17.2278 5.49505 16.723 4.98438 16.0986 4.98438H13.8076C13.1832 4.98438 12.6784 5.49505 12.6875 6.12127Z" fill="#F2BAA4"/>
<path d="M16.7652 13.5935V13.4082C16.7525 13.4236 16.7421 13.4404 16.7294 13.4553C16.1779 14.1173 15.361 14.4998 14.4996 14.4998C14.056 14.4998 13.625 14.3965 13.2354 14.208C13.4642 15.0163 14.1212 15.6448 14.9527 15.8134C15.9867 15.6036 16.7652 14.6896 16.7652 13.5935Z" fill="#F2BAA4"/>
<path d="M18.5781 18.5781H19.4844V20.8438H18.5781V18.5781Z" fill="#E53A48"/>
<path d="M9.51562 18.5781H10.4219V20.8438H9.51562V18.5781Z" fill="#E53A48"/>
<path d="M8.60938 23.5625H25.8281V22.6562H7.70312C7.70312 23.157 8.10867 23.5625 8.60938 23.5625Z" fill="#8FBE1F"/>
<path d="M8.60938 27.1875H16.7656V26.2812H7.70312C7.70312 26.782 8.10867 27.1875 8.60938 27.1875Z" fill="#FFD992"/>
<path d="M11.7812 13.2398L9.32441 13.8543C7.56945 14.2929 6.34375 15.8625 6.34375 17.6719V20.8437C6.34375 21.0939 6.54675 21.2969 6.79688 21.2969H22.2031C22.4532 21.2969 22.6562 21.0939 22.6562 20.8437V17.6719C22.6562 15.8625 21.4305 14.2929 19.6756 13.8543L17.2188 13.2398V13.021C17.7167 12.3771 18.0874 11.6489 18.3135 10.8745H19.0312C19.7807 10.8745 20.3906 10.2646 20.3906 9.51516V8.60891C20.3906 8.2088 20.2135 7.85219 19.9375 7.60297V3.22896C19.9375 2.18631 19.2728 1.26421 18.2836 0.934783C16.7924 0.437252 15.1865 0.349799 13.6295 0.573189L12.8203 0.688736C11.7672 0.839174 10.9602 1.71597 10.8813 2.76314C9.8455 2.97113 9.0625 3.88825 9.0625 4.98436V7.60342C8.78655 7.85219 8.60938 8.20925 8.60938 8.60936V9.51561C8.60938 10.2651 9.21928 10.875 9.96875 10.875H10.6865C10.9126 11.6489 11.2833 12.3775 11.7812 13.0214V13.2398ZM14.5 16.3125C15.8055 16.3125 16.8979 15.3877 17.1589 14.1592L18.0385 14.379C17.6773 16.0225 16.221 17.2187 14.5 17.2187C12.779 17.2187 11.3227 16.0225 10.962 14.379L11.8415 14.1592C12.1021 15.3877 13.1945 16.3125 14.5 16.3125ZM14.5 15.4062C13.6055 15.4062 12.8651 14.7537 12.7183 13.9005C13.2458 14.2317 13.8602 14.4139 14.5 14.4139C15.1398 14.4139 15.7538 14.2317 16.2817 13.9005C16.1349 14.7537 15.3945 15.4062 14.5 15.4062ZM21.75 17.6719V20.3906H19.4844V18.5781H18.5781V20.3906H10.4219V18.5781H9.51562V20.3906H7.25V17.6719C7.25 16.2794 8.19341 15.0709 9.54417 14.7333L10.0834 14.5988C10.5433 16.6405 12.3576 18.125 14.5 18.125C16.6424 18.125 18.4567 16.6405 18.9166 14.5988L19.4558 14.7333C20.8066 15.0709 21.75 16.2794 21.75 17.6719ZM19.4844 9.51561C19.4844 9.76528 19.2809 9.96874 19.0312 9.96874H18.5083C18.5509 9.66922 18.5781 9.36744 18.5781 9.06249V8.15624H19.0312C19.2809 8.15624 19.4844 8.35969 19.4844 8.60936V9.51561ZM9.96875 9.96874C9.71908 9.96874 9.51562 9.76528 9.51562 9.51561V8.60936C9.51562 8.35969 9.71908 8.15624 9.96875 8.15624H10.4219V9.06249C10.4219 9.36744 10.4491 9.66922 10.4917 9.96874H9.96875ZM10.9593 6.70125L10.6725 6.84489C10.5188 6.92147 10.4219 7.07871 10.4219 7.24999H9.96875V4.98436C9.96875 4.23489 10.5787 3.62499 11.3281 3.62499C11.5782 3.62499 11.7812 3.42199 11.7812 3.17186V2.93125C11.7812 2.25927 12.2829 1.68063 12.9485 1.58547L13.7578 1.46992C15.1761 1.26738 16.6392 1.34169 17.9972 1.79436C18.6157 2.00099 19.0312 2.57736 19.0312 3.22896V7.24999H18.5781C18.5781 7.07871 18.4812 6.92147 18.3275 6.84489L18.0403 6.70125C17.8132 6.58752 17.6719 6.35914 17.6719 6.10449C17.6719 5.23721 16.9659 4.53124 16.0986 4.53124H12.9014C12.0341 4.53124 11.3281 5.23721 11.3281 6.10449C11.3281 6.35914 11.1868 6.58752 10.9593 6.70125ZM11.3281 7.53002L11.3644 7.51189C11.9009 7.2441 12.2344 6.70488 12.2344 6.10494C12.2344 5.737 12.5339 5.43749 12.9014 5.43749H16.0986C16.4661 5.43749 16.7656 5.737 16.7656 6.10449C16.7656 6.70442 17.0991 7.24364 17.6352 7.51144L17.6719 7.53002V9.06249C17.6719 10.362 17.2138 11.6281 16.3814 12.6263C15.9147 13.1864 15.2291 13.5076 14.5 13.5076C13.7709 13.5076 13.0849 13.1864 12.6186 12.6263C11.7862 11.6281 11.3281 10.362 11.3281 9.06249V7.53002Z" fill="black"/>
<path d="M26.2812 24.4688V22.6562C26.2812 22.4061 26.0782 22.2031 25.8281 22.2031H6.79688C6.54675 22.2031 6.34375 22.4061 6.34375 22.6562V24.4688C6.34375 24.7189 6.54675 24.9219 6.79688 24.9219H25.8281C26.0782 24.9219 26.2812 24.7189 26.2812 24.4688ZM25.375 24.0156H7.25V23.1094H25.375V24.0156Z" fill="black"/>
<path d="M6.79688 25.8281C6.54675 25.8281 6.34375 26.0311 6.34375 26.2812V28.0938C6.34375 28.3439 6.54675 28.5469 6.79688 28.5469H16.7656C17.0157 28.5469 17.2188 28.3439 17.2188 28.0938V26.2812C17.2188 26.0311 17.0157 25.8281 16.7656 25.8281H6.79688ZM16.3125 27.6406H7.25V26.7344H16.3125V27.6406Z" fill="black"/>
<path d="M5.4375 22.6562C5.4375 22.4061 5.2345 22.2031 4.98438 22.2031H3.17188C2.92175 22.2031 2.71875 22.4061 2.71875 22.6562V24.4688C2.71875 24.7189 2.92175 24.9219 3.17188 24.9219H4.98438C5.2345 24.9219 5.4375 24.7189 5.4375 24.4688V22.6562ZM4.53125 24.0156H3.625V23.1094H4.53125V24.0156Z" fill="black"/>
<path d="M4.98438 25.8281H3.17188C2.92175 25.8281 2.71875 26.0311 2.71875 26.2812V28.0938C2.71875 28.3439 2.92175 28.5469 3.17188 28.5469H4.98438C5.2345 28.5469 5.4375 28.3439 5.4375 28.0938V26.2812C5.4375 26.0311 5.2345 25.8281 4.98438 25.8281ZM4.53125 27.6406H3.625V26.7344H4.53125V27.6406Z" fill="black"/>
</svg>
