<svg width="39" height="39" viewBox="0 0 39 39" fill="none" xmlns="http://www.w3.org/2000/svg">
<path d="M33.2858 8.40358C29.6009 4.71892 24.7049 2.6897 19.4999 2.6897C14.2948 2.6897 9.39888 4.71892 5.71391 8.40365C5.26762 8.84994 5.26816 9.57365 5.71391 10.0195L9.17471 13.4805C9.621 13.9268 10.3449 13.9263 10.7907 13.4804C13.1182 11.1523 16.2112 9.87011 19.4999 9.87011C22.7885 9.87011 25.8816 11.1523 28.2091 13.4804C28.4234 13.6946 28.7141 13.8151 29.0171 13.8151C29.5108 13.8151 29.8013 13.5043 29.8251 13.4804L33.2858 10.0194C33.7321 9.5732 33.7317 8.84941 33.2858 8.40358Z" fill="#FFE600"/>
<path d="M33.286 8.40358C29.601 4.71892 24.7051 2.6897 19.5 2.6897V9.87019C22.7886 9.87019 25.8817 11.1524 28.2093 13.4804C28.4235 13.6947 28.7142 13.8152 29.0172 13.8152C29.511 13.8152 29.8014 13.5044 29.8252 13.4805L33.286 10.0195C33.7323 9.5732 33.7318 8.84941 33.286 8.40358Z" fill="#FFAA32"/>
<path d="M10.7907 30.8988C9.80759 29.9158 7.19763 27.0088 7.18049 22.1872C7.1811 18.8999 8.46315 15.8078 10.7907 13.4806L5.71403 8.40363C2.02929 12.0881 0 16.9841 0 22.1897C0 27.3953 2.02929 32.2913 5.71403 35.9757C5.93714 36.1988 6.22949 36.3103 6.52191 36.3103C6.81434 36.3103 7.10676 36.1987 7.32987 35.9756L10.7907 32.5146C11.2369 32.0684 11.2369 31.345 10.7907 30.8988Z" fill="#9BFF00"/>
<path d="M28.2092 30.8988C29.1922 29.9158 31.8022 27.0088 31.8193 22.1872C31.8187 18.8999 30.5367 15.8078 28.2092 13.4806L33.2858 8.40363C36.9705 12.0881 38.9998 16.9841 38.9998 22.1897C38.9998 27.3953 36.9705 32.2913 33.2858 35.9757C33.0627 36.1988 32.7703 36.3103 32.4779 36.3103C32.1855 36.3103 31.8931 36.1987 31.67 35.9756L28.2092 32.5146C27.763 32.0684 27.763 31.345 28.2092 30.8988Z" fill="#FF1E5A"/>
<path d="M7.18049 22.1872C7.1811 18.8999 8.46315 15.8078 10.7907 13.4806L5.71403 8.40363C2.02929 12.0881 0 16.9841 0 22.1897L7.18049 22.1872Z" fill="#00D200"/>
<path d="M28.2092 30.8988C29.1922 29.9158 31.8022 27.0089 31.8193 22.1873L38.9998 22.1897C38.9998 27.3953 36.9705 32.2913 33.2858 35.9757C33.0627 36.1988 32.7703 36.3104 32.4779 36.3104C32.1855 36.3104 31.8931 36.1988 31.67 35.9757L28.2092 32.5146C27.763 32.0684 27.763 31.345 28.2092 30.8988Z" fill="#C40050"/>
<path d="M16.9615 19.6506C15.5617 21.0504 15.5617 23.3281 16.9615 24.728C18.7299 26.4964 27.4207 32.0455 28.4059 32.6724C28.8577 32.9599 29.4486 32.895 29.8273 32.5164C30.2059 32.1377 30.2708 31.5469 29.9833 31.095C29.3564 30.1099 23.8073 21.419 22.0389 19.6506C20.6391 18.2508 18.3614 18.2508 16.9615 19.6506Z" fill="#003C50"/>
<path d="M16.9614 19.6506L29.8272 32.5163C30.2058 32.1377 30.2707 31.5468 29.9832 31.0949C29.3563 30.1098 23.8071 21.4189 22.0387 19.6505C20.639 18.2508 18.3613 18.2508 16.9614 19.6506Z" fill="#001428"/>
</svg>
