<svg width="26" height="25" viewBox="0 0 26 25" fill="none" xmlns="http://www.w3.org/2000/svg">
<g clip-path="url(#clip0_1438_10351)">
<path d="M20.3228 0.00571358C16.3148 0.358942 13.3572 2.35949 11.6331 5.2516C10.4777 6.70008 8.16955 11.1223 7.33013 13.4373C5.8081 16.3161 4.48086 19.7412 3.44219 22.829C2.80727 24.7171 5.65816 25.949 6.29672 24.0523C7.07349 21.7422 8.01193 19.2445 9.07243 16.9267C10.1248 19.2821 11.1942 21.6298 12.3424 23.9404C13.2324 25.734 15.9103 24.161 15.0236 22.3735C13.8414 19.995 12.7433 17.5786 11.6614 15.1541C11.6752 15.1072 11.6925 15.0616 11.7071 15.0151C11.8873 15.0664 12.0862 15.0822 12.3052 15.0406C13.9606 14.7298 15.616 14.4198 17.2727 14.109C17.9803 13.976 18.2515 13.2017 18.14 12.5817C17.8053 10.7238 16.7469 9.43133 15.4293 8.20837C15.2337 7.54314 14.5814 6.95469 13.8576 6.36989C15.3251 3.99752 17.7209 2.70989 20.8393 2.43507C22.4308 2.29564 21.9006 -0.13291 20.3228 0.00571358ZM14.2912 10.5658C14.7006 10.9918 15.049 11.44 15.3121 11.9589C14.5111 12.1092 13.7097 12.2592 12.9086 12.4095C13.3128 11.7588 13.778 11.1445 14.2912 10.5658Z" fill="#26D07C"/>
<path d="M17.7188 8.45081C18.8962 8.45081 19.8507 7.49633 19.8507 6.31891C19.8507 5.1415 18.8962 4.18701 17.7188 4.18701C16.5414 4.18701 15.5869 5.1415 15.5869 6.31891C15.5869 7.49633 16.5414 8.45081 17.7188 8.45081Z" fill="#26D07C"/>
</g>
<defs>
<clipPath id="clip0_1438_10351">
<rect width="25" height="25" fill="white" transform="translate(0.0761719)"/>
</clipPath>
</defs>
</svg>
