<svg width="24" height="24" viewBox="0 0 24 24" fill="none" xmlns="http://www.w3.org/2000/svg">
<g clip-path="url(#clip0_262_3625)">
<path d="M19.8399 2.4071H4.19477C2.78412 2.4071 1.64062 3.5506 1.64062 4.96125V21.3988C1.64062 22.8095 2.78412 23.9532 4.19477 23.9532H19.8399C21.2505 23.9532 22.394 22.8095 22.394 21.3988V4.96125C22.394 3.5506 21.2505 2.4071 19.8399 2.4071Z" fill="#DE8957"/>
<path d="M5.21973 2.40723V5.08277C5.21973 6.41468 6.30316 7.49812 7.63489 7.49812H16.3987C17.7306 7.49812 18.8141 6.4145 18.8141 5.08277V2.40723H5.21973Z" fill="#C76D33"/>
<path d="M18.4839 5.08264H5.55054C4.86737 5.08264 4.31348 5.63654 4.31348 6.3197V19.8672C4.31348 20.5503 4.86737 21.1042 5.55054 21.1042H18.4839C19.167 21.1042 19.7207 20.5503 19.7207 19.8672V6.3197C19.7207 5.63654 19.167 5.08264 18.4839 5.08264Z" fill="#E6E6E6"/>
<path d="M18.4844 5.08252H5.55109C5.43701 5.08252 5.3266 5.09827 5.22168 5.1272C5.24567 6.43842 6.31903 7.49787 7.63593 7.49787H16.3997C17.7165 7.49787 18.7898 6.43842 18.8138 5.1272C18.7089 5.09827 18.5985 5.08252 18.4844 5.08252Z" fill="#D0CFD5"/>
<path d="M16.3996 1.44049H13.5048C13.5048 0.619081 12.8389 -0.046875 12.0175 -0.046875C11.1961 -0.046875 10.5303 0.619081 10.5303 1.44049H7.63556C7.10181 1.44049 6.66895 1.87317 6.66895 2.40711V5.08265C6.66895 5.61659 7.10181 6.04927 7.63556 6.04927H16.3994C16.9333 6.04927 17.366 5.61659 17.366 5.08265V2.40711C17.3662 1.87317 16.9333 1.44049 16.3996 1.44049Z" fill="#A5B0BC"/>
<path d="M12.3674 1.5412C12.3674 1.73456 12.2106 1.8913 12.0171 1.8913C11.8237 1.8913 11.667 1.73456 11.667 1.5412C11.667 1.34766 11.8237 1.19092 12.0171 1.19092C12.2106 1.19092 12.3674 1.34766 12.3674 1.5412Z" fill="#77889A"/>
<path d="M16.0513 12.02C15.0925 12.02 14.3125 11.24 14.3125 10.2813C14.3125 9.32251 15.0925 8.54248 16.0513 8.54248C17.01 8.54248 17.79 9.32251 17.79 10.2813C17.79 11.24 17.01 12.02 16.0513 12.02ZM16.0513 9.26666C15.4919 9.26666 15.0369 9.72187 15.0369 10.2813C15.0369 10.8405 15.4919 11.2957 16.0513 11.2957C16.6105 11.2957 17.0657 10.8405 17.0657 10.2813C17.0657 9.72187 16.6107 9.26666 16.0513 9.26666Z" fill="#69A2DE"/>
<path d="M8.79968 4.12537C8.99964 4.12537 9.16187 3.96314 9.16187 3.76319V3.18091C9.16187 2.98077 8.99964 2.81873 8.79968 2.81873C8.59955 2.81873 8.4375 2.98077 8.4375 3.18091V3.76319C8.4375 3.96314 8.59955 4.12537 8.79968 4.12537Z" fill="#333A41"/>
<path d="M15.2352 4.12537C15.4354 4.12537 15.5974 3.96314 15.5974 3.76319V3.18091C15.5974 2.98077 15.4354 2.81873 15.2352 2.81873C15.0353 2.81873 14.873 2.98077 14.873 3.18091V3.76319C14.873 3.96314 15.0353 4.12537 15.2352 4.12537Z" fill="#333A41"/>
<path d="M13.0493 3.45014C12.8988 3.31867 12.6699 3.33386 12.5383 3.48456C12.4119 3.62921 12.2219 3.71216 12.0168 3.71216C11.8119 3.71216 11.6216 3.62921 11.4953 3.48456C11.3636 3.33386 11.1348 3.31867 10.9842 3.45032C10.8335 3.58197 10.8182 3.81067 10.95 3.96137C11.2139 4.26331 11.6028 4.43653 12.0168 4.43653C12.4308 4.43653 12.8197 4.26331 13.0837 3.96118C13.2154 3.81067 13.2 3.58179 13.0493 3.45014Z" fill="#333A41"/>
<path d="M8.7862 11.2803C8.85706 11.351 8.94971 11.3865 9.04236 11.3865C9.13501 11.3865 9.22767 11.3511 9.29835 11.2803C9.43989 11.1389 9.43989 10.9095 9.29835 10.7681L8.49469 9.96448L9.29835 9.16065C9.43989 9.01929 9.43989 8.78986 9.29835 8.6485C9.15699 8.50714 8.92774 8.50714 8.7862 8.6485L7.98255 9.45233L7.17871 8.6485C7.03735 8.50714 6.80811 8.50714 6.66657 8.6485C6.52521 8.79004 6.52521 9.01929 6.66657 9.16065L7.4704 9.96448L6.66657 10.7681C6.52521 10.9097 6.52521 11.1389 6.66657 11.2803C6.73743 11.351 6.83008 11.3865 6.92273 11.3865C7.01538 11.3865 7.10803 11.3511 7.17871 11.2803L7.98255 10.4766L8.7862 11.2803Z" fill="#F8485E"/>
<path d="M16.564 17.4664L17.3677 16.6626C17.5092 16.5212 17.5092 16.292 17.3677 16.1505C17.2263 16.0091 16.9971 16.0091 16.8555 16.1505L16.0519 16.9543L15.248 16.1505C15.1067 16.0091 14.8774 16.0091 14.7359 16.1505C14.5945 16.292 14.5945 16.5212 14.7359 16.6626L15.5397 17.4664L14.7359 18.2701C14.5945 18.4116 14.5945 18.6409 14.7359 18.7824C14.8066 18.8531 14.8994 18.8884 14.9921 18.8884C15.0847 18.8884 15.1774 18.8531 15.248 18.7824L16.0519 17.9786L16.8555 18.7824C16.9262 18.8531 17.019 18.8884 17.1117 18.8884C17.2044 18.8884 17.297 18.8531 17.3677 18.7824C17.5092 18.6409 17.5092 18.4116 17.3677 18.2701L16.564 17.4664Z" fill="#F8485E"/>
<path d="M12.9888 11.6094H11.3804C11.1373 11.6094 10.9201 11.7546 10.8271 11.9791C10.7339 12.2038 10.785 12.4601 10.9569 12.6319L11.3112 12.9864C10.5583 13.363 9.39466 14.1163 8.46265 15.4788C8.31012 15.4349 8.14936 15.4109 7.98291 15.4109C7.02417 15.4109 6.24414 16.1909 6.24414 17.1497C6.24414 18.1084 7.02417 18.8884 7.98291 18.8884C8.94166 18.8884 9.72169 18.1084 9.72169 17.1497C9.72169 16.6201 9.48328 16.1453 9.10865 15.8262C10.0483 14.4963 11.2332 13.819 11.8578 13.5328L12.5653 14.2403C12.6801 14.3553 12.8327 14.4161 12.9881 14.4161C13.0654 14.4161 13.1436 14.4011 13.2181 14.3701C13.4426 14.2771 13.5878 14.0599 13.5878 13.8168V12.2084C13.5878 11.8781 13.3192 11.6094 12.9888 11.6094ZM7.98291 18.1643C7.42353 18.1643 6.96851 17.7091 6.96851 17.1499C6.96851 16.5905 7.42353 16.1354 7.98291 16.1354C8.5423 16.1354 8.99732 16.5905 8.99732 17.1499C8.99732 17.7091 8.5423 18.1643 7.98291 18.1643ZM12.8634 13.5141L11.6829 12.3338H12.8634V13.5141Z" fill="#69A2DE"/>
</g>
<defs>
<clipPath id="clip0_262_3625">
<rect width="24" height="24" fill="white"/>
</clipPath>
</defs>
</svg>
