<svg width="30" height="30" viewBox="0 0 30 30" fill="none" xmlns="http://www.w3.org/2000/svg">
<path d="M4.75585 19.2287C4.72883 19.2287 4.70122 19.227 4.67305 19.223C3.35904 19.0332 2.09851 18.6209 0.927698 17.997C0.647645 17.8475 0.54126 17.499 0.690774 17.2183C0.840864 16.9389 1.18762 16.8325 1.4694 16.9814C2.52176 17.5433 3.65519 17.9136 4.83694 18.0838C5.15149 18.1292 5.36944 18.4208 5.32459 18.7353C5.28318 19.0223 5.03706 19.2287 4.75585 19.2287Z" fill="#008755" stroke="#008755" stroke-width="0.3"/>
<path d="M25.2435 19.2289C24.9623 19.2289 24.7162 19.0225 24.6748 18.7361C24.6299 18.4215 24.8479 18.13 25.1624 18.0845C26.3448 17.9143 27.4776 17.544 28.53 16.9822C28.8123 16.8332 29.1585 16.9396 29.3086 17.2191C29.4581 17.4991 29.3517 17.8482 29.0717 17.9977C27.9009 18.6216 26.6403 19.034 25.3263 19.2237C25.2982 19.2272 25.2706 19.2289 25.2435 19.2289Z" fill="#008755" stroke="#008755" stroke-width="0.3"/>
<path d="M19.2291 14.0665C19.121 14.0665 19.0123 14.036 18.9157 13.9733C18.6494 13.7996 18.5741 13.4437 18.7478 13.1774C19.5626 11.9278 20.9393 11.1814 22.431 11.1814C22.749 11.1814 23.0061 11.4384 23.0061 11.7565C23.0061 12.0745 22.749 12.3315 22.431 12.3315C21.3292 12.3315 20.3125 12.8824 19.7116 13.8054C19.6017 13.9744 19.4177 14.0665 19.2291 14.0665Z" fill="#008755" stroke="#008755" stroke-width="0.3"/>
<path d="M23.7056 12.3315C21.667 12.3315 19.9453 10.6097 19.9453 8.57174C19.9453 6.53373 21.667 4.81201 23.7056 4.81201C25.7436 4.81201 27.4653 6.53373 27.4653 8.57174C27.4653 10.6097 25.7436 12.3315 23.7056 12.3315ZM23.7056 5.96213C22.291 5.96213 21.0954 7.15709 21.0954 8.57174C21.0954 9.98638 22.291 11.1813 23.7056 11.1813C25.1203 11.1813 26.3152 9.98638 26.3152 8.57174C26.3152 7.15709 25.1203 5.96213 23.7056 5.96213Z" fill="#008755" stroke="#008755" stroke-width="0.3"/>
<path d="M28.8012 16.1541C28.4832 16.1541 28.2261 15.897 28.2261 15.579C28.2261 13.7889 26.7695 12.3322 24.9794 12.3322C24.6613 12.3322 24.4043 12.0752 24.4043 11.7572C24.4043 11.4392 24.6613 11.1821 24.9794 11.1821C27.4038 11.1821 29.3762 13.1551 29.3762 15.579C29.3762 15.8964 29.1192 16.1541 28.8012 16.1541Z" fill="#008755" stroke="#008755" stroke-width="0.3"/>
<path d="M24.9796 12.3315H22.4315C22.1135 12.3315 21.8564 12.0745 21.8564 11.7565C21.8564 11.4384 22.1135 11.1814 22.4315 11.1814H24.9796C25.2976 11.1814 25.5546 11.4384 25.5546 11.7565C25.5546 12.0745 25.297 12.3315 24.9796 12.3315Z" fill="#008755" stroke="#008755" stroke-width="0.3"/>
<path d="M28.8016 18.0649C28.4836 18.0649 28.2266 17.8079 28.2266 17.4899V15.579C28.2266 15.261 28.4836 15.0039 28.8016 15.0039C29.1196 15.0039 29.3767 15.261 29.3767 15.579V17.4899C29.3767 17.8079 29.1196 18.0649 28.8016 18.0649Z" fill="#008755" stroke="#008755" stroke-width="0.3"/>
<path d="M8.20592 18.4893C7.88791 18.4893 7.63086 18.2323 7.63086 17.9143C7.63086 14.7871 10.1749 12.2437 13.3015 12.2437C13.6195 12.2437 13.8766 12.5007 13.8766 12.8187C13.8766 13.1367 13.6195 13.3938 13.3015 13.3938C10.8086 13.3938 8.78097 15.4214 8.78097 17.9143C8.78097 18.2323 8.52335 18.4893 8.20592 18.4893Z" fill="#008755" stroke="#008755" stroke-width="0.3"/>
<path d="M16.6991 13.3938H13.3016C12.9836 13.3938 12.7266 13.1367 12.7266 12.8187C12.7266 12.5007 12.9836 12.2437 13.3016 12.2437H16.6991C17.0171 12.2437 17.2741 12.5007 17.2741 12.8187C17.2741 13.1367 17.0171 13.3938 16.6991 13.3938Z" fill="#008755" stroke="#008755" stroke-width="0.3"/>
<path d="M10.7711 14.0665C10.5831 14.0665 10.3991 13.9744 10.2886 13.8054C9.68713 12.883 8.67101 12.3315 7.5692 12.3315C7.25119 12.3315 6.99414 12.0745 6.99414 11.7565C6.99414 11.4384 7.25119 11.1814 7.5692 11.1814C9.06147 11.1814 10.4376 11.9278 11.2524 13.1774C11.4261 13.4437 11.3508 13.7996 11.0845 13.9733C10.9873 14.036 10.8787 14.0665 10.7711 14.0665Z" fill="#008755" stroke="#008755" stroke-width="0.3"/>
<path d="M8.20592 21.0373C7.88791 21.0373 7.63086 20.7803 7.63086 20.4622V17.9142C7.63086 17.5962 7.88791 17.3391 8.20592 17.3391C8.52392 17.3391 8.78097 17.5962 8.78097 17.9142V20.4622C8.78097 20.7803 8.52335 21.0373 8.20592 21.0373Z" fill="#008755" stroke="#008755" stroke-width="0.3"/>
<path d="M14.9996 13.3937C12.386 13.3937 10.1777 11.1855 10.1777 8.57185C10.1777 5.95822 12.386 3.75 14.9996 3.75C17.6132 3.75 19.8214 5.95822 19.8214 8.57185C19.8214 11.1855 17.6132 13.3937 14.9996 13.3937ZM14.9996 4.90011C13.0093 4.90011 11.3278 6.58158 11.3278 8.57185C11.3278 10.5621 13.0093 12.2436 14.9996 12.2436C16.9899 12.2436 18.6713 10.5621 18.6713 8.57185C18.6713 6.58158 16.9899 4.90011 14.9996 4.90011Z" fill="#008755" stroke="#008755" stroke-width="0.3"/>
<path d="M21.7947 18.4893C21.4767 18.4893 21.2196 18.2323 21.2196 17.9143C21.2196 15.4214 19.192 13.3938 16.6991 13.3938C16.3811 13.3938 16.124 13.1367 16.124 12.8187C16.124 12.5007 16.3811 12.2437 16.6991 12.2437C19.8262 12.2437 22.3697 14.7877 22.3697 17.9143C22.3697 18.2323 22.1127 18.4893 21.7947 18.4893Z" fill="#008755" stroke="#008755" stroke-width="0.3"/>
<path d="M21.7938 21.0373C21.4758 21.0373 21.2188 20.7803 21.2188 20.4622V17.9142C21.2188 17.5962 21.4758 17.3391 21.7938 17.3391C22.1118 17.3391 22.3689 17.5962 22.3689 17.9142V20.4622C22.3689 20.7803 22.1118 21.0373 21.7938 21.0373Z" fill="#008755" stroke="#008755" stroke-width="0.3"/>
<path d="M14.9997 22.7396C12.5729 22.7396 10.1468 22.1496 7.93453 20.9701C7.65448 20.82 7.5481 20.4721 7.69761 20.1915C7.8477 19.912 8.19388 19.8056 8.47624 19.9546C12.5614 22.1335 17.4391 22.1335 21.5237 19.9546C21.8055 19.8056 22.1528 19.912 22.3023 20.1915C22.4519 20.4715 22.3455 20.82 22.0654 20.9701C19.8526 22.149 17.4264 22.7396 14.9997 22.7396Z" fill="#008755" stroke="#008755" stroke-width="0.3"/>
<path d="M6.2939 12.3315C4.2559 12.3315 2.53418 10.6097 2.53418 8.57174C2.53418 6.53373 4.2559 4.81201 6.2939 4.81201C8.33191 4.81201 10.0536 6.53373 10.0536 8.57174C10.0536 10.6097 8.33191 12.3315 6.2939 12.3315ZM6.2939 5.96213C4.87926 5.96213 3.68429 7.15709 3.68429 8.57174C3.68429 9.98638 4.87926 11.1813 6.2939 11.1813C7.70854 11.1813 8.90351 9.98638 8.90351 8.57174C8.90351 7.15709 7.70854 5.96213 6.2939 5.96213Z" fill="#008755" stroke="#008755" stroke-width="0.3"/>
<path d="M1.1981 16.1541C0.880097 16.1541 0.623047 15.897 0.623047 15.579C0.623047 13.1546 2.59607 11.1821 5.01993 11.1821C5.33794 11.1821 5.59499 11.4392 5.59499 11.7572C5.59499 12.0752 5.33794 12.3322 5.01993 12.3322C3.22978 12.3317 1.77316 13.7883 1.77316 15.579C1.77316 15.8964 1.51611 16.1541 1.1981 16.1541Z" fill="#008755" stroke="#008755" stroke-width="0.3"/>
<path d="M7.56845 12.3315H5.02037C4.70236 12.3315 4.44531 12.0745 4.44531 11.7565C4.44531 11.4384 4.70236 11.1814 5.02037 11.1814H7.56845C7.88645 11.1814 8.1435 11.4384 8.1435 11.7565C8.1435 12.0745 7.88645 12.3315 7.56845 12.3315Z" fill="#008755" stroke="#008755" stroke-width="0.3"/>
<path d="M1.1981 18.0649C0.880097 18.0649 0.623047 17.8079 0.623047 17.4899V15.579C0.623047 15.261 0.880097 15.0039 1.1981 15.0039C1.51611 15.0039 1.77316 15.261 1.77316 15.579V17.4899C1.77316 17.8079 1.51611 18.0649 1.1981 18.0649Z" fill="#008755" stroke="#008755" stroke-width="0.3"/>
</svg>
