<svg width="33" height="33" viewBox="0 0 33 33" fill="none" xmlns="http://www.w3.org/2000/svg">
<path d="M25.3014 3.05593V29.692C25.3014 30.6699 24.5036 31.4625 23.5256 31.4625H1.79476C0.816817 31.4625 0.0241699 30.6699 0.0241699 29.692V3.05593C0.0241699 2.07799 0.816817 1.28534 1.79476 1.28534H23.5256C24.5036 1.28534 25.3014 2.07799 25.3014 3.05593Z" fill="#3C5056"/>
<path d="M26.8404 4.60002V31.2309C26.8404 32.2088 26.0478 33.0066 25.0699 33.0066H3.33897C2.36103 33.0066 1.56323 32.2088 1.56323 31.2309V4.60002C1.56323 3.62207 2.36103 2.82428 3.33897 2.82428H25.0699C26.0478 2.82428 26.8404 3.62207 26.8404 4.60002Z" fill="#495E66"/>
<path d="M25.008 5.72725V26.4184V31.164H4.46608C3.87931 31.164 3.40063 30.6853 3.40063 30.0986V5.72725C3.40063 5.14048 3.87931 4.6618 4.46608 4.6618H23.9425C24.5293 4.6618 25.008 5.14048 25.008 5.72725Z" fill="white"/>
<path d="M20.3601 3.7662V4.68238C20.3601 5.13532 19.9895 5.50591 19.5314 5.50591H8.87187C8.41378 5.50591 8.04834 5.13532 8.04834 4.68238V3.7662C8.04834 2.97356 8.69172 2.32503 9.48437 2.32503H12.1711V2.03164C12.1711 0.909585 13.077 -0.0065918 14.2042 -0.0065918C14.7653 -0.0065918 15.28 0.230173 15.6454 0.590467C16.0108 0.955908 16.2425 1.47061 16.2425 2.03164V2.32503H18.9189C19.7116 2.32503 20.3601 2.97356 20.3601 3.7662Z" fill="#FBE063"/>
<path d="M14.2044 1.37799C14.5853 1.37799 14.8889 1.68681 14.8889 2.06255C14.8889 2.44343 14.5801 2.74711 14.2044 2.74711C13.8183 2.74711 13.5095 2.43828 13.5095 2.06255C13.5147 1.68681 13.8183 1.37799 14.2044 1.37799Z" fill="white"/>
<path d="M32.8162 13.5714L25.9243 26.2125L21.5647 23.8346L28.4618 11.1986C28.8118 10.5603 29.6095 10.3236 30.2478 10.6684L32.2963 11.7853C32.9294 12.1353 33.1662 12.9383 32.8162 13.5714Z" fill="#8F90FB"/>
<path d="M25.9242 26.2125L22.4911 28.2868C22.1411 28.4978 21.6985 28.2559 21.6831 27.8442L21.5698 23.8346L25.9242 26.2125Z" fill="#FBE063"/>
<path d="M21.6418 26.5368L21.6779 27.8493C21.6933 28.2559 22.136 28.4978 22.486 28.292L23.608 27.6125L21.6418 26.5368Z" fill="#495E66"/>
<path d="M26.1919 20.7926C26.1508 20.7926 26.1096 20.7824 26.0684 20.7618C25.9449 20.6949 25.8986 20.5353 25.9655 20.4118L28.9353 14.9662C29.0022 14.8426 29.1618 14.7963 29.2853 14.8632C29.4089 14.9301 29.4552 15.0897 29.3883 15.2132L26.4184 20.6588C26.3721 20.7463 26.2846 20.7926 26.1919 20.7926Z" fill="#5B52C5"/>
<path d="M10.1278 17.5243V20.0464C10.1278 20.4993 9.76236 20.8648 9.30942 20.8648H6.78736C6.33956 20.8648 5.97412 20.4993 5.97412 20.0464V17.5243C5.97412 17.0714 6.33956 16.7059 6.78736 16.7059H9.30942C9.76236 16.7059 10.1278 17.0714 10.1278 17.5243Z" fill="#54E28E"/>
<path d="M22.4344 17.1537H16.4329C16.2888 17.1537 16.1755 17.0405 16.1755 16.8964C16.1755 16.7523 16.2888 16.639 16.4329 16.639H22.4344C22.5785 16.639 22.6917 16.7523 22.6917 16.8964C22.6917 17.0405 22.5785 17.1537 22.4344 17.1537Z" fill="#E2E2E0"/>
<path d="M15.0998 17.1537H13.2571C13.113 17.1537 12.9998 17.0405 12.9998 16.8964C12.9998 16.7523 13.113 16.639 13.2571 16.639H15.0998C15.2439 16.639 15.3571 16.7523 15.3571 16.8964C15.3571 17.0405 15.2439 17.1537 15.0998 17.1537Z" fill="#E2E2E0"/>
<path d="M22.4343 19.0427H20.9571C20.8129 19.0427 20.6997 18.9295 20.6997 18.7854C20.6997 18.6413 20.8129 18.528 20.9571 18.528H22.4343C22.5784 18.528 22.6916 18.6413 22.6916 18.7854C22.6916 18.9295 22.5784 19.0427 22.4343 19.0427Z" fill="#E2E2E0"/>
<path d="M19.6034 19.0427H13.2571C13.113 19.0427 12.9998 18.9295 12.9998 18.7854C12.9998 18.6413 13.113 18.528 13.2571 18.528H19.6034C19.7475 18.528 19.8608 18.6413 19.8608 18.7854C19.8608 18.9295 19.7475 19.0427 19.6034 19.0427Z" fill="#E2E2E0"/>
<path d="M19.0476 20.9317H13.2571C13.113 20.9317 12.9998 20.8185 12.9998 20.6743C12.9998 20.5302 13.113 20.417 13.2571 20.417H19.0476C19.1917 20.417 19.3049 20.5302 19.3049 20.6743C19.3049 20.8185 19.1917 20.9317 19.0476 20.9317Z" fill="#E2E2E0"/>
<path d="M10.1278 23.5875V26.1096C10.1278 26.5625 9.76236 26.928 9.30942 26.928H6.78736C6.33956 26.928 5.97412 26.5625 5.97412 26.1096V23.5875C5.97412 23.1346 6.33956 22.7692 6.78736 22.7692H9.30942C9.76236 22.7692 10.1278 23.1346 10.1278 23.5875Z" fill="#54E28E"/>
<path d="M19.4336 23.2221H16.4329C16.2888 23.2221 16.1755 23.1089 16.1755 22.9648C16.1755 22.8206 16.2888 22.7074 16.4329 22.7074H19.4336C19.5777 22.7074 19.691 22.8206 19.691 22.9648C19.691 23.1089 19.5726 23.2221 19.4336 23.2221Z" fill="#E2E2E0"/>
<path d="M15.0998 23.2221H13.2571C13.113 23.2221 12.9998 23.1089 12.9998 22.9648C12.9998 22.8206 13.113 22.7074 13.2571 22.7074H15.0998C15.2439 22.7074 15.3571 22.8206 15.3571 22.9648C15.3571 23.1089 15.2439 23.2221 15.0998 23.2221Z" fill="#E2E2E0"/>
<path d="M18.3167 25.106H13.2571C13.113 25.106 12.9998 24.9927 12.9998 24.8486C12.9998 24.7045 13.113 24.5912 13.2571 24.5912H18.3167C18.4608 24.5912 18.574 24.7045 18.574 24.8486C18.574 24.9927 18.4608 25.106 18.3167 25.106Z" fill="#E2E2E0"/>
<path d="M16.8395 26.9949H13.2571C13.113 26.9949 12.9998 26.8816 12.9998 26.7375C12.9998 26.5934 13.113 26.4802 13.2571 26.4802H16.8395C16.9836 26.4802 17.0968 26.5934 17.0968 26.7375C17.0968 26.8816 16.9784 26.9949 16.8395 26.9949Z" fill="#E2E2E0"/>
<path d="M7.73434 19.5625C7.66743 19.5625 7.60052 19.5368 7.5542 19.4853L7.13214 19.0633C7.0292 18.9603 7.0292 18.8008 7.13214 18.6978C7.23508 18.5949 7.39464 18.5949 7.49758 18.6978L7.73949 18.9397L8.5939 18.0853C8.69684 17.9824 8.8564 17.9824 8.95934 18.0853C9.06228 18.1883 9.06228 18.3478 8.95934 18.4508L7.91964 19.4853C7.86817 19.5316 7.80125 19.5625 7.73434 19.5625Z" fill="white"/>
<path d="M9.70567 9.01624V9.58241H8.11008V13.7515H7.46156V9.58241H5.86597V9.01624H9.70567Z" fill="#5B52C5"/>
<path d="M10.3542 9.01624H13.8079V9.59785H10.9822V11.0339H13.5969V11.5795H10.9822V13.1854H13.8594V13.7515H10.3594V9.01624H10.3542Z" fill="#5B52C5"/>
<path d="M15.1152 12.2228C15.1307 12.4905 15.1925 12.7118 15.3057 12.8765C15.5167 13.1905 15.8925 13.3449 16.4329 13.3449C16.6748 13.3449 16.891 13.3089 17.0917 13.242C17.4726 13.1081 17.663 12.8714 17.663 12.5265C17.663 12.2692 17.5807 12.0839 17.4211 11.9758C17.2564 11.8677 17.0042 11.7751 16.6542 11.6978L16.0108 11.5537C15.5939 11.4611 15.2954 11.353 15.1204 11.2398C14.8219 11.0442 14.6675 10.7456 14.6675 10.3545C14.6675 9.92726 14.8167 9.58241 15.1101 9.30447C15.4035 9.03167 15.8204 8.8927 16.3608 8.8927C16.855 8.8927 17.277 9.01108 17.627 9.25299C17.9719 9.49491 18.1469 9.87579 18.1469 10.4008H17.5447C17.5138 10.1486 17.4417 9.95299 17.3388 9.81917C17.1432 9.57211 16.8138 9.44858 16.3454 9.44858C15.9697 9.44858 15.6969 9.52579 15.5322 9.68535C15.3675 9.84491 15.2851 10.0302 15.2851 10.2412C15.2851 10.4728 15.3829 10.6427 15.5733 10.7508C15.702 10.8177 15.9851 10.9052 16.4329 11.0081L17.0969 11.1574C17.416 11.2295 17.663 11.3324 17.838 11.4559C18.1366 11.6773 18.291 11.9964 18.291 12.4184C18.291 12.9434 18.1005 13.3192 17.7197 13.5456C17.3388 13.7721 16.8961 13.8853 16.3917 13.8853C15.805 13.8853 15.3417 13.7361 15.0072 13.4324C14.6726 13.1339 14.513 12.7273 14.5182 12.2177H15.1152V12.2228Z" fill="#5B52C5"/>
<path d="M22.5423 9.01624V9.58241H20.9468V13.7515H20.2982V9.58241H18.7026V9.01624H22.5423Z" fill="#5B52C5"/>
<path d="M26.991 13.9002L27.6123 12.7614L31.9687 15.1381L31.3474 16.2769L26.991 13.9002Z" fill="#EFEFED"/>
<path d="M31.9616 15.1412L32.816 13.5765C33.166 12.9383 32.9293 12.1353 32.291 11.7905L30.2425 10.6736C29.6043 10.3236 28.8065 10.5655 28.4565 11.2037L27.6021 12.7684L31.9616 15.1412Z" fill="#54E28E"/>
</svg>
