<svg width="25" height="25" viewBox="0 0 25 25" fill="none" xmlns="http://www.w3.org/2000/svg">
<path d="M22.146 15.6489C19.3416 12.575 14.0998 14.6334 14.1232 18.801C14.1269 20.0282 14.6154 21.2042 15.4824 22.0727C16.3494 22.9411 17.5246 23.4317 18.7518 23.4374C22.771 23.4686 24.8919 18.5276 22.146 15.6489ZM21.3726 17.5199L18.2479 20.6446C18.1746 20.7172 18.0757 20.7579 17.9725 20.7579C17.8694 20.7579 17.7704 20.7172 17.6972 20.6446L16.1348 19.0822C16.0638 19.0087 16.0244 18.9102 16.0251 18.808C16.0258 18.7057 16.0665 18.6078 16.1386 18.5352C16.2106 18.4627 16.3083 18.4212 16.4105 18.4198C16.5128 18.4184 16.6115 18.4571 16.6856 18.5276L17.9745 19.8166L20.8219 16.9652C20.896 16.8947 20.9947 16.856 21.0969 16.8575C21.1992 16.8589 21.2968 16.9003 21.3688 16.9729C21.4409 17.0455 21.4816 17.1434 21.4823 17.2456C21.4831 17.3479 21.4437 17.4463 21.3726 17.5199Z" fill="#29ABE2"/>
<path d="M18.7518 13.3874C20.3649 13.3757 20.3845 14.2194 20.4157 12.1805C20.4136 9.97983 19.5384 7.86991 17.9823 6.31381C16.4262 4.75771 14.3163 3.88255 12.1156 3.88042C1.10876 4.33351 1.11265 20.0236 12.1156 20.4767C14.1819 20.4337 13.3343 20.4337 13.3382 18.801C13.3401 17.3659 13.9111 15.99 14.9259 14.9752C15.9408 13.9604 17.3166 13.3894 18.7518 13.3874ZM12.1156 12.5711C12.0121 12.5708 11.913 12.5295 11.8398 12.4564C11.7666 12.3832 11.7253 12.284 11.725 12.1805V5.72402C11.7244 5.6723 11.734 5.62096 11.7533 5.57298C11.7726 5.525 11.8013 5.48134 11.8376 5.44452C11.874 5.40771 11.9173 5.37848 11.965 5.35853C12.0127 5.33858 12.0639 5.3283 12.1156 5.3283C12.1674 5.3283 12.2186 5.33858 12.2663 5.35853C12.314 5.37848 12.3573 5.40771 12.3936 5.44452C12.43 5.48134 12.4586 5.525 12.478 5.57298C12.4973 5.62096 12.5069 5.6723 12.5062 5.72402V11.7899H16.6621C16.7648 11.7912 16.8629 11.833 16.935 11.9061C17.0072 11.9792 17.0476 12.0778 17.0476 12.1805C17.0476 12.2832 17.0072 12.3818 16.935 12.4549C16.8629 12.528 16.7648 12.5697 16.6621 12.5711L12.1156 12.5711Z" fill="#29ABE2"/>
<path d="M3.03734 12.1789C3.03734 9.77088 3.99394 7.46148 5.69667 5.75876C7.39941 4.05603 9.70881 3.09945 12.1168 3.09946C14.5249 3.09946 16.8343 4.05606 18.537 5.75879C20.2397 7.46153 21.1963 9.77093 21.1963 12.179C21.1379 14.6204 20.5734 13.3072 22.4002 14.8015C24.172 8.23158 18.9324 1.46822 12.1167 1.56348C-3.76135 2.35571 -0.626463 25.6602 14.7631 22.4584C14.3912 22.0509 14.0828 21.5897 13.8483 21.0904C8.33863 22.2223 2.97545 17.8102 3.03734 12.1789Z" fill="#29ABE2"/>
</svg>
