<svg width="25" height="25" viewBox="0 0 25 25" fill="none" xmlns="http://www.w3.org/2000/svg">
<g clip-path="url(#clip0_1367_9749)">
<path d="M12.5 4.39453C8.03062 4.39453 4.39453 8.03062 4.39453 12.5C4.39453 16.9694 8.03062 20.6055 12.5 20.6055C16.9694 20.6055 20.6055 16.9694 20.6055 12.5C20.6055 8.03062 16.9694 4.39453 12.5 4.39453ZM15.606 16.6418L11.7676 12.8034V5.9082H13.2324V12.1966L16.6418 15.606L15.606 16.6418Z" fill="#05868E"/>
<path d="M12.5 0C5.58398 0 0 5.58809 0 12.5C0 19.416 5.58799 25 12.5 25C19.416 25 25 19.4119 25 12.5C25 5.58398 19.412 0 12.5 0ZM12.5 22.0703C7.2229 22.0703 2.92969 17.7771 2.92969 12.5C2.92969 7.2229 7.2229 2.92969 12.5 2.92969C17.7771 2.92969 22.0703 7.2229 22.0703 12.5C22.0703 17.7771 17.7771 22.0703 12.5 22.0703Z" fill="#05868E"/>
</g>
<defs>
<clipPath id="clip0_1367_9749">
<rect width="25" height="25" fill="white"/>
</clipPath>
</defs>
</svg>
