<svg width="24" height="25" viewBox="0 0 24 25" fill="none" xmlns="http://www.w3.org/2000/svg">
<path d="M16.045 12.2596C17.643 11.3786 21 9.20113 21 6.45312C21 5.07463 19.8785 3.95312 18.5 3.95312C18.3235 3.95312 18.1495 3.97812 17.978 4.01612C17.9915 3.66562 18 3.31212 18 2.95312C18 2.67713 17.776 2.45312 17.5 2.45312H6.5C6.224 2.45312 6 2.67713 6 2.95312C6 3.31212 6.0085 3.66562 6.022 4.01612C5.8505 3.97812 5.6765 3.95312 5.5 3.95312C4.1215 3.95312 3 5.07463 3 6.45312C3 9.20062 6.3575 11.3786 7.955 12.2601C8.664 13.5946 9.532 14.5731 10.5 15.0741V16.4531H7C6.724 16.4531 6.5 16.6771 6.5 16.9531V19.4531H6C5.724 19.4531 5.5 19.6771 5.5 19.9531V21.9531C5.5 22.2291 5.724 22.4531 6 22.4531H18C18.276 22.4531 18.5 22.2291 18.5 21.9531V19.9531C18.5 19.6771 18.276 19.4531 18 19.4531H17.5V16.9531C17.5 16.6771 17.276 16.4531 17 16.4531H13.5V15.0736C14.468 14.5726 15.336 13.5941 16.045 12.2596ZM18.5 4.95312C19.327 4.95312 20 5.62612 20 6.45312C20 8.15513 18.175 9.70512 16.7565 10.6546C17.3445 9.06812 17.7505 7.16862 17.916 5.07713C18.102 4.99663 18.3 4.95312 18.5 4.95312ZM4 6.45312C4 5.62612 4.673 4.95312 5.5 4.95312C5.7 4.95312 5.898 4.99663 6.0845 5.07713C6.25 7.16862 6.6555 9.06813 7.2435 10.6541C5.825 9.70463 4 8.15462 4 6.45312ZM7.005 3.45312H16.995C16.8765 9.46562 14.6375 14.4531 12 14.4531C9.3625 14.4531 7.1235 9.46562 7.005 3.45312ZM17.5 21.4531H6.5V20.4531H17.5V21.4531ZM16.5 19.4531H7.5V17.4531H16.5V19.4531ZM12.5 16.4531H11.5V15.4086C11.665 15.4356 11.8315 15.4531 12 15.4531C12.1685 15.4531 12.335 15.4356 12.5 15.4086V16.4531Z" fill="#F1EB9C" stroke="#F1EB9C" stroke-width="0.3"/>
</svg>
