<svg width="44" height="45" viewBox="0 0 44 45" fill="none" xmlns="http://www.w3.org/2000/svg">
<rect y="0.453125" width="44" height="44" rx="6" fill="#009B73"/>
<g clip-path="url(#clip0_955_26218)">
<path d="M33.3333 27.3337H28.6667V22.667C28.6667 20.0937 26.5733 18.0004 24 18.0004H20C17.4267 18.0004 15.3333 20.0937 15.3333 22.667V23.3337H10.6667C8.09333 23.3337 6 25.427 6 28.0004V33.3337C6 35.907 8.09333 38.0004 10.6667 38.0004H33.3333C35.9067 38.0004 38 35.907 38 33.3337V32.0004C38 29.427 35.9067 27.3337 33.3333 27.3337ZM18 22.667C18 21.5644 18.8973 20.667 20 20.667H24C25.1027 20.667 26 21.5644 26 22.667V35.3337H18V22.667ZM8.66667 33.3337V28.0004C8.66667 26.8977 9.564 26.0004 10.6667 26.0004H15.3333V35.3337H10.6667C9.564 35.3337 8.66667 34.4364 8.66667 33.3337ZM35.3333 33.3337C35.3333 34.4364 34.436 35.3337 33.3333 35.3337H28.6667V30.0004H33.3333C34.436 30.0004 35.3333 30.8977 35.3333 32.0004V33.3337ZM16.7213 9.80969C16.8493 9.46036 17.1827 9.22702 17.556 9.22702H20.224L21.168 6.57769C21.2973 6.22969 21.6293 5.99902 22.0013 5.99902C22.3733 5.99902 22.7053 6.22969 22.8347 6.57769L23.7787 9.22702H26.4467C26.82 9.22702 27.1533 9.46036 27.2813 9.81102C27.4093 10.1617 27.304 10.555 27.0187 10.7964L24.916 12.5097L25.7853 15.159C25.904 15.5177 25.784 15.9124 25.484 16.143C25.184 16.3737 24.772 16.3897 24.456 16.1844L22.008 14.5897L19.6013 16.2004C19.452 16.3004 19.2787 16.351 19.1067 16.351C18.9187 16.351 18.7307 16.291 18.5733 16.1737C18.2707 15.947 18.1453 15.555 18.2587 15.195L19.0947 12.5137L16.9813 10.7937C16.6973 10.5524 16.592 10.159 16.7213 9.80969Z" fill="#F1EB9C" stroke="#01B47E"/>
</g>
<defs>
<clipPath id="clip0_955_26218">
<rect width="32" height="32" fill="white" transform="translate(6 6)"/>
</clipPath>
</defs>
</svg>
