<svg width="44" height="44" viewBox="0 0 44 44" fill="none" xmlns="http://www.w3.org/2000/svg">
<rect width="44" height="44" rx="6" fill="#009B73"/>
<g clip-path="url(#clip0_955_26238)">
<path d="M35.9776 10H25.3726L22.0091 16.797L18.6561 10H8.03711L13.5799 21.235C12.2744 22.985 11.5009 25.1538 11.5009 27.5C11.5009 33.289 16.2119 38 22.0009 38C27.7899 38 32.5009 33.289 32.5009 27.5C32.5009 25.1527 31.7263 22.9838 30.4208 21.2338L35.9776 10ZM26.8216 12.3333H32.2198L28.7081 19.429C27.4714 18.3988 25.9956 17.6475 24.3774 17.2718L26.8216 12.3333ZM17.2048 12.3333L19.6384 17.2683C18.0133 17.6428 16.5316 18.3965 15.2903 19.4302L11.7903 12.3333H17.2048ZM21.9998 35.6667C17.4964 35.6667 13.8331 32.0033 13.8331 27.5C13.8331 22.9967 17.4964 19.3333 21.9998 19.3333C26.5031 19.3333 30.1664 22.9967 30.1664 27.5C30.1664 32.0033 26.5031 35.6667 21.9998 35.6667ZM23.6541 25.75H27.8331V26.6157L24.6318 28.5173L25.9781 32.1748L25.2373 32.6917L22.0149 30.1997L18.7798 32.7022L18.0669 32.1655L19.3199 28.4613L16.1676 26.6203V25.7488H20.3699L21.5331 21.6328H22.4921L23.6541 25.7488V25.75Z" fill="#F1EB9C" stroke="#01B47E"/>
</g>
<defs>
<clipPath id="clip0_955_26238">
<rect width="28" height="28" fill="white" transform="translate(8 10)"/>
</clipPath>
</defs>
</svg>
