<svg width="39" height="39" viewBox="0 0 39 39" fill="none" xmlns="http://www.w3.org/2000/svg">
<g clip-path="url(#clip0_262_3727)">
<path d="M19.1429 17.0279C18.8354 16.9223 18.5007 17.0858 18.3951 17.3932L17.1043 21.1484L15.7495 17.3762C15.6396 17.0703 15.3025 16.9113 14.9967 17.0212C14.6908 17.131 14.5319 17.4681 14.6417 17.774L16.4493 22.8068C16.5511 23.0838 16.8178 23.2689 17.114 23.2689H17.1191C17.4172 23.2668 17.6836 23.0773 17.7834 22.7936L19.5082 17.7758C19.6138 17.4684 19.4504 17.1336 19.1429 17.0279Z" fill="#60B7FF"/>
<path d="M22.9179 19.616C22.2842 19.3818 21.6947 19.1264 21.5223 19.0507C21.3585 18.9231 21.3639 18.7427 21.3746 18.668C21.3889 18.5685 21.4604 18.3255 21.8141 18.2188C22.5574 17.9944 23.2417 18.5379 23.2599 18.5524C23.5086 18.7593 23.8778 18.7268 24.0864 18.4791C24.2958 18.2305 24.2641 17.8593 24.0154 17.6499C23.9682 17.6101 22.8418 16.6793 21.474 17.0919C20.7892 17.2986 20.3048 17.8384 20.2096 18.5005C20.1204 19.121 20.3887 19.718 20.9099 20.0585C21.1188 20.1949 21.5718 20.3732 22.51 20.72C22.745 20.807 23.2836 21.0541 23.2091 21.4711C23.1545 21.7763 22.7889 22.092 22.2716 22.092C21.7521 22.092 21.2515 21.8815 20.9328 21.529C20.7147 21.288 20.3426 21.2692 20.1015 21.4872C19.8604 21.7052 19.8417 22.0774 20.0597 22.3185C20.5981 22.9137 21.425 23.2691 22.2716 23.2691C23.3213 23.2691 24.2029 22.6001 24.3678 21.6784C24.4915 20.9862 24.1757 20.0809 22.9179 19.616Z" fill="#60B7FF"/>
<path d="M38.4507 11.681H14.9312V5.11023H38.4507C38.7541 5.11023 38.9999 5.35619 38.9999 5.65951V11.1317C39 11.4351 38.7541 11.681 38.4507 11.681Z" fill="#FFD15B"/>
<path d="M16.7913 8.39559C16.7913 11.2075 15.4088 13.6966 13.2866 15.2202C11.9093 16.209 10.2204 16.3073 8.39566 16.3073C6.57089 16.3073 4.88201 16.209 3.50474 15.2202C1.38244 13.6966 0 11.2075 0 8.39559C0 3.75885 3.75885 0 8.39559 0C13.0323 0 16.7913 3.75885 16.7913 8.39559Z" fill="#60B7FF"/>
<path d="M8.39583 0C7.99631 0 7.60342 0.0285645 7.21875 0.0825703C11.2981 0.655002 14.4373 4.15845 14.4373 8.39566C14.4373 12.6329 11.2981 16.1362 7.21875 16.7087C7.60342 16.7627 8.11034 16.6515 8.50994 16.6515C9.91691 16.6515 11.0309 16.1123 12.1957 15.5005C12.5416 15.3188 12.9714 15.4467 13.2868 15.2203C15.4091 13.6966 16.7914 11.2075 16.7914 8.39566C16.7914 3.75885 13.0326 0 8.39583 0Z" fill="#26A6FE"/>
<path d="M8.39565 9.53363C5.6946 9.53363 3.50488 11.7233 3.50488 14.4243V15.2199C4.88215 16.2087 6.5708 16.7912 8.39565 16.7912C10.2205 16.7912 11.9092 16.2087 13.2864 15.2199V14.4243C13.2864 11.7233 11.0968 9.53363 8.39565 9.53363Z" fill="#FFD15B"/>
<path d="M7.21875 16.7087C7.60342 16.7627 7.99624 16.7913 8.39583 16.7913C10.2207 16.7913 11.9093 16.2088 13.2866 15.22V14.4244C13.2866 13.924 13.211 13.4412 13.0714 12.9865C11.7757 14.9661 9.66669 16.3653 7.21875 16.7087Z" fill="#FFC344"/>
<path d="M8.3956 10.5868C7.03235 10.5868 5.92725 9.48175 5.92725 8.1185V7.14944C5.92725 5.78619 7.03235 4.68109 8.3956 4.68109C9.75884 4.68109 10.8639 5.78619 10.8639 7.14944V8.1185C10.8639 9.48175 9.75877 10.5868 8.3956 10.5868Z" fill="#FFDFCF"/>
<path d="M8.39583 4.68109C7.96958 4.68109 7.56861 4.7891 7.21875 4.9793C7.98793 5.39741 8.51002 6.21245 8.51002 7.14944V8.1185C8.51002 9.05549 7.98786 9.87061 7.21875 10.2886C7.56861 10.4788 7.96958 10.5868 8.39583 10.5868C9.75908 10.5868 10.8642 9.48175 10.8642 8.1185V7.14944C10.8642 5.78627 9.75901 4.68109 8.39583 4.68109Z" fill="#FFCEBF"/>
<path d="M34.0839 8.9842H21.7091C21.3841 8.9842 21.1206 8.72072 21.1206 8.39569C21.1206 8.07067 21.3841 7.80719 21.7091 7.80719H34.0839C34.4089 7.80719 34.6724 8.07067 34.6724 8.39569C34.6724 8.72064 34.4089 8.9842 34.0839 8.9842Z" fill="#F9F7F8"/>
<path d="M0.549275 33.8898H24.0688V27.319H0.549275C0.245883 27.319 0 27.565 0 27.8683V33.3405C0 33.6438 0.245959 33.8898 0.549275 33.8898Z" fill="#FE646F"/>
<path d="M17.2909 31.1929H4.91614C4.59112 31.1929 4.32764 30.9295 4.32764 30.6044C4.32764 30.2794 4.59112 30.0159 4.91614 30.0159H17.2909C17.616 30.0159 17.8795 30.2794 17.8795 30.6044C17.8795 30.9295 17.616 31.1929 17.2909 31.1929Z" fill="#F9F7F8"/>
<path d="M39.0002 30.6044C39.0002 33.4163 37.6178 35.9054 35.4955 37.429C34.1182 38.4178 32.4293 38.2184 30.6046 38.2184C28.7797 38.2184 27.0909 38.4178 25.7137 37.429C23.5914 35.9053 22.209 33.4163 22.209 30.6044C22.209 25.9676 25.9678 22.2088 30.6046 22.2088C35.2413 22.2088 39.0002 25.9676 39.0002 30.6044Z" fill="#60B7FF"/>
<path d="M30.6043 22.2087C30.2048 22.2087 29.8119 22.2373 29.4272 22.2913C33.5066 22.8637 36.6458 26.3672 36.6458 30.6044C36.6458 34.8416 33.5066 38.3451 29.4272 38.9175C29.8119 38.9715 30.3253 38.8507 30.7248 38.8507C32.1774 38.8507 33.3958 38.0309 34.5874 37.3818C34.8929 37.2154 35.2143 37.6307 35.4952 37.429C37.6175 35.9054 38.9999 33.4163 38.9999 30.6044C38.9999 25.9676 35.2411 22.2087 30.6043 22.2087Z" fill="#26A6FE"/>
<path d="M30.6046 31.7424C27.9036 31.7424 25.7139 33.932 25.7139 36.6331V37.4287C27.0911 38.4175 28.7798 39 30.6046 39C32.4295 39 34.1181 38.4175 35.4954 37.4288V36.6331C35.4953 33.9321 33.3057 31.7424 30.6046 31.7424Z" fill="#FE646F"/>
<path d="M29.4277 38.9174C29.8124 38.9714 30.2052 38.9999 30.6048 38.9999C32.4297 38.9999 34.1183 38.4174 35.4956 37.4286V36.633C35.4956 36.1326 35.42 35.6498 35.2804 35.1951C33.9846 37.1748 31.8757 38.574 29.4277 38.9174Z" fill="#FD4755"/>
<path d="M30.6046 32.7956C29.2413 32.7956 28.1362 31.6905 28.1362 30.3272V29.3582C28.1362 27.9949 29.2413 26.8898 30.6046 26.8898C31.9678 26.8898 33.0729 27.9949 33.0729 29.3582V30.3272C33.0729 31.6905 31.9678 32.7956 30.6046 32.7956Z" fill="#FFDFCF"/>
<path d="M30.6048 26.8898C30.1786 26.8898 29.7776 26.9978 29.4277 27.188C30.1969 27.6062 30.719 28.4212 30.719 29.3582V30.3272C30.719 31.2642 30.1968 32.0793 29.4277 32.4974C29.7776 32.6876 30.1786 32.7956 30.6048 32.7956C31.9681 32.7956 33.0732 31.6905 33.0732 30.3272V29.3582C33.0732 27.995 31.968 26.8898 30.6048 26.8898Z" fill="#FFCEBF"/>
</g>
<defs>
<clipPath id="clip0_262_3727">
<rect width="39" height="39" fill="white"/>
</clipPath>
</defs>
</svg>
