<svg width="24" height="24" viewBox="0 0 24 24" fill="none" xmlns="http://www.w3.org/2000/svg">
<path d="M16.045 11.8065C17.643 10.9255 21 8.748 21 6C21 4.6215 19.8785 3.5 18.5 3.5C18.3235 3.5 18.1495 3.525 17.978 3.563C17.9915 3.2125 18 2.859 18 2.5C18 2.224 17.776 2 17.5 2H6.5C6.224 2 6 2.224 6 2.5C6 2.859 6.0085 3.2125 6.022 3.563C5.8505 3.525 5.6765 3.5 5.5 3.5C4.1215 3.5 3 4.6215 3 6C3 8.7475 6.3575 10.9255 7.955 11.807C8.664 13.1415 9.532 14.12 10.5 14.621V16H7C6.724 16 6.5 16.224 6.5 16.5V19H6C5.724 19 5.5 19.224 5.5 19.5V21.5C5.5 21.776 5.724 22 6 22H18C18.276 22 18.5 21.776 18.5 21.5V19.5C18.5 19.224 18.276 19 18 19H17.5V16.5C17.5 16.224 17.276 16 17 16H13.5V14.6205C14.468 14.1195 15.336 13.141 16.045 11.8065ZM18.5 4.5C19.327 4.5 20 5.173 20 6C20 7.702 18.175 9.252 16.7565 10.2015C17.3445 8.615 17.7505 6.7155 17.916 4.624C18.102 4.5435 18.3 4.5 18.5 4.5ZM4 6C4 5.173 4.673 4.5 5.5 4.5C5.7 4.5 5.898 4.5435 6.0845 4.624C6.25 6.7155 6.6555 8.615 7.2435 10.201C5.825 9.2515 4 7.7015 4 6ZM7.005 3H16.995C16.8765 9.0125 14.6375 14 12 14C9.3625 14 7.1235 9.0125 7.005 3ZM17.5 21H6.5V20H17.5V21ZM16.5 19H7.5V17H16.5V19ZM12.5 16H11.5V14.9555C11.665 14.9825 11.8315 15 12 15C12.1685 15 12.335 14.9825 12.5 14.9555V16Z" fill="#008755" stroke="#008755" stroke-width="0.3"/>
</svg>
