<svg width="44" height="45" viewBox="0 0 44 45" fill="none" xmlns="http://www.w3.org/2000/svg">
<rect y="0.453125" width="44" height="44" rx="6" fill="#009B73"/>
<g clip-path="url(#clip0_955_26226)">
<path d="M32.1559 21.9822C32.2497 21.3756 32.3125 20.7578 32.3125 20.125C32.3125 13.405 26.845 7.9375 20.125 7.9375C13.405 7.9375 7.9375 13.405 7.9375 20.125C7.9375 26.845 13.405 32.3125 20.125 32.3125C20.7578 32.3125 21.3756 32.2497 21.9812 32.1559C23.2581 34.4809 25.7294 36.0625 28.5625 36.0625C32.6978 36.0625 36.0625 32.6978 36.0625 28.5625C36.0625 25.7284 34.4809 23.2581 32.1559 21.9822ZM20.125 30.4375C14.4391 30.4375 9.8125 25.8109 9.8125 20.125C9.8125 14.4391 14.4391 9.8125 20.125 9.8125C25.8109 9.8125 30.4375 14.4391 30.4375 20.125C30.4375 20.5206 30.4141 20.9097 30.3719 21.2922C29.7916 21.1478 29.1869 21.0625 28.5625 21.0625C24.4272 21.0625 21.0625 24.4272 21.0625 28.5625C21.0625 29.1869 21.1478 29.7916 21.2922 30.3719C20.9097 30.4141 20.5206 30.4375 20.125 30.4375ZM28.5625 34.1875C25.4603 34.1875 22.9375 31.6647 22.9375 28.5625C22.9375 25.4603 25.4603 22.9375 28.5625 22.9375C31.6647 22.9375 34.1875 25.4603 34.1875 28.5625C34.1875 31.6647 31.6647 34.1875 28.5625 34.1875Z" fill="#F1EB9C"/>
<path d="M31.8432 24.8936L27.1557 29.5811L25.2807 27.7061L23.9551 29.0317L26.4929 31.5695C26.6757 31.7523 26.9157 31.8442 27.1557 31.8442C27.3957 31.8442 27.6357 31.7523 27.8185 31.5695L33.1688 26.2192L31.8432 24.8936Z" fill="#F1EB9C"/>
<path d="M21.062 11.6875H19.187V19.7369L15.0488 23.875L16.3745 25.2006L20.7873 20.7878C20.9635 20.6125 21.062 20.3744 21.062 20.125V11.6875Z" fill="#F1EB9C"/>
</g>
<defs>
<clipPath id="clip0_955_26226">
<rect width="30" height="30" fill="white" transform="translate(7 7)"/>
</clipPath>
</defs>
</svg>
