<svg width="25" height="24" viewBox="0 0 25 24" fill="none" xmlns="http://www.w3.org/2000/svg">
<path d="M9.89378 5.96817C10.1879 6.93595 10.4419 7.77173 11.6578 8.41463C13.4191 9.34589 14.8034 8.97108 15.5612 8.59013L21.1137 0H11.5673L8.96045 4.06022C9.48643 4.62947 9.69353 5.30916 9.89378 5.96817Z" fill="white"/>
<path d="M23.4423 19.6325C21.2977 20.5087 19.474 20.9159 17.9658 20.9398C16.12 20.9398 14.5202 20.4385 13.0792 19.4095C11.7821 18.4833 10.7681 17.2672 9.69456 15.9799L9.66339 15.9425C7.58978 13.4559 4.95597 11.4362 2.35318 10.3203C1.92953 10.6968 1.59798 11.1858 1.38582 11.762C1.01293 12.7747 1.0479 13.9291 1.64598 14.9873C3.01543 15.4357 6.13028 16.4555 8.68904 19.8302C11.6302 23.7092 13.9945 23.9994 17.2659 23.9994C21.0367 23.9994 23.486 22.266 23.8565 21.914L23.4423 19.6325Z" fill="white"/>
<path d="M13.8366 10.4085C13.0082 10.4085 12.051 10.2123 11.0006 9.65692C10.2636 9.26725 9.76845 8.80628 9.41749 8.32422C9.18105 9.99123 8.52434 11.226 7.91309 12.1905C8.9246 13.0478 9.88076 14.0071 10.7434 15.0415L10.7746 15.0789C12.7925 17.4988 14.5347 19.5893 18.107 19.5321C19.0427 19.5173 20.4475 19.3533 23.0892 18.2563C22.4378 16.7534 21.0628 16.5678 20.0149 16.4264C19.5777 16.3674 19.1783 16.3133 18.8493 16.1892H15.7875V14.7829H17.4814C17.1772 14.2747 16.9922 13.771 16.8835 13.3092H14.8294V11.9029H16.7464C16.7474 11.8766 16.7486 11.8507 16.7499 11.8257C16.7971 10.9534 16.581 10.2922 16.28 9.80078C15.7171 10.0978 14.8789 10.4085 13.8366 10.4085Z" fill="white"/>
<path d="M6.80616 11.3098C7.68712 9.89488 8.4997 8.072 7.89937 5.04688C6.39867 5.45441 5.09658 6.41103 4.1093 7.83964C3.765 8.33783 3.50963 8.82027 3.32812 9.21552C4.50516 9.76034 5.67998 10.47 6.80616 11.3098Z" fill="white"/>
</svg>
