<svg width="44" height="44" viewBox="0 0 44 44" fill="none" xmlns="http://www.w3.org/2000/svg">
<rect width="44" height="44" rx="6" fill="#009B73"/>
<g clip-path="url(#clip0_955_26246)">
<path d="M31.5074 14.4614C29.4948 12.4488 26.8946 11.2378 24.0938 10.987V9.1875H25.7891V7H20.2109V9.1875H21.9062V10.987C19.1054 11.2378 16.5052 12.4488 14.4926 14.4614C12.2202 16.7338 10.9688 19.755 10.9688 22.9688C10.9688 26.0599 12.1271 28.9726 14.2376 31.2125L15.938 32.7117C17.9785 34.1973 20.4274 35 23 35C25.5656 35 28.0081 34.2016 30.0453 32.7237L31.7448 31.2314C33.8666 28.989 35.0313 26.0685 35.0313 22.9688C35.0313 19.755 33.7798 16.7338 31.5074 14.4614ZM13.1563 22.9688C13.1563 17.5409 17.5722 13.125 23 13.125C28.4278 13.125 32.8438 17.5409 32.8438 22.9688C32.8438 28.3966 28.4278 32.8125 23 32.8125C17.5722 32.8125 13.1563 28.3966 13.1563 22.9688ZM24.0938 22.5157L27.4113 25.8332L25.8645 27.38L21.9062 23.4218V15.4766H24.0938V22.5157Z" fill="#F1EB9C" stroke="#01B47E"/>
</g>
<defs>
<clipPath id="clip0_955_26246">
<rect width="28" height="28" fill="white" transform="translate(9 7)"/>
</clipPath>
</defs>
</svg>
