<svg width="16" height="16" viewBox="0 0 16 16" fill="none" xmlns="http://www.w3.org/2000/svg">
<g clip-path="url(#clip0_43_9777)">
<mask id="mask0_43_9777" style="mask-type:luminance" maskUnits="userSpaceOnUse" x="0" y="0" width="16" height="16">
<path d="M0 9.53674e-07H16V16H0V9.53674e-07Z" fill="white"/>
</mask>
<g mask="url(#mask0_43_9777)">
<path d="M15.5313 8.18906V14.5944C15.5313 15.1119 15.1119 15.5312 14.5944 15.5312H8.18908C7.67158 15.5312 7.25189 15.1119 7.25189 14.5944V8.74813H7.81095C8.32845 8.74813 8.74814 8.32844 8.74814 7.81094V7.25188H11.1394C11.8147 5.54531 13.4616 5.37813 13.4616 5.37813V7.25188H14.5944C15.1119 7.25188 15.5313 7.67156 15.5313 8.18906Z" stroke="#26D07C" stroke-miterlimit="10" stroke-linecap="round" stroke-linejoin="round"/>
<path d="M8.74812 1.40582V7.81113C8.74812 8.32863 8.32844 8.74832 7.81094 8.74832H4.86062C4.18531 10.4549 2.53844 10.6221 2.53844 10.6221V8.74832H1.40562C0.888125 8.74832 0.46875 8.32863 0.46875 7.81113V1.40582C0.46875 0.888321 0.888125 0.468946 1.40562 0.468946H7.81094C8.32844 0.468946 8.74812 0.888321 8.74812 1.40582Z" stroke="#26D07C" stroke-miterlimit="10" stroke-linecap="round" stroke-linejoin="round"/>
<path d="M9.51001 13.2734L11.3917 9.51016L13.2733 13.2734" stroke="#26D07C" stroke-miterlimit="10" stroke-linecap="round" stroke-linejoin="round"/>
<path d="M9.98041 12.332H12.8029" stroke="#26D07C" stroke-miterlimit="10" stroke-linejoin="round"/>
<path d="M11.2882 1.40957H11.7586C13.837 1.40957 15.5219 3.09445 15.5219 5.17285" stroke="#26D07C" stroke-miterlimit="10" stroke-linecap="round" stroke-linejoin="round"/>
<path d="M11.7586 2.35059L10.8178 1.40977L11.7586 0.46893" stroke="#26D07C" stroke-miterlimit="10" stroke-linecap="round" stroke-linejoin="round"/>
<path d="M4.70244 14.5811H4.23203C2.15362 14.5811 0.46875 12.8962 0.46875 10.8178" stroke="#26D07C" stroke-miterlimit="10" stroke-linecap="round" stroke-linejoin="round"/>
<path d="M4.23206 13.6398L5.17287 14.5806L4.23206 15.5215" stroke="#26D07C" stroke-miterlimit="10" stroke-linecap="round" stroke-linejoin="round"/>
</g>
<path d="M5.73798 6.49416C5.48916 6.6887 5.19025 6.79151 4.87356 6.79151C4.09892 6.79151 3.46873 6.16132 3.46873 5.38668C3.46873 4.61204 4.09892 3.98184 4.87356 3.98184H5.50401C5.63345 3.98184 5.73839 3.8769 5.73839 3.74746C5.73839 3.61803 5.63345 3.51309 5.50401 3.51309C5.50401 3.51309 4.75825 3.51309 4.74746 3.51309C4.45955 3.51309 4.2253 3.27883 4.2253 2.99092C4.2253 2.70301 4.45955 2.46876 4.74746 2.46876C4.89581 2.46876 5.03769 2.53223 5.13675 2.64285C5.22307 2.73929 5.37126 2.74748 5.46769 2.66114C5.56413 2.57479 5.57232 2.42663 5.48598 2.33019C5.29813 2.12035 5.02894 2 4.74746 2C4.20108 2 3.75654 2.44454 3.75654 2.99092C3.75654 3.26902 3.87186 3.52055 4.05699 3.70071C3.43191 4.00472 3 4.64617 3 5.38668C3 6.41979 3.84048 7.26027 4.87359 7.26027C5.29591 7.26027 5.69467 7.12305 6.0267 6.86348C6.12867 6.78376 6.14674 6.63645 6.06702 6.53448C5.98726 6.43251 5.83998 6.41444 5.73798 6.49416Z" fill="#26D07C" stroke="#26D07C" stroke-width="0.3"/>
</g>
<defs>
<clipPath id="clip0_43_9777">
<rect width="16" height="16" fill="white"/>
</clipPath>
</defs>
</svg>
