<svg width="16" height="16" viewBox="0 0 16 16" fill="none" xmlns="http://www.w3.org/2000/svg">
<g clip-path="url(#clip0_43_9741)">
<path d="M14 15.9997H12.6667V12.6377C12.6661 12.115 12.4583 11.6139 12.0887 11.2443C11.7191 10.8747 11.218 10.6669 10.6953 10.6663H5.30467C4.782 10.6669 4.28089 10.8747 3.91131 11.2443C3.54173 11.6139 3.33386 12.115 3.33333 12.6377V15.9997H2V12.6377C2.00106 11.7615 2.34957 10.9216 2.96908 10.3021C3.5886 9.68258 4.42854 9.33407 5.30467 9.33301H10.6953C11.5715 9.33407 12.4114 9.68258 13.0309 10.3021C13.6504 10.9216 13.9989 11.7615 14 12.6377V15.9997Z" fill="#26D07C"/>
<path d="M8 8C7.20888 8 6.43552 7.76541 5.77772 7.32588C5.11992 6.88635 4.60723 6.26164 4.30448 5.53074C4.00173 4.79983 3.92252 3.99556 4.07686 3.21964C4.2312 2.44372 4.61216 1.73098 5.17157 1.17157C5.73098 0.612165 6.44372 0.231202 7.21964 0.0768607C7.99556 -0.0774802 8.79983 0.00173314 9.53074 0.304484C10.2616 0.607234 10.8864 1.11992 11.3259 1.77772C11.7654 2.43552 12 3.20888 12 4C11.9989 5.06054 11.5772 6.07734 10.8273 6.82726C10.0773 7.57718 9.06054 7.99894 8 8ZM8 1.33334C7.47259 1.33334 6.95701 1.48973 6.51848 1.78275C6.07995 2.07577 5.73816 2.49224 5.53632 2.97951C5.33449 3.46678 5.28168 4.00296 5.38457 4.52024C5.48747 5.03753 5.74144 5.51268 6.11438 5.88562C6.48732 6.25856 6.96248 6.51254 7.47976 6.61543C7.99704 6.71832 8.53322 6.66551 9.02049 6.46368C9.50776 6.26185 9.92424 5.92005 10.2173 5.48152C10.5103 5.04299 10.6667 4.52742 10.6667 4C10.6667 3.29276 10.3857 2.61448 9.88562 2.11438C9.38552 1.61429 8.70725 1.33334 8 1.33334Z" fill="#26D07C"/>
</g>
<defs>
<clipPath id="clip0_43_9741">
<rect width="16" height="16" fill="white"/>
</clipPath>
</defs>
</svg>
