<svg width="16" height="16" viewBox="0 0 16 16" fill="none" xmlns="http://www.w3.org/2000/svg">
<path d="M12.5 1H3.5C2.83696 1 2.20107 1.26339 1.73223 1.73223C1.26339 2.20107 1 2.83696 1 3.5V12.5C1 13.163 1.26339 13.7989 1.73223 14.2678C2.20107 14.7366 2.83696 15 3.5 15H12.5C13.163 15 13.7989 14.7366 14.2678 14.2678C14.7366 13.7989 15 13.163 15 12.5V3.5C15 2.83696 14.7366 2.20107 14.2678 1.73223C13.7989 1.26339 13.163 1 12.5 1ZM14 12.5C14 12.8978 13.842 13.2794 13.5607 13.5607C13.2794 13.842 12.8978 14 12.5 14H3.5C3.10218 14 2.72064 13.842 2.43934 13.5607C2.15804 13.2794 2 12.8978 2 12.5V3.5C2 3.10218 2.15804 2.72064 2.43934 2.43934C2.72064 2.15804 3.10218 2 3.5 2H12.5C12.8978 2 13.2794 2.15804 13.5607 2.43934C13.842 2.72064 14 3.10218 14 3.5V12.5ZM12.89 5.41C12.1951 4.59747 11.3318 3.94575 10.36 3.5C9.61342 3.1802 8.80969 3.01531 7.9975 3.01531C7.18531 3.01531 6.38158 3.1802 5.635 3.5C4.67305 3.95461 3.82036 4.61118 3.135 5.425C3.09394 5.47669 3.06352 5.536 3.0455 5.5995C3.02748 5.663 3.02221 5.72945 3.03 5.795C3.03733 5.86025 3.05744 5.92342 3.08918 5.9809C3.12092 6.03838 3.16368 6.08904 3.215 6.13L5.465 7.905C5.51912 7.95024 5.58272 7.98272 5.6511 8.00003C5.71948 8.01734 5.79088 8.01904 5.86 8.005C5.92972 7.99291 5.99608 7.96615 6.05469 7.9265C6.1133 7.88685 6.16283 7.83521 6.2 7.775C6.37895 7.45056 6.63872 7.17788 6.95409 6.9834C7.26947 6.78891 7.62975 6.67924 8 6.665C8.37307 6.67345 8.73751 6.77885 9.0575 6.97084C9.37748 7.16283 9.64198 7.4348 9.825 7.76C9.86217 7.82021 9.9117 7.87185 9.97031 7.9115C10.0289 7.95115 10.0953 7.9779 10.165 7.99C10.1931 7.99517 10.2219 7.99517 10.25 7.99C10.3628 7.98935 10.472 7.95058 10.56 7.88L12.81 6.105C12.8613 6.06404 12.9041 6.01338 12.9358 5.9559C12.9676 5.89842 12.9877 5.83525 12.995 5.77C13.008 5.64092 12.9704 5.51183 12.89 5.41ZM10.345 6.785C9.87648 6.22066 9.2225 5.84139 8.5 5.715V5C8.5 4.86739 8.44732 4.74021 8.35355 4.64645C8.25979 4.55268 8.13261 4.5 8 4.5C7.86739 4.5 7.74021 4.55268 7.64645 4.64645C7.55268 4.74021 7.5 4.86739 7.5 5V5.715C6.7775 5.84139 6.12352 6.22066 5.655 6.785L4.23 5.66C4.75465 5.14053 5.36535 4.71592 6.035 4.405C6.6561 4.13955 7.32455 4.00269 8 4.00269C8.67545 4.00269 9.3439 4.13955 9.965 4.405C10.6347 4.71592 11.2454 5.14053 11.77 5.66L10.345 6.785Z" fill="#26D07C"/>
</svg>
