<svg width="45" height="44" viewBox="0 0 45 44" fill="none" xmlns="http://www.w3.org/2000/svg">
<g clip-path="url(#clip0_1438_10378)">
<path d="M8.41274 25.0518C6.86646 25.6209 6.07146 27.342 6.64061 28.8883C7.20976 30.4346 8.93089 31.2296 10.4772 30.6605C12.0235 30.0913 12.8185 28.3702 12.2493 26.8239C11.6802 25.2776 9.95903 24.4826 8.41274 25.0518ZM9.78903 28.7909C9.27368 28.9806 8.69986 28.7155 8.51018 28.2002C8.32049 27.6848 8.58554 27.111 9.10089 26.9213C9.61624 26.7316 10.1901 26.9967 10.3797 27.512C10.5694 28.0274 10.3044 28.6012 9.78903 28.7909Z" fill="#8950FC"/>
<path d="M24.8603 14.7524L25.5484 16.622L23.6788 17.3101L22.9907 15.4405L17.382 17.505C12.222 19.4043 9.5756 25.1335 11.4749 30.2935C13.3742 35.4535 19.1034 38.0999 24.2634 36.2006C29.33 34.3357 31.9682 28.7579 30.2669 23.6738L31.2175 23.0267L38.8168 17.8732L36.14 10.6006L24.8603 14.7524Z" fill="#8950FC"/>
<path d="M31.2173 23.0268L30.2666 23.6738C31.9679 28.758 29.3297 34.3358 24.2631 36.2007C19.1031 38.1 13.3739 35.4536 11.4746 30.2936L31.2173 23.0268Z" fill="#8950FC"/>
<path d="M19.4462 23.1137C17.3896 23.8707 16.3264 26.1726 17.0833 28.2291C17.8403 30.2856 20.1422 31.3489 22.1987 30.592C24.2553 29.835 25.3185 27.5331 24.5616 25.4765C23.8046 23.42 21.5027 22.3567 19.4462 23.1137Z" fill="#FDBF00"/>
<path d="M24.5613 25.4764C25.3182 27.533 24.2549 29.8349 22.1984 30.5918C20.1419 31.3488 17.84 30.2855 17.083 28.229L24.5613 25.4764Z" fill="#FF9F00"/>
</g>
<defs>
<clipPath id="clip0_1438_10378">
<rect width="34" height="34" fill="white" transform="translate(0.424805 12) rotate(-20.2075)"/>
</clipPath>
</defs>
</svg>
