<svg width="24" height="25" viewBox="0 0 24 25" fill="none" xmlns="http://www.w3.org/2000/svg">
<path fill-rule="evenodd" clip-rule="evenodd" d="M4.49438 14.3578C9.61294 15.2455 14.7316 15.2156 19.8502 14.3578V7.24162C19.8502 7.16055 19.8239 7.08171 19.7753 7.01691L16.4045 2.52252C16.3338 2.42823 16.2227 2.37268 16.1049 2.37268H5.61798C5.32 2.37268 5.03415 2.49106 4.82346 2.70176C4.61276 2.91255 4.49438 3.1983 4.49438 3.49628V12.1106C4.49438 12.6668 4.36395 13.1383 4.36395 13.5141C4.36395 14.0336 4.49438 14.3578 4.49438 14.3578Z" fill="#D8DFE3"/>
<path fill-rule="evenodd" clip-rule="evenodd" d="M2.24719 13.3868V21.4739C2.24719 21.7718 2.36557 22.0577 2.57627 22.2684C2.78697 22.4791 3.07281 22.5974 3.37079 22.5974H20.5993C20.8973 22.5974 21.183 22.4791 21.3938 22.2684C21.6045 22.0577 21.7229 21.7718 21.7229 21.4739C21.7229 20.0387 21.7229 16.9165 21.7229 15.4814C21.7229 15.1834 21.6045 14.8976 21.3938 14.6869C21.183 14.4762 20.8973 14.3578 20.5993 14.3578H3.74535C3.26751 14.3578 2.24719 13.3868 2.24719 13.3868Z" fill="#1FB35B"/>
<path fill-rule="evenodd" clip-rule="evenodd" d="M3.37079 14.3578C3.02886 14.3578 2.77924 14.2191 2.59551 14.0483C2.42265 13.8876 2.24719 13.6043 2.24719 13.2342C2.24719 12.9966 2.36557 12.6504 2.57627 12.4397C2.78697 12.229 3.07281 12.1106 3.37079 12.1106H4.49438V14.3578C4.49438 14.3578 4.59065 14.3578 3.37079 14.3578Z" fill="#198043"/>
<path fill-rule="evenodd" clip-rule="evenodd" d="M11.6105 12.8596V9.48877H6.74158V12.485C6.74158 12.6919 6.90922 12.8596 7.11614 12.8596H11.6105Z" fill="#1FB35B"/>
<path fill-rule="evenodd" clip-rule="evenodd" d="M11.6105 5.36902H7.11614C6.90922 5.36902 6.74158 5.53666 6.74158 5.74349V8.73981H11.6105V5.36902Z" fill="#1FB35B"/>
<path fill-rule="evenodd" clip-rule="evenodd" d="M17.2285 9.48877H12.3596V12.8596H16.8539C17.0608 12.8596 17.2285 12.6919 17.2285 12.485V9.48877Z" fill="#1FB35B"/>
<path fill-rule="evenodd" clip-rule="evenodd" d="M16.1049 5.36902H12.3596V8.73981H17.2285V7.24165C17.2285 7.03491 17.0607 6.86709 16.8539 6.86709C16.6472 6.86709 16.4794 5.95023 16.4794 5.74349C16.4794 5.53684 16.3116 5.36902 16.1049 5.36902Z" fill="#1FB35B"/>
<path fill-rule="evenodd" clip-rule="evenodd" d="M16.1049 2.37268V6.11803C16.1049 6.41601 16.2233 6.70185 16.434 6.91255C16.6447 7.12324 16.9304 7.24162 17.2285 7.24162H19.8502C19.8502 7.16055 19.8239 7.08171 19.7753 7.01691L16.4045 2.52252C16.3338 2.42823 16.2227 2.37268 16.1049 2.37268Z" fill="#AFBDC7"/>
<path fill-rule="evenodd" clip-rule="evenodd" d="M11.0019 16.6049V20.3502C11.0019 20.5571 11.1695 20.7247 11.3764 20.7247H13.7172C13.9239 20.7247 14.0918 20.5569 14.0918 20.3502C14.0918 20.1435 13.9239 19.9757 13.7172 19.9757H11.7509V16.6049C11.7509 16.3982 11.5831 16.2303 11.3764 16.2303C11.1697 16.2303 11.0019 16.3982 11.0019 16.6049Z" fill="#D8DFE3"/>
<path fill-rule="evenodd" clip-rule="evenodd" d="M7.25752 20.5969L10.5346 16.8515C10.6708 16.696 10.655 16.4592 10.4994 16.3231C10.3439 16.187 10.1071 16.2027 9.97096 16.3583L6.69375 20.1037C6.55766 20.2592 6.57348 20.496 6.72898 20.6321C6.88458 20.7682 7.12143 20.7525 7.25752 20.5969Z" fill="#D8DFE3"/>
<path fill-rule="evenodd" clip-rule="evenodd" d="M10.5346 20.1037L7.25752 16.3583C7.12143 16.2027 6.88458 16.187 6.72898 16.3231C6.57348 16.4592 6.55766 16.696 6.69375 16.8515L9.97096 20.5969C10.1071 20.7525 10.3439 20.7682 10.4994 20.6321C10.655 20.496 10.6708 20.2592 10.5346 20.1037Z" fill="#D8DFE3"/>
<path fill-rule="evenodd" clip-rule="evenodd" d="M14.2791 19.4162L14.279 19.4161V19.6019C14.279 19.8996 14.3973 20.1853 14.6079 20.3958C14.8185 20.6064 15.1041 20.7247 15.4019 20.7247H16.246C16.5438 20.7247 16.8295 20.6064 17.04 20.3958C17.2506 20.1853 17.3689 19.8996 17.3689 19.6019C17.3689 19.5515 17.3689 19.5015 17.3689 19.4528C17.3689 18.9934 17.0892 18.5803 16.6626 18.4096L15.3008 17.8649C15.1361 17.799 15.028 17.6395 15.028 17.4622V17.3539C15.028 17.2546 15.0675 17.1593 15.1378 17.0891C15.208 17.0188 15.3033 16.9794 15.4026 16.9794H16.2453C16.3446 16.9794 16.4399 17.0188 16.5101 17.0891C16.5804 17.1593 16.6199 17.2546 16.6199 17.3539V17.5389C16.6199 17.6446 16.6666 17.7403 16.7135 17.7888C16.7867 17.8718 16.8917 17.9157 16.9943 17.9157C17.1767 17.9157 17.3689 17.775 17.3689 17.5389V17.3539C17.3689 17.056 17.2505 16.7701 17.0398 16.5594C16.8291 16.3487 16.5433 16.2303 16.2453 16.2303H15.4026C15.1046 16.2303 14.8188 16.3487 14.6081 16.5594C14.3974 16.7701 14.279 17.056 14.279 17.3539V17.4622C14.279 17.9458 14.5735 18.3807 15.0226 18.5603L16.3844 19.1051C16.5266 19.1619 16.6199 19.2997 16.6199 19.4528V19.6019C16.6199 19.701 16.5805 19.7961 16.5104 19.8662C16.4403 19.9363 16.3452 19.9757 16.246 19.9757H15.4019C15.3027 19.9757 15.2076 19.9363 15.1375 19.8662C15.0675 19.7961 15.0281 19.701 15.0281 19.6019C15.028 19.6019 15.028 19.6019 15.028 19.4161C15.028 19.1691 14.8268 19.0392 14.6601 19.0392C14.5021 19.0392 14.279 19.1617 14.279 19.4139C14.279 19.4162 14.2791 19.4162 14.2791 19.4162Z" fill="#D8DFE3"/>
</svg>
