<svg width="42" height="41" viewBox="0 0 42 41" fill="none" xmlns="http://www.w3.org/2000/svg">
<path d="M34.2604 5.96671C34.2604 8.98071 31.8076 11.4334 28.7936 11.4334C25.7799 11.4334 23.3271 8.98072 23.3271 5.96671C23.3271 2.95271 25.7799 0.5 28.7936 0.5C31.8076 0.5 34.2604 2.95272 34.2604 5.96671ZM32.1937 5.96671C32.1937 4.0915 30.6689 2.5667 28.7936 2.5667C26.9184 2.5667 25.3939 4.09155 25.3939 5.96671C25.3939 7.84187 26.9184 9.36672 28.7936 9.36672C30.6689 9.36672 32.1937 7.84192 32.1937 5.96671Z" fill="#008755" stroke="#008755"/>
<path d="M22.0976 15.0726C17.8342 13.2504 14.2512 12.878 11.8711 14.2735C10.5319 15.0586 9.78047 16.2798 9.36549 17.2774C8.94997 18.2762 8.85363 19.0933 8.84888 19.1373L8.84882 19.1379C8.79217 19.6691 8.34228 20.0657 7.82185 20.0657C7.7877 20.0657 7.7526 20.064 7.71692 20.0604C7.14956 20.0029 6.73791 19.502 6.79191 18.9381L6.79192 18.938C6.79801 18.8742 6.91012 17.7845 7.47152 16.4474C8.03245 15.1115 9.02939 13.5569 10.7902 12.5116L10.7902 12.5116C13.6689 10.8027 17.708 10.9488 22.9102 13.1721C35.1206 18.3908 39.4723 15.2376 39.7418 14.9756C40.148 14.5751 40.8021 14.5798 41.203 14.9863C41.6034 15.3927 41.5987 16.0469 41.1922 16.4476L41.1921 16.4477C40.9737 16.663 39.2246 18.2465 34.9063 18.2467C31.9576 18.2469 27.7978 17.5086 22.0976 15.0726ZM22.0976 15.0726L21.9011 15.5324M22.0976 15.0726L21.9011 15.5324M21.9011 15.5324C27.647 17.9879 31.8742 18.7469 34.9063 18.7467C39.3627 18.7465 41.236 17.1065 41.5431 16.8037L6.29419 18.8904C6.2138 19.73 6.82736 20.4728 7.66654 20.5578C7.71867 20.5631 7.77059 20.5657 7.82185 20.5657C8.59663 20.5657 9.2621 19.9776 9.346 19.191C9.34928 19.1605 9.69976 16.126 12.124 14.7048C14.2865 13.4369 17.6677 13.723 21.9011 15.5324Z" fill="#008755" stroke="#008755"/>
<path d="M20.2525 19.6438L20.2525 19.6438C12.9331 26.601 1.734 37.2096 0.913578 37.8862L0.907446 37.8913L0.901156 37.8962C0.455218 38.2407 0.367392 38.8811 0.70688 39.3335L0.706932 39.3336C0.909719 39.6039 1.21921 39.747 1.53474 39.747C1.75011 39.747 1.96716 39.6799 2.15357 39.5401L20.2525 19.6438ZM20.2525 19.6438C20.6653 19.2514 21.3174 19.2669 21.7111 19.6785C21.7111 19.6785 21.7111 19.6785 21.7112 19.6785L30.1573 28.5091L30.1573 28.5091C31.106 29.5008 31.3587 30.8919 30.8194 32.1542L30.8193 32.1542M20.2525 19.6438L30.8193 32.1542M20.9297 21.8514L21.2741 22.2115L28.664 29.9374C29.1989 30.4966 29.0116 31.1259 28.9192 31.3419L20.9297 21.8514ZM20.9297 21.8514L20.5684 22.1946M20.9297 21.8514L20.5684 22.1946M20.5684 22.1946C17.9118 24.7187 13.472 28.933 9.6092 32.5817M20.5684 22.1946L9.6092 32.5817M30.8193 32.1542C30.2803 33.4162 29.1003 34.1953 27.7277 34.1953H17.6124C17.0417 34.1953 16.579 33.7327 16.579 33.162C16.579 32.5913 17.0417 32.1286 17.6124 32.1286H27.7279C28.5019 32.1286 28.8268 31.558 28.9189 31.3425L30.8193 32.1542ZM9.6092 32.5817C7.67773 34.4061 5.89108 36.0886 4.54391 37.3475M9.6092 32.5817L4.54391 37.3475M4.54391 37.3475C3.8702 37.9771 3.30727 38.4999 2.89143 38.8813M4.54391 37.3475L2.89143 38.8813M2.89143 38.8813C2.4632 39.274 2.21608 39.4932 2.1537 39.54L2.89143 38.8813Z" fill="#008755" stroke="#008755"/>
</svg>
