<svg width="48" height="51" viewBox="0 0 48 51" fill="none" xmlns="http://www.w3.org/2000/svg">
<path d="M47.3053 25.7796L47.3053 25.7667C47.3088 23.2977 46.252 21.0731 44.4057 19.6632C42.9727 18.5691 41.1912 18.0628 39.3532 18.1964C38.9962 16.392 38.0399 14.8115 36.6098 13.7195L36.6085 13.7185C35.1782 12.6268 33.4012 12.1208 31.5664 12.2522C31.2096 10.447 30.253 8.86563 28.8223 7.77329C27.3917 6.68107 25.6145 6.17491 23.7793 6.30631C23.4224 4.50153 22.4661 2.92088 21.0356 1.82871C19.1878 0.417797 16.7615 -0.015342 14.3788 0.640402C13.8859 0.776145 13.5056 1.16957 13.3868 1.667L6.50028 30.4798L2.0305 36.3335C-0.940141 40.2239 -0.195618 45.803 3.69016 48.7701C7.57594 51.7372 13.1541 50.986 16.1247 47.0956L20.5945 41.2419L46.5763 27.0099C47.0258 26.7637 47.3053 26.2919 47.3053 25.7796ZM10.8944 35.2246C10.8955 35.2254 10.8965 35.2264 10.8975 35.2272C10.8988 35.2282 10.9002 35.229 10.9016 35.23L14.8528 38.2471C14.8541 38.2481 14.8553 38.2493 14.8567 38.2503C14.8577 38.2511 14.8589 38.2518 14.86 38.2526L17.6989 40.4204L15.9976 42.6484L6.35418 35.2849L8.05548 33.0568L10.8944 35.2246ZM13.8993 45.3963C11.8668 48.0582 8.05015 48.5721 5.39146 46.542C2.73277 44.5119 2.22336 40.6946 4.25591 38.0328L4.65288 37.5129L14.2963 44.8765L13.8993 45.3963ZM19.7896 38.4896L17.848 37.0071L30.2918 24.9285C30.8473 24.3894 30.8611 23.5023 30.3228 22.9473C29.7842 22.3923 28.8977 22.3795 28.3422 22.9186L15.5979 35.2889L13.5591 33.7321L22.1361 18.1796C22.5099 17.5018 22.264 16.6497 21.5868 16.2766C20.9096 15.9035 20.0575 16.1504 19.6838 16.8283L11.309 32.014L9.36741 30.5314L15.9033 3.18534C17.1651 3.02755 18.3834 3.33072 19.3344 4.05688C20.4814 4.93269 21.1374 6.3463 21.1342 7.93517C21.1333 8.37798 21.3416 8.79038 21.697 9.05955C22.0435 9.31813 22.4901 9.40144 22.9061 9.28699C24.4379 8.86543 25.9742 9.12591 27.1211 10.0016C28.2681 10.8773 28.924 12.2906 28.9211 13.8793C28.921 13.8935 28.9213 13.9099 28.9217 13.9241C28.9353 14.4001 29.1904 14.8363 29.5972 15.0821C29.9313 15.2839 30.3311 15.3348 30.7 15.231C32.2293 14.8121 33.7624 15.073 34.9076 15.9471L34.9084 15.9477C36.0528 16.8215 36.7084 18.2308 36.7082 19.8153C36.7035 20.2518 36.9027 20.6656 37.247 20.9341C37.5941 21.2039 38.0504 21.2964 38.4761 21.1801L38.4923 21.1756C40.0232 20.7553 41.5584 21.0162 42.7044 21.8913C43.6574 22.619 44.2714 23.7179 44.45 24.9814L19.7896 38.4896Z" fill="#008755" stroke="white" stroke-width="0.3"/>
</svg>
