<svg width="42" height="42" viewBox="0 0 42 42" fill="none" xmlns="http://www.w3.org/2000/svg">
<path d="M42 13.2833C42 12.2449 41.5955 11.2685 40.8611 10.5344L38.9124 8.58574L39.9051 7.59307C39.9107 7.58766 39.9162 7.58216 39.9217 7.57667C41.4376 6.06097 41.4376 3.59445 39.9217 2.07827C39.1874 1.34392 38.211 0.939506 37.1725 0.939506C36.1341 0.939506 35.1576 1.34392 34.4231 2.0781C34.4169 2.08434 34.4106 2.09065 34.4045 2.09705L33.414 3.08742L31.4653 1.13868C30.731 0.404415 29.7547 0 28.7161 0C27.6775 0 26.7011 0.404497 25.9668 1.13884C25.5815 1.52423 25.2947 1.97113 25.1053 2.44823C24.5011 2.07769 23.8051 1.87909 23.0785 1.87909C22.0399 1.87909 21.0634 2.28351 20.3287 3.0181C18.8133 4.53388 18.8133 7.00031 20.3289 8.51634L24.1568 12.3439L12.3424 24.1578L8.51442 20.3301C7.78021 19.5959 6.80383 19.1915 5.76544 19.1915C4.72688 19.1915 3.75042 19.5959 3.01564 20.3304C1.72277 21.6234 1.5336 23.6076 2.4464 25.1039C1.96182 25.297 1.5167 25.5877 1.13671 25.9678C-0.378877 27.4835 -0.378959 29.9498 1.1368 31.4659L3.08537 33.4143L2.07634 34.4233C1.34196 35.1577 0.937451 36.134 0.937451 37.1725C0.937451 38.2111 1.34196 39.1874 2.07626 39.9215C2.81055 40.6559 3.78701 41.0604 4.82565 41.0604C5.85486 41.0604 6.82295 40.6631 7.55494 39.9413C7.56175 39.9349 7.56848 39.9283 7.57512 39.9216L8.58399 38.9128L10.5327 40.8614C11.2668 41.5956 12.2432 41.9999 13.2819 42H13.282C14.3207 42 15.2972 41.5955 16.0318 40.861C16.4169 40.4758 16.7037 40.0289 16.8931 39.5521C17.4971 39.9224 18.1929 40.1209 18.9194 40.121H18.9195C19.9579 40.121 20.9346 39.7166 21.6691 38.9821C22.4034 38.2478 22.8077 37.2715 22.8077 36.2329C22.8077 35.1943 22.4033 34.218 21.669 33.4838L17.841 29.656L29.6557 17.8422L33.4837 21.6697C34.218 22.4039 35.1944 22.8083 36.2329 22.8083H36.2331C37.2714 22.8083 38.2478 22.4039 38.982 21.6697C39.7166 20.9355 40.1212 19.9591 40.1212 18.9205C40.1212 18.1945 39.923 17.4993 39.5531 16.8954C40.037 16.7024 40.4816 16.4119 40.8614 16.0324C41.5956 15.2981 42 14.3218 42 13.2833ZM5.85149 38.1648C5.84583 38.1703 5.84009 38.1759 5.83443 38.1816C5.56503 38.451 5.20678 38.5995 4.82565 38.5995C4.44452 38.5995 4.08611 38.451 3.81646 38.1814C3.54698 37.9119 3.39849 37.5537 3.39849 37.1725C3.39849 36.7914 3.54698 36.433 3.81654 36.1635L4.8254 35.1546L6.8437 37.1726L5.85149 38.1648ZM35.1543 4.82763L36.1625 3.81955C36.1673 3.81479 36.1718 3.81011 36.1764 3.80536C36.4447 3.54409 36.7976 3.40045 37.1726 3.40045C37.5537 3.40045 37.9121 3.54893 38.1814 3.81823C38.734 4.37096 38.738 5.26765 38.1932 5.82489C38.1889 5.82899 38.1846 5.83317 38.1805 5.83736L37.1723 6.84552L36.1634 5.83654L35.1543 4.82763ZM27.7072 2.87881C27.9766 2.60934 28.3349 2.46094 28.7161 2.46094C29.0973 2.46094 29.4556 2.60934 29.7251 2.87889L34.4231 7.57675L36.3022 9.45584C36.3024 9.45601 36.3025 9.45617 36.3028 9.45634L39.1211 12.2746C39.3906 12.5441 39.539 12.9023 39.539 13.2833C39.539 13.6645 39.3906 14.0229 39.1212 14.2923C38.8515 14.5619 38.4931 14.7104 38.1119 14.7104C37.7314 14.7104 37.3737 14.5623 37.1043 14.2937L27.705 4.89506C27.1509 4.33856 27.1514 3.43466 27.7072 2.87881ZM14.2914 39.1209C14.0217 39.3905 13.6632 39.5391 13.2819 39.5391C12.9007 39.539 12.5422 39.3906 12.2728 39.1213L9.45462 36.3032C9.45438 36.3029 9.45421 36.3027 9.45405 36.3025L8.8561 35.7047L2.87716 29.7259C2.32088 29.1695 2.3208 28.2643 2.87716 27.7078C3.14673 27.4381 3.50506 27.2896 3.88627 27.2896C4.26691 27.2896 4.62466 27.4378 4.89415 27.7068L14.2965 37.1088C14.8472 37.6656 14.8457 38.5666 14.2914 39.1209ZM20.3465 36.2329C20.3465 36.6141 20.1981 36.9726 19.9287 37.242C19.6591 37.5116 19.3007 37.66 18.9194 37.66C18.9194 37.66 18.9194 37.66 18.9193 37.66C18.5381 37.66 18.1796 37.5116 17.9101 37.2421L16.042 35.3741C16.0384 35.3705 16.0351 35.3666 16.0315 35.363L6.63533 25.9676L6.63509 25.9674L4.75608 24.0884C4.19973 23.5322 4.19973 22.627 4.75592 22.0706C5.02565 21.801 5.38422 21.6524 5.76552 21.6524C6.14657 21.6524 6.50482 21.8008 6.77422 22.0702L11.4715 26.7672C11.4718 26.7675 11.472 26.7678 11.4723 26.7682L14.9957 30.2912L19.9289 35.2241C20.1982 35.4935 20.3465 35.8517 20.3465 36.2329ZM16.1007 27.9159L15.0916 26.907L14.0826 25.898L25.8971 14.084L27.9155 16.1021L16.1007 27.9159ZM37.2418 19.9295C36.9723 20.199 36.614 20.3475 36.233 20.3475C35.8517 20.3475 35.4932 20.199 35.2236 19.9295L30.5288 15.2351C30.5278 15.2341 30.527 15.2329 30.5259 15.2318L26.7672 11.4737C26.7666 11.4731 26.766 11.4726 26.7655 11.472L22.0693 6.77629C21.5131 6.21979 21.5131 5.31432 22.0691 4.75799C22.3387 4.48835 22.6972 4.33987 23.0785 4.33987C23.4597 4.33987 23.8182 4.48835 24.0877 4.7579L25.9615 6.6315C25.9632 6.63331 25.9648 6.63527 25.9666 6.637L35.3629 16.0325C35.3638 16.0334 35.3646 16.0343 35.3655 16.035L37.242 17.9114C37.5116 18.181 37.6601 18.5393 37.6601 18.9205C37.66 19.3017 37.5116 19.6599 37.2418 19.9295Z" fill="#008755"/>
</svg>
