<svg width="42" height="42" viewBox="0 0 42 42" fill="none" xmlns="http://www.w3.org/2000/svg">
<path d="M39.0762 2.82581C36.2632 1.20242 32.6973 2.18769 31.0945 4.96509C28.9934 8.60282 30.137 9.258 28.2818 12.4724C27.3306 14.2019 24.8181 15.074 22.762 16.0257C19.318 13.3809 15.2149 13.0268 13.7152 10.4294C11.8693 7.23225 13.0022 6.55878 10.9028 2.92252C9.27899 0.108703 5.69802 -0.820213 2.92071 0.783652C0.130351 2.39482 -0.828999 5.97554 0.782003 8.76565C2.88486 12.4078 4.0264 11.7493 5.87726 14.9548C6.64523 16.2848 6.56172 17.9048 6.3733 19.7656C2.59086 21.7265 0.000167973 25.6791 0.000167973 30.2256C-0.0501989 39.876 11.2375 45.451 18.8388 39.639L22.6419 41.8349C23.0163 42.051 23.4765 42.0548 23.8544 41.8451C24.1409 41.6861 30.9107 37.8816 34.3367 31.9473C37.8322 26.0009 34.1386 20.8767 36.1197 16.9978C37.9659 13.8005 39.1155 14.445 41.215 10.8087C42.8435 7.98825 41.8458 4.42508 39.0762 2.82581ZM15.1735 14.8134C16.8289 15.6767 18.6482 16.293 20.3128 17.3222C19.3173 17.9476 18.2841 18.7586 17.3633 19.8615C14.8323 18.4764 11.7324 18.0907 8.92642 18.798C8.93463 18.668 8.94143 18.5381 8.94701 18.4081L15.1735 14.8134ZM11.2262 11.0049C11.3345 11.2136 11.4536 11.4312 11.5853 11.6594C11.9506 12.292 12.3985 12.8233 12.9025 13.283L8.75752 15.6759C8.61143 15.0097 8.37501 14.3563 8.00973 13.7238C7.87807 13.4957 7.74912 13.2837 7.62254 13.0856L11.2262 11.0049ZM6.08275 11.133C4.93112 9.96904 4.13788 9.65355 2.91447 7.53462C1.97998 5.91623 2.53549 3.84791 4.15248 2.91432C5.77086 1.97974 7.83952 2.53517 8.77278 4.15224C9.99602 6.27093 9.87289 7.11601 10.305 8.6951L6.08275 11.133ZM11.7744 39.5388C6.639 39.5388 2.46117 35.3609 2.46117 30.2256C2.97272 17.8705 20.5778 17.874 21.0876 30.2257C21.0876 35.3609 16.9097 39.5388 11.7744 39.5388ZM32.2073 30.7168C29.6784 35.0974 24.9086 38.3131 23.2487 39.3424L20.717 37.8807C24.9404 33.1112 24.3192 25.3016 19.4044 21.26C21.4742 18.9144 24.242 18.193 26.827 16.8564L33.0532 20.4515C33.2224 23.9582 34.2385 27.1633 32.2073 30.7168ZM33.9906 15.7672C33.6254 16.3998 33.3892 17.0533 33.2431 17.7195L29.0981 15.3261C29.6019 14.8664 30.0498 14.3352 30.4151 13.7026C30.547 13.4741 30.6657 13.2568 30.7742 13.0484L34.3778 15.129C34.2512 15.3273 34.1222 15.5392 33.9906 15.7672ZM39.0858 9.57808C37.8625 11.6968 37.0691 12.0126 35.9175 13.1764L31.6948 10.7384C32.1231 9.16686 32.0082 8.30661 33.2276 6.19555C34.1606 4.5788 36.2294 4.02313 37.8477 4.95713C39.4631 5.88982 40.0184 7.96273 39.0858 9.57808Z" fill="#008755"/>
<path d="M14.4101 28.2891C13.7309 28.2891 13.1797 28.8403 13.1797 29.5195C13.245 31.1516 15.5756 31.1511 15.6406 29.5195C15.6406 28.8403 15.0894 28.2891 14.4101 28.2891Z" fill="#008755"/>
<path d="M11.7744 23.7227C11.0952 23.7227 10.5439 24.2739 10.5439 24.9531C10.6092 26.5852 12.9398 26.5847 13.0049 24.9531C13.0049 24.2739 12.4536 23.7227 11.7744 23.7227Z" fill="#008755"/>
<path d="M9.13866 28.2891C8.45945 28.2891 7.9082 28.8403 7.9082 29.5195C7.9735 31.1516 10.3041 31.1511 10.3691 29.5195C10.3691 28.8403 9.81788 28.2891 9.13866 28.2891Z" fill="#008755"/>
</svg>
