<svg width="42" height="42" viewBox="0 0 42 42" fill="none" xmlns="http://www.w3.org/2000/svg">
<path d="M34.7356 23.8592C33.3557 25.2393 31.1217 25.2393 29.7418 23.8593C29.7418 23.8592 29.7418 23.8592 29.7418 23.8592M34.7356 23.8592L29.9186 19.0421C28.6391 20.3214 28.6391 22.4031 29.9186 23.6825L29.7418 23.8592M34.7356 23.8592C36.1158 22.4792 36.1158 20.2454 34.7356 18.8653C33.3557 17.4853 31.1218 17.4853 29.7418 18.8653C28.3647 20.2423 28.3647 22.4823 29.7418 23.8592M34.7356 23.8592H29.7418M31.1612 0.252528L31.1614 0.25254C31.4383 0.269032 32.8283 0.367876 34.4432 0.758554C36.0666 1.1513 37.874 1.8291 39.0225 2.97759C40.171 4.12609 40.8488 5.93345 41.2415 7.55689C41.6322 9.17177 41.731 10.5619 41.7475 10.8387C41.7712 11.2356 41.6239 11.6236 41.3426 11.9049L36.7021 16.5452L36.5254 16.722L36.7021 16.8988C39.1632 19.3598 39.1632 23.3649 36.7022 25.8259C34.2351 28.293 30.2421 28.2932 27.775 25.8259L27.5983 25.6492L27.4215 25.8259L21.621 31.6264L21.7977 31.8031L21.621 31.6264C20.7383 32.5091 19.5659 32.9947 18.3175 32.9947C17.6078 32.9947 16.9234 32.8374 16.3027 32.5403L16.1431 32.4639L16.018 32.589L8.22535 40.3816L8.40213 40.5584L8.22534 40.3816C7.34265 41.2644 6.1702 41.75 4.92187 41.75C3.67356 41.75 2.50117 41.2643 1.61838 40.3816C0.735617 39.4989 0.25 38.3265 0.25 37.0781C0.25 35.8297 0.735618 34.6574 1.61838 33.7747L1.44162 33.5979L1.61839 33.7747L9.41103 25.982L9.53615 25.8569L9.45975 25.6973C9.16265 25.0767 9.00527 24.3923 9.00527 23.6826C9.00527 22.4341 9.49089 21.2618 10.3737 20.379L30.0953 0.657345C30.3766 0.376052 30.7643 0.228553 31.1612 0.252528ZM11.5337 28.1461L11.357 27.9693L11.1802 28.1461L3.58501 35.7413C2.84613 36.4802 2.84615 37.676 3.585 38.415L3.76179 38.2382L3.58501 38.415C4.32232 39.1523 5.52142 39.1523 6.25873 38.415L13.8539 30.8198L14.0307 30.643L13.8539 30.4663L11.5337 28.1461ZM33.8737 15.2641L34.0129 15.3012L34.1148 15.1993L38.8333 10.4809L38.9189 10.3953L38.9049 10.2751C38.8029 9.40192 38.6056 8.34047 38.3059 7.36744C38.009 6.40387 37.6005 5.48888 37.0558 4.9442C36.4669 4.3553 35.4885 3.94177 34.5055 3.65346C33.5125 3.36224 32.4729 3.18716 31.7238 3.09728L31.6031 3.08281L31.5172 3.16872L12.3402 22.3458C11.9835 22.7025 11.7864 23.1781 11.7864 23.6826C11.7864 24.1872 11.9835 24.6628 12.3402 25.0195L13.5003 26.1796L13.6771 26.3564L13.8538 26.1796L19.6543 20.3792L19.6543 20.3792C20.1973 19.8361 21.0778 19.8361 21.6209 20.3792C22.164 20.9222 22.164 21.8027 21.6209 22.3458L15.8205 28.1462L15.6437 28.323L15.8205 28.4997L16.9805 29.6598C17.3372 30.0165 17.8129 30.2136 18.3174 30.2136C18.8219 30.2136 19.2976 30.0165 19.6543 29.6598L26.0791 23.235L26.1809 23.1332L26.1439 22.994C25.5839 20.8869 26.1271 18.5467 27.775 16.8988C29.4327 15.2412 31.7632 14.7021 33.8737 15.2641Z" fill="#008755" stroke="white" stroke-width="0.5"/>
</svg>
