<svg width="46" height="29" viewBox="0 0 46 29" fill="none" xmlns="http://www.w3.org/2000/svg">
<path d="M19.2742 18.7973C19.2742 20.5055 18.7676 22.1754 17.8186 23.5958C16.8695 25.0161 15.5206 26.1232 13.9424 26.7769C12.3642 27.4306 10.6275 27.6017 8.95209 27.2684C7.27665 26.9351 5.73767 26.1125 4.52975 24.9046C3.32183 23.6967 2.49922 22.1577 2.16596 20.4823C1.83269 18.8068 2.00374 17.0702 2.65746 15.492C3.31118 13.9138 4.41822 12.5648 5.83859 11.6158C7.25895 10.6667 8.92885 10.1602 10.6371 10.1602" stroke="#008755" stroke-width="3" stroke-linecap="round"/>
<path d="M26.7258 18.7973C26.7258 20.5055 27.2324 22.1754 28.1814 23.5958C29.1305 25.0161 30.4794 26.1232 32.0576 26.7769C33.6358 27.4306 35.3725 27.6017 37.0479 27.2684C38.7233 26.9351 40.2623 26.1125 41.4703 24.9046C42.6782 23.6967 43.5008 22.1577 43.834 20.4823C44.1673 18.8068 43.9963 17.0702 43.3425 15.492C42.6888 13.9138 41.5818 12.5648 40.1614 11.6158C38.741 10.6667 37.0712 10.1602 35.3629 10.1602" stroke="#008755" stroke-width="3" stroke-linecap="round"/>
<path d="M34.9648 4.07812L19.2959 8.01948L10.5778 18.9097" stroke="#008755" stroke-width="3" stroke-linecap="round"/>
<path d="M16.3955 3.21768L13.0084 4.06445L9.62131 3.21768" stroke="#008755" stroke-width="3" stroke-linecap="round"/>
</svg>
