<svg width="20" height="19" viewBox="0 0 20 19" fill="none" xmlns="http://www.w3.org/2000/svg">
<path d="M14.6681 1.75607C14.9092 1.53221 15.1954 1.35464 15.5104 1.23349C15.8253 1.11234 16.1629 1.04999 16.5039 1.04999C16.8448 1.04999 17.1824 1.11234 17.4974 1.23349C17.8123 1.35464 18.0985 1.53221 18.3396 1.75607C18.5807 1.97992 18.7719 2.24567 18.9024 2.53815C19.0328 2.83063 19.1 3.14411 19.1 3.46069C19.1 3.77727 19.0328 4.09075 18.9024 4.38323C18.7719 4.67571 18.5807 4.94146 18.3396 5.16531L5.9483 16.6715L0.899994 17.95L2.27681 13.2623L14.6681 1.75607Z" stroke="#008755" stroke-width="1.8" stroke-linecap="round" stroke-linejoin="round"/>
</svg>
