<svg width="47" height="35" viewBox="0 0 47 35" fill="none" xmlns="http://www.w3.org/2000/svg">
<path d="M0.0121018 21.1054C0.0884781 21.5884 0.504631 21.933 0.977577 21.933C1.02849 21.933 1.08039 21.929 1.13229 21.9212C3.72516 21.5089 6.52955 21.2625 9.4671 21.181L14.8927 23.3662L13.048 31.102C12.8071 32.1082 13.3613 33.1213 14.3356 33.459C14.551 33.5336 14.7704 33.569 14.9877 33.569C15.775 33.569 16.5182 33.0987 16.8345 32.331L20.3429 23.8011C20.6435 23.0698 20.7208 22.304 20.6131 21.5746C21.8998 21.7062 22.6577 21.8171 22.6675 21.8191C22.7154 21.826 22.7634 21.8299 22.8104 21.8299C23.0826 21.8299 23.346 21.716 23.5331 21.5108C23.5468 21.4961 24.8863 20.0422 27.0758 18.4529C27.6907 18.3645 28.2106 17.9964 28.5083 17.481C31.1452 15.8219 33.7538 14.8147 36.2654 14.4947C36.6708 14.4427 37.0027 14.1403 37.0957 13.7417C37.0987 13.728 37.2886 12.9485 37.8125 12.0856L37.693 13.3795C37.6646 13.6877 37.7831 13.9921 38.0132 14.1992L44.6149 20.1532C44.8724 20.3848 45.0232 20.7029 45.0398 21.0485C45.0565 21.3901 44.939 21.717 44.7079 21.9693C44.376 22.3345 43.8403 22.4827 43.3537 22.309L37.0742 20.1247C36.8216 20.0363 36.5454 20.056 36.3085 20.1777C36.0079 20.3318 28.9421 24.0544 27.8934 33.7928C27.8346 34.3317 28.2243 34.8157 28.7619 34.8746C28.7981 34.8785 28.8334 34.8805 28.8686 34.8805C29.3621 34.8805 29.7871 34.5075 29.841 34.0038C30.6566 26.4252 35.4938 22.9588 36.8529 22.1254L42.7035 24.1604C43.8883 24.5835 45.3052 24.2282 46.1542 23.2936C46.7387 22.6535 47.0374 21.823 46.9963 20.9542C46.9541 20.0815 46.5742 19.2785 45.925 18.6934L39.6886 13.0693L40.0098 9.58622C40.0441 9.22104 39.8707 8.86763 39.5623 8.66932C39.2538 8.472 38.8612 8.46317 38.5439 8.64674C36.6414 9.75016 35.7474 11.6399 35.388 12.6412C33.0811 13.0251 30.7232 13.9106 28.3565 15.2781C28.0295 14.8569 27.5409 14.5683 26.9671 14.5182L21.8048 14.0745C21.8019 14.0745 21.7989 14.0716 21.798 14.0676L21.3749 9.1317C22.1867 9.70108 23.1698 10.0407 24.2332 10.0407C26.9945 10.0407 29.2407 7.78875 29.2407 5.02037C29.2407 2.252 26.9945 0 24.2332 0C21.4719 0 19.2256 2.252 19.2256 5.02037C19.2256 5.39931 19.2756 5.76548 19.3559 6.12085C18.9975 6.0001 18.6107 5.94611 18.2112 5.97556C14.1349 6.27399 10.225 8.19811 6.59025 11.6939C5.23898 12.9937 4.64462 14.8658 4.99908 16.7035C5.1959 17.7254 5.67962 18.6394 6.36308 19.3727C4.44291 19.5052 2.58442 19.7045 0.824824 19.9833C0.292148 20.0668 -0.0721079 20.5694 0.0121018 21.1054ZM22.452 19.8096C21.9164 19.7408 20.9559 19.6289 19.6937 19.518C19.35 19.1047 18.925 18.7474 18.4198 18.4804L14.1055 16.2068C14.881 15.3301 15.8553 14.6311 17.0518 14.0932L17.6844 16.8409C17.9928 18.1819 19.2119 19.0753 20.5779 18.9712L23.5938 18.7366C23.0963 19.1783 22.7066 19.5543 22.452 19.8096ZM24.2361 1.96142C25.9174 1.96142 27.2853 3.33285 27.2853 5.01841C27.2853 6.70398 25.9174 8.0754 24.2361 8.0754C22.5549 8.0754 21.1869 6.70398 21.1869 5.01841C21.1869 3.33285 22.5539 1.96142 24.2361 1.96142ZM7.9474 13.1095C11.2903 9.89448 14.695 8.20106 18.3551 7.93305C18.3786 7.93109 18.4031 7.93011 18.4276 7.93011C18.9192 7.93011 19.3402 8.30021 19.3823 8.78516L19.8494 14.2345C19.9306 15.1927 20.6846 15.9476 21.6393 16.03L26.8006 16.518L20.4261 17.0137C20.0374 17.05 19.681 16.7869 19.5928 16.4002L18.7047 12.5441C18.642 12.2741 18.4678 12.0414 18.2259 11.9069C17.9831 11.7715 17.6962 11.7469 17.4328 11.8363C14.9603 12.6844 13.0666 14.0834 11.8054 15.9937C11.6526 16.2254 11.6047 16.5101 11.6732 16.7791C11.7417 17.0481 11.9209 17.2748 12.1657 17.4044L17.5062 20.2189C18.5324 20.7608 18.974 21.9791 18.5314 23.0541L14.9505 31.5614L16.9921 23.001C17.1047 22.5279 16.855 22.0429 16.4046 21.8623L10.037 19.2971C10.0115 19.2863 9.98802 19.2755 9.96256 19.2667L9.03136 18.8917C7.91803 18.443 7.14937 17.5095 6.92122 16.3295C6.69307 15.1495 7.07789 13.9459 7.9474 13.1095Z" fill="#008755"/>
</svg>
