<svg width="20" height="20" viewBox="0 0 20 20" fill="none" xmlns="http://www.w3.org/2000/svg">
<g clip-path="url(#clip0_1_2763)">
<path d="M16.6244 4.61348L13.7202 1.70931C12.6185 0.607644 11.1535 0.000976841 9.59518 0.000976841H5.83268C3.53518 0.000143508 1.66602 1.86931 1.66602 4.16681V15.8335C1.66602 18.131 3.53518 20.0001 5.83268 20.0001H14.166C16.4635 20.0001 18.3327 18.131 18.3327 15.8335V8.73764C18.3327 7.17931 17.726 5.71598 16.6244 4.61348ZM15.446 5.79181C15.711 6.05681 15.9352 6.35098 16.1168 6.66681H12.4993C12.0402 6.66681 11.666 6.29264 11.666 5.83348V2.21598C11.9818 2.39764 12.2768 2.62181 12.541 2.88681L15.4452 5.79098L15.446 5.79181ZM16.666 15.8335C16.666 17.2118 15.5443 18.3335 14.166 18.3335H5.83268C4.45435 18.3335 3.33268 17.2118 3.33268 15.8335V4.16681C3.33268 2.78848 4.45435 1.66681 5.83268 1.66681H9.59518C9.73102 1.66681 9.86602 1.67348 9.99935 1.68598V5.83348C9.99935 7.21181 11.121 8.33348 12.4993 8.33348H16.6468C16.6593 8.46681 16.666 8.60181 16.666 8.73764V15.8335ZM13.0885 12.0676C13.4143 12.3935 13.4143 12.9201 13.0885 13.246C12.926 13.4085 12.7127 13.4901 12.4993 13.4901C12.286 13.4901 12.0727 13.4085 11.9102 13.246L10.8327 12.1685V15.8335C10.8327 16.2935 10.4593 16.6668 9.99935 16.6668C9.53935 16.6668 9.16602 16.2935 9.16602 15.8335V12.1685L8.08852 13.246C7.76268 13.5718 7.23602 13.5718 6.91018 13.246C6.58435 12.9201 6.58435 12.3935 6.91018 12.0676L8.25518 10.7226C9.21685 9.76098 10.7818 9.76098 11.7443 10.7226L13.0893 12.0676H13.0885Z" fill="#8D9093" fill-opacity="0.6"/>
</g>
<defs>
<clipPath id="clip0_1_2763">
<rect width="20" height="20" fill="white"/>
</clipPath>
</defs>
</svg>
