<svg width="32" height="49" viewBox="0 0 32 49" fill="none" xmlns="http://www.w3.org/2000/svg">
<path d="M17.4436 44.6408V44.9408H17.7436H28.5128H28.513H28.813V44.6408V40.9122C28.813 34.5448 24.0044 29.271 17.7847 28.4132L17.4437 28.3661V28.7103V30.9094C17.4437 31.6877 16.8017 32.3264 16.0001 32.3264C15.1985 32.3264 14.5565 31.6877 14.5565 30.9094V28.7104V28.3662L14.2155 28.4133C7.99566 29.2711 3.18718 34.5449 3.18718 40.9123V44.6408V44.9408H3.48718H14.2564H14.5564V44.6408V36.0668C14.5564 35.2886 15.1984 34.6498 16 34.6498C16.8016 34.6498 17.4436 35.2886 17.4436 36.0668V44.6408ZM0.3 40.9123C0.3 32.3944 7.33887 25.4563 16 25.4563C24.6611 25.4563 31.7 32.3944 31.7 40.9123V46.3578C31.7 47.1361 31.058 47.7748 30.2564 47.7748H1.74359C0.941962 47.7748 0.3 47.1361 0.3 46.3578V40.9123Z" fill="#008755" stroke="#EFFAF9" stroke-width="0.6"/>
<path d="M5.59403 12.3222L5.57585 12.6394C5.23668 18.5558 10.0337 23.5024 15.9997 23.5024C21.9645 23.5024 26.7629 18.5571 26.4236 12.6394L26.4054 12.3222H26.7231C27.6071 12.3222 28.2013 11.649 28.2013 10.9052C28.2013 10.127 27.5593 9.4882 26.7577 9.4882H25.9273H25.7281L25.6508 9.30458C24.2907 6.07316 21.3013 3.66598 17.6954 3.08378L17.4432 3.04307V2.78762V1.717V1.71697C17.4433 0.938749 16.8013 0.3 15.9997 0.3C15.1981 0.3 14.5561 0.93875 14.5561 1.717V2.78771V3.04317L14.3039 3.08388C10.6979 3.66598 7.7087 6.07306 6.34855 9.30468L6.27127 9.4883H6.07205H5.24164C4.44002 9.4883 3.79806 10.127 3.79805 10.9053L5.59403 12.3222ZM5.59403 12.3222H5.27634M5.59403 12.3222H5.27634M5.27634 12.3222C4.39151 12.3222 3.79814 11.6482 3.79805 10.9053L5.27634 12.3222ZM17.8144 6.00012L17.4433 5.90957V6.29157V9.1882V9.4882H17.7433H21.9802H22.5556L22.2262 9.01646C21.1936 7.53747 19.6331 6.44387 17.8144 6.00012ZM14.5561 6.29157V5.90959L14.185 6.00012C12.3664 6.44378 10.8059 7.53748 9.77322 9.01656L9.44387 9.4883H10.0192H14.2561H14.5561V9.1883V6.29157ZM8.77334 12.3222H8.49784L8.47443 12.5967C8.1002 16.9844 11.6281 20.6684 15.9997 20.6685C20.3708 20.6685 23.8992 16.9851 23.525 12.5967L23.5016 12.3222H23.2261H8.77334Z" fill="#008755" stroke="#EFFAF9" stroke-width="0.6"/>
</svg>
