<svg width="42" height="42" viewBox="0 0 42 42" fill="none" xmlns="http://www.w3.org/2000/svg">
<path d="M30.9884 7.36068H11.0115C10.7292 7.36068 10.4585 7.24856 10.259 7.04898C10.0594 6.84941 9.94727 6.57873 9.94727 6.29649C9.94727 6.01425 10.0594 5.74357 10.259 5.54399C10.4585 5.34442 10.7292 5.2323 11.0115 5.2323H30.9884C31.2707 5.2323 31.5413 5.34442 31.7409 5.54399C31.9405 5.74357 32.0526 6.01425 32.0526 6.29649C32.0526 6.57873 31.9405 6.84941 31.7409 7.04898C31.5413 7.24856 31.2707 7.36068 30.9884 7.36068Z" fill="#008755"/>
<path d="M4.97968 12.5972C4.13342 12.5957 3.32225 12.2588 2.72385 11.6604C2.12545 11.062 1.78861 10.2509 1.78711 9.4046V3.19257C1.78711 2.34585 2.12347 1.5338 2.72219 0.935082C3.32091 0.336359 4.13296 0 4.97968 0C5.8264 0 6.63844 0.336359 7.23717 0.935082C7.83589 1.5338 8.17225 2.34585 8.17225 3.19257V9.40602C8.17037 10.252 7.83336 11.0628 7.23501 11.6609C6.63665 12.259 5.82569 12.5957 4.97968 12.5972ZM4.97968 2.12412C4.69744 2.12412 4.42676 2.23624 4.22718 2.43582C4.02761 2.63539 3.91549 2.90607 3.91549 3.18831V9.40176C3.91549 9.54151 3.94301 9.6799 3.99649 9.80901C4.04998 9.93812 4.12836 10.0554 4.22718 10.1543C4.326 10.2531 4.44332 10.3315 4.57243 10.3849C4.70154 10.4384 4.83993 10.466 4.97968 10.466C5.11943 10.466 5.25781 10.4384 5.38693 10.3849C5.51604 10.3315 5.63335 10.2531 5.73217 10.1543C5.83099 10.0554 5.90938 9.93812 5.96286 9.80901C6.01634 9.6799 6.04387 9.54151 6.04387 9.40176V3.19257C6.04443 3.05246 6.01732 2.91362 5.96409 2.78401C5.91086 2.65441 5.83256 2.53659 5.73368 2.43732C5.63481 2.33805 5.5173 2.25928 5.38791 2.20554C5.25852 2.15179 5.11979 2.12412 4.97968 2.12412Z" fill="#008755"/>
<path d="M2.8499 7.60104H1.06419C0.781949 7.60104 0.511268 7.48892 0.311694 7.28934C0.112119 7.08977 0 6.81909 0 6.53685C0 6.25461 0.112119 5.98392 0.311694 5.78435C0.511268 5.58478 0.781949 5.47266 1.06419 5.47266H2.84706C3.1293 5.47266 3.39998 5.58478 3.59956 5.78435C3.79913 5.98392 3.91125 6.25461 3.91125 6.53685C3.91125 6.81909 3.79913 7.08977 3.59956 7.28934C3.39998 7.48892 3.1293 7.60104 2.84706 7.60104H2.8499Z" fill="#008755"/>
<path d="M37.0207 12.5972C36.1744 12.5957 35.3633 12.2588 34.7649 11.6604C34.1665 11.062 33.8296 10.2509 33.8281 9.4046V3.19257C33.8281 2.34585 34.1645 1.5338 34.7632 0.935082C35.3619 0.336359 36.174 0 37.0207 0C37.8674 0 38.6795 0.336359 39.2782 0.935082C39.8769 1.5338 40.2133 2.34585 40.2133 3.19257V9.40602C40.2116 10.2521 39.8746 11.063 39.2762 11.6611C38.6778 12.2593 37.8668 12.5959 37.0207 12.5972ZM37.0207 2.12412C36.7385 2.12412 36.4678 2.23624 36.2682 2.43582C36.0686 2.63539 35.9565 2.90607 35.9565 3.18831V9.40176C35.9565 9.684 36.0686 9.95468 36.2682 10.1543C36.4678 10.3538 36.7385 10.466 37.0207 10.466C37.3029 10.466 37.5736 10.3538 37.7732 10.1543C37.9728 9.95468 38.0849 9.684 38.0849 9.40176V3.19257C38.0854 3.05246 38.0583 2.91362 38.0051 2.78401C37.9519 2.65441 37.8736 2.53659 37.7747 2.43732C37.6758 2.33805 37.5583 2.25928 37.4289 2.20554C37.2995 2.15179 37.1608 2.12412 37.0207 2.12412Z" fill="#008755"/>
<path d="M40.9358 7.60104H39.1501C38.8679 7.60104 38.5972 7.48892 38.3976 7.28934C38.1981 7.08977 38.0859 6.81909 38.0859 6.53685C38.0859 6.25461 38.1981 5.98392 38.3976 5.78435C38.5972 5.58478 38.8679 5.47266 39.1501 5.47266H40.9358C41.2181 5.47266 41.4888 5.58478 41.6883 5.78435C41.8879 5.98392 42 6.25461 42 6.53685C42 6.81909 41.8879 7.08977 41.6883 7.28934C41.4888 7.48892 41.2181 7.60104 40.9358 7.60104Z" fill="#008755"/>
<path d="M21.0842 17.9086C20.2158 17.9086 19.3669 17.6511 18.6448 17.1687C17.9227 16.6862 17.3599 16.0004 17.0276 15.1981C16.6953 14.3958 16.6083 13.5129 16.7777 12.6612C16.9472 11.8094 17.3653 11.0271 17.9794 10.413C18.5935 9.79893 19.3759 9.38075 20.2276 9.21132C21.0793 9.0419 21.9622 9.12886 22.7645 9.46119C23.5668 9.79352 24.2526 10.3563 24.7351 11.0784C25.2175 11.8004 25.4751 12.6494 25.4751 13.5178C25.473 14.6817 25.0097 15.7973 24.1867 16.6203C23.3637 17.4433 22.2481 17.9066 21.0842 17.9086ZM21.0842 11.256C20.6367 11.256 20.1993 11.3888 19.8272 11.6374C19.4551 11.886 19.1651 12.2394 18.9939 12.6529C18.8227 13.0663 18.7779 13.5213 18.8653 13.9602C18.9526 14.3991 19.1682 14.8022 19.4847 15.1186C19.8011 15.435 20.2043 15.6504 20.6433 15.7376C21.0822 15.8248 21.5371 15.7799 21.9505 15.6086C22.3639 15.4372 22.7172 15.1471 22.9657 14.775C23.2142 14.4028 23.3468 13.9653 23.3467 13.5178C23.3461 12.918 23.1075 12.3429 22.6833 11.9189C22.2592 11.4948 21.684 11.2564 21.0842 11.256Z" fill="#008755"/>
<path d="M26.5337 41.9909C25.6754 41.99 24.8526 41.6486 24.2459 41.0417C23.6391 40.4348 23.2979 39.6119 23.2971 38.7537C23.2971 38.7303 23.2418 35.642 21.2971 31.0504C21.2801 31.0085 21.2511 30.9727 21.2136 30.9474C21.1761 30.9222 21.132 30.9087 21.0868 30.9087C21.0416 30.9087 20.9975 30.9222 20.96 30.9474C20.9225 30.9727 20.8934 31.0085 20.8764 31.0504C18.929 35.642 18.8715 38.7303 18.8715 38.7608C18.858 39.611 18.5106 40.4217 17.9042 41.0178C17.2979 41.614 16.4814 41.9476 15.6311 41.9467C14.7808 41.9458 13.965 41.6103 13.36 41.0129C12.755 40.4154 12.4093 39.6039 12.3977 38.7537C12.3977 38.2911 12.475 34.0535 15.1539 27.9699C15.4429 27.3188 15.587 26.6127 15.5761 25.9004L15.5001 21.6145C15.499 21.5586 15.4861 21.5035 15.4623 21.4529C15.4384 21.4023 15.4042 21.3573 15.3618 21.3208C15.2909 21.2683 15.2199 21.2144 15.149 21.1598C12.895 19.4209 11.3831 17.7842 10.812 15.0045L9.87697 10.4022C9.84902 10.2653 9.84831 10.1242 9.8749 9.98694C9.90149 9.84971 9.95485 9.71906 10.0319 9.60246C10.109 9.48585 10.2083 9.38557 10.3241 9.30733C10.44 9.2291 10.5701 9.17445 10.707 9.1465C10.844 9.11855 10.9851 9.11785 11.1223 9.14443C11.2596 9.17102 11.3902 9.22438 11.5068 9.30146C11.6234 9.37854 11.7237 9.47783 11.8019 9.59366C11.8802 9.7095 11.9348 9.83961 11.9628 9.97656L12.8971 14.5767C13.3391 16.7299 14.487 17.9587 16.4494 19.472C16.5076 19.5167 16.5665 19.5614 16.6261 19.6046C16.9264 19.8321 17.1723 20.1236 17.3457 20.458C17.5191 20.7925 17.6157 21.1614 17.6285 21.5379V21.5599L17.7051 25.8621C17.7212 26.8817 17.5155 27.8926 17.1021 28.8248C14.5559 34.6048 14.5268 38.582 14.5268 38.748C14.523 38.8959 14.5489 39.0431 14.603 39.1809C14.657 39.3187 14.738 39.4442 14.8413 39.5502C14.9446 39.6561 15.0681 39.7403 15.2045 39.7978C15.3408 39.8553 15.4873 39.8849 15.6353 39.8849C15.7833 39.8849 15.9298 39.8553 16.0661 39.7978C16.2025 39.7403 16.3259 39.6561 16.4292 39.5502C16.5326 39.4442 16.6136 39.3187 16.6676 39.1809C16.7217 39.0431 16.7476 38.8959 16.7438 38.748C16.7438 38.7139 16.7687 35.2766 18.9119 30.2146C19.0919 29.7878 19.3938 29.4235 19.7799 29.1674C20.1659 28.9114 20.6189 28.7749 21.0822 28.7751H21.09C21.5531 28.7771 22.0054 28.9156 22.3903 29.1733C22.7752 29.4309 23.0755 29.7964 23.2538 30.2238C25.3978 35.2858 25.4226 38.7232 25.4226 38.7572C25.4189 38.9052 25.4448 39.0523 25.4988 39.1901C25.5529 39.3279 25.6339 39.4534 25.7372 39.5594C25.8405 39.6653 25.964 39.7495 26.1004 39.807C26.2367 39.8645 26.3832 39.8941 26.5312 39.8941C26.6792 39.8941 26.8256 39.8645 26.962 39.807C27.0984 39.7495 27.2218 39.6653 27.3251 39.5594C27.4284 39.4534 27.5095 39.3279 27.5635 39.1901C27.6175 39.0523 27.6435 38.9052 27.6397 38.7572C27.6397 38.5905 27.6099 34.609 25.0594 28.8248C24.6466 27.8951 24.4403 26.887 24.4549 25.8699L24.5259 21.572C24.5259 21.5642 24.5259 21.5564 24.5259 21.5486C24.5387 21.1722 24.6354 20.8034 24.8088 20.469C24.9822 20.1347 25.2281 19.8433 25.5284 19.616C25.588 19.572 25.6468 19.5273 25.705 19.4826C27.6674 17.9686 28.8153 16.7398 29.258 14.5873L30.203 9.9865C30.2632 9.71376 30.4282 9.47562 30.6625 9.32348C30.8967 9.17133 31.1814 9.11737 31.455 9.17324C31.7287 9.22911 31.9694 9.39033 32.1253 9.62211C32.2811 9.85389 32.3396 10.1377 32.2881 10.4122L31.3431 15.0123C30.7755 17.792 29.2594 19.4287 27.0055 21.1676C26.9345 21.2222 26.8636 21.2754 26.7926 21.3286C26.7497 21.3649 26.7149 21.4098 26.6904 21.4604C26.666 21.511 26.6525 21.5662 26.6507 21.6223L26.5798 25.9032C26.5706 26.6134 26.7159 27.3171 27.0055 27.9656C29.6893 34.0528 29.7667 38.2954 29.7667 38.7586C29.7644 39.6153 29.4231 40.4363 28.8172 41.042C28.2114 41.6477 27.3904 41.9889 26.5337 41.9909Z" fill="#008755"/>
</svg>
