<svg width="44" height="37" viewBox="0 0 44 37" fill="none" xmlns="http://www.w3.org/2000/svg">
<path d="M42.931 34.639C40.6647 29.2621 37.4474 25.0139 35.1456 22.3921C33.057 20.0103 31.3506 18.5349 30.7996 18.0728C30.8974 17.3885 30.9418 16.6952 30.9418 15.9842C30.9418 14.5 30.7196 13.0603 30.3197 11.7005C30.3108 11.6738 30.3108 11.6472 30.3019 11.6205C30.3019 11.6116 30.293 11.6027 30.293 11.5938C30.0886 10.9184 29.8309 10.2518 29.5287 9.62083C29.7153 9.7808 29.902 9.94966 30.0886 10.1185C33.2348 12.9803 37.7496 17.8151 41.349 24.6228C41.509 24.9161 41.8112 25.085 42.1222 25.085C42.2644 25.085 42.3977 25.0494 42.531 24.9872C42.9576 24.765 43.1176 24.2318 42.8954 23.8052C39.1627 16.7486 34.4879 11.7449 31.2173 8.78541C27.7601 5.64814 25.1561 4.11949 24.925 3.98618C22.5165 2.18203 19.557 1.08887 16.3397 1.00889C16.3131 1.00889 16.2775 1 16.2509 1C16.2331 1 16.2153 1 16.1975 1C16.1264 1 16.0465 1 15.9754 1C9.46085 1 3.91508 5.1771 1.8532 10.9895C1.84431 11.0162 1.82653 11.0428 1.81765 11.0784C1.81765 11.0873 1.80876 11.0961 1.80876 11.1139C1.2844 12.6426 1 14.2778 1 15.9754C1 20.7923 3.29296 25.085 6.83905 27.8312C6.8746 27.8668 6.91015 27.8934 6.9457 27.929C6.97237 27.9467 7.00792 27.9645 7.03458 27.9823C9.53195 29.8487 12.6248 30.9507 15.9754 30.9507C19.1126 30.9507 22.0188 29.982 24.4273 28.3289C24.4718 28.3111 24.5073 28.2845 24.5517 28.2578C24.5784 28.24 24.6051 28.2134 24.6317 28.1956C25.3338 27.6979 26.0004 27.1291 26.6047 26.5159C27.609 26.9425 30.373 28.5422 33.7325 34.0791C33.9013 34.3546 34.1857 34.4968 34.479 34.4968C34.6301 34.4968 34.7901 34.4524 34.9323 34.3724C35.3411 34.1235 35.4744 33.5814 35.2256 33.1726C33.2792 29.9553 31.2529 27.5646 29.2265 26.0537C28.6844 25.6449 28.2045 25.3605 27.8045 25.1472C28.9688 23.6452 29.8575 21.9122 30.3908 20.028C32.4971 21.9388 37.9985 27.4135 41.3224 35.3056C41.4646 35.6433 41.7845 35.8388 42.1311 35.8388C42.2467 35.8388 42.3622 35.821 42.4688 35.7677C42.9132 35.5988 43.1176 35.0923 42.931 34.639ZM17.1307 2.82193C22.2854 3.27519 26.5959 6.68797 28.3556 11.345L21.8588 13.4602L17.1307 10.0296V2.82193ZM15.9754 11.345L20.8901 14.9177C20.9079 14.9533 20.9345 14.98 20.9523 15.0066L18.9793 20.8457H12.8381L10.9806 14.9711L15.9754 11.345ZM15.3799 2.77749V9.61194L10.6518 13.0425L3.79955 10.8117C5.7459 6.26137 10.1807 3.00856 15.3799 2.77749ZM2.75083 15.9931C2.75083 14.7755 2.91969 13.5935 3.23075 12.4737L9.12313 14.3845C9.0698 14.5534 9.0698 14.7311 9.13202 14.9089L11.0517 20.8101L7.31009 25.956C4.51054 23.5386 2.75083 19.9658 2.75083 15.9931ZM15.9665 29.2176C13.2825 29.2176 10.7851 28.4089 8.68764 27.0225L11.9493 22.5343C12.0471 22.5698 12.1449 22.5876 12.2515 22.5876H19.3348L22.7743 27.3246C20.7835 28.5244 18.4549 29.2176 15.9665 29.2176ZM24.214 26.3292L20.6946 21.4767L22.8009 14.9888L28.8622 13.0158C29.0843 13.9668 29.1999 14.9622 29.1999 15.9842C29.1999 20.1702 27.2535 23.903 24.214 26.3292Z" fill="#008755" stroke="#008755"/>
</svg>
