<svg width="42" height="42" viewBox="0 0 42 42" fill="none" xmlns="http://www.w3.org/2000/svg">
<path d="M26.9655 30.2358L26.9655 30.2356L26.9595 30.2365L15.1259 32.0122L15.0934 32.0171L15.0701 32.0404L6.42198 40.6885C5.7224 41.3881 4.79274 41.7732 3.80334 41.7732C2.81394 41.7732 1.88429 41.3881 1.18471 40.6885C0.48513 39.989 0.1 39.0593 0.1 38.07C0.1 37.0805 0.48513 36.1508 1.1847 35.4513L9.83207 26.8039L9.85542 26.7805L9.86027 26.7479L11.6753 14.5282L11.6754 14.5282L11.6758 14.5249C11.9827 11.8477 13.0002 9.27466 14.5398 7.32948C15.6385 5.94135 16.6564 4.77075 17.4834 3.94377C19.9285 1.49869 23.4619 0.1 27.1958 0.1C27.239 0.1 27.2818 0.100163 27.3248 0.100571L27.3249 0.100572C31.2255 0.134221 34.8551 1.6355 37.5464 4.32677C40.2377 7.01804 41.739 10.6476 41.7726 14.5483C41.8053 18.3299 40.4028 21.9165 37.9294 24.3898C37.1025 25.2168 35.9319 26.2347 34.5437 27.3335C32.5059 28.9463 29.7789 29.9856 26.9655 30.2358ZM12.1334 26.8694L12.126 26.9192L12.1616 26.9548L14.9174 29.7107L14.9531 29.7464L15.003 29.7389L19.7754 29.0228L20.0568 28.9806L19.8108 28.8375C19.1374 28.4457 18.5252 27.9789 17.9862 27.4397L17.9155 27.5104L17.9862 27.4397L14.4334 23.8869C13.8914 23.3449 13.4222 22.7292 13.0291 22.0515L12.8857 21.8042L12.8437 22.087L12.1334 26.8694ZM28.3161 27.7414L28.3161 27.7416L28.3223 27.7402C30.1241 27.3522 31.8323 26.5893 33.1373 25.5565C34.4365 24.5282 35.5695 23.5448 36.327 22.7874L36.2563 22.7167L36.327 22.7874C40.7196 18.3947 40.5345 10.5198 35.944 5.92923C33.5746 3.55992 30.3325 2.36574 27.1483 2.36574C24.1585 2.36574 21.2139 3.4182 19.0858 5.54622C18.3284 6.30369 17.345 7.43668 16.3168 8.7359C15.2011 10.1456 14.4004 12.0258 14.047 13.9869L14.047 13.9869L14.0465 13.9899L13.9275 14.7911L13.9274 14.7911L13.927 14.7943C13.8901 15.1137 13.8652 15.434 13.8532 15.7535C13.7516 18.4473 14.5216 20.7703 16.0359 22.2846L19.5887 25.8374C21.103 27.3516 23.4256 28.1228 26.1199 28.0201C26.3128 28.0128 26.5059 28.0003 26.6986 27.9839L26.6987 27.9841L26.705 27.9831L28.3161 27.7414ZM10.992 28.9902L10.9213 28.9195L10.8506 28.9902L2.78716 37.0538C2.51587 37.3251 2.36623 37.6862 2.36623 38.07C2.36623 38.4536 2.51587 38.8148 2.78715 39.086C3.05846 39.3574 3.41973 39.507 3.80334 39.507C4.18698 39.507 4.54815 39.3573 4.81944 39.086L12.883 31.0226L12.9537 30.9519L12.883 30.8812L10.992 28.9902Z" fill="#008755" stroke="white" stroke-width="0.2"/>
<path d="M24.8104 7.27362L26.5454 5.53861L28.1476 7.14082L26.4126 8.87583L24.8104 7.27362Z" fill="#008755" stroke="white" stroke-width="0.2"/>
<path d="M28.9022 11.3672L30.6372 9.63212L32.2394 11.2343L30.5044 12.9694L28.9022 11.3672Z" fill="#008755" stroke="white" stroke-width="0.2"/>
<path d="M32.994 15.459L34.729 13.7239L36.3312 15.3261L34.5962 17.0612L32.994 15.459Z" fill="#008755" stroke="white" stroke-width="0.2"/>
<path d="M20.6453 11.4375L22.3803 9.70249L23.9825 11.3047L22.2475 13.0397L20.6453 11.4375Z" fill="#008755" stroke="white" stroke-width="0.2"/>
<path d="M24.7371 15.5312L26.4721 13.7962L28.0743 15.3984L26.3393 17.1335L24.7371 15.5312Z" fill="#008755" stroke="white" stroke-width="0.2"/>
<path d="M28.8289 19.625L30.5639 17.89L32.1661 19.4922L30.4311 21.2272L28.8289 19.625Z" fill="#008755" stroke="white" stroke-width="0.2"/>
<path d="M16.4793 15.6016L18.2143 13.8665L19.8165 15.4688L18.0815 17.2038L16.4793 15.6016Z" fill="#008755" stroke="white" stroke-width="0.2"/>
<path d="M20.5711 19.6953L22.3062 17.9602L23.9084 19.5624L22.1733 21.2975L20.5711 19.6953Z" fill="#008755" stroke="white" stroke-width="0.2"/>
<path d="M24.6629 23.7891L26.398 22.054L28.0002 23.6562L26.2651 25.3913L24.6629 23.7891Z" fill="#008755" stroke="white" stroke-width="0.2"/>
<path d="M31.9789 36.9395C31.9789 34.2042 34.2043 31.9789 36.9394 31.9789C39.6745 31.9789 41.8998 34.2042 41.8999 36.9395C41.8999 39.6746 39.6745 41.8999 36.9394 41.8999C34.2042 41.8999 31.9789 39.6745 31.9789 36.9395ZM34.2451 36.9394C34.2451 38.4251 35.4537 39.6336 36.9394 39.6336C38.4251 39.6336 39.6336 38.4251 39.6337 36.9394C39.6337 35.4536 38.4251 34.2451 36.9394 34.2451C35.4536 34.2451 34.2451 35.4537 34.2451 36.9394Z" fill="#008755" stroke="white" stroke-width="0.2"/>
</svg>
