<svg width="46" height="28" viewBox="0 0 46 28" fill="none" xmlns="http://www.w3.org/2000/svg">
<path d="M12.1289 8.10974C9.89962 8.10974 8.08595 9.92875 8.08595 12.1646V13.5162H6.73829C3.02369 13.5162 0.00152735 16.5465 0 20.2717C0 20.2784 8.98439e-05 20.2919 8.98439e-05 20.292C8.98439e-05 20.2926 8.98439e-05 20.2932 0.000179688 20.2938C0.00323438 20.5137 0.0585782 20.7207 0.154442 20.9032L2.83763 26.2853C3.06583 26.7432 3.53248 27.0325 4.04297 27.0325H31.5484C36.8045 27.0325 41.9273 24.9183 45.6037 21.2317C45.9183 20.9171 46.0498 20.4804 45.9831 20.0594C44.2556 7.99044 37.398 2.83589 26.2568 2.70658L23.9528 0.395845C23.7003 0.142461 23.3575 0 23 0H17.6094C16.8651 0 16.2617 0.605167 16.2617 1.35162C16.2617 2.09808 16.8651 2.70325 17.6094 2.70325H22.4418L24.0556 4.32177L22.1672 8.10974H12.1289ZM10.7813 12.1646C10.7813 11.4193 11.3858 10.813 12.1289 10.813H20.8194L19.4718 13.5162H10.7813V12.1646ZM31.5484 24.3292H4.87592L3.52826 21.6251H40.8223C38.0819 23.3678 34.8464 24.3292 31.5484 24.3292ZM41.3235 13.5162H36.5664C35.8222 13.5162 35.2188 14.1214 35.2188 14.8679C35.2188 15.6143 35.8222 16.2195 36.5664 16.2195H42.3835C42.6443 17.056 42.8715 17.9545 43.0596 18.9227H2.92621C3.48235 17.3493 4.98121 16.2195 6.73829 16.2195H20.3047C20.8152 16.2195 21.2819 15.9302 21.5101 15.4723L26.5243 5.41451C32.012 5.52345 38.0692 6.81642 41.3235 13.5162Z" fill="#008755"/>
</svg>
