<svg width="44" height="43" viewBox="0 0 44 43" fill="none" xmlns="http://www.w3.org/2000/svg">
<path d="M4.53602 8.07204C6.48891 8.07204 8.07204 6.48891 8.07204 4.53602C8.07204 2.58313 6.48891 1 4.53602 1C2.58313 1 1 2.58313 1 4.53602C1 6.48891 2.58313 8.07204 4.53602 8.07204Z" stroke="#008755" stroke-width="1.5"/>
<path d="M37.9501 10.9099C39.903 10.9099 41.4861 9.3268 41.4861 7.37391C41.4861 5.42102 39.903 3.83789 37.9501 3.83789C35.9972 3.83789 34.4141 5.42102 34.4141 7.37391C34.4141 9.3268 35.9972 10.9099 37.9501 10.9099Z" stroke="#008755" stroke-width="1.5"/>
<path d="M42.3307 18.1164C42.2497 17.4371 41.8201 16.8483 41.1953 16.5661L36.7013 14.5258L32.872 12.5864C32.7357 12.4766 32.5891 12.3779 32.421 12.305L29.2918 10.9618C29.1724 10.9101 29.0471 10.8711 28.9197 10.8439L23.1362 9.63619C22.0796 9.41443 21.0407 10.0937 20.8196 11.1519C20.5986 12.2114 21.2772 13.2481 22.3353 13.4684L27.9278 14.637L29.4648 15.2965L27.4135 18.0191L16.4656 14.0099C15.308 13.587 14.0215 14.1809 13.5964 15.3429C13.2501 16.2883 13.589 17.308 14.3516 17.8857L12.4374 18.5879L11.1295 13.7005L11.8501 13.5458C12.5111 13.4043 13.0519 12.9298 13.281 12.2939L15.4429 6.27547C15.8083 5.25789 15.2801 4.13791 14.2625 3.77175C13.2486 3.40705 12.1257 3.93457 11.7587 4.95214L10.0095 9.8182L9.20848 10.11L8.91814 10.1726C8.66833 10.2264 8.44141 10.3288 8.24176 10.463L5.36679 11.5122C4.49584 11.8297 4.01541 12.803 4.29396 13.6873L8.05503 25.2226L8.26256 26.1435L8.67226 30.479L4.73386 38.5193C4.1894 39.6289 4.64841 40.9692 5.75807 41.5115C6.07492 41.6663 6.41095 41.7407 6.74028 41.7407C7.56777 41.7407 8.36281 41.2809 8.75178 40.4881L12.9687 31.8789C13.1507 31.509 13.2266 31.0964 13.1875 30.6853L12.5199 23.6212L16.9467 21.6989L20.2824 24.6182C20.7068 24.9903 21.2322 25.173 21.7546 25.173C22.378 25.173 22.9977 24.9137 23.439 24.409C24.2525 23.4791 24.1589 22.0658 23.2297 21.2524L23.2276 21.2501L26.6376 22.499C26.7776 22.5499 26.9206 22.583 27.0628 22.6043L27.0886 22.6405C27.0628 22.8357 27.0525 23.0339 27.0805 23.2388L28.1165 30.8098L27.5985 38.447C27.5152 39.679 28.4465 40.7459 29.6786 40.8291C29.7301 40.8328 29.7817 40.8343 29.8325 40.8343C30.999 40.8343 31.9819 39.9295 32.0622 38.7491L32.5965 30.8855C32.606 30.733 32.6009 30.5812 32.5803 30.4302L31.7373 24.2784L33.7614 21.642L36.0758 18.54L38.5744 19.674L39.0991 24.0869C39.2177 25.0823 40.0629 25.8125 41.0414 25.8125C41.118 25.8125 41.1961 25.8089 41.2735 25.7992C42.3477 25.671 43.1141 24.6977 42.9859 23.6249L42.3307 18.1164Z" stroke="#008755" stroke-width="1.5"/>
</svg>
