<svg width="44" height="58" viewBox="0 0 44 58" fill="none" xmlns="http://www.w3.org/2000/svg">
<path d="M18.1142 37.8351L11.4999 43.7128V55.0994C11.4999 55.9913 10.7767 56.7143 9.88457 56.7143C8.99242 56.7143 8.26919 55.9913 8.26919 55.0994V42.9876C8.26919 42.5263 8.4665 42.087 8.81136 41.7806L15.2981 36.0163L11.3879 23.6377C9.17249 25.0471 7.05615 26.6266 5.03844 28.3765V35.7205C5.03844 36.6124 4.31521 37.3354 3.42306 37.3354C2.53092 37.3354 1.80769 36.6124 1.80769 35.7205V27.646C1.80769 27.1852 2.00458 26.7464 2.34878 26.44C5.20386 23.8981 8.2525 21.6816 11.4937 19.7914C14.7509 17.8919 18.6282 16.2307 23.1263 14.8025C24.1679 14.4717 25.2306 15.249 25.2306 16.3416V24.4162C25.2306 25.308 24.5074 26.0311 23.6153 26.0311C22.7231 26.0311 21.9999 25.308 21.9999 24.4162V18.5832C19.0989 19.6013 16.5134 20.7248 14.2434 21.9516L18.0778 34.0904L40.5533 20.609C41.3183 20.1501 42.3105 20.3981 42.7696 21.1629C43.2286 21.9277 42.9805 22.9197 42.2155 23.3786L18.1142 37.8351ZM9.07688 17.1491C4.61614 17.1491 1 13.534 1 9.07453C1 4.61509 4.61614 1 9.07688 1C13.5376 1 17.1538 4.61509 17.1538 9.07453C17.1538 13.534 13.5376 17.1491 9.07688 17.1491ZM9.07688 13.9193C11.7533 13.9193 13.923 11.7502 13.923 9.07453C13.923 6.39887 11.7533 4.22981 9.07688 4.22981C6.40044 4.22981 4.23075 6.39887 4.23075 9.07453C4.23075 11.7502 6.40044 13.9193 9.07688 13.9193Z" fill="#008755" stroke="#EFFAF9"/>
</svg>
