<svg width="44" height="50" viewBox="0 0 44 50" fill="none" xmlns="http://www.w3.org/2000/svg">
<path d="M2 32.2501H20C20.6901 32.2501 21.25 31.6901 21.25 31.0001V29.0001C21.25 27.208 19.7921 25.7501 18 25.7501H4C2.20793 25.7501 0.75 27.208 0.75 29.0001V31.0001C0.75 31.6901 1.30993 32.2501 2 32.2501ZM18.75 29.0001V29.7501H3.25V29.0001C3.25 28.5871 3.58707 28.2501 4 28.2501H18C18.4129 28.2501 18.75 28.5871 18.75 29.0001Z" fill="#008755" stroke="#008755" stroke-width="0.5"/>
<path d="M3.25 32.2501H14C14.6901 32.2501 15.25 31.6902 15.25 31.0001C15.25 30.3101 14.6901 29.7501 14 29.7501H2C1.30993 29.7501 0.75 30.3101 0.75 31.0001V44.0001C0.75 46.8952 3.10493 49.2501 6 49.2501H12C14.8941 49.2501 17.2489 46.8951 17.25 44.0002V44.0001V39.0001C17.25 37.2091 15.7921 35.7501 14 35.7501H11C10.3099 35.7501 9.74999 36.31 9.74999 37.0001C9.74999 37.6902 10.3099 38.2501 11 38.2501H14C14.4129 38.2501 14.75 38.5872 14.75 39.0001V44.0001C14.75 45.516 13.5159 46.7501 12 46.7501H6C4.48407 46.7501 3.25 45.516 3.25 44.0001V32.2501Z" fill="#008755" stroke="#008755" stroke-width="0.5"/>
<path d="M16 42.5001H17C19.4821 42.5001 21.5 40.4823 21.5 38.0001V31.0001C21.5 30.172 20.8281 29.5001 20 29.5001C19.1719 29.5001 18.5 30.172 18.5 31.0001V38.0001C18.5 38.827 17.8269 39.5001 17 39.5001H16C15.1719 39.5001 14.5 40.172 14.5 41.0001C14.5 41.8283 15.1719 42.5001 16 42.5001Z" fill="#008755" stroke="#008755"/>
<path d="M24 32.2501H42C42.6901 32.2501 43.25 31.6901 43.25 31.0001V28.3331C43.25 26.8321 41.7579 25.7501 40 25.7501H26C24.2421 25.7501 22.75 26.8321 22.75 28.3331V31.0001C22.75 31.6901 23.3099 32.2501 24 32.2501ZM40.75 28.4411V29.7501H25.2485L25.2462 28.4529C25.2776 28.4291 25.3258 28.3992 25.3912 28.3695C25.5294 28.3069 25.7348 28.2501 26 28.2501H40C40.265 28.2501 40.4717 28.3068 40.6118 28.3677C40.6713 28.3935 40.7173 28.4195 40.75 28.4411ZM40.7989 28.4789C40.7988 28.4789 40.7982 28.4783 40.7972 28.4771C40.7984 28.4783 40.7989 28.4789 40.7989 28.4789Z" fill="#008755" stroke="#008755" stroke-width="0.5"/>
<path d="M32 49.2501H38C40.8951 49.2501 43.25 46.8952 43.25 44.0001V31.0001C43.25 30.3101 42.6901 29.7501 42 29.7501H30C29.3099 29.7501 28.75 30.3101 28.75 31.0001C28.75 31.6902 29.3099 32.2501 30 32.2501H40.75V44.0001C40.75 45.516 39.5159 46.7501 38 46.7501H32C30.4841 46.7501 29.25 45.516 29.25 44.0001V39.0001C29.25 38.5872 29.5871 38.2501 30 38.2501H33C33.6901 38.2501 34.25 37.6902 34.25 37.0001C34.25 36.31 33.6901 35.7501 33 35.7501H29.999C28.2068 35.7501 26.75 37.2092 26.75 39.0001V44.0001C26.75 46.8952 29.106 49.2501 32 49.2501Z" fill="#008755" stroke="#008755" stroke-width="0.5"/>
<path d="M27 42.2501H28C28.6901 42.2501 29.25 41.6902 29.25 41.0001C29.25 40.31 28.6901 39.7501 28 39.7501H27C26.0351 39.7501 25.25 38.965 25.25 38.0001V31.0001C25.25 30.3101 24.6901 29.7501 24 29.7501C23.3099 29.7501 22.75 30.3101 22.75 31.0001V38.0001C22.75 40.3442 24.6559 42.2501 27 42.2501Z" fill="#008755" stroke="#008755" stroke-width="0.5"/>
<path d="M31.75 27C31.75 27.69 32.3099 28.25 33 28.25C33.6901 28.25 34.25 27.69 34.25 27V12C34.25 5.79692 29.2031 0.75 23 0.75H20.999C14.7959 0.75 9.74902 5.79692 9.74902 12V27C9.74902 27.69 10.309 28.25 10.999 28.25C11.6891 28.25 12.249 27.69 12.249 27V12C12.249 7.17607 16.1751 3.25 20.999 3.25H23C27.8239 3.25 31.75 7.17607 31.75 12V27Z" fill="#008755" stroke="#008755" stroke-width="0.5"/>
</svg>
