<svg width="53" height="31" viewBox="0 0 53 31" fill="none" xmlns="http://www.w3.org/2000/svg">
<path d="M21.3441 16.4222H13.0575L12.0923 14.216C11.8202 13.5941 11.0954 13.3105 10.4734 13.5826C9.85149 13.8547 9.56789 14.5795 9.83999 15.2014L10.3759 16.4263C9.74408 16.4775 9.24733 17.0064 9.24733 17.6514C9.24733 18.3303 9.79766 18.8806 10.4765 18.8806H11.4496L13.2672 23.035C13.5393 23.6569 14.264 23.9405 14.886 23.6684C15.5079 23.3963 15.7915 22.6716 15.5194 22.0496L14.133 18.8806H29.0751L30.8927 23.035C31.1648 23.6569 31.8895 23.9405 32.5115 23.6684C33.1334 23.3963 33.417 22.6716 33.1449 22.0496L31.7585 18.8806H41.8108C42.4896 18.8806 43.04 18.3303 43.04 17.6514C43.04 16.9725 42.4896 16.4222 41.8108 16.4222H41.6443L39.0238 10.3077C38.7776 9.73325 38.1394 9.435 37.5408 9.6146L32.998 10.9774L28.4552 9.6146C27.805 9.41953 27.1197 9.7885 26.9247 10.4387C26.7296 11.089 27.0986 11.7742 27.7488 11.9693L32.6448 13.4381C32.8752 13.5072 33.1208 13.5072 33.3512 13.4381L37.1963 12.2846L38.9696 16.4222H30.683L29.7178 14.216C29.4457 13.5941 28.7209 13.3105 28.0989 13.5826C27.477 13.8547 27.1934 14.5795 27.4655 15.2014L27.9996 16.4222H24.0188L21.3983 10.3077C21.1521 9.73325 20.5139 9.435 19.9153 9.6146L15.3725 10.9774L10.8297 9.6146C10.1795 9.41953 9.49424 9.7885 9.29917 10.4387L9.53862 10.5106L9.29917 10.4387C9.1041 11.089 9.47307 11.7742 10.1233 11.9693L15.0193 13.4381C15.2497 13.5072 15.4953 13.5072 15.7257 13.4381L19.5708 12.2846L21.3441 16.4222ZM13.1641 4.91678C13.1641 7.21803 15.0296 9.08356 17.3309 9.08356C19.6321 9.08356 21.4977 7.21803 21.4977 4.91678C21.4977 2.61553 19.6321 0.75 17.3309 0.75C15.0296 0.75 13.1641 2.61553 13.1641 4.91678ZM19.0393 4.91678C19.0393 5.8603 18.2744 6.62517 17.3309 6.62517C16.3874 6.62517 15.6225 5.8603 15.6225 4.91678C15.6225 3.97326 16.3874 3.20839 17.3309 3.20839C18.2744 3.20839 19.0393 3.97326 19.0393 4.91678ZM30.7896 4.91678C30.7896 7.21803 32.6551 9.08356 34.9564 9.08356C37.2576 9.08356 39.1232 7.21803 39.1232 4.91678C39.1232 2.61553 37.2576 0.75 34.9564 0.75C32.6551 0.75 30.7896 2.61553 30.7896 4.91678ZM36.6648 4.91678C36.6648 5.8603 35.8999 6.62517 34.9564 6.62517C34.0129 6.62517 33.248 5.8603 33.248 4.91678C33.248 3.97326 34.0129 3.20839 34.9564 3.20839C35.8999 3.20839 36.6648 3.97326 36.6648 4.91678Z" fill="#008755" stroke="#008755" stroke-width="0.5"/>
<path d="M51 21.6834L42.6777 29.1129H28.6182H10.622L2 21.6834" stroke="#008755" stroke-width="3" stroke-linecap="round"/>
</svg>
