<svg width="44" height="47" viewBox="0 0 44 47" fill="none" xmlns="http://www.w3.org/2000/svg">
<path d="M42.3023 10.7656H33.4419H17.5349C16.7674 10.7656 16.1395 11.3935 16.1395 12.161V13.4168C12.7907 13.4168 8.46512 13.4168 3.5814 13.4168C2.18605 13.4168 1 14.5331 1 15.9982C1 17.4633 2.11628 18.5796 3.5814 18.5796H7.34884V30.2307L4.34884 42.5098C4 43.8354 4.83721 45.2307 6.23256 45.5796C7.55814 45.9284 8.95349 45.0912 9.30233 43.6959L12.3023 31.4168H13.2791L14.1163 43.1377C14.186 44.4633 15.3023 45.5098 16.6279 45.5098C18.093 45.5098 19.2791 44.254 19.2093 42.7889L18.3023 30.2307V21.2307L20.9535 24.5098C22 25.8354 24.1628 25.7656 25.1395 24.2307L29.3953 17.254C29.7442 16.6959 29.814 16.068 29.7442 15.44H33.4419C33.8605 15.44 34.1395 15.161 34.1395 14.7424V12.0912H42.3023C42.7209 12.0912 43 11.8121 43 11.3935C43 10.9749 42.7209 10.7656 42.3023 10.7656ZM28.2093 16.5563L23.9535 23.5331C23.5349 24.2307 22.5581 24.2307 22.0698 23.6726L18.1628 18.8586C17.7442 18.3703 16.907 18.6493 16.907 19.2773V30.3005L17.814 42.9284C17.8837 43.6261 17.3256 44.1842 16.6279 44.1842C16 44.1842 15.5116 43.6959 15.4419 43.1377L14.5349 30.7889C14.5349 30.44 14.186 30.161 13.8372 30.161H11.6744C11.3954 30.161 11.0465 30.3703 10.9767 30.7191L7.83721 43.5563C7.69767 44.1842 7 44.5331 6.44186 44.3935C5.81395 44.254 5.46512 43.6261 5.60465 42.9982L8.60465 30.5796C8.60465 30.5098 8.60465 30.44 8.60465 30.44V17.8121C8.60465 17.3935 8.32558 17.1145 7.90698 17.1145H3.5814C2.95349 17.1145 2.39535 16.6261 2.39535 15.9284C2.39535 15.2307 2.88372 14.7424 3.5814 14.7424H17.3953C17.5349 14.8121 17.8837 14.8121 18.2326 15.161L22.2093 20.1145C22.5581 20.5331 23.1163 20.4633 23.3256 20.0447L26.2558 15.3005C26.6047 14.7424 27.3023 14.6028 27.8605 14.9517C28.3488 15.3005 28.4884 15.9982 28.2093 16.5563ZM20.186 15.44H24.5116L22.6279 18.44L20.186 15.44ZM32.7442 14.0447H28.9767C28.8372 13.9052 28.6977 13.8354 28.5581 13.6959C27.5814 13.068 26.3256 13.2773 25.4884 14.0447H19C18.7209 13.7656 18.3721 13.5563 17.9535 13.4866C17.7442 13.347 17.6047 13.4168 17.5349 13.4168V12.161H32.7442V14.0447Z" fill="#008755" stroke="#008755"/>
<path d="M12.5812 10.1395C15.0928 10.1395 17.1859 8.11628 17.1859 5.53488C17.1859 2.95349 15.0928 1 12.5812 1C10.0696 1 7.97656 3.02326 7.97656 5.53488C7.97656 8.04651 10.0696 10.1395 12.5812 10.1395ZM12.5812 2.39535C14.3254 2.39535 15.7905 3.7907 15.7905 5.60465C15.7905 7.4186 14.3952 8.81395 12.5812 8.81395C10.7673 8.81395 9.37191 7.4186 9.37191 5.60465C9.37191 3.7907 10.837 2.39535 12.5812 2.39535Z" fill="#008755" stroke="#008755"/>
</svg>
