<svg width="42" height="48" viewBox="0 0 42 48" fill="none" xmlns="http://www.w3.org/2000/svg">
<path d="M37.5165 0.729989C33.6297 -1.08241 29.0168 0.595652 27.2038 4.48354C26.8025 5.34395 26.5741 6.24137 26.5026 7.13655C25.658 6.95712 24.7804 7.01485 23.9525 7.31625C23.0633 7.64024 19.4566 10.6716 14.0901 14.9223L9.61055 12.8335L10.2664 11.4268C10.6286 10.65 10.2925 9.72652 9.51572 9.36423C8.73898 9.00221 7.81544 9.3381 7.45315 10.115L6.79727 11.5216L5.39058 10.8657C4.61384 10.5036 3.6903 10.8396 3.32801 11.6164C2.96581 12.3933 3.30179 13.3167 4.07872 13.679L5.48541 14.3349L4.82952 15.7416C4.46732 16.5184 4.80349 17.4419 5.58023 17.8042C6.35762 18.1666 7.2807 17.83 7.6428 17.0534L8.29869 15.6468L11.3629 17.0757C9.72387 18.7383 9.55096 21.3756 11.0292 23.2146L17.8671 31.8514L15.8057 36.2721L2.20831 29.9316C1.43148 29.5694 0.508127 29.9053 0.145741 30.6824C-0.216459 31.4592 0.11971 32.3826 0.896451 32.7449C25.8846 44.3972 18.8731 41.0984 31.5675 47.1574C31.5716 47.1594 31.5758 47.1613 31.58 47.1634C33.907 48.2486 36.6828 47.2379 37.7677 44.9113C38.1299 44.1344 37.7939 43.211 37.017 42.8486C36.24 42.4867 35.3167 42.8224 34.9543 43.5993C34.5936 44.3732 33.672 44.7099 32.8973 44.3526L24.2392 40.2202L27.5192 33.1861C27.5211 33.1822 27.523 33.1782 27.5249 33.1742C28.2724 31.5709 28.0537 29.7143 26.9541 28.3286L23.2553 23.6677L24.0815 23.0067C25.7801 23.7988 26.0311 23.9157 32.2108 26.7973C34.541 27.8839 37.3161 26.8667 38.3984 24.5451C39.483 22.2191 38.4724 19.4422 36.1462 18.3576L32.284 16.5566L31.7606 15.1185C35.4596 16.3716 39.582 14.663 41.2701 11.0428C43.0825 7.1557 41.404 2.54266 37.5165 0.729989ZM24.5228 30.258C24.8665 30.6911 24.9706 31.2848 24.7115 31.8627L21.432 38.8957L18.6188 37.5839L21.0849 32.295C21.3331 31.7627 21.2597 31.1361 20.8952 30.6758C20.8909 30.6704 13.4544 21.2771 13.45 21.2718C12.9308 20.6284 13.038 19.6618 13.7279 19.1144C13.7981 19.0588 14.0712 18.8433 14.4836 18.531C17.5551 19.9632 18.1322 20.2323 20.9424 21.5427L20.1091 22.2093C19.4415 22.7433 19.3314 23.7164 19.8628 24.3861L24.5228 30.258ZM34.8347 21.1709C35.6045 21.5298 35.9457 22.4607 35.5854 23.2334V23.2334C35.226 24.0045 34.2942 24.3439 33.5228 23.9842L27.8965 21.3606C27.5238 21.1868 27.2397 20.8783 27.0742 20.4677L26.7367 19.5404C26.3748 18.5462 25.143 18.197 24.3135 18.8554L23.6513 19.381C23.1524 19.1484 20.5387 17.9295 17.2328 16.3881C19.6144 14.485 24.2236 10.7626 25.102 10.2044C25.466 10.0957 25.8555 10.1253 26.2087 10.2901C26.5905 10.4681 26.8786 10.7801 27.02 11.1686L29.5873 18.2225C29.7282 18.6093 30.0168 18.9243 30.3899 19.0984L34.8347 21.1709ZM38.4567 9.7307C37.3693 12.0627 34.6014 13.0706 32.2692 11.9829C29.9423 10.898 28.932 8.12219 30.0169 5.79531C31.1002 3.47252 33.8625 2.45109 36.2046 3.54318C38.537 4.63089 39.5444 7.39825 38.4567 9.7307Z" fill="#008755"/>
</svg>
