<svg width="30" height="30" viewBox="0 0 30 30" fill="none" xmlns="http://www.w3.org/2000/svg">
<g clip-path="url(#clip0_1129_7627)">
<path d="M28.9443 14.9994C29.4076 14.4598 29.7323 13.8154 29.8901 13.122C30.048 12.4286 30.0343 11.7071 29.8502 11.0202C29.6662 10.3333 29.3173 9.70165 28.8338 9.18009C28.3503 8.65853 27.7469 8.26281 27.0759 8.02724C27.2074 7.32831 27.1664 6.60786 26.9564 5.92839C26.7463 5.24891 26.3737 4.63094 25.8708 4.12808C25.3679 3.62523 24.7499 3.25268 24.0704 3.04276C23.3909 2.83284 22.6704 2.79188 21.9715 2.92345C21.7361 2.25228 21.3405 1.64871 20.8189 1.16514C20.2973 0.681571 19.6656 0.332619 18.9786 0.148581C18.2916 -0.0354579 17.57 -0.0490197 16.8766 0.109072C16.1831 0.267165 15.5387 0.592133 14.9994 1.05576C14.4598 0.592452 13.8154 0.267777 13.122 0.109903C12.4286 -0.0479711 11.7071 -0.0342755 11.0202 0.149801C10.3333 0.333877 9.70161 0.682775 9.18006 1.16623C8.6585 1.64968 8.26278 2.25308 8.02722 2.9241C7.32833 2.79274 6.60795 2.83388 5.92857 3.04395C5.24918 3.25401 4.6313 3.62665 4.12853 4.12956C3.62576 4.63246 3.25327 5.25043 3.04338 5.92987C2.83349 6.60931 2.79254 7.32969 2.92407 8.02854C2.25306 8.26411 1.64965 8.65983 1.1662 9.18139C0.682743 9.70294 0.333844 10.3346 0.149768 11.0215C-0.0343088 11.7084 -0.0480064 12.4299 0.109867 13.1233C0.267741 13.8167 0.592423 14.4611 1.05573 15.0007C0.592281 15.5402 0.2675 16.1847 0.109582 16.8781C-0.0483369 17.5716 -0.0346275 18.2932 0.149529 18.9802C0.333686 19.6672 0.682721 20.2988 1.16634 20.8203C1.64996 21.3418 2.25355 21.7374 2.92472 21.9728C2.79307 22.6717 2.83398 23.3921 3.0439 24.0716C3.25381 24.7511 3.62639 25.369 4.12929 25.8719C4.63219 26.3747 5.25022 26.7472 5.92972 26.957C6.60922 27.1669 7.32966 27.2077 8.02852 27.076C8.26408 27.747 8.6598 28.3504 9.18136 28.8338C9.70292 29.3173 10.3346 29.6662 11.0215 29.8503C11.7084 30.0343 12.4299 30.048 13.1233 29.8902C13.8167 29.7323 14.4611 29.4076 15.0007 28.9443C15.5402 29.4077 16.1846 29.7325 16.8781 29.8904C17.5716 30.0484 18.2932 30.0346 18.9801 29.8505C19.6671 29.6663 20.2988 29.3173 20.8203 28.8337C21.3418 28.3501 21.7374 27.7465 21.9728 27.0753C22.6717 27.2069 23.3921 27.166 24.0716 26.9561C24.7511 26.7461 25.3691 26.3736 25.872 25.8707C26.3748 25.3678 26.7474 24.7498 26.9573 24.0703C27.1673 23.3909 27.2082 22.6704 27.0766 21.9715C27.7476 21.736 28.3511 21.3403 28.8346 20.8187C29.3181 20.2971 29.6669 19.6655 29.851 18.9785C30.035 18.2915 30.0486 17.57 29.8906 16.8766C29.7326 16.1832 29.4077 15.5388 28.9443 14.9994Z" fill="white"/>
<path d="M12.3075 20.7254L8.13914 16.5597C7.98095 16.4013 7.89209 16.1865 7.89209 15.9626C7.89209 15.7387 7.98095 15.524 8.13914 15.3655L8.64556 14.8584C8.80401 14.7003 9.01875 14.6114 9.24265 14.6114C9.46655 14.6114 9.68131 14.7003 9.83976 14.8584L12.8698 17.8865L20.0057 10.3033C20.1593 10.1404 20.3712 10.0451 20.595 10.0382C20.8188 10.0314 21.0361 10.1137 21.1993 10.2669L21.7194 10.7577C21.8825 10.9113 21.9779 11.1234 21.9848 11.3473C21.9916 11.5712 21.9092 11.7887 21.7558 11.9519L13.5218 20.7066C13.4443 20.7892 13.3509 20.8554 13.2473 20.9012C13.1437 20.9471 13.0319 20.9716 12.9186 20.9733C12.8054 20.9751 12.6929 20.9541 12.5879 20.9115C12.4829 20.8689 12.3875 20.8056 12.3075 20.7254Z" fill="#26D07C"/>
</g>
<defs>
<clipPath id="clip0_1129_7627">
<rect width="30" height="30" fill="white"/>
</clipPath>
</defs>
</svg>
