<svg width="42" height="42" viewBox="0 0 42 42" fill="none" xmlns="http://www.w3.org/2000/svg">
<g clip-path="url(#clip0_176_2525)">
<path d="M37.7597 33.4391L37.611 33.3968C35.4385 32.8123 34.704 32.2521 33.7375 31.8842C30.3064 30.5769 29.413 29.6361 29.1849 29.1902C29.1771 29.1747 29.1707 29.1568 29.1644 29.1414L29.1425 26.2036C30.9023 25.7588 31.8201 25.3115 31.8944 25.2756C32.1918 25.127 32.3802 24.8244 32.3802 24.4912V20.1142H34.1311C34.6143 20.1142 35.0065 19.7227 35.0065 19.2388V12.236C35.0065 11.6259 34.904 8.42929 32.889 5.41274C31.8137 3.80221 30.3782 2.52819 28.6221 1.62587C26.524 0.546606 23.9592 0 20.9997 0C18.0403 0 15.4754 0.546606 13.3772 1.62587C11.6213 2.52819 10.1857 3.80221 9.11031 5.41274C7.09542 8.42986 6.99287 11.6259 6.99287 12.236V19.2388C6.99287 19.7226 7.38509 20.1142 7.86828 20.1142H9.61918V24.4912C9.61918 24.8244 9.80761 25.127 10.105 25.2756C10.1792 25.3116 11.0971 25.7589 12.8568 26.2036L12.8356 29.1414C12.8286 29.1568 12.8222 29.1747 12.8138 29.1902C12.7453 29.3233 12.6172 29.5028 12.3787 29.7207C12.3685 29.7284 12.3582 29.7348 12.3486 29.7425C12.3076 29.7746 12.2704 29.8079 12.2371 29.8464C11.6334 30.3488 10.4766 31.041 8.26246 31.8843C7.29542 32.2521 6.56096 32.8123 4.38839 33.3969L4.23909 33.4392C2.26202 34.093 0.931641 35.927 0.931641 37.9957V42H10.4946H20.9997H31.5048H41.0678V37.9957C41.0678 35.927 39.7374 34.0929 37.7597 33.4391ZM30.6294 19.2388V23.9107C30.2115 24.0708 29.5284 24.3041 28.585 24.5361C27.5366 24.7938 26.0113 25.086 24.0464 25.245L28.6081 13.1115H30.6294V19.2388ZM20.9997 27.1175C23.0659 27.1175 24.8372 26.9675 26.3164 26.7547C25.4794 27.6059 24.581 28.3237 23.6837 28.8569C22.6787 29.4528 21.7252 29.781 20.9997 29.781C20.2743 29.781 19.3213 29.4528 18.317 28.8569C17.4186 28.3237 16.5208 27.6059 15.6831 26.7547C17.1622 26.9675 18.9335 27.1175 20.9997 27.1175ZM20.5005 25.3629L25.1077 13.1115H26.7394L22.1367 25.3501C21.7689 25.3604 21.3907 25.3668 20.9998 25.3668C20.8306 25.3667 20.6652 25.3655 20.5005 25.3629ZM20.9996 31.5319C22.8888 31.5319 25.2985 30.227 27.4057 28.1416L27.4135 29.1543L27.416 29.5233L27.5621 29.8476C27.5737 29.8758 27.5967 29.9283 27.6275 29.9898C27.707 30.1437 27.8031 30.2949 27.9145 30.441C27.5903 30.7589 27.1084 31.1819 26.4816 31.5998C26.0381 31.897 25.5805 32.1534 25.1101 32.37H16.8776V32.3701C16.4073 32.1535 15.9497 31.8971 15.5055 31.5999C14.8826 31.1846 14.4038 30.7654 14.079 30.4475C14.1917 30.3001 14.2904 30.1488 14.3705 29.9925C14.4026 29.9296 14.4257 29.8758 14.4385 29.8464L14.5839 29.5233L14.5865 29.1543L14.5935 28.1416C16.7014 30.227 19.111 31.5319 20.9996 31.5319ZM33.2556 18.3634H32.3802V13.1114H33.2556V18.3634ZM9.61926 18.3634H8.74385V13.1114H9.61926V18.3634ZM8.79955 11.3605C8.92253 10.2423 9.31605 8.25685 10.5664 6.38495C12.6204 3.30999 16.1305 1.75073 20.9997 1.75073C25.869 1.75073 29.3797 3.30999 31.4331 6.38487C32.684 8.25677 33.0762 10.2423 33.1992 11.3605H31.5048H10.4946H8.79955ZM11.3701 23.9107V19.2388V13.1115H23.2376L18.6554 25.2962C16.349 25.154 14.5853 24.8245 13.4144 24.5361C12.4711 24.3041 11.7872 24.0708 11.3701 23.9107ZM9.61918 34.9964V40.2489H2.68245V37.9957C2.68245 36.691 3.51627 35.5347 4.76084 35.1118L4.85887 35.0835C6.49623 34.6426 7.39994 34.2095 8.12596 33.8609C8.40734 33.7276 8.65025 33.6109 8.88602 33.5199C10.1063 33.0559 11.6136 32.4227 12.7768 31.6256C12.9927 31.842 13.2676 32.0971 13.5996 32.3701H12.2455C10.7978 32.3701 9.61918 33.5481 9.61918 34.9964ZM30.6294 40.2489H20.9997H11.3701V34.9964C11.3701 34.5145 11.7629 34.1211 12.2455 34.1211H29.754C30.2359 34.1211 30.6294 34.5145 30.6294 34.9964V40.2489ZM32.3802 40.2489V34.9964C32.3802 33.5482 31.2023 32.3701 29.7539 32.3701H28.3876C28.7221 32.0946 28.9977 31.8382 29.2156 31.6204C30.3795 32.4201 31.8906 33.0545 33.1146 33.5212C33.3504 33.6109 33.5914 33.7276 33.8734 33.8609C34.5989 34.2095 35.5038 34.6426 37.1406 35.0835L37.2392 35.1118C38.4824 35.5347 39.3169 36.691 39.3169 37.9957V40.2489H32.3802Z" fill="#008755"/>
<path d="M27.9935 36.7461H13.9868C13.503 36.7461 13.1113 37.1381 13.1113 37.6214C13.1113 38.1047 13.5029 38.4969 13.9868 38.4969H27.9935C28.4768 38.4969 28.8677 38.1047 28.8677 37.6214C28.8677 37.1381 28.4768 36.7461 27.9935 36.7461Z" fill="#008755"/>
</g>
<defs>
<clipPath id="clip0_176_2525">
<rect width="42" height="42" fill="white"/>
</clipPath>
</defs>
</svg>
