<svg width="42" height="33" viewBox="0 0 42 33" fill="none" xmlns="http://www.w3.org/2000/svg">
<path d="M1.56707 25.1126C9.43713 22.8754 14.8451 23.9705 20.4294 25.1012C26.1707 26.2638 32.0984 27.464 41.0799 25.1196C41.7374 24.948 42.1313 24.2758 41.9596 23.6183C41.788 22.9608 41.1158 22.567 40.4583 22.7385C36.9799 23.6465 33.965 23.9826 31.2347 23.9862L27.6674 18.2366C29.7761 20.8568 33.6952 21.0078 35.9914 18.5661C37.0009 17.4926 37.532 16.0902 37.4869 14.6172C37.3355 9.67946 31.2856 7.46387 27.9537 11.0067C26.3487 12.7135 26.0576 15.1402 26.9612 17.0983L22.08 9.23115L29.3236 7.14092C31.5731 6.4918 32.6362 3.91684 31.4933 1.86877C30.6634 0.38171 28.9409 -0.327204 27.3049 0.144968L16.3387 3.30949C13.4954 4.13004 12.2221 7.43524 13.7833 9.95163L17.0979 15.2938C16.4554 15.6925 15.4379 16.3238 14.2917 17.0349C11.1753 18.9683 7.10863 21.4913 7.04979 21.5321C5.14757 21.7331 3.11041 22.1155 0.894334 22.7455C0.24071 22.9313 -0.138603 23.6118 0.047198 24.2655C0.232917 24.9193 0.913693 25.2984 1.56707 25.1126ZM29.7463 12.6928C30.9046 11.4612 32.8381 11.4053 34.0662 12.5602C35.2965 13.7173 35.356 15.6496 34.1988 16.8802C33.0419 18.1103 31.1094 18.1699 29.8789 17.0127C28.6485 15.8556 28.5891 13.9233 29.7463 12.6928ZM19.8376 15.042L15.8744 8.65431C15.1744 7.52613 15.7443 6.04244 17.0208 5.67404L27.987 2.50952C28.5175 2.35628 29.0753 2.58622 29.3443 3.06807C29.7154 3.73309 29.3686 4.56653 28.6412 4.77645L19.8367 7.3172C19.0531 7.54336 18.7031 8.45637 19.1323 9.14814L28.2613 23.8614C25.6181 23.6395 23.203 23.1528 20.7899 22.6664C17.9616 22.0964 15.1359 21.5269 11.9485 21.385L19.4408 16.7362C20.0182 16.378 20.1959 15.6194 19.8376 15.042Z" fill="#008755"/>
<path d="M1.56707 25.1126C9.43713 22.8754 14.8451 23.9705 20.4294 25.1012C26.1707 26.2638 32.0984 27.464 41.0799 25.1196C41.7374 24.948 42.1313 24.2758 41.9596 23.6183C41.788 22.9608 41.1158 22.567 40.4583 22.7385C36.9799 23.6465 33.965 23.9826 31.2347 23.9862L27.6674 18.2366C29.7761 20.8568 33.6952 21.0078 35.9914 18.5661C37.0009 17.4926 37.532 16.0902 37.4869 14.6172C37.3355 9.67946 31.2856 7.46387 27.9537 11.0067C26.3487 12.7135 26.0576 15.1402 26.9612 17.0983L22.08 9.23115L29.3236 7.14092C31.5731 6.4918 32.6362 3.91684 31.4933 1.86877C30.6634 0.38171 28.9409 -0.327204 27.3049 0.144968L16.3387 3.30949C13.4954 4.13004 12.2221 7.43524 13.7833 9.95163L17.0979 15.2938C16.4554 15.6925 15.4379 16.3238 14.2917 17.0349C11.1753 18.9683 7.10863 21.4913 7.04979 21.5321C5.14757 21.7331 3.11041 22.1155 0.894334 22.7455C0.24071 22.9313 -0.138603 23.6118 0.047198 24.2655C0.232917 24.9193 0.913693 25.2984 1.56707 25.1126ZM29.7463 12.6928C30.9046 11.4612 32.8381 11.4053 34.0662 12.5602C35.2965 13.7173 35.356 15.6496 34.1988 16.8802C33.0419 18.1103 31.1094 18.1699 29.8789 17.0127C28.6485 15.8556 28.5891 13.9233 29.7463 12.6928ZM19.8376 15.042L15.8744 8.65431C15.1744 7.52613 15.7443 6.04244 17.0208 5.67404L27.987 2.50952C28.5175 2.35628 29.0753 2.58622 29.3443 3.06807C29.7154 3.73309 29.3686 4.56653 28.6412 4.77645L19.8367 7.3172C19.0531 7.54336 18.7031 8.45637 19.1323 9.14814L28.2613 23.8614C25.6181 23.6395 23.203 23.1528 20.7899 22.6664C17.9616 22.0964 15.1359 21.5269 11.9485 21.385L19.4408 16.7362C20.0182 16.378 20.1959 15.6194 19.8376 15.042Z" stroke="white"/>
<path d="M40.4585 28.4811C32.0507 30.6759 26.3499 29.5297 20.7057 28.3949C14.9703 27.2418 9.29344 26.1005 0.894334 28.4881C0.24071 28.6739 -0.138603 29.3545 0.047198 30.0082C0.232999 30.6619 0.913776 31.0412 1.56724 30.8553C9.4373 28.6181 14.8452 29.7131 20.4295 30.8439C26.1708 32.0064 32.0986 33.2067 41.08 30.8623C41.7376 30.6907 42.1314 30.0184 41.9598 29.3609C41.7882 28.7034 41.116 28.3096 40.4585 28.4811Z" fill="#008755"/>
<path d="M40.4585 28.4811C32.0507 30.6759 26.3499 29.5297 20.7057 28.3949C14.9703 27.2418 9.29344 26.1005 0.894334 28.4881C0.24071 28.6739 -0.138603 29.3545 0.047198 30.0082C0.232999 30.6619 0.913776 31.0412 1.56724 30.8553C9.4373 28.6181 14.8452 29.7131 20.4295 30.8439C26.1708 32.0064 32.0986 33.2067 41.08 30.8623C41.7376 30.6907 42.1314 30.0184 41.9598 29.3609C41.7882 28.7034 41.116 28.3096 40.4585 28.4811Z" stroke="white"/>
</svg>
