<svg width="44" height="44" viewBox="0 0 44 44" fill="none" xmlns="http://www.w3.org/2000/svg">
<path d="M12.9981 12.9795C12.9981 11.793 12.6463 10.6332 11.9871 9.64664C11.3279 8.66009 10.391 7.89118 9.29482 7.43712C8.19863 6.98307 6.99242 6.86427 5.82871 7.09574C4.66501 7.32722 3.59608 7.89857 2.75709 8.73756C1.9181 9.57654 1.34675 10.6455 1.11527 11.8092C0.883798 12.9729 1.0026 14.1791 1.45665 15.2753C1.91071 16.3715 2.67963 17.3084 3.66617 17.9676C4.65271 18.6268 5.81257 18.9786 6.99907 18.9786C8.59013 18.9786 10.116 18.3466 11.2411 17.2215C12.3661 16.0965 12.9981 14.5706 12.9981 12.9795ZM6.99907 15.9791C6.40582 15.9791 5.82589 15.8032 5.33262 15.4736C4.83935 15.144 4.45489 14.6755 4.22786 14.1274C4.00084 13.5793 3.94144 12.9762 4.05717 12.3944C4.17291 11.8125 4.45859 11.278 4.87808 10.8586C5.29757 10.4391 5.83204 10.1534 6.41389 10.0376C6.99575 9.9219 7.59885 9.9813 8.14695 10.2083C8.69504 10.4354 9.1635 10.8198 9.4931 11.3131C9.82269 11.8064 9.99861 12.3863 9.99861 12.9795C9.99861 13.7751 9.68259 14.538 9.12007 15.1005C8.55754 15.6631 7.7946 15.9791 6.99907 15.9791Z" fill="#008755" stroke="white" stroke-width="0.2"/>
<path d="M42.1205 4.72993C41.6076 4.26356 40.9444 3.99664 40.2515 3.97765C39.5585 3.95866 38.8817 4.18887 38.3441 4.62645L26.2304 14.5249C25.9184 14.7676 25.5424 14.9141 25.1484 14.9463C24.7544 14.9785 24.3596 14.8952 24.0123 14.7064L20.8898 12.9937C19.7145 12.3523 18.3334 12.2014 17.0474 12.5737C16.4461 12.7429 15.8846 13.03 15.3954 13.4183C14.9062 13.8065 14.4991 14.2883 14.1978 14.8354L12.0291 18.8188C11.5216 19.7602 11.3756 20.8548 11.6187 21.8963C11.8617 22.9379 12.4771 23.8548 13.3489 24.4744L16.6484 26.8965L15.945 27.8804C15.8018 28.0845 15.6092 28.2492 15.3853 28.359C15.1614 28.4689 14.9134 28.5204 14.6642 28.5088C14.4296 28.5041 14.1996 28.4427 13.9938 28.3299C13.788 28.2171 13.6125 28.0562 13.4824 27.8609L11.3287 23.738C11.2409 23.5581 11.1178 23.3976 10.9669 23.266C10.816 23.1344 10.6403 23.0344 10.4501 22.9718C10.2599 22.9092 10.0591 22.8853 9.85951 22.9015C9.65994 22.9178 9.46565 22.9738 9.28809 23.0664C9.11052 23.1589 8.95329 23.2861 8.82565 23.4403C8.69802 23.5946 8.60257 23.7729 8.54493 23.9646C8.48729 24.1564 8.46863 24.3577 8.49005 24.5568C8.51148 24.7559 8.57255 24.9487 8.66966 25.1238L10.8593 29.3231C11.2426 29.9636 11.7796 30.4984 12.4218 30.8789C13.0639 31.2594 13.7909 31.4737 14.5368 31.5023H14.7182C15.4344 31.5029 16.1402 31.332 16.7769 31.0041C17.4135 30.6761 17.9624 30.2005 18.3777 29.6171L23.2174 22.8411C23.4365 22.5171 23.5203 22.1204 23.4511 21.7355C23.3818 21.3505 23.1649 21.0079 22.8467 20.7806C22.5284 20.5533 22.1339 20.4593 21.7473 20.5187C21.3608 20.578 21.0127 20.7861 20.7773 21.0984L18.3852 24.4459L15.1262 22.0463C14.8381 21.8584 14.6308 21.5693 14.5453 21.2362C14.4598 20.903 14.5022 20.5499 14.6642 20.2465L16.8284 16.2646C16.9418 16.0656 17.0937 15.8911 17.2753 15.7512C17.4568 15.6114 17.6643 15.5091 17.8857 15.4503C18.4048 15.2996 18.9622 15.3588 19.438 15.6152L22.556 17.3355C23.4282 17.8134 24.4224 18.0223 25.4132 17.9358C26.404 17.8493 27.3469 17.4714 28.1231 16.8496L38.803 8.00093L29.5224 19.2612C27.5934 21.6038 26.3479 24.4332 25.923 27.4379L24.1803 39.736C24.1263 39.7892 24.0623 39.8312 23.9919 39.8595C23.9216 39.8877 23.8463 39.9017 23.7706 39.9006C23.6948 39.8995 23.62 39.8833 23.5505 39.853C23.481 39.8226 23.4183 39.7788 23.3659 39.724L22.2861 30.7869C22.2383 30.3919 22.0356 30.0321 21.7226 29.7865C21.4096 29.541 21.0118 29.4299 20.6168 29.4776C20.2218 29.5253 19.862 29.728 19.6165 30.0411C19.3709 30.3541 19.2598 30.7519 19.3075 31.1468L20.3873 40.0855C20.5178 40.8755 20.9202 41.5952 21.5251 42.12C22.1299 42.6448 22.8991 42.9417 23.6996 42.9595C24.5002 42.9773 25.2818 42.7148 25.9093 42.2174C26.5369 41.72 26.9709 41.0189 27.1363 40.2354L28.8925 27.8594C29.2413 25.3997 30.2621 23.0841 31.8426 21.1674L42.4909 8.24689C42.8776 7.71958 43.0539 7.06711 42.9854 6.41682C42.9169 5.76654 42.6085 5.16511 42.1205 4.72993Z" fill="#008755" stroke="white" stroke-width="0.2"/>
<path d="M20.2858 11.6497C20.6821 11.6496 21.0622 11.4927 21.3431 11.2133L29.0534 3.54497C29.3276 3.26291 29.4799 2.88445 29.4776 2.49115C29.4754 2.09785 29.3187 1.72117 29.0414 1.44228C28.764 1.16338 28.3883 1.00458 27.995 1.0001C27.6017 0.995613 27.2224 1.1458 26.9388 1.4183L19.2285 9.08061C19.0159 9.28969 18.8704 9.5574 18.8107 9.84954C18.7509 10.1417 18.7797 10.445 18.8931 10.7208C19.0066 10.9965 19.1997 11.2322 19.4478 11.3976C19.6959 11.5631 19.9876 11.6509 20.2858 11.6497Z" fill="#008755" stroke="white" stroke-width="0.2"/>
</svg>
