<svg width="42" height="41" viewBox="0 0 42 41" fill="none" xmlns="http://www.w3.org/2000/svg">
<path d="M26.7084 13.2042C23.1665 13.2042 20.1813 10.219 20.1813 6.67712C20.1813 3.13524 23.1665 0.15 26.7084 0.15C30.2503 0.15 33.2355 3.13524 33.2355 6.67712C33.2355 10.219 30.2503 13.2042 26.7084 13.2042ZM26.7084 3.6655C25.0993 3.6655 23.6967 5.06808 23.6967 6.67712C23.6967 8.28617 25.0993 9.68875 26.7084 9.68875C28.3174 9.68875 29.72 8.28617 29.72 6.67712C29.72 5.06808 28.3174 3.6655 26.7084 3.6655Z" fill="#008755" stroke="white" stroke-width="0.3"/>
<path d="M29.8887 37.2791L29.8889 37.2792L29.8922 37.273L36.5676 24.8758C37.1048 23.9836 38.16 23.6445 39.0309 24.1671C39.9253 24.7037 40.2657 25.7603 39.7426 26.6321L39.7424 26.632L39.7391 26.6382L33.0654 39.0322C32.707 39.5667 32.1795 39.9135 31.4771 39.9135C31.2834 39.9135 31.1533 39.9131 31.0248 39.8917C30.9012 39.8711 30.7738 39.8299 30.5955 39.7412C29.7048 39.2036 29.3666 38.1493 29.8887 37.2791Z" fill="#008755" stroke="white" stroke-width="0.3"/>
<path d="M12.7279 28.445L22.0631 22.3486C22.2124 22.2769 22.4108 22.2348 22.6318 22.2127C22.8403 22.1919 23.0507 22.1903 23.2337 22.1901C23.4974 22.2796 23.691 22.3622 23.84 22.474C23.9874 22.5845 24.1017 22.7318 24.1821 22.9731L24.1891 22.9942L24.1998 23.0137L29.923 33.5063L29.9228 33.5064L29.9281 33.5152C30.4184 34.3324 30.1055 35.3303 29.2508 35.8431L29.2244 35.8589L29.2026 35.8807C29.0965 35.9868 29.0181 35.9982 28.6163 35.9982C27.9541 35.9982 27.4564 35.6743 27.1135 35.1648L22.3496 26.3993L22.221 26.1626L21.9945 26.3086L7.4956 35.6566L7.48816 35.6614L7.48107 35.6667C6.83336 36.1525 6.01768 35.9983 5.51855 35.4991C5.02035 35.0009 4.8543 34.1672 5.17972 33.5067L16.6211 14.4378L16.626 14.4295L16.6303 14.4209C16.9578 13.7659 17.6043 13.4307 18.4542 13.6C18.4549 13.6001 18.4555 13.6003 18.4562 13.6004L40.3912 18.3689L40.3912 18.369L40.3953 18.3698C41.2206 18.5348 41.89 19.3639 41.7246 20.3688C41.5579 21.1916 40.731 21.8582 39.7288 21.6946L19.1318 17.1175L18.9554 17.0783L18.8629 17.2335L12.3765 28.1076L12.7279 28.445Z" fill="#008755" stroke="white" stroke-width="0.5"/>
<path d="M40.0627 36.0974H1.90775C1.36951 36.0974 0.932636 35.9186 0.630697 35.6167C0.328758 35.3147 0.15 34.8779 0.15 34.3396C0.15 33.8014 0.328758 33.3645 0.630697 33.0626C0.932636 32.7606 1.36951 32.5819 1.90775 32.5819H40.0627C40.601 32.5819 41.0378 32.7606 41.3398 33.0626C41.6417 33.3645 41.8205 33.8014 41.8205 34.3396C41.8205 34.8779 41.6417 35.3147 41.3398 35.6167C41.0378 35.9186 40.601 36.0974 40.0627 36.0974Z" fill="#008755" stroke="white" stroke-width="0.3"/>
</svg>
