<svg width="16" height="16" viewBox="0 0 16 16" fill="none" xmlns="http://www.w3.org/2000/svg">
<path d="M14.1979 9.27026L13.9018 9.10689C14.0351 8.41286 14.0351 7.70139 13.9018 7.00736L14.1979 6.84399C14.4256 6.71829 14.6252 6.5509 14.7853 6.35138C14.9454 6.15186 15.0628 5.92412 15.1309 5.68116C15.1991 5.4382 15.2165 5.18478 15.1823 4.93537C15.148 4.68596 15.0628 4.44545 14.9315 4.22756C14.8001 4.00967 14.6252 3.81867 14.4167 3.66547C14.2082 3.51227 13.9702 3.39987 13.7163 3.33469C13.4624 3.26951 13.1976 3.25281 12.9369 3.28557C12.6763 3.31832 12.425 3.39988 12.1973 3.52559L11.9005 3.68959C11.34 3.23134 10.6959 2.8761 10.0006 2.64174V2.31437C10.0006 1.80662 9.78983 1.31967 9.41464 0.960636C9.03945 0.601604 8.53058 0.399902 7.99999 0.399902C7.46939 0.399902 6.96053 0.601604 6.58534 0.960636C6.21015 1.31967 5.99937 1.80662 5.99937 2.31437V2.64174C5.30408 2.87694 4.66019 3.23306 4.10012 3.69214L3.80203 3.52686C3.34218 3.27299 2.79577 3.20432 2.28302 3.33597C1.77026 3.46761 1.33315 3.78879 1.06785 4.22883C0.802555 4.66888 0.730797 5.19176 0.868366 5.68243C1.00594 6.17311 1.34156 6.5914 1.80141 6.84527L2.0975 7.00864C1.9642 7.70267 1.9642 8.41414 2.0975 9.10817L1.80141 9.27154C1.34156 9.52541 1.00594 9.94369 0.868366 10.4344C0.730797 10.925 0.802555 11.4479 1.06785 11.888C1.33315 12.328 1.77026 12.6492 2.28302 12.7808C2.79577 12.9125 3.34218 12.8438 3.80203 12.5899L4.09879 12.4259C4.65947 12.8843 5.30381 13.2395 5.99937 13.4738V13.8012C5.99937 14.3089 6.21015 14.7959 6.58534 15.1549C6.96053 15.5139 7.46939 15.7156 7.99999 15.7156C8.53058 15.7156 9.03945 15.5139 9.41464 15.1549C9.78983 14.7959 10.0006 14.3089 10.0006 13.8012V13.4738C10.6959 13.2386 11.3398 12.8825 11.8999 12.4234L12.1979 12.588C12.6578 12.8419 13.2042 12.9106 13.717 12.7789C14.2297 12.6473 14.6668 12.3261 14.9321 11.8861C15.1974 11.446 15.2692 10.9231 15.1316 10.4325C14.994 9.94178 14.6584 9.52349 14.1986 9.26962L14.1979 9.27026ZM12.4987 6.86058C12.7245 7.64364 12.7245 8.47061 12.4987 9.25367C12.4593 9.38996 12.4683 9.53492 12.5243 9.66579C12.5803 9.79666 12.6801 9.90602 12.8081 9.9767L13.531 10.3762C13.6843 10.4608 13.7961 10.6002 13.842 10.7638C13.8878 10.9273 13.8639 11.1016 13.7754 11.2482C13.687 11.3949 13.5413 11.5019 13.3704 11.5458C13.1995 11.5896 13.0174 11.5667 12.8642 11.4821L12.1399 11.0813C12.0118 11.0103 11.8627 10.9821 11.716 11.0012C11.5693 11.0203 11.4334 11.0855 11.3297 11.1866C10.7361 11.7665 9.98832 12.1802 9.16701 12.3832C9.02366 12.4184 8.89664 12.4984 8.80597 12.6103C8.71529 12.7223 8.66612 12.8599 8.66619 13.0016V13.8012C8.66619 13.9704 8.59593 14.1327 8.47087 14.2524C8.34581 14.3721 8.17619 14.4393 7.99932 14.4393C7.82246 14.4393 7.65283 14.3721 7.52777 14.2524C7.40271 14.1327 7.33245 13.9704 7.33245 13.8012V13.0022C7.33252 12.8605 7.28335 12.7229 7.19268 12.6109C7.102 12.499 6.97498 12.4191 6.83163 12.3838C6.01027 12.18 5.2627 11.7654 4.66963 11.1847C4.56595 11.0836 4.43005 11.0184 4.28335 10.9993C4.13665 10.9802 3.98749 11.0084 3.85938 11.0794L3.13649 11.4796C3.06062 11.5221 2.9767 11.5499 2.88956 11.5613C2.80243 11.5727 2.7138 11.5675 2.62877 11.546C2.54374 11.5245 2.464 11.4871 2.39414 11.436C2.32428 11.3848 2.26567 11.321 2.2217 11.2481C2.17772 11.1752 2.14925 11.0947 2.13791 11.0113C2.12658 10.9278 2.1326 10.843 2.15565 10.7618C2.17869 10.6806 2.21829 10.6045 2.27218 10.538C2.32606 10.4715 2.39316 10.4159 2.46962 10.3743L3.19251 9.97478C3.32051 9.90411 3.42036 9.79475 3.47637 9.66388C3.53237 9.53301 3.54137 9.38804 3.50194 9.25175C3.2761 8.4687 3.2761 7.64173 3.50194 6.85867C3.54066 6.72267 3.53124 6.57822 3.47514 6.44789C3.41904 6.31755 3.31942 6.20865 3.19184 6.13819L2.46895 5.73871C2.3157 5.65408 2.20385 5.51467 2.15801 5.35113C2.11218 5.18759 2.13611 5.01332 2.22454 4.86667C2.31298 4.72001 2.45867 4.61298 2.62956 4.56912C2.80046 4.52526 2.98257 4.54816 3.13582 4.63279L3.86005 5.03355C3.98781 5.10471 4.13665 5.13323 4.2832 5.11464C4.42974 5.09604 4.56567 5.03137 4.66963 4.9308C5.2632 4.35094 6.01099 3.93721 6.83229 3.73426C6.97609 3.69889 7.10344 3.6186 7.19416 3.50612C7.28488 3.39365 7.33378 3.25542 7.33312 3.11334V2.31437C7.33312 2.14512 7.40338 1.9828 7.52844 1.86312C7.6535 1.74345 7.82312 1.67621 7.99999 1.67621C8.17685 1.67621 8.34648 1.74345 8.47154 1.86312C8.5966 1.9828 8.66686 2.14512 8.66686 2.31437V3.11334C8.66679 3.25498 8.71596 3.39262 8.80663 3.50458C8.89731 3.61653 9.02433 3.69644 9.16768 3.73171C9.98927 3.93538 10.7371 4.35001 11.3303 4.9308C11.434 5.03193 11.5699 5.09717 11.7166 5.11623C11.8633 5.13529 12.0125 5.1071 12.1406 5.0361L12.8635 4.63598C12.9394 4.59341 13.0233 4.56563 13.1104 4.55423C13.1975 4.54283 13.2862 4.54803 13.3712 4.56955C13.4562 4.59106 13.536 4.62845 13.6058 4.67957C13.6757 4.73069 13.7343 4.79453 13.7783 4.86742C13.8223 4.9403 13.8507 5.02079 13.8621 5.10425C13.8734 5.18771 13.8674 5.27248 13.8443 5.3537C13.8213 5.43492 13.7817 5.51098 13.7278 5.57749C13.6739 5.64401 13.6068 5.69966 13.5304 5.74126L12.8075 6.14075C12.6801 6.21139 12.5808 6.32037 12.5249 6.45069C12.4691 6.58102 12.4599 6.72536 12.4987 6.86122V6.86058Z" fill="white"/>
</svg>
