<svg width="24" height="25" viewBox="0 0 24 25" fill="none" xmlns="http://www.w3.org/2000/svg">
<path fill-rule="evenodd" clip-rule="evenodd" d="M4.49438 14.3576C9.61294 15.2454 14.7316 15.2155 19.8502 14.3576V7.2415C19.8502 7.16042 19.8239 7.08159 19.7753 7.01678L16.4045 2.5224C16.3338 2.42811 16.2227 2.37256 16.1049 2.37256H5.61798C5.32 2.37256 5.03415 2.49094 4.82346 2.70164C4.61276 2.91242 4.49438 3.19818 4.49438 3.49615V12.1104C4.49438 12.6667 4.36395 13.1381 4.36395 13.514C4.36395 14.0335 4.49438 14.3576 4.49438 14.3576Z" fill="#D8DFE3"/>
<path fill-rule="evenodd" clip-rule="evenodd" d="M2.24719 13.3867V21.4737C2.24719 21.7717 2.36557 22.0575 2.57627 22.2682C2.78697 22.4789 3.07281 22.5973 3.37079 22.5973H20.5993C20.8973 22.5973 21.183 22.4789 21.3938 22.2682C21.6045 22.0575 21.7229 21.7717 21.7229 21.4737C21.7229 20.0386 21.7229 16.9164 21.7229 15.4813C21.7229 15.1833 21.6045 14.8975 21.3938 14.6868C21.183 14.4761 20.8973 14.3577 20.5993 14.3577H3.74535C3.26751 14.3577 2.24719 13.3867 2.24719 13.3867Z" fill="#1FB35B"/>
<path fill-rule="evenodd" clip-rule="evenodd" d="M3.37079 14.3575C3.02886 14.3575 2.77924 14.2188 2.59551 14.0481C2.42265 13.8873 2.24719 13.6041 2.24719 13.2339C2.24719 12.9964 2.36557 12.6501 2.57627 12.4394C2.78697 12.2287 3.07281 12.1104 3.37079 12.1104H4.49438V14.3575C4.49438 14.3575 4.59065 14.3575 3.37079 14.3575Z" fill="#198043"/>
<path fill-rule="evenodd" clip-rule="evenodd" d="M11.6105 12.8596V9.48877H6.74158V12.485C6.74158 12.6919 6.90922 12.8596 7.11614 12.8596H11.6105Z" fill="#1FB35B"/>
<path fill-rule="evenodd" clip-rule="evenodd" d="M11.6105 5.3689H7.11614C6.90922 5.3689 6.74158 5.53654 6.74158 5.74337V8.73968H11.6105V5.3689Z" fill="#1FB35B"/>
<path fill-rule="evenodd" clip-rule="evenodd" d="M17.2285 9.48877H12.3596V12.8596H16.8539C17.0608 12.8596 17.2285 12.6919 17.2285 12.485V9.48877Z" fill="#1FB35B"/>
<path fill-rule="evenodd" clip-rule="evenodd" d="M16.1049 5.3689H12.3596V8.73968H17.2285V7.24153C17.2285 7.03478 17.0607 6.86696 16.8539 6.86696C16.6472 6.86696 16.4794 5.95011 16.4794 5.74337C16.4794 5.53672 16.3116 5.3689 16.1049 5.3689Z" fill="#1FB35B"/>
<path fill-rule="evenodd" clip-rule="evenodd" d="M16.1049 2.37256V6.11791C16.1049 6.41588 16.2233 6.70173 16.434 6.91242C16.6447 7.12312 16.9304 7.2415 17.2285 7.2415H19.8502C19.8502 7.16042 19.8239 7.08159 19.7753 7.01678L16.4045 2.5224C16.3338 2.42811 16.2227 2.37256 16.1049 2.37256Z" fill="#AFBDC7"/>
<path fill-rule="evenodd" clip-rule="evenodd" d="M11.0019 16.6048V20.35C11.0019 20.557 11.1695 20.7246 11.3764 20.7246H13.7172C13.9239 20.7246 14.0918 20.5568 14.0918 20.35C14.0918 20.1434 13.9239 19.9756 13.7172 19.9756H11.7509V16.6048C11.7509 16.398 11.5831 16.2302 11.3764 16.2302C11.1697 16.2302 11.0019 16.398 11.0019 16.6048Z" fill="#D8DFE3"/>
<path fill-rule="evenodd" clip-rule="evenodd" d="M7.25752 20.5966L10.5346 16.8513C10.6708 16.6958 10.655 16.4589 10.4994 16.3228C10.3439 16.1867 10.1071 16.2025 9.97096 16.3581L6.69375 20.1034C6.55766 20.2589 6.57348 20.4958 6.72898 20.6319C6.88458 20.7679 7.12143 20.7522 7.25752 20.5966Z" fill="#D8DFE3"/>
<path fill-rule="evenodd" clip-rule="evenodd" d="M10.5346 20.1034L7.25752 16.3581C7.12143 16.2025 6.88458 16.1867 6.72898 16.3228C6.57348 16.4589 6.55766 16.6958 6.69375 16.8513L9.97096 20.5966C10.1071 20.7522 10.3439 20.7679 10.4994 20.6319C10.655 20.4958 10.6708 20.2589 10.5346 20.1034Z" fill="#D8DFE3"/>
<path fill-rule="evenodd" clip-rule="evenodd" d="M14.2791 19.4161L14.279 19.416V19.6017C14.279 19.8995 14.3973 20.1852 14.6079 20.3957C14.8185 20.6063 15.1041 20.7246 15.4019 20.7246H16.246C16.5438 20.7246 16.8295 20.6063 17.04 20.3957C17.2506 20.1852 17.3689 19.8995 17.3689 19.6017C17.3689 19.5514 17.3689 19.5014 17.3689 19.4527C17.3689 18.9933 17.0892 18.5802 16.6626 18.4095L15.3008 17.8647C15.1361 17.7989 15.028 17.6394 15.028 17.462V17.3538C15.028 17.2545 15.0675 17.1592 15.1378 17.089C15.208 17.0187 15.3033 16.9793 15.4026 16.9793H16.2453C16.3446 16.9793 16.4399 17.0187 16.5101 17.089C16.5804 17.1592 16.6199 17.2545 16.6199 17.3538V17.5388C16.6199 17.6445 16.6666 17.7402 16.7135 17.7887C16.7867 17.8717 16.8917 17.9156 16.9943 17.9156C17.1767 17.9156 17.3689 17.7749 17.3689 17.5388V17.3538C17.3689 17.0558 17.2505 16.77 17.0398 16.5593C16.8291 16.3486 16.5433 16.2302 16.2453 16.2302H15.4026C15.1046 16.2302 14.8188 16.3486 14.6081 16.5593C14.3974 16.77 14.279 17.0558 14.279 17.3538V17.462C14.279 17.9456 14.5735 18.3806 15.0226 18.5602L16.3844 19.105C16.5266 19.1618 16.6199 19.2996 16.6199 19.4527V19.6017C16.6199 19.7009 16.5805 19.796 16.5104 19.8661C16.4403 19.9362 16.3452 19.9756 16.246 19.9756H15.4019C15.3027 19.9756 15.2076 19.9362 15.1375 19.8661C15.0675 19.796 15.0281 19.7009 15.0281 19.6018C15.028 19.6017 15.028 19.6017 15.028 19.416C15.028 19.169 14.8268 19.039 14.6601 19.039C14.5021 19.039 14.279 19.1616 14.279 19.4138C14.279 19.4161 14.2791 19.4161 14.2791 19.4161Z" fill="#D8DFE3"/>
</svg>
